<?xml version="1.0" standalone="no"?>
<!DOCTYPE svg PUBLIC "-//W3C//DTD SVG 1.1//EN" "http://www.w3.org/Graphics/SVG/1.1/DTD/svg11.dtd" >
<svg xmlns="http://www.w3.org/2000/svg" xmlns:xlink="http://www.w3.org/1999/xlink" version="1.1">
<metadata></metadata>
<defs>
<font id="bradesco_sansregular" horiz-adv-x="1200" >
<font-face units-per-em="2048" ascent="1638" descent="-410" />
<missing-glyph horiz-adv-x="522" />
<glyph unicode="&#xfb01;" horiz-adv-x="1286" d="M152 0v1118q0 191 105 297.5t282 106.5q70 0 136 -27t120 -74l-78 -110q-82 63 -180 63q-104 0 -163 -63.5t-59 -177.5v-70h445v-143h-445v-920h-163zM944 1368q0 47 30 77t77 30q45 0 75.5 -30t30.5 -77q0 -45 -30.5 -74.5t-75.5 -29.5t-76 29.5t-31 74.5zM967 0v1065 h163v-1065h-163z" />
<glyph unicode="&#xfb02;" horiz-adv-x="1433" d="M152 0v1118q0 191 105 297.5t282 106.5q70 0 136 -27t120 -74l-78 -110q-82 63 -180 63q-104 0 -163 -63.5t-59 -177.5v-70h445v-143h-445v-920h-163zM971 367v1122l164 33v-1164q0 -111 49 -170t143 -59h47v-141h-65q-164 0 -251 98t-87 281z" />
<glyph horiz-adv-x="0" />
<glyph horiz-adv-x="682" />
<glyph unicode=" "  horiz-adv-x="522" />
<glyph unicode="&#x09;" horiz-adv-x="522" />
<glyph unicode="&#xa0;" horiz-adv-x="522" />
<glyph unicode="!" horiz-adv-x="536" d="M152 100q0 53 31.5 86t82.5 33q53 0 86 -32.5t33 -86.5q0 -51 -33 -84.5t-86 -33.5q-51 0 -82.5 33.5t-31.5 84.5zM178 1384h178l-14 -981h-152z" />
<glyph unicode="&#x22;" horiz-adv-x="833" d="M158 1384h170l-15 -530h-145zM506 1384h170l-12 -530h-146z" />
<glyph unicode="#" horiz-adv-x="1310" d="M115 348l20 129h193l57 406h-195l19 129h194l39 274h146l-39 -274h315l37 274h146l-37 -274h186l-20 -129h-185l-57 -406h186l-20 -129h-187l-41 -291h-143l41 291h-315l-39 -291h-146l39 291h-194zM473 477h315l58 406h-316z" />
<glyph unicode="$" d="M98 209l99 104q166 -172 424 -172q141 0 220 56.5t79 158.5q0 113 -82 169.5t-260 99.5q-229 51 -331 137t-102 254q0 90 49.5 165.5t137.5 126t203 62.5v223l161 37v-264q199 -33 351 -190l-101 -103q-74 74 -164 111t-180 37q-135 0 -215 -55.5t-80 -151.5 q0 -76 37 -119t105.5 -67.5t203.5 -57.5q225 -55 328.5 -153.5t103.5 -249.5q0 -154 -102 -255.5t-287 -119.5v-248l-161 -35v283q-263 27 -437 217z" />
<glyph unicode="%" horiz-adv-x="1951" d="M109 952q0 117 44 208t123.5 142.5t184.5 51.5q158 0 254 -110.5t96 -291.5q0 -119 -44 -211t-124 -143t-182 -51q-160 0 -256 111.5t-96 293.5zM256 952q0 -121 52 -195.5t153 -74.5q96 0 148.5 73.5t52.5 196.5t-51.5 195t-147.5 72q-98 0 -152.5 -73t-54.5 -194z M369 0l1028 1346h184l-1028 -1346h-184zM1141 391q0 117 44 208t124 142.5t184 51.5q158 0 254 -111t96 -291t-96 -292.5t-254 -112.5q-160 0 -256 111.5t-96 293.5zM1288 389q0 -121 52.5 -194.5t152.5 -73.5q96 0 149.5 73.5t53.5 194.5q0 123 -52.5 195.5t-148.5 72.5 q-98 0 -152.5 -73.5t-54.5 -194.5z" />
<glyph unicode="&#x26;" horiz-adv-x="1325" d="M90 377q0 129 78 226t205 161q-66 76 -97.5 145.5t-31.5 149.5q0 100 54 179t149.5 123t214.5 44t213 -48t178 -143l-111 -106q-68 74 -133.5 109.5t-146.5 35.5q-117 0 -188 -57t-71 -152q0 -68 44.5 -130t150.5 -177l66 -71l307 -338q88 133 88 319v72h147v-74 q0 -121 -34.5 -230.5t-98.5 -197.5l199 -217h-195l-106 111q-162 -133 -391 -134q-146 0 -257.5 49.5t-172 140.5t-60.5 210zM252 391q0 -119 97 -192.5t245 -73.5q161 0 278 94l-409 440q-92 -41 -151.5 -108.5t-59.5 -159.5z" />
<glyph unicode="'" horiz-adv-x="483" d="M158 1384h170l-15 -530h-145z" />
<glyph unicode="(" horiz-adv-x="712" d="M150 612q0 244 87 483.5t246 409.5h181q-160 -180 -252.5 -419.5t-92.5 -473.5q0 -233 92.5 -472.5t252.5 -420.5h-181q-161 170 -247 408t-86 485z" />
<glyph unicode=")" horiz-adv-x="712" d="M49 -281q160 183 252 421.5t92 471.5q0 236 -91 474.5t-253 418.5h178q164 -170 250 -407.5t86 -485.5q0 -242 -87 -481.5t-249 -411.5h-178z" />
<glyph unicode="*" horiz-adv-x="751" d="M66 979l196 123l-196 123l73 104l183 -131l-11 221h129l-10 -221l184 131l72 -104l-199 -123l199 -123l-72 -102l-184 131l10 -224h-129l11 224l-183 -131z" />
<glyph unicode="+" d="M170 604v146h358v360h144v-360h358v-146h-358v-360h-144v360h-358z" />
<glyph unicode="," horiz-adv-x="518" d="M47 -242q55 97 96 217.5t56 231.5h168q-12 -119 -58.5 -236.5t-109.5 -212.5h-152z" />
<glyph unicode="-" horiz-adv-x="911" d="M129 526v154h653v-154h-653z" />
<glyph unicode="." horiz-adv-x="518" d="M143 100q0 53 32 86t83 33q53 0 86 -32.5t33 -86.5q0 -51 -33 -84.5t-86 -33.5q-51 0 -83 33.5t-32 84.5z" />
<glyph unicode="/" horiz-adv-x="933" d="M43 -279l674 1784h176l-674 -1784h-176z" />
<glyph unicode="0" horiz-adv-x="1286" d="M109 676q0 195 67.5 351.5t189 246.5t279.5 90q160 0 281 -88t187.5 -245t66.5 -355q0 -203 -66.5 -360.5t-188.5 -246.5t-280 -89q-162 0 -283.5 88t-187 245.5t-65.5 362.5zM274 676q0 -242 98.5 -390.5t272.5 -148.5q113 0 196 67.5t127 189.5t44 282q0 240 -96.5 385 t-268.5 145q-115 0 -200 -68.5t-129 -188.5t-44 -273z" />
<glyph unicode="1" horiz-adv-x="770" d="M82 1087v140l364 119h117v-1346h-166v1176z" />
<glyph unicode="2" horiz-adv-x="1165" d="M109 1153q207 211 469 211q203 0 324.5 -103.5t121.5 -275.5q0 -111 -57.5 -212t-167.5 -210l-422 -411h659v-152h-909v115l520 508q106 106 156.5 184t50.5 154q0 119 -73.5 183t-217.5 64q-96 0 -186 -44t-166 -122z" />
<glyph unicode="3" horiz-adv-x="1146" d="M78 166l104 106q66 -63 160 -100t203 -37q141 0 228 72t87 186q0 119 -86 186.5t-235 67.5h-168v98l399 449h-651v152h858v-111l-393 -447q203 -10 326.5 -117.5t123.5 -281.5q0 -119 -61.5 -212t-172 -145t-253.5 -52q-144 0 -265.5 51t-203.5 135z" />
<glyph unicode="4" horiz-adv-x="1226" d="M86 352v123l692 871h158v-846h207v-148h-207v-352h-158v352h-692zM279 500h499v628z" />
<glyph unicode="5" horiz-adv-x="1128" d="M88 166l105 106q63 -66 151 -101.5t197 -35.5q141 0 224 74t83 194q0 129 -79 195t-232 66h-357v96l117 586h633v-152h-518l-74 -381h190q236 0 363 -105.5t127 -306.5q0 -125 -58.5 -220t-166 -148t-248.5 -53q-144 0 -261.5 51t-195.5 135z" />
<glyph unicode="6" horiz-adv-x="1193" d="M123 600q0 227 64.5 399t189.5 268.5t301 96.5q119 0 215 -45t180 -141l-108 -101q-70 72 -138.5 103.5t-148.5 31.5q-162 0 -267.5 -127t-121.5 -342q78 43 173 67t191 24q135 0 233.5 -54.5t151 -151t52.5 -218.5q0 -121 -58.5 -219.5t-162 -154.5t-234.5 -56 q-238 0 -375 163.5t-137 456.5zM285 594q0 -225 91 -344t253 -119q139 0 219 77t80 202t-77 199.5t-222 74.5q-92 0 -183.5 -24.5t-160.5 -65.5z" />
<glyph unicode="7" horiz-adv-x="1126" d="M100 1194v152h940v-95l-563 -1251h-176l545 1194h-746z" />
<glyph unicode="8" horiz-adv-x="1212" d="M115 356q0 109 64.5 201t178.5 162q-199 109 -198 303q0 98 59.5 176t161.5 122t229 44q135 0 238.5 -45t161 -127t57.5 -186q0 -90 -51 -176.5t-152 -145.5q233 -121 234 -330q0 -111 -62.5 -195.5t-174 -131.5t-255.5 -47q-143 0 -254.5 49t-174 134t-62.5 193z M281 365q0 -102 94 -170t235 -68q138 0 231 61.5t93 163.5q0 186 -332 273l-98 30q-111 -51 -167 -125.5t-56 -164.5zM319 1026q0 -96 80 -157.5t250 -106.5q35 -6 66 -19q96 45 144 114t48 142q0 100 -82 162t-215 62q-125 0 -208 -56.5t-83 -140.5z" />
<glyph unicode="9" horiz-adv-x="1196" d="M104 936q0 117 59.5 215t165 155.5t234.5 57.5q158 0 272.5 -73.5t176 -214t61.5 -333.5q0 -356 -138 -559.5t-405 -203.5q-120 0 -217.5 44t-185.5 138l109 102q72 -72 141 -102.5t153 -30.5q170 0 268.5 128t110.5 359q-78 -43 -175 -65.5t-191 -22.5q-203 0 -321 111 t-118 295zM268 934q0 -121 77 -188.5t220 -67.5q94 0 185.5 24.5t160.5 67.5q-4 215 -94 328.5t-248 113.5q-139 0 -220 -76.5t-81 -201.5z" />
<glyph unicode=":" horiz-adv-x="518" d="M143 100q0 53 32 86t83 33q53 0 86 -32.5t33 -86.5q0 -51 -33 -84.5t-86 -33.5q-51 0 -83 33.5t-32 84.5zM143 958q0 53 32 86t83 33q53 0 86 -32.5t33 -86.5q0 -51 -33 -84.5t-86 -33.5q-51 0 -83 33.5t-32 84.5z" />
<glyph unicode=";" horiz-adv-x="518" d="M47 -242q55 95 95 216.5t55 232.5h170q-14 -117 -60.5 -235.5t-107.5 -213.5h-152zM143 958q0 51 33 85t84 34q53 0 86 -32.5t33 -86.5q0 -51 -33 -84.5t-86 -33.5q-51 0 -84 33.5t-33 84.5z" />
<glyph unicode="&#x3c;" d="M240 612v129l651 373l72 -127l-551 -311l551 -307l-72 -129z" />
<glyph unicode="=" d="M209 393v150h782v-150h-782zM209 809v152h782v-152h-782z" />
<glyph unicode="&#x3e;" d="M238 369l550 311l-550 307l71 129l652 -373v-129l-652 -372z" />
<glyph unicode="?" horiz-adv-x="1110" d="M66 1212q90 90 220 141.5t265 51.5q205 0 319.5 -95.5t114.5 -262.5q0 -94 -47 -167t-127 -137q-109 -84 -165 -148.5t-56 -148.5v-43h-158v48q0 77 33 139.5t80 108.5t123 106q72 57 109.5 111.5t37.5 119.5q0 211 -274 211q-109 0 -206 -40t-175 -109zM401 100 q0 53 32 86t83 33q53 0 86 -32.5t33 -86.5q0 -51 -33 -84.5t-86 -33.5q-51 0 -83 33.5t-32 84.5z" />
<glyph unicode="@" horiz-adv-x="1941" d="M121 518q0 252 125 454t331.5 316.5t442.5 114.5q240 0 426 -89t289.5 -248t103.5 -361q0 -172 -73.5 -303.5t-197.5 -203t-274 -71.5h-80l-28 96q-57 -53 -126 -81.5t-140 -28.5q-164 0 -261.5 113.5t-97.5 305.5q0 119 52.5 215.5t143.5 150.5t201 54q59 0 126 -24.5 t116 -63.5l19 72h127v-676q154 12 249 130t95 315q0 162 -83 287.5t-234.5 196.5t-352.5 71q-199 0 -370 -94.5t-273.5 -263.5t-102.5 -382q0 -205 86 -364.5t239 -248.5t345 -89q145 0 250.5 39t194.5 112l94 -108q-209 -190 -543 -191q-233 0 -419.5 108.5t-293 302 t-106.5 437.5zM725 528q0 -123 61.5 -195.5t169.5 -72.5q120 0 220 111v368q-92 70 -193 70q-117 0 -187.5 -75t-70.5 -206z" />
<glyph unicode="A" horiz-adv-x="1331" d="M43 0l549 1384h149l545 -1384h-174l-145 383h-611l-147 -383h-166zM416 537h493l-245 647z" />
<glyph unicode="B" horiz-adv-x="1245" d="M176 0v1384h457q205 0 318.5 -104t113.5 -268q0 -92 -45 -166t-125 -121q119 -39 185.5 -128t66.5 -210q0 -180 -120 -283.5t-333 -103.5h-518zM336 143h334q151 0 231 61.5t80 184.5q0 106 -79 173t-214 67h-352v-486zM336 778h289q137 0 207.5 60.5t70.5 171.5 q0 109 -74.5 170t-220.5 61h-272v-463z" />
<glyph unicode="C" horiz-adv-x="1339" d="M113 692q0 205 84 367t232.5 254t334.5 92q135 0 249.5 -54.5t203.5 -152.5l-109 -108q-140 157 -339 157h-3q-145 0 -255 -69.5t-169 -196.5t-59 -289q0 -164 60 -290t169 -195.5t248 -69.5q207 0 364 162l111 -111q-196 -208 -476 -208h-3q-191 0 -337.5 90t-226 251.5 t-79.5 370.5z" />
<glyph unicode="D" horiz-adv-x="1388" d="M176 0v1384h408q211 0 368.5 -85t241.5 -240.5t84 -362.5t-85 -364.5t-241.5 -244.5t-365.5 -87h-410zM344 158h244q246 0 383 143t137 395q0 248 -136 390.5t-384 142.5h-244v-1071z" />
<glyph unicode="E" horiz-adv-x="1171" d="M176 0v1384h885v-157h-719v-432h629v-160h-629v-475h741v-160h-907z" />
<glyph unicode="F" horiz-adv-x="1148" d="M176 0v1384h887v-159h-719v-437h625v-157h-625v-631h-168z" />
<glyph unicode="G" horiz-adv-x="1390" d="M113 692q0 209 85 371t235.5 252t342.5 90q133 0 253 -56.5t198 -150.5l-103 -104q-142 153 -343 153h-3q-147 0 -259.5 -68.5t-175 -194.5t-62.5 -292q0 -164 59 -290t166.5 -195.5t249.5 -69.5q106 0 189 29t153 86v323h-361v150h520v-543q-98 -96 -232 -149t-275 -53 q-191 0 -335.5 88t-223 249.5t-78.5 374.5z" />
<glyph unicode="H" horiz-adv-x="1406" d="M176 0v1384h168v-589h719v589h168v-1384h-168v635h-719v-635h-168z" />
<glyph unicode="I" horiz-adv-x="520" d="M176 0v1384h168v-1384h-168z" />
<glyph unicode="J" horiz-adv-x="798" d="M76 0v160h102q137 0 210 84t73 235v905h168v-907q0 -229 -113 -353t-326 -124h-114z" />
<glyph unicode="K" horiz-adv-x="1349" d="M176 0v1384h168v-596h180q86 0 136.5 23t87 70t100.5 155l209 348h184l-256 -421q-53 -86 -94 -141.5t-86 -94.5l514 -727h-203l-459 647q-55 -16 -110 -16h-203v-631h-168z" />
<glyph unicode="L" horiz-adv-x="1140" d="M176 0v1384h168v-1222h719v-162h-887z" />
<glyph unicode="M" horiz-adv-x="1738" d="M176 0v1384h162l516 -935l555 935h154v-1384h-166v1077l-477 -796h-138l-440 786v-1067h-166z" />
<glyph unicode="N" horiz-adv-x="1396" d="M176 0v1384h137l744 -1085v1085h162v-1384h-138l-743 1083v-1083h-162z" />
<glyph unicode="O" horiz-adv-x="1511" d="M113 694q0 201 84 363t230 255t329 93q182 0 329.5 -91t231.5 -253t84 -367q0 -203 -84 -366.5t-231.5 -255.5t-329.5 -92q-185 0 -331 91t-229 253.5t-83 369.5zM283 694q0 -162 59 -288.5t166.5 -197.5t247.5 -71q137 0 245.5 71t169 197.5t60.5 288.5q0 160 -60.5 286 t-168 196.5t-244.5 70.5q-139 0 -248 -71.5t-168 -197.5t-59 -284z" />
<glyph unicode="P" horiz-adv-x="1222" d="M176 0v1384h483q147 0 254 -56t162 -153.5t55 -222.5q0 -123 -56 -220t-162.5 -153.5t-252.5 -56.5h-317v-522h-166zM342 678h297q156 0 239 71.5t83 202.5t-83 206t-239 75h-297v-555z" />
<glyph unicode="Q" horiz-adv-x="1511" d="M113 694q0 201 84 363t230 255t329 93q182 0 329.5 -91t231.5 -253t84 -367q0 -166 -56.5 -306t-156.5 -238l182 -250l-127 -88l-178 245q-141 -80 -309 -80q-184 0 -330.5 91.5t-229.5 255t-83 370.5zM283 694q0 -162 59 -288.5t167.5 -198.5t248.5 -72q115 0 211 51 l-174 240l129 90l168 -231q68 74 103.5 179t35.5 230q0 160 -59.5 286t-167 196.5t-246.5 70.5t-248 -71.5t-168 -197.5t-59 -284z" />
<glyph unicode="R" horiz-adv-x="1245" d="M176 0v1384h465q221 0 345 -111.5t124 -293.5q0 -123 -70.5 -218t-195.5 -140q113 -80 203 -269l170 -352h-185l-133 272q-49 100 -92 162t-105.5 96.5t-150.5 34.5h-209v-565h-166zM342 717h279q153 0 237 70.5t84 187.5q0 125 -82 192.5t-239 67.5h-279v-518z" />
<glyph unicode="S" horiz-adv-x="1191" d="M61 205l101 106q178 -178 444 -178q150 0 234 58.5t84 164.5q0 115 -86 173.5t-273 103.5q-164 39 -260 87t-144 124t-48 194q0 102 60 186.5t168 132.5t247 48q270 0 461 -203l-103 -102q-76 74 -169 112.5t-189 38.5q-147 0 -229.5 -57t-82.5 -160q0 -76 40 -121 t113 -71.5t212 -59.5q236 -57 342.5 -156.5t106.5 -258.5q0 -176 -128 -283t-360 -107q-330 1 -541 228z" />
<glyph unicode="T" horiz-adv-x="1255" d="M72 1225v159h1110v-159h-471v-1225h-168v1225h-471z" />
<glyph unicode="U" horiz-adv-x="1421" d="M158 653v731h168v-731q0 -256 101 -387t284 -131q182 0 283.5 130t101.5 386v733h168v-729q0 -211 -68 -363.5t-192.5 -233.5t-292.5 -81q-258 0 -405.5 177.5t-147.5 498.5z" />
<glyph unicode="V" horiz-adv-x="1341" d="M45 1384h184l445 -1163l444 1163h176l-549 -1384h-153z" />
<glyph unicode="W" horiz-adv-x="1939" d="M59 1384h179l311 -1148l348 1067h166l336 -1067l309 1148h174l-405 -1384h-160l-350 1069l-342 -1069h-160z" />
<glyph unicode="X" horiz-adv-x="1320" d="M43 0l516 725l-471 659h201l375 -534l374 534h191l-471 -657l518 -727h-199l-424 600l-420 -600h-190z" />
<glyph unicode="Y" horiz-adv-x="1191" d="M37 1384h186l377 -694l375 694h184l-477 -854v-530h-168v532z" />
<glyph unicode="Z" horiz-adv-x="1234" d="M82 0v129l836 1096h-809v159h1021v-129l-835 -1093h858v-162h-1071z" />
<glyph unicode="[" horiz-adv-x="845" d="M211 -281v1786h567l-26 -157h-375v-1471h375l26 -158h-567z" />
<glyph unicode="\" horiz-adv-x="933" d="M43 1505h176l674 -1784h-176z" />
<glyph unicode="]" horiz-adv-x="845" d="M68 -281l26 160h375v1471h-375l-26 155h567v-1786h-567z" />
<glyph unicode="^" d="M152 696l372 688h158l367 -688h-170l-277 533l-280 -533h-170z" />
<glyph unicode="_" horiz-adv-x="1003" d="M0 -164h1004v-139h-1004v139z" />
<glyph unicode="`" horiz-adv-x="1204" d="M362 1507h203l277 -280h-180z" />
<glyph unicode="a" horiz-adv-x="1101" d="M109 283q0 147 114.5 231t319.5 84h266v43q0 154 -64.5 225.5t-203.5 71.5q-82 0 -159 -33t-136 -92l-101 102q78 80 182.5 125t219.5 45q207 0 313.5 -115.5t106.5 -344.5v-625h-101l-49 152q-72 -78 -169 -125t-189 -47q-164 0 -257 79.5t-93 223.5zM262 285 q0 -74 58.5 -119t150.5 -45q86 0 178 50t160 128v164h-272q-129 0 -202 -47t-73 -131z" />
<glyph unicode="b" horiz-adv-x="1259" d="M152 0v1489l163 33v-604q70 78 165 122.5t202 44.5q137 0 244.5 -66.5t168 -190t60.5 -289.5q0 -170 -71.5 -296t-192.5 -192.5t-264 -66.5q-92 0 -181.5 35.5t-156.5 95.5l-35 -115h-102zM315 254q61 -55 140.5 -89t156.5 -34q170 0 274.5 103.5t104.5 304.5 q0 188 -89 292.5t-240 104.5q-106 0 -195.5 -51t-151.5 -142v-489z" />
<glyph unicode="c" horiz-adv-x="1060" d="M104 532q0 156 67 282t184.5 198.5t265.5 72.5q215 0 364 -163l-104 -103q-53 59 -116 89t-142 30q-160 0 -257.5 -111.5t-97.5 -294.5q0 -121 45 -213t126 -142t184 -50q154 0 268 125l104 -105q-157 -167 -374 -167h-3q-151 0 -268 69.5t-181.5 194.5t-64.5 288z" />
<glyph unicode="d" horiz-adv-x="1257" d="M104 526q0 170 73 297t194 194.5t264 67.5q82 0 163 -27.5t146 -76.5v508l164 33v-1522h-100l-50 160q-68 -84 -169 -132t-214 -48q-137 0 -243.5 65.5t-167 189t-60.5 291.5zM270 524q0 -190 88 -292.5t240 -102.5q109 0 198 52t148 145v499q-59 53 -138 84t-159 31 q-170 0 -273.5 -106.5t-103.5 -309.5z" />
<glyph unicode="e" horiz-adv-x="1155" d="M104 537q0 154 62.5 279.5t174.5 197t255 71.5q141 0 245.5 -69.5t160 -194.5t55.5 -284v-56h-791q10 -154 107.5 -255t249.5 -101q168 0 284 121l107 -96q-76 -78 -175.5 -124t-220.5 -46q-157 0 -274 74.5t-178.5 201.5t-61.5 281zM268 621h623q-10 151 -88 237 t-213 86q-131 0 -216 -88t-106 -235z" />
<glyph unicode="f" horiz-adv-x="811" d="M152 0v1118q0 191 105 297.5t282 106.5q70 0 136 -27t120 -74l-78 -110q-82 63 -180 63q-104 0 -163 -63.5t-59 -177.5v-68h445v-143h-445v-922h-163z" />
<glyph unicode="g" horiz-adv-x="1247" d="M104 547q0 166 72 287.5t191.5 186t261.5 64.5q92 0 181 -32.5t155 -91.5l30 104h101v-1024q0 -145 -64.5 -258t-180.5 -176.5t-267 -63.5q-279 0 -443 178l99 107q139 -139 340 -139q158 0 256 94t98 260v145q-68 -76 -165 -119.5t-200 -43.5q-135 0 -240.5 63.5 t-165 182t-59.5 276.5zM266 547q0 -178 88 -277.5t238 -99.5q100 0 189 50t153 134v471q-59 53 -137 84t-158 31q-166 0 -269.5 -99.5t-103.5 -293.5z" />
<glyph unicode="h" horiz-adv-x="1198" d="M152 0v1489l163 33v-600q70 76 160 119.5t187 43.5q197 0 299 -123.5t102 -351.5v-610h-164v584q0 182 -60.5 267t-199.5 85q-94 0 -178 -51t-146 -142v-743h-163z" />
<glyph unicode="i" horiz-adv-x="475" d="M133 1368q0 47 30 77t77 30q45 0 75.5 -30t30.5 -77q0 -45 -30.5 -74.5t-75.5 -29.5t-76 29.5t-31 74.5zM156 0v1065h163v-1065h-163z" />
<glyph unicode="j" horiz-adv-x="475" d="M-82 -285h43q94 0 144.5 58.5t50.5 169.5v1122h163v-1110q0 -184 -88 -282.5t-251 -98.5h-62v141zM133 1368q0 47 30 77t77 30q45 0 75.5 -30t30.5 -77q0 -45 -30.5 -74.5t-75.5 -29.5t-76 29.5t-31 74.5z" />
<glyph unicode="k" horiz-adv-x="1128" d="M152 0v1489l159 33v-904h144q80 0 134 39t120 152l153 256h178l-196 -320q-76 -125 -144 -184l404 -561h-195l-346 483q-41 -10 -78 -10h-174v-473h-159z" />
<glyph unicode="l" horiz-adv-x="602" d="M139 367v1122l164 33v-1164q0 -111 49 -170t144 -59h47v-141h-66q-164 0 -251 98t-87 281z" />
<glyph unicode="m" horiz-adv-x="1808" d="M152 0v1065h102l47 -156q154 176 332 176q225 0 311 -176q70 80 165 128t200 48q174 0 269 -108.5t95 -314.5v-662h-160v643q0 293 -237 293q-82 0 -158 -44t-131 -120q8 -47 8 -110v-662h-159v643q0 293 -236 293q-162 0 -285 -195v-741h-163z" />
<glyph unicode="n" horiz-adv-x="1198" d="M152 0v1065h102l47 -158q72 84 165 131t196 47q197 0 299 -123.5t102 -351.5v-610h-164v584q0 182 -60.5 267t-199.5 85q-94 0 -178 -51t-146 -142v-743h-163z" />
<glyph unicode="o" horiz-adv-x="1251" d="M104 532q0 158 68 284t185.5 197.5t267.5 71.5t268.5 -70.5t186 -196.5t67.5 -286t-67.5 -285.5t-186.5 -196t-268 -70.5q-150 0 -267.5 70.5t-185.5 196.5t-68 285zM270 532q0 -186 95.5 -295.5t259.5 -109.5q163 0 260.5 109.5t97.5 295.5q0 184 -97.5 295t-260.5 111 q-162 0 -258.5 -110.5t-96.5 -295.5z" />
<glyph unicode="p" horiz-adv-x="1259" d="M152 -451v1516h102l47 -158q70 82 170 130t211 48q137 0 244.5 -66.5t168 -190t60.5 -289.5q0 -170 -71.5 -296t-193.5 -192.5t-265 -66.5q-82 0 -163 26.5t-147 73.5v-502zM315 244q61 -51 138 -82t157 -31q170 0 275.5 104.5t105.5 303.5q0 188 -89 292.5t-240 104.5 q-106 0 -195.5 -51t-151.5 -142v-499z" />
<glyph unicode="q" horiz-adv-x="1259" d="M104 526q0 170 73 297t194 194.5t264 67.5q92 0 182 -32.5t158 -91.5l33 104h100v-1483l-164 -33v598q-67 -77 -164.5 -122t-204.5 -45q-137 0 -243.5 65.5t-167 189t-60.5 291.5zM270 524q0 -190 88 -292.5t240 -102.5q109 0 198 52t148 145v499q-59 53 -138 84t-159 31 q-170 0 -273.5 -106.5t-103.5 -309.5z" />
<glyph unicode="r" horiz-adv-x="792" d="M152 0v1065h102l49 -162q74 84 176.5 131t216.5 47h31v-151h-51q-104 0 -199.5 -49.5t-161.5 -141.5v-739h-163z" />
<glyph unicode="s" horiz-adv-x="1001" d="M74 162l100 106q141 -141 346 -141q113 0 173.5 39t60.5 113q0 84 -64.5 127t-197.5 67q-139 29 -219 68t-116 98t-36 154q0 82 47 148.5t134 105t202 38.5q229 0 385 -165l-101 -103q-123 123 -284 123q-111 0 -169.5 -39t-58.5 -110q0 -53 29 -85t84 -51.5t160 -40.5 q195 -41 280.5 -117.5t85.5 -207.5q0 -139 -103 -224t-296 -85q-270 0 -442 182z" />
<glyph unicode="t" horiz-adv-x="811" d="M152 379v948l163 31v-293h418v-143h-418v-549q0 -113 51.5 -178.5t145.5 -65.5q61 0 100 15.5t78 45.5l84 -108q-119 -102 -260 -102q-172 0 -267 106.5t-95 292.5z" />
<glyph unicode="u" horiz-adv-x="1193" d="M141 455v610h162v-586q0 -182 59.5 -266t204.5 -84q88 0 169 51t143 142v743h163v-1065h-100l-51 158q-70 -84 -161 -131t-193 -47q-197 0 -296.5 122.5t-99.5 352.5z" />
<glyph unicode="v" horiz-adv-x="1107" d="M37 1065h180l340 -854l340 854h176l-446 -1065h-148z" />
<glyph unicode="w" horiz-adv-x="1619" d="M59 1065h174l228 -842l280 772h150l278 -772l236 842h162l-324 -1065h-153l-283 780l-272 -780h-152z" />
<glyph unicode="x" horiz-adv-x="1097" d="M45 0l408 553l-373 512h190l283 -395l281 395h184l-375 -512l412 -553h-195l-315 436l-316 -436h-184z" />
<glyph unicode="y" horiz-adv-x="1095" d="M33 1065h178l358 -827l318 827h172l-471 -1182q-123 -309 -385 -309h-66v145h49q94 0 158 50.5t105 154.5l43 115z" />
<glyph unicode="z" horiz-adv-x="1091" d="M119 0v119l645 803h-637v143h840v-117l-645 -805h659v-143h-862z" />
<glyph unicode="{" horiz-adv-x="882" d="M90 557v111q84 45 123 112.5t39 171.5v140q0 201 105.5 307t308.5 106h149l-27 -157h-108q-129 0 -195.5 -68t-66.5 -197v-153q0 -100 -37 -177t-115 -141q78 -61 115 -137t37 -178v-154q0 -131 66.5 -198.5t195.5 -67.5h108l27 -158h-149q-203 0 -308.5 106.5 t-105.5 309.5v141q0 102 -39 169t-123 112z" />
<glyph unicode="|" horiz-adv-x="589" d="M211 -281v1786h166v-1786h-166z" />
<glyph unicode="}" horiz-adv-x="882" d="M68 -281l26 160h109q129 0 196.5 67.5t67.5 196.5v154q0 102 37 178t114 137q-78 61 -114.5 137t-36.5 179v155q0 131 -67.5 199t-196.5 68h-109l-26 155h151q201 0 306.5 -106.5t105.5 -306.5v-142q0 -104 39 -170.5t123 -109.5v-111q-84 -47 -123 -114.5t-39 -170.5 v-139q0 -201 -105.5 -308.5t-306.5 -107.5h-151z" />
<glyph unicode="~" d="M131 520q6 137 79 218t191 81q55 0 105.5 -24.5t126.5 -73.5q51 -37 87 -55.5t66 -18.5q63 0 102.5 41t45.5 119h133q-4 -137 -75.5 -220t-190.5 -83q-53 0 -100.5 24.5t-112.5 69.5q-51 37 -89 55.5t-75 18.5q-70 0 -110 -35t-46 -117h-137z" />
<glyph unicode="&#xa1;" horiz-adv-x="544" d="M160 967q0 51 32.5 84.5t86.5 33.5q51 0 82.5 -33.5t31.5 -84.5q0 -53 -31.5 -86t-82.5 -33q-54 0 -86.5 32.5t-32.5 86.5zM188 -317l15 979h151l15 -979h-181z" />
<glyph unicode="&#xa2;" d="M166 686q0 137 54 252t152.5 190.5t223.5 98.5v229l164 37v-264q170 -18 301 -160l-105 -100q-55 59 -118.5 87.5t-145.5 28.5q-164 0 -263 -109.5t-99 -289.5q0 -117 46 -207t129 -140t187 -50q82 0 149.5 30.5t127.5 90.5l102 -103q-133 -141 -311 -160v-245l-164 -37 v285q-197 28 -313.5 173.5t-116.5 362.5z" />
<glyph unicode="&#xa3;" d="M76 578v145h219l39 178q47 215 168 330t338 115h260v-152h-262q-143 0 -230.5 -69.5t-122.5 -233.5l-34 -168h497v-145h-526l-92 -428h790v-150h-954v115l100 463h-190z" />
<glyph unicode="&#xa4;" d="M66 287l157 157q-63 109 -63 244q0 131 65 238l-159 159l112 113l156 -151q117 88 266 88q152 0 268 -88l154 151l113 -113l-158 -159q63 -104 63 -240q0 -133 -65 -240l160 -159l-113 -113l-158 154q-117 -90 -264 -90q-150 0 -266 86l-156 -150zM313 688 q0 -84 36 -153.5t101.5 -111.5t149.5 -42q82 0 147.5 41t102.5 111.5t37 152.5q0 84 -36 153.5t-101.5 110.5t-149.5 41t-149.5 -41t-101.5 -110.5t-36 -151.5z" />
<glyph unicode="&#xa5;" d="M61 1346h189l352 -641l356 641h179l-373 -656h287v-137h-371v-168h371v-137h-371v-248h-160v248h-370v137h370v168h-370v137h286z" />
<glyph unicode="&#xa6;" horiz-adv-x="589" d="M211 -281v674h166v-674h-166zM211 834v671h166v-671h-166z" />
<glyph unicode="&#xa7;" horiz-adv-x="942" d="M100 623q0 92 61.5 163.5t164.5 98.5q-76 94 -76 192q0 141 105.5 224t293.5 83h111v-145h-127q-109 0 -166 -45t-57 -119q0 -57 28.5 -100t91.5 -98l170 -150q139 -121 140 -268q0 -90 -61.5 -160t-164.5 -96q41 -51 62.5 -99.5t21.5 -103.5q0 -141 -103 -222t-290 -81 h-131v143h141q109 0 166.5 42t57.5 118q0 55 -31 100t-92 99l-172 153q-74 63 -109 129t-35 142zM252 623q0 -45 24.5 -85t73.5 -85l154 -140h4q80 0 131 43t51 105q0 45 -23.5 84t-72.5 84l-160 143h-4q-78 -2 -128 -44t-50 -105z" />
<glyph unicode="&#xa8;" horiz-adv-x="1204" d="M313 1366q0 47 29 77t76 30q45 0 74.5 -30t29.5 -77q0 -43 -29.5 -72.5t-74.5 -29.5q-47 0 -76 29.5t-29 72.5zM682 1366q0 47 28.5 77t75.5 30t76 -30t29 -77q0 -43 -30 -72.5t-75 -29.5t-74.5 29.5t-29.5 72.5z" />
<glyph unicode="&#xa9;" horiz-adv-x="1638" d="M94 692q0 205 97.5 369t263.5 255t362 91q199 0 365 -90t264 -254t98 -371q0 -209 -98 -371.5t-265 -253t-364 -90.5q-201 0 -365.5 89.5t-261 252t-96.5 373.5zM227 692q0 -174 76 -307t210 -207t304 -74q168 0 303 74t213 208t78 306q0 170 -78 304t-213 209t-303 75 t-302 -75t-211 -209t-77 -304zM449 694q0 111 50 198t137 136t195 49q80 0 150 -30.5t115 -90.5l-78 -90q-80 80 -180 80q-111 0 -176.5 -67.5t-65.5 -184.5t64.5 -184.5t177.5 -67.5q115 0 196 78l78 -96q-55 -55 -128 -86t-157 -31q-170 0 -274 105.5t-104 281.5z" />
<glyph unicode="&#xaa;" horiz-adv-x="864" d="M76 791q0 113 91 178t247 65h198v23q0 98 -43 154.5t-151 56.5q-59 0 -119.5 -23.5t-108.5 -68.5l-84 90q59 61 141.5 96t174.5 35q164 0 250 -90t86 -265v-469h-99l-36 111q-59 -57 -131 -92t-140 -35q-129 0 -202.5 62.5t-73.5 171.5zM219 797q0 -49 42 -81t106 -32 q63 0 128.5 33t116.5 86v117h-202q-90 0 -140.5 -33t-50.5 -90z" />
<glyph unicode="&#xab;" horiz-adv-x="997" d="M94 578l275 393h172l-262 -393l262 -396h-172zM465 578l272 393h174l-264 -393l264 -396h-174z" />
<glyph unicode="&#xac;" d="M164 715v145h827v-510h-145v365h-682z" />
<glyph unicode="&#xad;" horiz-adv-x="911" d="M129 526v154h653v-154h-653z" />
<glyph unicode="&#xae;" horiz-adv-x="1140" d="M66 999q0 141 68.5 254t183 176.5t249.5 63.5q137 0 253 -62.5t184.5 -175t68.5 -256.5q0 -145 -68.5 -257.5t-184 -174t-253.5 -61.5q-137 0 -251.5 61.5t-182 174t-67.5 257.5zM170 999q0 -117 50 -207t141.5 -140t205.5 -50q117 0 208 50t142.5 140.5t51.5 206.5 q0 115 -51.5 205t-142.5 141.5t-208 51.5q-115 0 -206 -50.5t-141 -141.5t-50 -206zM379 762v491h201q86 0 139 -44t53 -115q0 -43 -23.5 -76t-64.5 -49q37 -27 61 -74l68 -133h-125l-41 78q-23 47 -44 64.5t-66 17.5h-52v-160h-106zM485 1020h78q45 0 67.5 17.5t22.5 49.5 q0 70 -90 70h-78v-137z" />
<glyph unicode="&#xb0;" horiz-adv-x="782" d="M100 1104q0 78 39 144.5t105.5 105.5t144.5 39t145.5 -39t106.5 -105.5t39 -144.5t-39 -144.5t-106.5 -105.5t-145.5 -39t-144.5 39t-105.5 105.5t-39 144.5zM236 1104q0 -66 45 -112t108 -46q66 0 112 46t46 112t-46 112t-112 46q-63 0 -108 -46.5t-45 -111.5z" />
<glyph unicode="&#xb1;" d="M170 633v145h358v361h144v-361h358v-145h-358v-361h-144v361h-358zM209 -2v152h782v-152h-782z" />
<glyph unicode="&#xb2;" horiz-adv-x="866" d="M121 1370q59 57 140 91t169 34q135 0 213 -64.5t78 -170.5q0 -66 -35 -122.5t-104 -113.5l-228 -195h371v-129h-588v99l312 270q68 61 96 96t28 74q0 57 -40.5 88t-118.5 31q-53 0 -109.5 -23.5t-103.5 -64.5z" />
<glyph unicode="&#xb3;" horiz-adv-x="864" d="M119 803l84 92q98 -84 207 -84q80 0 130 34t50 91q0 53 -47 85t-129 32h-117v90l225 211h-377v127h555v-97l-239 -223q127 -8 201.5 -68.5t74.5 -158.5q0 -115 -86 -181.5t-233 -66.5q-92 0 -169 33t-130 84z" />
<glyph unicode="&#xb4;" horiz-adv-x="1204" d="M362 1227l277 280h203l-299 -280h-181z" />
<glyph unicode="&#xb5;" d="M150 -451v1516h161v-586q0 -182 60.5 -266t203.5 -84q88 0 169 51t143 142v743h164v-1065h-101l-49 158q-72 -84 -163 -131t-191 -47q-152 0 -236 90v-488z" />
<glyph unicode="&#xb6;" horiz-adv-x="1148" d="M98 862q0 176 106.5 290t305.5 153l131 26v-878q-256 0 -399.5 109.5t-143.5 299.5zM539 -150h41q100 0 155.5 65t55.5 179v1262l167 28v-1292q0 -190 -95 -293.5t-267 -103.5h-57v155z" />
<glyph unicode="&#xb7;" horiz-adv-x="518" d="M143 741q0 53 32 86t83 33q53 0 86 -32.5t33 -86.5q0 -51 -33 -84.5t-86 -33.5q-51 0 -83 33.5t-32 84.5z" />
<glyph unicode="&#xb8;" horiz-adv-x="1204" d="M436 -256h47q66 0 107 26.5t41 79.5q0 39 -20.5 74t-63.5 80l112 29q109 -96 109 -201q0 -102 -77 -156.5t-204 -54.5h-51v123z" />
<glyph unicode="&#xb9;" horiz-adv-x="692" d="M137 1294v117l230 72h108v-783h-143v643z" />
<glyph unicode="&#xba;" horiz-adv-x="970" d="M80 979q0 121 53 216t145.5 148.5t204.5 53.5q117 0 210 -53.5t145.5 -148.5t52.5 -216t-52.5 -217t-145.5 -150.5t-210 -54.5q-114 0 -206.5 54.5t-144.5 150.5t-52 217zM236 979q0 -129 67.5 -206t179.5 -77q115 0 184.5 78t69.5 205t-68.5 204t-183.5 77 q-113 0 -181 -77t-68 -204z" />
<glyph unicode="&#xbb;" horiz-adv-x="997" d="M88 182l264 393l-264 396h174l273 -396l-273 -393h-174zM459 182l262 393l-262 396h172l274 -396l-274 -393h-172z" />
<glyph unicode="&#xbc;" horiz-adv-x="1699" d="M137 1157v115l230 71h108v-782h-143v643zM225 0l1028 1346h185l-1028 -1346h-185zM905 188v95l432 499h136v-473h118v-121h-118v-188h-136v188h-432zM1069 309h268v309z" />
<glyph unicode="&#xbd;" horiz-adv-x="1835" d="M137 1157v115l230 71h108v-782h-143v643zM217 0l1028 1346h185l-1031 -1346h-182zM1087 670q61 57 142.5 91t167.5 34q135 0 214 -64.5t79 -171.5q0 -63 -35 -119.5t-105 -115.5l-227 -195h371v-129h-588v98l311 271q66 59 94.5 95t28.5 75q0 57 -41 87.5t-117 30.5 q-53 0 -109 -23.5t-104 -64.5z" />
<glyph unicode="&#xbe;" horiz-adv-x="1867" d="M119 664l84 92q98 -84 207 -84q80 0 130 33.5t50 91.5q0 53 -47 84.5t-129 31.5h-117v91l225 210h-377v127h555v-96l-239 -223q127 -8 201.5 -68.5t74.5 -158.5q0 -115 -86 -181.5t-233 -66.5q-92 0 -169 32.5t-130 84.5zM395 0l1028 1346h183l-1028 -1346h-183z M1075 188v95l432 499h133v-473h121v-121h-121v-188h-133v188h-432zM1239 309h268v309z" />
<glyph unicode="&#xbf;" horiz-adv-x="1067" d="M98 18q0 94 47.5 168t126.5 136q76 59 118 98t73 90t31 108v44h157v-46q0 -113 -61.5 -189.5t-173.5 -164.5q-72 -57 -110 -111.5t-38 -121.5q0 -104 70 -157.5t205 -53.5q109 0 206 40t175 109l94 -114q-92 -88 -221 -140.5t-265 -52.5q-204 0 -319 96.5t-115 261.5z M449 967q0 51 32.5 84.5t85.5 33.5q51 0 83 -33.5t32 -84.5q0 -53 -32 -86t-83 -33q-53 0 -85.5 32.5t-32.5 86.5z" />
<glyph unicode="&#xc0;" horiz-adv-x="1331" d="M43 0l549 1384h149l545 -1384h-174l-145 383h-611l-147 -383h-166zM328 1786h207l281 -266h-183zM416 537h493l-245 647z" />
<glyph unicode="&#xc1;" horiz-adv-x="1331" d="M43 0l549 1384h149l545 -1384h-174l-145 383h-611l-147 -383h-166zM416 537h493l-245 647zM516 1520l279 266h209l-304 -266h-184z" />
<glyph unicode="&#xc2;" horiz-adv-x="1331" d="M43 0l549 1384h149l545 -1384h-174l-145 383h-611l-147 -383h-166zM322 1518l252 266h182l252 -266h-174l-170 163l-170 -163h-172zM416 537h493l-245 647z" />
<glyph unicode="&#xc3;" horiz-adv-x="1331" d="M43 0l549 1384h149l545 -1384h-174l-145 383h-611l-147 -383h-166zM344 1563v135q90 72 193 71q84 0 156 -45q47 -29 74.5 -40t62.5 -11q55 0 101 21.5t95 56.5v-139q-92 -72 -198 -72q-80 0 -160 51q-39 25 -67.5 36t-63.5 11q-51 0 -95 -19.5t-98 -55.5zM416 537h493 l-245 647z" />
<glyph unicode="&#xc4;" horiz-adv-x="1331" d="M43 0l549 1384h149l545 -1384h-174l-145 383h-611l-147 -383h-166zM375 1638q0 45 29.5 74t77.5 29q45 0 75.5 -29t30.5 -74t-30.5 -73.5t-75.5 -28.5q-48 0 -77.5 28.5t-29.5 73.5zM416 537h493l-245 647zM746 1638q0 45 29.5 74t76.5 29t77 -29t30 -74t-30 -73.5 t-77 -28.5q-45 0 -75.5 28.5t-30.5 73.5z" />
<glyph unicode="&#xc5;" horiz-adv-x="1331" d="M43 0l518 1309q-68 29 -109.5 90t-41.5 139q0 104 73.5 175t178.5 71q104 0 177.5 -72t73.5 -174q0 -76 -38.5 -135.5t-104.5 -89.5l516 -1313h-174l-145 383h-611l-147 -383h-166zM416 537h493l-245 647zM530 1538q0 -59 38 -98t94 -39q55 0 94 39t39 98q0 55 -39 93 t-94 38q-54 0 -93 -38t-39 -93z" />
<glyph unicode="&#xc6;" horiz-adv-x="2033" d="M10 0l981 1384h932v-157h-719v-432h627v-160h-627v-475h740v-160h-906v373h-577l-262 -373h-189zM565 520h473v674z" />
<glyph unicode="&#xc7;" horiz-adv-x="1339" d="M113 692q0 205 84 367t232.5 254t334.5 92q135 0 249.5 -54.5t203.5 -152.5l-109 -108q-141 158 -342 157q-145 0 -255 -69.5t-169 -196.5t-59 -289q0 -164 60 -290t169 -195.5t248 -69.5q207 0 364 162l111 -111q-172 -181 -408 -204q61 -78 62 -156q0 -106 -80 -161.5 t-213 -55.5h-51v131h47q70 0 111.5 26.5t41.5 77.5q0 61 -65 138q-170 16 -299 110t-198.5 249t-69.5 349z" />
<glyph unicode="&#xc8;" horiz-adv-x="1171" d="M176 0v1384h885v-157h-719v-432h629v-160h-629v-475h741v-160h-907zM293 1786h207l281 -266h-183z" />
<glyph unicode="&#xc9;" horiz-adv-x="1171" d="M176 0v1384h885v-157h-719v-432h629v-160h-629v-475h741v-160h-907zM481 1520l279 266h209l-304 -266h-184z" />
<glyph unicode="&#xca;" horiz-adv-x="1171" d="M176 0v1384h885v-157h-719v-432h629v-160h-629v-475h741v-160h-907zM287 1518l252 266h182l252 -266h-174l-170 163l-170 -163h-172z" />
<glyph unicode="&#xcb;" horiz-adv-x="1171" d="M176 0v1384h885v-157h-719v-432h629v-160h-629v-475h741v-160h-907zM340 1638q0 45 29.5 74t77.5 29q45 0 75.5 -29t30.5 -74t-30.5 -73.5t-75.5 -28.5q-48 0 -77.5 28.5t-29.5 73.5zM711 1638q0 45 29.5 74t76.5 29t77 -29t30 -74t-30 -73.5t-77 -28.5q-45 0 -75.5 28.5 t-30.5 73.5z" />
<glyph unicode="&#xcc;" horiz-adv-x="520" d="M-43 1786h188l203 -266h-162zM176 0v1384h168v-1384h-168z" />
<glyph unicode="&#xcd;" horiz-adv-x="520" d="M172 1520l205 266h186l-229 -266h-162zM176 0v1384h168v-1384h-168z" />
<glyph unicode="&#xce;" horiz-adv-x="520" d="M-84 1518l252 266h182l252 -266h-174l-170 163l-170 -163h-172zM176 0v1384h168v-1384h-168z" />
<glyph unicode="&#xcf;" horiz-adv-x="520" d="M-31 1638q0 45 29.5 74t77.5 29q45 0 75.5 -29t30.5 -74t-30.5 -73.5t-75.5 -28.5q-48 0 -77.5 28.5t-29.5 73.5zM176 0v1384h168v-1384h-168zM340 1638q0 45 29.5 74t76.5 29t77 -29t30 -74t-30 -73.5t-77 -28.5q-45 0 -75.5 28.5t-30.5 73.5z" />
<glyph unicode="&#xd0;" horiz-adv-x="1439" d="M39 621v143h188v620h408q211 0 368.5 -85t241.5 -240.5t84 -362.5t-85 -364.5t-241.5 -244.5t-365.5 -87h-410v621h-188zM395 158h244q246 0 383 143t137 395q0 248 -136 390.5t-384 142.5h-244v-465h408v-143h-408v-463z" />
<glyph unicode="&#xd1;" horiz-adv-x="1396" d="M176 0v1384h137l744 -1085v1085h162v-1384h-138l-743 1083v-1083h-162zM376 1563v135q90 72 193 71q84 0 156 -45q47 -29 74.5 -40t62.5 -11q55 0 101 21.5t95 56.5v-139q-92 -72 -198 -72q-80 0 -160 51q-39 25 -67.5 36t-63.5 11q-51 0 -95 -19.5t-98 -55.5z" />
<glyph unicode="&#xd2;" horiz-adv-x="1511" d="M113 694q0 201 84 363t230 255t329 93q182 0 329.5 -91t231.5 -253t84 -367q0 -203 -84 -366.5t-231.5 -255.5t-329.5 -92q-185 0 -331 91t-229 253.5t-83 369.5zM283 694q0 -162 59 -288.5t166.5 -197.5t247.5 -71q137 0 245.5 71t169 197.5t60.5 288.5q0 160 -60.5 286 t-168 196.5t-244.5 70.5q-139 0 -248 -71.5t-168 -197.5t-59 -284zM420 1786h207l281 -266h-183z" />
<glyph unicode="&#xd3;" horiz-adv-x="1511" d="M113 694q0 201 84 363t230 255t329 93q182 0 329.5 -91t231.5 -253t84 -367q0 -203 -84 -366.5t-231.5 -255.5t-329.5 -92q-185 0 -331 91t-229 253.5t-83 369.5zM283 694q0 -162 59 -288.5t166.5 -197.5t247.5 -71q137 0 245.5 71t169 197.5t60.5 288.5q0 160 -60.5 286 t-168 196.5t-244.5 70.5q-139 0 -248 -71.5t-168 -197.5t-59 -284zM606 1520l279 266h209l-304 -266h-184z" />
<glyph unicode="&#xd4;" horiz-adv-x="1511" d="M113 694q0 201 84 363t230 255t329 93q182 0 329.5 -91t231.5 -253t84 -367q0 -203 -84 -366.5t-231.5 -255.5t-329.5 -92q-185 0 -331 91t-229 253.5t-83 369.5zM283 694q0 -162 59 -288.5t166.5 -197.5t247.5 -71q137 0 245.5 71t169 197.5t60.5 288.5q0 160 -60.5 286 t-168 196.5t-244.5 70.5q-139 0 -248 -71.5t-168 -197.5t-59 -284zM414 1518l252 266h182l252 -266h-174l-170 163l-170 -163h-172z" />
<glyph unicode="&#xd5;" horiz-adv-x="1511" d="M113 694q0 201 84 363t230 255t329 93q182 0 329.5 -91t231.5 -253t84 -367q0 -203 -84 -366.5t-231.5 -255.5t-329.5 -92q-185 0 -331 91t-229 253.5t-83 369.5zM283 694q0 -162 59 -288.5t166.5 -197.5t247.5 -71q137 0 245.5 71t169 197.5t60.5 288.5q0 160 -60.5 286 t-168 196.5t-244.5 70.5q-139 0 -248 -71.5t-168 -197.5t-59 -284zM436 1563v135q90 72 193 71q84 0 156 -45q47 -29 74.5 -40t62.5 -11q55 0 101 21.5t95 56.5v-139q-92 -72 -198 -72q-80 0 -160 51q-39 25 -67.5 36t-63.5 11q-51 0 -95 -19.5t-98 -55.5z" />
<glyph unicode="&#xd6;" horiz-adv-x="1511" d="M113 694q0 201 84 363t230 255t329 93q182 0 329.5 -91t231.5 -253t84 -367q0 -203 -84 -366.5t-231.5 -255.5t-329.5 -92q-185 0 -331 91t-229 253.5t-83 369.5zM283 694q0 -162 59 -288.5t166.5 -197.5t247.5 -71q137 0 245.5 71t169 197.5t60.5 288.5q0 160 -60.5 286 t-168 196.5t-244.5 70.5q-139 0 -248 -71.5t-168 -197.5t-59 -284zM467 1638q0 45 29.5 74t77.5 29q45 0 75.5 -29t30.5 -74t-30.5 -73.5t-75.5 -28.5q-48 0 -77.5 28.5t-29.5 73.5zM838 1638q0 45 29.5 74t76.5 29t77 -29t30 -74t-30 -73.5t-77 -28.5q-45 0 -75.5 28.5 t-30.5 73.5z" />
<glyph unicode="&#xd7;" d="M229 408l269 270l-269 268l103 103l268 -267l268 267l103 -103l-266 -268l266 -270l-103 -103l-268 268l-268 -268z" />
<glyph unicode="&#xd8;" horiz-adv-x="1511" d="M86 -94l205 274q-86 96 -132 227.5t-46 286.5q0 201 84 363t230 255t329 93q205 0 364 -115l140 187h178l-211 -283q82 -96 128 -224t46 -276q0 -205 -84 -367.5t-231.5 -256t-329.5 -93.5q-199 0 -359 109l-135 -180h-176zM283 694q0 -225 110 -375l631 840 q-112 88 -266 88q-139 0 -248 -71.5t-168 -197.5t-59 -284zM496 219q113 -84 260 -84q137 0 245.5 72t169 198.5t60.5 288.5q0 211 -105 365z" />
<glyph unicode="&#xd9;" horiz-adv-x="1421" d="M158 653v731h168v-731q0 -256 101 -387t284 -131q182 0 283.5 130t101.5 386v733h168v-729q0 -211 -68 -363.5t-192.5 -233.5t-292.5 -81q-258 0 -405.5 177.5t-147.5 498.5zM375 1786h207l281 -266h-183z" />
<glyph unicode="&#xda;" horiz-adv-x="1421" d="M158 653v731h168v-731q0 -256 101 -387t284 -131q182 0 283.5 130t101.5 386v733h168v-729q0 -211 -68 -363.5t-192.5 -233.5t-292.5 -81q-258 0 -405.5 177.5t-147.5 498.5zM563 1520l279 266h209l-304 -266h-184z" />
<glyph unicode="&#xdb;" horiz-adv-x="1421" d="M158 653v731h168v-731q0 -256 101 -387t284 -131q182 0 283.5 130t101.5 386v733h168v-729q0 -211 -68 -363.5t-192.5 -233.5t-292.5 -81q-258 0 -405.5 177.5t-147.5 498.5zM369 1518l252 266h182l252 -266h-174l-170 163l-170 -163h-172z" />
<glyph unicode="&#xdc;" horiz-adv-x="1421" d="M158 653v731h168v-731q0 -256 101 -387t284 -131q182 0 283.5 130t101.5 386v733h168v-729q0 -211 -68 -363.5t-192.5 -233.5t-292.5 -81q-258 0 -405.5 177.5t-147.5 498.5zM422 1638q0 45 29.5 74t77.5 29q45 0 75.5 -29t30.5 -74t-30.5 -73.5t-75.5 -28.5 q-48 0 -77.5 28.5t-29.5 73.5zM793 1638q0 45 29.5 74t76.5 29t77 -29t30 -74t-30 -73.5t-77 -28.5q-45 0 -75.5 28.5t-30.5 73.5z" />
<glyph unicode="&#xdd;" horiz-adv-x="1191" d="M37 1384h186l377 -694l375 694h184l-477 -854v-530h-168v532zM446 1520l279 266h209l-304 -266h-184z" />
<glyph unicode="&#xde;" horiz-adv-x="1222" d="M176 0v1384h166v-192h317q147 0 254 -56.5t162 -153.5t55 -222q0 -123 -56 -220.5t-162.5 -153.5t-252.5 -56h-317v-330h-166zM342 485h297q156 0 237.5 73t81.5 202q0 131 -81.5 206.5t-237.5 75.5h-297v-557z" />
<glyph unicode="&#xdf;" horiz-adv-x="1304" d="M152 0v1006q0 156 60 272.5t170 180t251 63.5q176 0 274.5 -86t98.5 -219q0 -76 -39 -133.5t-113 -131.5q-55 -53 -82 -89t-27 -72q0 -55 38 -84t126 -68q51 -20 64 -27q113 -53 182.5 -123.5t69.5 -193.5q0 -141 -103.5 -228t-271.5 -87q-237 0 -389 129l82 112 q66 -49 131 -71.5t147 -22.5q115 0 178.5 45t63.5 127q0 59 -28.5 99t-69.5 63.5t-117 56.5l-43 19q-72 27 -115 51t-70.5 66t-27.5 108t35 118t100 115q63 66 93 109t30 96q0 84 -60.5 130t-164.5 46q-143 0 -227.5 -97t-84.5 -263v-1016h-161z" />
<glyph unicode="&#xe0;" horiz-adv-x="1101" d="M109 283q0 147 114.5 231t319.5 84h266v43q0 154 -64.5 225.5t-203.5 71.5q-82 0 -159 -33t-136 -92l-101 102q78 80 182.5 125t219.5 45q207 0 313.5 -115.5t106.5 -344.5v-625h-101l-49 152q-72 -78 -169 -125t-189 -47q-164 0 -257 79.5t-93 223.5zM223 1507h203 l277 -280h-181zM262 285q0 -74 58.5 -119t150.5 -45q86 0 178 50t160 128v164h-272q-129 0 -202 -47t-73 -131z" />
<glyph unicode="&#xe1;" horiz-adv-x="1101" d="M109 283q0 147 114.5 231t319.5 84h266v43q0 154 -64.5 225.5t-203.5 71.5q-82 0 -159 -33t-136 -92l-101 102q78 80 182.5 125t219.5 45q207 0 313.5 -115.5t106.5 -344.5v-625h-101l-49 152q-72 -78 -169 -125t-189 -47q-164 0 -257 79.5t-93 223.5zM262 285 q0 -74 58.5 -119t150.5 -45q86 0 178 50t160 128v164h-272q-129 0 -202 -47t-73 -131zM405 1227l277 280h203l-300 -280h-180z" />
<glyph unicode="&#xe2;" horiz-adv-x="1101" d="M109 283q0 147 114.5 231t319.5 84h266v43q0 154 -64.5 225.5t-203.5 71.5q-82 0 -159 -33t-136 -92l-101 102q78 80 182.5 125t219.5 45q207 0 313.5 -115.5t106.5 -344.5v-625h-101l-49 152q-72 -78 -169 -125t-189 -47q-164 0 -257 79.5t-93 223.5zM217 1227l246 280 h178l246 -280h-168l-168 174l-170 -174h-164zM262 285q0 -74 58.5 -119t150.5 -45q86 0 178 50t160 128v164h-272q-129 0 -202 -47t-73 -131z" />
<glyph unicode="&#xe3;" horiz-adv-x="1101" d="M109 283q0 147 114.5 231t319.5 84h266v43q0 154 -64.5 225.5t-203.5 71.5q-82 0 -159 -33t-136 -92l-101 102q78 80 182.5 125t219.5 45q207 0 313.5 -115.5t106.5 -344.5v-625h-101l-49 152q-72 -78 -169 -125t-189 -47q-164 0 -257 79.5t-93 223.5zM235 1268v139 q45 39 88.5 58.5t94.5 19.5q45 0 79.5 -13.5t79.5 -37.5q45 -27 75 -40.5t65 -13.5q51 0 92 20.5t92 59.5v-137q-45 -37 -88 -57.5t-98 -20.5q-45 0 -79 13.5t-81 39.5q-6 4 -35 20.5t-53.5 24t-48.5 7.5q-47 0 -89 -20.5t-94 -61.5zM262 285q0 -74 58.5 -119t150.5 -45 q86 0 178 50t160 128v164h-272q-129 0 -202 -47t-73 -131z" />
<glyph unicode="&#xe4;" horiz-adv-x="1101" d="M109 283q0 147 114.5 231t319.5 84h266v43q0 154 -64.5 225.5t-203.5 71.5q-82 0 -159 -33t-136 -92l-101 102q78 80 182.5 125t219.5 45q207 0 313.5 -115.5t106.5 -344.5v-625h-101l-49 152q-72 -78 -169 -125t-189 -47q-164 0 -257 79.5t-93 223.5zM262 285 q0 -74 58.5 -119t150.5 -45q86 0 178 50t160 128v164h-272q-129 0 -202 -47t-73 -131zM264 1366q0 47 28.5 77t76.5 30q45 0 74.5 -30t29.5 -77q0 -43 -29.5 -72.5t-74.5 -29.5q-48 0 -76.5 29.5t-28.5 72.5zM633 1366q0 47 28.5 77t75.5 30t76 -30t29 -77q0 -43 -30 -72.5 t-75 -29.5t-74.5 29.5t-29.5 72.5z" />
<glyph unicode="&#xe5;" horiz-adv-x="1101" d="M109 283q0 147 114.5 231t319.5 84h266v43q0 154 -64.5 225.5t-203.5 71.5q-82 0 -159 -33t-136 -92l-101 102q78 80 182.5 125t219.5 45q207 0 313.5 -115.5t106.5 -344.5v-625h-101l-49 152q-72 -78 -169 -125t-189 -47q-164 0 -257 79.5t-93 223.5zM262 285 q0 -74 58.5 -119t150.5 -45q86 0 178 50t160 128v164h-272q-129 0 -202 -47t-73 -131zM297 1456q0 102 73.5 174t176.5 72q104 0 178 -72t74 -174q0 -104 -74 -177t-178 -73q-68 0 -125 34t-91 91t-34 125zM416 1456q0 -57 39 -97t92 -40q55 0 94 40t39 97q0 55 -39 93 t-94 38q-53 0 -92 -38t-39 -93z" />
<glyph unicode="&#xe6;" horiz-adv-x="1859" d="M109 287q0 147 114.5 233t319.5 86h266v39q0 154 -64.5 223.5t-203.5 69.5q-82 0 -159 -33t-136 -92l-101 102q76 80 181.5 125t220.5 45q272 0 364 -211q66 98 166.5 154.5t220.5 56.5q143 0 247 -69.5t159 -194.5t55 -284v-66h-790q16 -150 112.5 -247t245.5 -97 q166 0 283 121l108 -98q-76 -78 -175 -124t-220 -46q-139 0 -247.5 60t-176.5 165q-92 -106 -205.5 -165.5t-232.5 -59.5q-166 0 -259 81.5t-93 225.5zM262 289q0 -76 58.5 -124t150.5 -48q107 0 205 57t168 150q-20 66 -31 147h-276q-129 0 -202 -49t-73 -133zM971 608h624 q-10 154 -89 245t-214 91t-220 -91t-101 -245z" />
<glyph unicode="&#xe7;" horiz-adv-x="1060" d="M104 532q0 156 67 282t184.5 198.5t265.5 72.5q215 0 364 -163l-104 -103q-53 59 -116 89t-142 30q-160 0 -257.5 -111.5t-97.5 -294.5q0 -121 45 -213t126 -142t184 -50q154 0 268 125l104 -105q-133 -143 -317 -163q59 -76 59 -152q0 -102 -76.5 -156.5t-203.5 -54.5 h-51v123h47q66 0 106.5 26.5t40.5 79.5q0 35 -16.5 67t-51.5 69q-195 29 -311.5 176t-116.5 370z" />
<glyph unicode="&#xe8;" horiz-adv-x="1155" d="M104 537q0 154 62.5 279.5t174.5 197t255 71.5q141 0 245.5 -69.5t160 -194.5t55.5 -284v-56h-791q10 -154 107.5 -255t249.5 -101q168 0 284 121l107 -96q-76 -78 -175.5 -124t-220.5 -46q-157 0 -274 74.5t-178.5 201.5t-61.5 281zM260 1507h203l277 -280h-181z M268 621h623q-10 151 -88 237t-213 86q-131 0 -216 -88t-106 -235z" />
<glyph unicode="&#xe9;" horiz-adv-x="1155" d="M104 537q0 154 62.5 279.5t174.5 197t255 71.5q141 0 245.5 -69.5t160 -194.5t55.5 -284v-56h-791q10 -154 107.5 -255t249.5 -101q168 0 284 121l107 -96q-76 -78 -175.5 -124t-220.5 -46q-157 0 -274 74.5t-178.5 201.5t-61.5 281zM268 621h623q-10 151 -88 237 t-213 86q-131 0 -216 -88t-106 -235zM442 1227l277 280h203l-300 -280h-180z" />
<glyph unicode="&#xea;" horiz-adv-x="1155" d="M104 537q0 154 62.5 279.5t174.5 197t255 71.5q141 0 245.5 -69.5t160 -194.5t55.5 -284v-56h-791q10 -154 107.5 -255t249.5 -101q168 0 284 121l107 -96q-76 -78 -175.5 -124t-220.5 -46q-157 0 -274 74.5t-178.5 201.5t-61.5 281zM256 1227l246 280h178l246 -280h-168 l-168 174l-170 -174h-164zM268 621h623q-10 151 -88 237t-213 86q-131 0 -216 -88t-106 -235z" />
<glyph unicode="&#xeb;" horiz-adv-x="1155" d="M104 537q0 154 62.5 279.5t174.5 197t255 71.5q141 0 245.5 -69.5t160 -194.5t55.5 -284v-56h-791q10 -154 107.5 -255t249.5 -101q168 0 284 121l107 -96q-76 -78 -175.5 -124t-220.5 -46q-157 0 -274 74.5t-178.5 201.5t-61.5 281zM268 621h623q-10 151 -88 237 t-213 86q-131 0 -216 -88t-106 -235zM303 1366q0 47 28.5 77t76.5 30q45 0 74.5 -30t29.5 -77q0 -43 -29.5 -72.5t-74.5 -29.5q-48 0 -76.5 29.5t-28.5 72.5zM672 1366q0 47 28.5 77t75.5 30t76 -30t29 -77q0 -43 -30 -72.5t-75 -29.5t-74.5 29.5t-29.5 72.5z" />
<glyph unicode="&#xec;" horiz-adv-x="475" d="M-64 1507h188l203 -280h-162zM156 0v1065h163v-1065h-163z" />
<glyph unicode="&#xed;" horiz-adv-x="475" d="M152 1227l203 280h188l-229 -280h-162zM156 0v1065h163v-1065h-163z" />
<glyph unicode="&#xee;" horiz-adv-x="475" d="M-96 1227l246 280h178l246 -280h-168l-168 174l-170 -174h-164zM156 0v1065h163v-1065h-163z" />
<glyph unicode="&#xef;" horiz-adv-x="475" d="M-49 1366q0 47 28.5 77t76.5 30q45 0 74.5 -30t29.5 -77q0 -43 -29.5 -72.5t-74.5 -29.5q-48 0 -76.5 29.5t-28.5 72.5zM156 0v1065h163v-1065h-163zM320 1366q0 47 28.5 77t75.5 30t76 -30t29 -77q0 -43 -30 -72.5t-75 -29.5t-74.5 29.5t-29.5 72.5z" />
<glyph unicode="&#xf0;" horiz-adv-x="1232" d="M102 506q0 150 62.5 268.5t175.5 187t258 68.5q84 0 166 -24.5t147 -69.5q-47 139 -161 278l-306 -90v125l211 62q-80 76 -209 162l170 43q96 -59 201 -160l262 76v-125l-176 -50q229 -291 230 -673q0 -172 -63.5 -310.5t-180.5 -216t-271 -77.5q-149 0 -267 67.5 t-183.5 187t-65.5 271.5zM264 508q0 -106 44 -194.5t125 -138.5t183 -50q168 0 262.5 127t94.5 330q0 100 -15 174q-66 61 -150.5 98t-172.5 37q-176 0 -273.5 -102.5t-97.5 -280.5z" />
<glyph unicode="&#xf1;" horiz-adv-x="1198" d="M152 0v1065h102l47 -158q72 84 165 131t196 47q197 0 299 -123.5t102 -351.5v-610h-164v584q0 182 -60.5 267t-199.5 85q-94 0 -178 -51t-146 -142v-743h-163zM288 1268v139q45 39 88.5 58.5t94.5 19.5q45 0 79.5 -13.5t79.5 -37.5q45 -27 75 -40.5t65 -13.5 q51 0 92 20.5t92 59.5v-137q-45 -37 -88 -57.5t-98 -20.5q-45 0 -79 13.5t-81 39.5q-6 4 -35 20.5t-53.5 24t-48.5 7.5q-47 0 -89 -20.5t-94 -61.5z" />
<glyph unicode="&#xf2;" horiz-adv-x="1251" d="M104 532q0 158 68 284t185.5 197.5t267.5 71.5t268.5 -70.5t186 -196.5t67.5 -286t-67.5 -285.5t-186.5 -196t-268 -70.5q-150 0 -267.5 70.5t-185.5 196.5t-68 285zM270 532q0 -186 95.5 -295.5t259.5 -109.5q163 0 260.5 109.5t97.5 295.5q0 184 -97.5 295t-260.5 111 q-162 0 -258.5 -110.5t-96.5 -295.5zM295 1507h203l277 -280h-181z" />
<glyph unicode="&#xf3;" horiz-adv-x="1251" d="M104 532q0 158 68 284t185.5 197.5t267.5 71.5t268.5 -70.5t186 -196.5t67.5 -286t-67.5 -285.5t-186.5 -196t-268 -70.5q-150 0 -267.5 70.5t-185.5 196.5t-68 285zM270 532q0 -186 95.5 -295.5t259.5 -109.5q163 0 260.5 109.5t97.5 295.5q0 184 -97.5 295t-260.5 111 q-162 0 -258.5 -110.5t-96.5 -295.5zM479 1227l277 280h203l-300 -280h-180z" />
<glyph unicode="&#xf4;" horiz-adv-x="1251" d="M104 532q0 158 68 284t185.5 197.5t267.5 71.5t268.5 -70.5t186 -196.5t67.5 -286t-67.5 -285.5t-186.5 -196t-268 -70.5q-150 0 -267.5 70.5t-185.5 196.5t-68 285zM270 532q0 -186 95.5 -295.5t259.5 -109.5q163 0 260.5 109.5t97.5 295.5q0 184 -97.5 295t-260.5 111 q-162 0 -258.5 -110.5t-96.5 -295.5zM291 1227l246 280h178l246 -280h-168l-168 174l-170 -174h-164z" />
<glyph unicode="&#xf5;" horiz-adv-x="1251" d="M104 532q0 158 68 284t185.5 197.5t267.5 71.5t268.5 -70.5t186 -196.5t67.5 -286t-67.5 -285.5t-186.5 -196t-268 -70.5q-150 0 -267.5 70.5t-185.5 196.5t-68 285zM270 532q0 -186 95.5 -295.5t259.5 -109.5q163 0 260.5 109.5t97.5 295.5q0 184 -97.5 295t-260.5 111 q-162 0 -258.5 -110.5t-96.5 -295.5zM309 1268v139q45 39 88.5 58.5t94.5 19.5q45 0 79.5 -13.5t79.5 -37.5q45 -27 75 -40.5t65 -13.5q51 0 92 20.5t92 59.5v-137q-45 -37 -88 -57.5t-98 -20.5q-45 0 -79 13.5t-81 39.5q-6 4 -35 20.5t-53.5 24t-48.5 7.5q-47 0 -89 -20.5 t-94 -61.5z" />
<glyph unicode="&#xf6;" horiz-adv-x="1251" d="M104 532q0 158 68 284t185.5 197.5t267.5 71.5t268.5 -70.5t186 -196.5t67.5 -286t-67.5 -285.5t-186.5 -196t-268 -70.5q-150 0 -267.5 70.5t-185.5 196.5t-68 285zM270 532q0 -186 95.5 -295.5t259.5 -109.5q163 0 260.5 109.5t97.5 295.5q0 184 -97.5 295t-260.5 111 q-162 0 -258.5 -110.5t-96.5 -295.5zM338 1366q0 47 28.5 77t76.5 30q45 0 74.5 -30t29.5 -77q0 -43 -29.5 -72.5t-74.5 -29.5q-48 0 -76.5 29.5t-28.5 72.5zM707 1366q0 47 28.5 77t75.5 30t76 -30t29 -77q0 -43 -30 -72.5t-75 -29.5t-74.5 29.5t-29.5 72.5z" />
<glyph unicode="&#xf7;" d="M209 602v150h782v-150h-782zM489 348q0 51 31 82t78 31q51 0 82 -31t31 -82q0 -47 -32 -78.5t-81 -31.5q-47 0 -78 31.5t-31 78.5zM489 1006q0 49 31 79.5t78 30.5q51 0 82 -30.5t31 -79.5t-32 -81t-81 -32q-47 0 -78 32.5t-31 80.5z" />
<glyph unicode="&#xf8;" horiz-adv-x="1251" d="M86 -86l166 221q-72 74 -110 175.5t-38 221.5q0 158 68 284t185.5 197.5t267.5 71.5q152 0 272 -73l100 135h164l-162 -217q70 -74 109 -176.5t39 -221.5q0 -160 -67.5 -285.5t-186.5 -196t-268 -70.5q-156 0 -271 73l-104 -139h-164zM270 532q0 -162 74 -268l463 625 q-82 49 -182 49q-162 0 -258.5 -110.5t-96.5 -295.5zM440 174q82 -47 185 -47q163 0 260.5 109.5t97.5 295.5q0 162 -78 269z" />
<glyph unicode="&#xf9;" horiz-adv-x="1193" d="M141 455v610h162v-586q0 -182 59.5 -266t204.5 -84q88 0 169 51t143 142v743h163v-1065h-100l-51 158q-70 -84 -161 -131t-193 -47q-197 0 -296.5 122.5t-99.5 352.5zM266 1507h203l277 -280h-181z" />
<glyph unicode="&#xfa;" horiz-adv-x="1193" d="M141 455v610h162v-586q0 -182 59.5 -266t204.5 -84q88 0 169 51t143 142v743h163v-1065h-100l-51 158q-70 -84 -161 -131t-193 -47q-197 0 -296.5 122.5t-99.5 352.5zM448 1227l277 280h203l-300 -280h-180z" />
<glyph unicode="&#xfb;" horiz-adv-x="1193" d="M141 455v610h162v-586q0 -182 59.5 -266t204.5 -84q88 0 169 51t143 142v743h163v-1065h-100l-51 158q-70 -84 -161 -131t-193 -47q-197 0 -296.5 122.5t-99.5 352.5zM260 1227l246 280h178l246 -280h-168l-168 174l-170 -174h-164z" />
<glyph unicode="&#xfc;" horiz-adv-x="1193" d="M141 455v610h162v-586q0 -182 59.5 -266t204.5 -84q88 0 169 51t143 142v743h163v-1065h-100l-51 158q-70 -84 -161 -131t-193 -47q-197 0 -296.5 122.5t-99.5 352.5zM307 1366q0 47 28.5 77t76.5 30q45 0 74.5 -30t29.5 -77q0 -43 -29.5 -72.5t-74.5 -29.5 q-48 0 -76.5 29.5t-28.5 72.5zM676 1366q0 47 28.5 77t75.5 30t76 -30t29 -77q0 -43 -30 -72.5t-75 -29.5t-74.5 29.5t-29.5 72.5z" />
<glyph unicode="&#xfd;" horiz-adv-x="1095" d="M33 1065h178l358 -827l318 827h172l-471 -1182q-123 -309 -385 -309h-66v145h49q94 0 158 50.5t105 154.5l43 115zM399 1227l277 280h203l-300 -280h-180z" />
<glyph unicode="&#xfe;" horiz-adv-x="1259" d="M152 -451v1940l163 33v-600q68 78 164 120.5t203 42.5q137 0 244.5 -66.5t168 -190t60.5 -289.5q0 -170 -71.5 -296t-193.5 -192.5t-265 -66.5q-82 0 -162 29.5t-148 82.5v-514zM315 254q61 -55 140.5 -89t156.5 -34q170 0 274.5 103.5t104.5 304.5q0 188 -89 292.5 t-240 104.5q-106 0 -195.5 -51t-151.5 -142v-489z" />
<glyph unicode="&#xff;" horiz-adv-x="1095" d="M33 1065h178l358 -827l318 827h172l-471 -1182q-123 -309 -385 -309h-66v145h49q94 0 158 50.5t105 154.5l43 115zM260 1366q0 47 28.5 77t76.5 30q45 0 74.5 -30t29.5 -77q0 -43 -29.5 -72.5t-74.5 -29.5q-48 0 -76.5 29.5t-28.5 72.5zM629 1366q0 47 28.5 77t75.5 30 t76 -30t29 -77q0 -43 -30 -72.5t-75 -29.5t-74.5 29.5t-29.5 72.5z" />
<glyph unicode="&#x152;" horiz-adv-x="2228" d="M113 694q0 201 84 364t230 255t325 92q150 0 274.5 -68.5t204.5 -193.5v241h885v-157h-717v-432h626v-160h-626v-475h739v-160h-907v248q-82 -127 -207 -199t-272 -72q-183 0 -328 91.5t-228 255t-83 370.5zM283 696q0 -160 58 -287.5t165.5 -200.5t249.5 -73 q137 0 245.5 73t169 201t60.5 287q0 160 -59.5 286t-167 195.5t-246.5 69.5t-247 -71.5t-168 -197.5t-60 -282z" />
<glyph unicode="&#x153;" horiz-adv-x="2045" d="M104 532q0 158 68 284t185.5 197.5t267.5 71.5q143 0 258.5 -67.5t185.5 -186.5q61 119 170 186.5t248 67.5q143 0 246.5 -69.5t159 -194.5t55.5 -284v-56h-791q10 -152 107.5 -253t248.5 -101q164 0 285 121l107 -98q-76 -78 -175.5 -124t-218.5 -46q-152 0 -264 68.5 t-178 187.5q-68 -121 -183.5 -188.5t-260.5 -67.5q-150 0 -267.5 70.5t-185.5 196.5t-68 285zM268 532q0 -186 96.5 -294.5t260.5 -108.5q163 0 260.5 109.5t97.5 293.5t-97.5 295t-260.5 111q-162 0 -259.5 -110.5t-97.5 -295.5zM1159 618h623q-10 152 -88 240t-213 88 q-133 0 -218 -89t-104 -239z" />
<glyph unicode="&#x178;" horiz-adv-x="1191" d="M37 1384h186l377 -694l375 694h184l-477 -854v-530h-168v532zM305 1638q0 45 29.5 74t77.5 29q45 0 75.5 -29t30.5 -74t-30.5 -73.5t-75.5 -28.5q-48 0 -77.5 28.5t-29.5 73.5zM676 1638q0 45 29.5 74t76.5 29t77 -29t30 -74t-30 -73.5t-77 -28.5q-45 0 -75.5 28.5 t-30.5 73.5z" />
<glyph unicode="&#x2c6;" horiz-adv-x="1204" d="M268 1227l246 280h178l246 -280h-168l-168 174l-170 -174h-164z" />
<glyph unicode="&#x2dc;" horiz-adv-x="1204" d="M285 1268v139q45 39 88 58.5t94 19.5q45 0 80 -13.5t80 -37.5q45 -27 74.5 -40.5t64.5 -13.5q51 0 92 20.5t92 59.5v-137q-45 -37 -88 -57.5t-98 -20.5q-45 0 -79 13.5t-81 39.5q-6 4 -34.5 20.5t-53 24t-49.5 7.5q-47 0 -89 -20.5t-93 -61.5z" />
<glyph unicode="&#x2000;" horiz-adv-x="893" />
<glyph unicode="&#x2001;" horiz-adv-x="1786" />
<glyph unicode="&#x2002;" horiz-adv-x="893" />
<glyph unicode="&#x2003;" horiz-adv-x="1786" />
<glyph unicode="&#x2004;" horiz-adv-x="595" />
<glyph unicode="&#x2005;" horiz-adv-x="446" />
<glyph unicode="&#x2006;" horiz-adv-x="297" />
<glyph unicode="&#x2007;" horiz-adv-x="297" />
<glyph unicode="&#x2008;" horiz-adv-x="223" />
<glyph unicode="&#x2009;" horiz-adv-x="357" />
<glyph unicode="&#x200a;" horiz-adv-x="99" />
<glyph unicode="&#x2010;" horiz-adv-x="911" d="M129 526v154h653v-154h-653z" />
<glyph unicode="&#x2011;" horiz-adv-x="911" d="M129 526v154h653v-154h-653z" />
<glyph unicode="&#x2012;" horiz-adv-x="911" d="M129 526v154h653v-154h-653z" />
<glyph unicode="&#x2013;" horiz-adv-x="1003" d="M0 528v150h1004v-150h-1004z" />
<glyph unicode="&#x2014;" horiz-adv-x="2007" d="M0 528v150h2007v-150h-2007z" />
<glyph unicode="&#x2018;" horiz-adv-x="487" d="M125 958q12 109 55 221.5t103 206.5h145q-53 -98 -89 -209.5t-48 -218.5h-166z" />
<glyph unicode="&#x2019;" horiz-adv-x="487" d="M70 956q53 95 89 207.5t50 220.5h166q-14 -111 -57.5 -223t-102.5 -205h-145z" />
<glyph unicode="&#x201a;" horiz-adv-x="501" d="M39 -242q55 97 96 217.5t55 231.5h168q-12 -119 -58 -236.5t-110 -212.5h-151z" />
<glyph unicode="&#x201c;" horiz-adv-x="808" d="M125 958q12 109 55 221.5t103 206.5h145q-53 -98 -89 -209.5t-48 -218.5h-166zM446 958q13 109 56 221.5t102 206.5h146q-53 -98 -89 -209.5t-49 -218.5h-166z" />
<glyph unicode="&#x201d;" horiz-adv-x="808" d="M70 956q53 95 89 207.5t50 220.5h166q-14 -111 -57.5 -223t-102.5 -205h-145zM391 956q53 95 89 207.5t50 220.5h166q-14 -111 -57 -223t-102 -205h-146z" />
<glyph unicode="&#x201e;" horiz-adv-x="823" d="M39 -242q55 97 96 217.5t55 231.5h168q-12 -119 -58 -236.5t-110 -212.5h-151zM360 -242q56 97 97 217.5t55 231.5h168q-12 -119 -58.5 -236.5t-109.5 -212.5h-152z" />
<glyph unicode="&#x2022;" horiz-adv-x="778" d="M182 717q0 90 60.5 149.5t146.5 59.5t146.5 -59.5t60.5 -149.5q0 -86 -60.5 -145.5t-146.5 -59.5t-146.5 59.5t-60.5 145.5z" />
<glyph unicode="&#x2026;" horiz-adv-x="1449" d="M143 100q0 53 32 86t83 33q53 0 86 -32.5t33 -86.5q0 -51 -33 -84.5t-86 -33.5q-51 0 -83 33.5t-32 84.5zM608 100q0 53 32 86t83 33q53 0 86 -32.5t33 -86.5q0 -51 -33 -84.5t-86 -33.5q-51 0 -83 33.5t-32 84.5zM1075 100q0 53 32 86t83 33q53 0 86 -32.5t33 -86.5 q0 -51 -33 -84.5t-86 -33.5q-51 0 -83 33.5t-32 84.5z" />
<glyph unicode="&#x202f;" horiz-adv-x="357" />
<glyph unicode="&#x2039;" horiz-adv-x="628" d="M94 578l275 393h172l-262 -393l262 -396h-172z" />
<glyph unicode="&#x203a;" horiz-adv-x="628" d="M88 182l264 393l-264 396h174l273 -396l-273 -393h-174z" />
<glyph unicode="&#x205f;" horiz-adv-x="446" />
<glyph unicode="&#x20ac;" d="M18 451l35 137h127q-4 57 -4 84q0 51 6 100h-164l35 137h156q59 207 207.5 332t339.5 125q129 0 228 -46t181 -134l-104 -109q-127 135 -301 135q-131 0 -231.5 -81.5t-149.5 -221.5h465l-37 -137h-459q-4 -61 -4 -100q0 -27 4 -84h410l-37 -137h-344 q45 -145 146.5 -230.5t232.5 -85.5q94 0 171 33t148 102l107 -108q-90 -92 -194.5 -137t-235.5 -45q-203 0 -349.5 128t-199.5 343h-185z" />
<glyph unicode="&#x2122;" horiz-adv-x="1738" d="M63 1260v124h609v-124h-238v-601h-131v601h-240zM807 659v725h125l258 -456l274 456h125v-725h-129v488l-217 -348h-104l-207 344v-484h-125z" />
<glyph unicode="&#x25fc;" horiz-adv-x="1064" d="M0 0v1065h1065v-1065h-1065z" />
</font>
</defs>
</svg>
