<?xml version="1.0" standalone="no"?>
<!DOCTYPE svg PUBLIC "-//W3C//DTD SVG 1.1//EN" "http://www.w3.org/Graphics/SVG/1.1/DTD/svg11.dtd" >
<svg xmlns="http://www.w3.org/2000/svg" xmlns:xlink="http://www.w3.org/1999/xlink" version="1.1">
<metadata></metadata>
<defs>
<font id="bradesco_sanslight" horiz-adv-x="1200" >
<font-face units-per-em="2048" ascent="1638" descent="-410" />
<missing-glyph horiz-adv-x="522" />
<glyph unicode="&#xfb01;" horiz-adv-x="1226" d="M162 0v1114q0 182 96 290.5t264 108.5q127 0 230 -83l-52 -74q-78 61 -182 61q-121 0 -186.5 -81t-65.5 -216v-63h461v-92h-461v-965h-104zM932 1366q0 35 21.5 58.5t56.5 23.5q33 0 55 -23.5t22 -58.5q0 -33 -22.5 -55.5t-54.5 -22.5q-35 0 -56.5 22.5t-21.5 55.5z M956 0v1057h103v-1057h-103z" />
<glyph unicode="&#xfb02;" horiz-adv-x="1353" d="M162 0v1114q0 182 96 290.5t264 108.5q127 0 230 -83l-52 -74q-78 61 -182 61q-121 0 -186.5 -81t-65.5 -216v-63h461v-92h-461v-965h-104zM950 342v1145l103 26v-1181q0 -121 55 -185.5t156 -64.5h43v-92h-50q-147 0 -227 91t-80 261z" />
<glyph horiz-adv-x="0" />
<glyph horiz-adv-x="682" />
<glyph unicode=" "  horiz-adv-x="522" />
<glyph unicode="&#x09;" horiz-adv-x="522" />
<glyph unicode="&#xa0;" horiz-adv-x="522" />
<glyph unicode="!" horiz-adv-x="499" d="M164 68q0 41 22.5 64.5t61.5 23.5q41 0 64.5 -23.5t23.5 -64.5q0 -37 -24.5 -62.5t-63.5 -25.5q-37 0 -60.5 25.5t-23.5 62.5zM193 1384h112l-8 -1024h-96z" />
<glyph unicode="&#x22;" horiz-adv-x="774" d="M168 1384h113l-9 -510h-96zM494 1384h112l-8 -510h-96z" />
<glyph unicode="#" horiz-adv-x="1308" d="M137 365l15 88h200l66 452h-203l12 88h201l41 291h96l-41 -291h359l41 291h96l-41 -291h190l-12 -88h-190l-64 -452h191l-15 -88h-190l-43 -306h-94l43 306h-359l-43 -306h-96l45 306h-205zM449 453h358l63 452h-358z" />
<glyph unicode="$" d="M106 195l64 67q92 -90 198.5 -133t243.5 -43q166 0 259.5 66.5t93.5 189.5q0 125 -92.5 194.5t-292.5 114.5q-156 35 -249 80t-138.5 117t-45.5 182q0 90 52.5 165t145.5 121t208 54v234l104 28v-264q203 -20 359 -174l-66 -68q-72 72 -164 110t-190 38 q-156 0 -252 -67.5t-96 -178.5q0 -86 38 -136t117.5 -82t235.5 -67q219 -51 323.5 -147t104.5 -248q0 -158 -107.5 -253t-302.5 -105v-262l-104 -27v289q-263 19 -447 205z" />
<glyph unicode="%" horiz-adv-x="1839" d="M113 961q0 113 42 201.5t117.5 140t173.5 51.5q150 0 242 -109.5t92 -283.5q0 -115 -42 -204t-117.5 -140.5t-174.5 -51.5q-151 0 -242 109.5t-91 286.5zM209 961q0 -135 62.5 -220.5t174.5 -85.5q111 0 173.5 84t62.5 222q0 137 -61.5 221t-171.5 84q-113 0 -176.5 -85 t-63.5 -220zM324 0l1067 1346h120l-1065 -1346h-122zM1059 383q0 113 42 202t117.5 139t174.5 50q152 0 244 -108.5t92 -282.5q0 -115 -42 -205t-118 -141t-174 -51q-154 0 -245 109.5t-91 287.5zM1157 383q0 -137 61.5 -222t174.5 -85q110 0 172.5 85t62.5 222 q0 135 -61.5 219t-171.5 84q-111 0 -174.5 -85t-63.5 -218z" />
<glyph unicode="&#x26;" horiz-adv-x="1308" d="M98 369q0 133 85 232t216 153q-76 88 -111.5 158.5t-35.5 154.5q0 98 51 175t142.5 120t203.5 43q209 0 373 -184l-72 -68q-70 78 -141.5 116t-159.5 38q-135 0 -216 -68t-81 -178q0 -80 48.5 -150.5t162.5 -189.5l60 -64l356 -383q106 147 106 369v68h99v-64 q0 -129 -36 -242.5t-101 -201.5l188 -203h-127l-125 133q-78 -74 -179.5 -113.5t-217.5 -39.5q-146 0 -256.5 48t-171 137t-60.5 204zM201 379q0 -135 108.5 -219t282.5 -84q193 0 326 127l-455 483q-113 -41 -187.5 -120t-74.5 -187z" />
<glyph unicode="'" horiz-adv-x="448" d="M168 1384h113l-9 -510h-96z" />
<glyph unicode="(" horiz-adv-x="673" d="M160 621q0 244 90 479t252 405h116q-166 -176 -257 -411.5t-91 -472.5q0 -242 91.5 -477.5t256.5 -409.5h-116q-164 168 -253 402.5t-89 484.5z" />
<glyph unicode=")" horiz-adv-x="673" d="M55 -266q166 176 257 410.5t91 473.5q0 242 -91 477.5t-257 409.5h119q164 -168 252 -402.5t88 -484.5q0 -244 -89 -479t-251 -405h-119z" />
<glyph unicode="*" horiz-adv-x="714" d="M82 997l199 129l-199 127l49 70l188 -133l-6 231h88l-6 -231l189 133l49 -70l-199 -127l199 -129l-49 -69l-189 135l6 -232h-88l6 232l-188 -135z" />
<glyph unicode="+" d="M182 631v92h371v373h94v-373h371v-92h-371v-373h-94v373h-371z" />
<glyph unicode="," horiz-adv-x="518" d="M70 -252q57 86 99 200.5t54 207.5h111q-12 -100 -58.5 -214t-105.5 -194h-100z" />
<glyph unicode="-" horiz-adv-x="882" d="M129 551v96h627v-96h-627z" />
<glyph unicode="." horiz-adv-x="518" d="M172 68q0 39 23.5 63.5t60.5 24.5q41 0 64.5 -23.5t23.5 -64.5q0 -39 -23.5 -63.5t-64.5 -24.5q-37 0 -60.5 25.5t-23.5 62.5z" />
<glyph unicode="/" horiz-adv-x="886" d="M41 -266l694 1771h111l-694 -1771h-111z" />
<glyph unicode="0" horiz-adv-x="1263" d="M117 676q0 195 63.5 351.5t181 246.5t269.5 90q156 0 272.5 -88t180 -243.5t63.5 -356.5q0 -199 -63.5 -357.5t-180.5 -248.5t-270 -90q-158 0 -274.5 88t-179 245.5t-62.5 362.5zM221 678q0 -174 48 -310.5t141.5 -212t220.5 -75.5t220 76.5t142 212t49 309.5 q0 172 -49 305t-142 207t-220 74q-125 0 -218.5 -76t-142.5 -210t-49 -300z" />
<glyph unicode="1" horiz-adv-x="729" d="M78 1133v90l350 123h78v-1346h-103v1235z" />
<glyph unicode="2" horiz-adv-x="1136" d="M119 1163q190 201 446 201q199 0 314.5 -100.5t115.5 -268.5q0 -111 -58 -214t-171 -214l-481 -469h727v-98h-881v76l543 536q109 104 162 191.5t53 179.5q0 133 -85 208t-247 75q-207 0 -373 -170z" />
<glyph unicode="3" horiz-adv-x="1138" d="M84 158l68 69q76 -68 173 -107.5t212 -39.5q170 0 269 84t99 221q0 141 -105.5 217t-289.5 76h-115v67l439 502h-703v99h832v-76l-433 -500q221 -4 351.5 -105.5t130.5 -283.5q0 -117 -57.5 -208t-165 -142t-250.5 -51q-136 0 -253.5 49t-201.5 129z" />
<glyph unicode="4" horiz-adv-x="1212" d="M92 371v78l717 897h100v-879h213v-96h-213v-371h-100v371h-717zM219 467h590v737z" />
<glyph unicode="5" horiz-adv-x="1116" d="M102 158l68 69q158 -147 377 -147q156 0 249 85t93 228q0 145 -94.5 223t-262.5 78h-346v64l121 588h604v-99h-532l-90 -456h237q221 0 345 -103.5t124 -296.5q0 -121 -55 -214t-156.5 -145t-236.5 -52q-137 0 -250 48t-195 130z" />
<glyph unicode="6" horiz-adv-x="1167" d="M133 612q0 229 62.5 398.5t181.5 261.5t282 92q213 0 371 -172l-69 -64q-70 72 -143 105t-163 33q-184 0 -294.5 -147.5t-122.5 -401.5q88 47 191 72.5t206 25.5q131 0 228.5 -53t148.5 -147.5t51 -211.5q0 -115 -56.5 -212t-157.5 -154t-228 -57q-230 0 -359 165.5 t-129 466.5zM236 618q0 -264 98 -402t280 -138q158 0 250 92t92 238q0 139 -87 225t-244 86q-102 0 -206 -26.5t-183 -74.5z" />
<glyph unicode="7" horiz-adv-x="1124" d="M111 1249v97h915v-70l-586 -1276h-110l577 1249h-796z" />
<glyph unicode="8" horiz-adv-x="1216" d="M127 354q0 111 69.5 207t198.5 166q-223 109 -223 305q0 96 56.5 172t157.5 118t230 42q133 0 233.5 -44t155 -123t54.5 -181q0 -100 -56.5 -188.5t-168.5 -149.5q256 -111 256 -334q0 -109 -60.5 -191.5t-170 -127.5t-251.5 -45q-141 0 -250.5 47t-170 132t-60.5 195z M231 356q0 -127 106.5 -204.5t274.5 -77.5q166 0 269.5 72.5t103.5 195.5q0 125 -96 194.5t-291 118.5l-102 31q-123 -53 -194 -141t-71 -189zM274 1036q0 -115 87.5 -181.5t269.5 -111.5q63 -14 98 -26q111 47 170 128t59 169q0 119 -92 188.5t-250 69.5q-154 0 -248 -65.5 t-94 -170.5z" />
<glyph unicode="9" horiz-adv-x="1167" d="M104 954q0 115 59.5 209t162 147.5t227.5 53.5q227 0 354 -166t127 -469q0 -362 -132 -555.5t-390 -193.5q-221 0 -377 170l70 63q72 -70 145.5 -102.5t165.5 -32.5q195 0 300.5 144.5t115.5 424.5q-88 -47 -193.5 -72.5t-206.5 -25.5q-199 0 -313.5 110.5t-114.5 294.5z M209 950q0 -143 89 -224t245 -81q104 0 206.5 26.5t182.5 76.5q-2 254 -99.5 386t-273.5 132q-158 0 -254 -86t-96 -230z" />
<glyph unicode=":" horiz-adv-x="518" d="M172 68q0 39 23.5 63.5t60.5 24.5q41 0 64.5 -23.5t23.5 -64.5q0 -39 -23.5 -63.5t-64.5 -24.5q-37 0 -60.5 25.5t-23.5 62.5zM172 981q0 39 23.5 63.5t60.5 24.5q41 0 64.5 -23.5t23.5 -64.5q0 -39 -23.5 -63.5t-64.5 -24.5q-37 0 -60.5 25.5t-23.5 62.5z" />
<glyph unicode=";" horiz-adv-x="518" d="M70 -252q57 86 99 200.5t54 207.5h111q-12 -100 -58.5 -214t-105.5 -194h-100zM172 981q0 39 23.5 63.5t60.5 24.5q41 0 64.5 -23.5t23.5 -64.5q0 -39 -23.5 -63.5t-64.5 -24.5q-37 0 -60.5 25.5t-23.5 62.5z" />
<glyph unicode="&#x3c;" d="M262 639v78l631 358l45 -78l-567 -319l567 -320l-45 -79z" />
<glyph unicode="=" d="M225 430v94h750v-94h-750zM225 831v95h750v-95h-750z" />
<glyph unicode="&#x3e;" d="M262 358l567 320l-567 319l45 80l631 -360v-78l-631 -358z" />
<glyph unicode="?" horiz-adv-x="1079" d="M72 1212q86 88 208.5 140.5t251.5 52.5q203 0 314.5 -97.5t111.5 -260.5q0 -92 -48 -167t-132 -145q-109 -92 -162 -157.5t-53 -151.5v-66h-102v62q0 76 31.5 138.5t76.5 108.5t119 109q78 66 122 128.5t44 135.5q0 127 -84 195t-242 68q-115 0 -214 -44t-179 -118z M430 68q0 39 23.5 63.5t60.5 24.5q41 0 64.5 -23.5t23.5 -64.5q0 -39 -23.5 -63.5t-64.5 -24.5q-37 0 -60.5 25.5t-23.5 62.5z" />
<glyph unicode="@" horiz-adv-x="1898" d="M125 512q0 252 121 451.5t321.5 310t425.5 110.5q238 0 419 -89t280.5 -246.5t99.5 -354.5q0 -168 -69.5 -299t-187.5 -203.5t-259 -72.5h-53l-21 104q-59 -57 -133 -90t-149 -33q-166 0 -263.5 115t-97.5 305q0 121 51.5 217.5t142.5 150.5t203 54q61 0 133 -27.5 t121 -68.5l15 80h80v-721q109 6 196.5 66.5t139 169t51.5 253.5q0 170 -86 305.5t-245 213t-368 77.5q-203 0 -379 -98t-282.5 -276.5t-106.5 -403.5q0 -217 90.5 -386t249 -263t359.5 -94q295 0 467 159l65 -69q-201 -188 -536 -189q-228 0 -409 106.5t-283.5 298 t-102.5 437.5zM664 518q0 -150 72.5 -235.5t199.5 -85.5q141 0 260 129v434q-106 86 -229 86q-135 0 -219 -87t-84 -241z" />
<glyph unicode="A" horiz-adv-x="1288" d="M51 0l547 1384h96l543 -1384h-111l-159 420h-648l-163 -420h-105zM358 518h570l-285 737z" />
<glyph unicode="B" horiz-adv-x="1204" d="M186 0v1384h424q195 0 304.5 -98t109.5 -262q0 -104 -50 -182t-143 -121q127 -33 200 -124t73 -218q0 -178 -112.5 -278.5t-311.5 -100.5h-494zM285 92h377q337 0 337 287q0 127 -88 202.5t-239 75.5h-387v-565zM285 754h317q154 0 237 69.5t83 200.5t-84 199.5 t-244 68.5h-309v-538z" />
<glyph unicode="C" horiz-adv-x="1320" d="M119 694q0 207 82 369t227 252t332 90q127 0 237.5 -52.5t194.5 -146.5l-70 -67q-72 80 -164 123t-200 43q-158 0 -279 -77t-188.5 -215.5t-67.5 -318.5t66.5 -319t185.5 -217t273 -78q223 0 397 164l67 -70q-194 -194 -464 -194h-3q-186 0 -328.5 90t-220 251.5 t-77.5 372.5z" />
<glyph unicode="D" horiz-adv-x="1370" d="M186 0v1384h394q207 0 358.5 -86t232 -241.5t80.5 -360.5q0 -201 -83 -358.5t-234.5 -247.5t-351.5 -90h-396zM291 98h291q174 0 301 76t194.5 212t67.5 312q0 174 -66.5 307.5t-193.5 207t-303 73.5h-291v-1188z" />
<glyph unicode="E" horiz-adv-x="1134" d="M186 0v1384h844v-100h-739v-516h647v-102h-647v-564h764v-102h-869z" />
<glyph unicode="F" horiz-adv-x="1134" d="M186 0v1384h852v-100h-747v-516h651v-102h-651v-666h-105z" />
<glyph unicode="G" horiz-adv-x="1366" d="M119 694q0 209 83 371t231.5 251t338.5 89q127 0 239.5 -53.5t192.5 -145.5l-65 -65q-150 164 -369 164q-162 0 -286 -76t-192.5 -215.5t-68.5 -319.5t65.5 -319t183.5 -217t273 -78q119 0 211.5 35t173.5 102v375h-405v98h508v-516q-98 -94 -225 -144t-267 -50 q-186 0 -326.5 89t-218 250.5t-77.5 374.5z" />
<glyph unicode="H" horiz-adv-x="1355" d="M186 0v1384h105v-616h774v616h104v-1384h-104v666h-774v-666h-105z" />
<glyph unicode="I" horiz-adv-x="477" d="M186 0v1384h105v-1384h-105z" />
<glyph unicode="J" horiz-adv-x="745" d="M59 0v100h95q150 0 231.5 89.5t81.5 246.5v948h104v-940q0 -211 -108.5 -327.5t-308.5 -116.5h-95z" />
<glyph unicode="K" horiz-adv-x="1304" d="M186 0v1384h105v-620h219q82 0 136 25.5t94 74.5t98 144l231 376h115l-262 -426q-53 -86 -97.5 -140t-95.5 -87l537 -731h-127l-506 684q-55 -18 -133 -18h-209v-666h-105z" />
<glyph unicode="L" horiz-adv-x="1101" d="M186 0v1384h105v-1282h737v-102h-842z" />
<glyph unicode="M" horiz-adv-x="1714" d="M186 0v1384h103l547 -981l594 981h98v-1384h-105v1194l-546 -901h-86l-502 891v-1184h-103z" />
<glyph unicode="N" horiz-adv-x="1359" d="M186 0v1384h86l801 -1189v1189h101v-1384h-87l-800 1190v-1190h-101z" />
<glyph unicode="O" horiz-adv-x="1495" d="M119 696q0 199 82 361t225 255t322 93q180 0 323 -91t224 -252t81 -366q0 -203 -82 -366.5t-225 -256.5t-321 -93q-183 0 -326 91t-223 254.5t-80 370.5zM223 696q0 -176 66.5 -316t185.5 -220t273 -80q149 0 269 80t187.5 220t67.5 316t-66.5 314.5t-186.5 216.5 t-271 78q-152 0 -272 -80t-186.5 -218.5t-66.5 -310.5z" />
<glyph unicode="P" horiz-adv-x="1196" d="M186 0v1384h445q213 0 336 -113.5t123 -303.5q0 -123 -56.5 -217.5t-160 -146.5t-242.5 -52h-342v-551h-103zM289 651h325q177 0 273 81t96 235q0 156 -95 237.5t-274 81.5h-325v-635z" />
<glyph unicode="Q" horiz-adv-x="1495" d="M119 696q0 199 82 361t225 255t322 93q180 0 323 -91t224 -252t81 -366q0 -170 -57 -313t-162 -242l203 -268l-82 -57l-199 264q-149 -100 -331 -100t-325.5 91t-223.5 254.5t-80 370.5zM223 696q0 -176 66.5 -317t185.5 -221t273 -80q149 0 272 84l-189 250l80 57 l185 -246q84 86 130 208t46 265q0 176 -66.5 315.5t-186.5 217.5t-271 78q-152 0 -272 -80t-186.5 -219.5t-66.5 -311.5z" />
<glyph unicode="R" horiz-adv-x="1218" d="M186 0v1384h426q213 0 335 -104t122 -289q0 -135 -80 -231t-219 -131q70 -37 126 -105.5t120 -193.5l166 -330h-117l-141 279q-57 115 -104.5 178t-121 101t-190.5 38h-219v-596h-103zM289 694h309q176 0 271.5 78t95.5 217q0 297 -367 297h-309v-592z" />
<glyph unicode="S" horiz-adv-x="1167" d="M74 188l67 68q94 -92 205 -135t248 -43q170 0 266 69.5t96 194.5q0 131 -93 201.5t-300 118.5q-160 37 -256 85t-143 120.5t-47 185.5q0 96 59.5 177t163.5 128t238 47q250 0 428 -182l-66 -68q-158 152 -362 152q-164 0 -262.5 -71t-98.5 -185q0 -86 42 -139.5 t127 -88.5t235 -67q225 -53 331.5 -150.5t106.5 -257.5q0 -170 -124 -269t-347 -99h-3q-303 0 -511 208z" />
<glyph unicode="T" horiz-adv-x="1243" d="M78 1284v100h1087v-100h-491v-1284h-105v1284h-491z" />
<glyph unicode="U" horiz-adv-x="1382" d="M168 639v745h104v-745q0 -270 106.5 -415.5t309.5 -145.5t311.5 146.5t108.5 414.5v745h104v-745q0 -203 -62.5 -351.5t-180 -228t-281.5 -79.5q-252 0 -386 172t-134 487z" />
<glyph unicode="V" horiz-adv-x="1288" d="M53 1384h113l479 -1245l483 1245h107l-545 -1384h-96z" />
<glyph unicode="W" horiz-adv-x="1910" d="M68 1384h110l348 -1237l387 1156h103l366 -1156l355 1237h106l-409 -1384h-101l-377 1155l-378 -1155h-103z" />
<glyph unicode="X" horiz-adv-x="1288" d="M63 0l517 729l-467 655h127l405 -577l410 577h119l-469 -655l520 -729h-127l-459 645l-457 -645h-119z" />
<glyph unicode="Y" horiz-adv-x="1118" d="M41 1384h113l405 -747l408 747h112l-469 -845v-539h-104v539z" />
<glyph unicode="Z" horiz-adv-x="1220" d="M86 0v82l899 1202h-870v100h1005v-79l-899 -1203h922v-102h-1057z" />
<glyph unicode="[" horiz-adv-x="786" d="M217 -266v1771h502l-21 -98h-376v-1575h376l21 -98h-502z" />
<glyph unicode="\" horiz-adv-x="886" d="M41 1505h111l694 -1771h-111z" />
<glyph unicode="]" horiz-adv-x="786" d="M68 -266l20 98h377v1575h-377l-20 98h501v-1771h-501z" />
<glyph unicode="^" d="M180 702l371 682h102l367 -682h-105l-311 584l-317 -584h-107z" />
<glyph unicode="_" horiz-adv-x="1003" d="M0 -182h1004v-90h-1004v90z" />
<glyph unicode="`" horiz-adv-x="1204" d="M410 1495h137l248 -268h-119z" />
<glyph unicode="a" horiz-adv-x="1079" d="M109 270q0 143 109.5 226.5t301.5 83.5h309v61q0 174 -73.5 257t-227.5 83q-84 0 -164.5 -36t-144.5 -99l-67 63q72 78 172 123t206 45q399 0 400 -448v-629h-66l-30 166q-80 -86 -184.5 -136t-217.5 -50q-149 0 -236 78.5t-87 211.5zM209 272q0 -90 63.5 -144t167.5 -54 q109 0 211.5 53t177.5 143v219h-313q-143 0 -225 -57t-82 -160z" />
<glyph unicode="b" horiz-adv-x="1206" d="M162 0v1487l104 26v-610q74 82 172.5 128t200.5 46q137 0 241.5 -66.5t162 -189.5t57.5 -286q0 -166 -66.5 -291t-183.5 -192.5t-262 -67.5q-88 0 -179.5 37.5t-156.5 101.5l-25 -123h-65zM266 217q70 -61 151 -99t163 -38q188 0 301.5 118.5t113.5 333.5q0 213 -96 331 t-268 118q-104 0 -198.5 -51t-166.5 -142v-571z" />
<glyph unicode="c" horiz-adv-x="1058" d="M106 528q0 160 65 285t179.5 194.5t259.5 69.5q104 0 191.5 -42t150.5 -113l-67 -66q-113 125 -275 125q-119 0 -210 -56.5t-141 -158.5t-50 -238q0 -133 50 -236.5t139 -160.5t204 -57q170 0 301 127l66 -66q-151 -155 -366 -155h-3q-145 0 -258 68.5t-174.5 193.5 t-61.5 286z" />
<glyph unicode="d" horiz-adv-x="1206" d="M106 524q0 166 67 291t183.5 193.5t261.5 68.5q86 0 172.5 -32.5t151.5 -86.5v529l102 26v-1513h-65l-31 160q-74 -84 -174 -132t-207 -48q-137 0 -241.5 66.5t-162 189t-57.5 288.5zM211 526q0 -213 97.5 -331.5t269.5 -118.5q104 0 198 52t166 144v582 q-70 59 -150.5 94t-164.5 35q-188 0 -302 -121t-114 -336z" />
<glyph unicode="e" horiz-adv-x="1134" d="M106 535q0 156 60.5 279.5t170 193t247.5 69.5q137 0 238.5 -67.5t154.5 -189.5t53 -283v-33h-821q6 -190 115.5 -309t285.5 -119q84 0 162 31.5t139 91.5l66 -64q-159 -155 -366 -155h-3q-151 0 -265 70.5t-175.5 196.5t-61.5 288zM211 596h715q-11 180 -102 284.5 t-246 104.5q-154 0 -253.5 -107.5t-113.5 -281.5z" />
<glyph unicode="f" horiz-adv-x="790" d="M162 0v1114q0 182 96 290.5t264 108.5q127 0 230 -83l-52 -74q-78 61 -182 61q-121 0 -186.5 -81t-65.5 -216v-63h461v-92h-461v-965h-104z" />
<glyph unicode="g" horiz-adv-x="1196" d="M100 543q0 160 66.5 280.5t182.5 187t259 66.5q92 0 182.5 -35.5t155.5 -93.5l23 109h63v-1037q0 -143 -58.5 -250.5t-166 -166t-248.5 -58.5q-256 0 -418 162l64 70q141 -137 352 -137q174 0 273.5 99t99.5 284v165q-76 -80 -174.5 -126t-198.5 -46q-135 0 -238.5 65.5 t-161 184.5t-57.5 277zM203 543q0 -201 98 -316.5t268 -115.5q101 0 195 50t166 140v555q-68 59 -149 93t-165 34q-184 0 -298.5 -116.5t-114.5 -323.5z" />
<glyph unicode="h" horiz-adv-x="1169" d="M162 0v1487l104 26v-624q78 94 178.5 141t200.5 47q182 0 278.5 -121.5t96.5 -349.5v-606h-102v590q0 188 -66 289.5t-221 101.5q-100 0 -194.5 -53.5t-170.5 -155.5v-772h-104z" />
<glyph unicode="i" horiz-adv-x="436" d="M141 1366q0 35 21.5 58.5t56.5 23.5t56.5 -23.5t21.5 -58.5q0 -33 -21.5 -55.5t-56.5 -22.5t-56.5 22.5t-21.5 55.5zM166 0v1057h104v-1057h-104z" />
<glyph unicode="j" horiz-adv-x="436" d="M-86 -338h43q100 0 154.5 64.5t54.5 183.5v1147h104v-1135q0 -168 -80.5 -261t-228.5 -93h-47v94zM141 1366q0 35 21.5 58.5t56.5 23.5t56.5 -23.5t21.5 -58.5q0 -33 -21.5 -55.5t-56.5 -22.5t-56.5 22.5t-21.5 55.5z" />
<glyph unicode="k" horiz-adv-x="1095" d="M162 0v1487l104 26v-921h178q82 0 141.5 41t125.5 143l176 281h112l-204 -322q-80 -125 -154 -178l428 -557h-127l-393 510q-41 -12 -90 -12h-193v-498h-104z" />
<glyph unicode="l" horiz-adv-x="552" d="M150 342v1145l104 26v-1181q0 -121 55.5 -185.5t155.5 -64.5h43v-92h-49q-148 0 -228.5 92t-80.5 260z" />
<glyph unicode="m" horiz-adv-x="1794" d="M162 0v1057h65l35 -172q76 92 168 142t186 50q104 0 180 -47t117 -139q76 90 177.5 138t201.5 48q166 0 259.5 -108.5t93.5 -319.5v-649h-103v635q0 168 -65.5 257t-202.5 89q-90 0 -176 -45t-156 -133q16 -72 16 -154v-649h-102v635q0 346 -258 346q-90 0 -175 -55.5 t-157 -155.5v-770h-104z" />
<glyph unicode="n" horiz-adv-x="1167" d="M162 0v1057h65l33 -174q78 96 180.5 145t204.5 49q182 0 277.5 -121.5t95.5 -349.5v-606h-103v590q0 188 -65.5 289.5t-218.5 101.5q-100 0 -195.5 -53.5t-169.5 -155.5v-772h-104z" />
<glyph unicode="o" horiz-adv-x="1214" d="M106 530q0 156 65 280t179.5 195.5t255.5 71.5q145 0 260 -69.5t178.5 -193.5t63.5 -284q0 -158 -64.5 -282.5t-179 -196t-258.5 -71.5q-145 0 -259 70.5t-177.5 195.5t-63.5 284zM211 530q0 -133 49 -237.5t139 -161.5t207 -57t208 57t141.5 161.5t50.5 237.5 t-50.5 235.5t-141.5 159t-208 56.5t-207 -57.5t-139 -159.5t-49 -234z" />
<glyph unicode="p" horiz-adv-x="1206" d="M162 -449v1506h65l33 -160q74 84 174.5 132t204.5 48q137 0 241.5 -66.5t162 -189.5t57.5 -286q0 -166 -66.5 -291t-183.5 -192.5t-262 -67.5q-86 0 -172 32.5t-150 83.5v-524zM266 207q68 -59 149 -93t165 -34q188 0 301.5 119.5t113.5 332.5t-96 331t-268 118 q-104 0 -198.5 -51t-166.5 -142v-581z" />
<glyph unicode="q" horiz-adv-x="1206" d="M106 524q0 166 67 291t183.5 193.5t261.5 68.5q92 0 184.5 -36.5t153.5 -94.5l23 111h65v-1481l-102 -25v603q-76 -80 -174 -127t-201 -47q-137 0 -241.5 66.5t-162 189t-57.5 288.5zM211 526q0 -213 97.5 -331.5t269.5 -118.5q104 0 198 52t166 144v582 q-70 59 -150.5 94t-164.5 35q-188 0 -302 -121t-114 -336z" />
<glyph unicode="r" horiz-adv-x="755" d="M162 0v1057h65l35 -174q82 94 188.5 142t215.5 48h26v-98h-41q-106 0 -205.5 -51.5t-179.5 -153.5v-770h-104z" />
<glyph unicode="s" horiz-adv-x="995" d="M94 147l68 68q72 -72 159 -105.5t197 -33.5q131 0 203 49t72 139q0 96 -72 148.5t-227 83.5q-135 27 -213 63.5t-113 94t-35 147.5q0 76 47 139.5t131 100t193 36.5q213 0 354 -151l-67 -66q-121 121 -287 121q-125 0 -199 -49t-74 -133q0 -63 31 -101.5t95.5 -63 t181.5 -48.5q188 -39 273 -114t85 -202q0 -135 -100.5 -212.5t-282.5 -77.5h-3q-254 0 -417 167z" />
<glyph unicode="t" horiz-adv-x="794" d="M164 365v954l104 24v-286h432v-92h-432v-607q0 -131 60.5 -205.5t173.5 -74.5q59 0 99 13t77 44l55 -72q-99 -81 -224 -81h-3q-164 0 -253 101t-89 282z" />
<glyph unicode="u" horiz-adv-x="1165" d="M154 451v606h104v-590q0 -188 63.5 -289.5t221.5 -101.5q96 0 187 53t169 156v772h102v-1057h-63l-35 174q-78 -96 -177 -145t-202 -49q-182 0 -276 121.5t-94 349.5z" />
<glyph unicode="v" horiz-adv-x="1067" d="M43 1057h113l379 -922l380 922h111l-446 -1057h-97z" />
<glyph unicode="w" horiz-adv-x="1579" d="M66 1057h112l264 -914l308 836h98l293 -836l272 914h105l-328 -1057h-98l-301 842l-299 -842h-99z" />
<glyph unicode="x" horiz-adv-x="1067" d="M61 0l410 553l-371 504h123l314 -428l311 428h119l-373 -502l412 -555h-127l-351 475l-350 -475h-117z" />
<glyph unicode="y" horiz-adv-x="1058" d="M39 1057h113l403 -903l354 903h109l-479 -1200q-59 -150 -145.5 -219.5t-213.5 -69.5h-45v96h41q98 0 165 55.5t110 167.5l55 140z" />
<glyph unicode="z" horiz-adv-x="1054" d="M115 0v78l696 887h-686v92h815v-78l-694 -885h710v-94h-841z" />
<glyph unicode="{" horiz-adv-x="819" d="M90 584v71q80 45 121 115t41 174v166q0 193 100.5 294t292.5 101h109l-21 -98h-94q-137 0 -210 -73.5t-73 -213.5v-178q0 -109 -38.5 -184.5t-116.5 -136.5q78 -61 116.5 -137t38.5 -185v-180q0 -139 73 -213t210 -74h94l21 -98h-109q-192 0 -292.5 101.5t-100.5 293.5 v168q0 104 -41 173t-121 114z" />
<glyph unicode="|" horiz-adv-x="538" d="M217 -266v1771h105v-1771h-105z" />
<glyph unicode="}" horiz-adv-x="819" d="M68 -266l20 98h92q139 0 212 74t73 213v178q0 109 38 185.5t115 135.5q-78 59 -115.5 136t-37.5 186v180q0 139 -73 213t-212 74h-92l-20 98h106q195 0 295 -100t100 -295v-168q0 -104 41 -173t119 -114v-71q-78 -45 -119 -115t-41 -174v-166q0 -193 -101 -294t-294 -101 h-106z" />
<glyph unicode="~" d="M150 539q8 123 76.5 190.5t176.5 67.5q55 0 106.5 -27t123.5 -78q59 -43 96 -62.5t72 -19.5q70 0 110.5 45t49.5 127h88q-8 -123 -74 -193.5t-172 -70.5q-51 0 -97.5 25.5t-113.5 74.5q-59 43 -99 65t-81 22q-156 0 -172 -166h-90z" />
<glyph unicode="&#xa1;" horiz-adv-x="503" d="M168 989q0 39 23.5 63.5t64.5 24.5q37 0 60.5 -24.5t23.5 -63.5t-23.5 -63.5t-60.5 -24.5q-41 0 -64.5 24.5t-23.5 63.5zM197 -326l10 1024h94l10 -1024h-114z" />
<glyph unicode="&#xa2;" d="M172 674q0 141 55.5 255.5t154.5 187.5t228 89v224l105 28v-250q92 -8 172 -47t139 -104l-68 -64q-117 121 -280 121q-119 0 -210 -55t-141.5 -154.5t-50.5 -230.5q0 -129 49.5 -228.5t139.5 -154.5t207 -55q170 0 305 120l63 -65q-139 -135 -325 -150v-252l-105 -26v280 q-131 13 -230 83.5t-153.5 186t-54.5 261.5z" />
<glyph unicode="&#xa3;" d="M82 600v94h219l45 217q45 213 161 324t327 111h256v-99h-263q-160 0 -251 -76.5t-127 -257.5l-46 -219h533v-94h-553l-107 -504h836v-96h-940v76l111 524h-201z" />
<glyph unicode="&#xa4;" d="M86 266l160 162q-74 115 -74 260q0 137 76 256l-162 162l74 72l157 -156q57 51 129 79.5t154 28.5q84 0 157.5 -27.5t129.5 -78.5l155 154l72 -72l-160 -160q76 -115 76 -258q0 -141 -78 -258l162 -164l-72 -71l-159 157q-115 -109 -283 -108q-168 0 -285 104l-155 -153z M272 688q0 -94 42 -174t117 -128t169 -48t169 47t117 128t42 175t-42 174t-117 127t-169 47t-169 -47t-117 -128t-42 -173z" />
<glyph unicode="&#xa5;" d="M80 1346h115l405 -684l410 684h108l-416 -693h326v-92h-379v-199h379v-92h-379v-270h-102v270h-377v92h377v199h-377v92h326z" />
<glyph unicode="&#xa6;" horiz-adv-x="538" d="M217 -266v669h105v-669h-105zM217 838v667h105v-667h-105z" />
<glyph unicode="&#xa7;" horiz-adv-x="894" d="M117 643q0 88 62.5 155.5t162.5 86.5q-102 109 -102 219q0 131 94 205.5t262 74.5h117v-92h-125q-119 0 -183.5 -49t-64.5 -137q0 -57 31.5 -106.5t97.5 -110.5l184 -166q125 -111 125 -248q0 -88 -63.5 -155.5t-161.5 -86.5q113 -119 113 -227q0 -133 -92.5 -206.5 t-262.5 -73.5h-135v94h137q123 0 185.5 47t62.5 135q0 55 -31.5 108.5t-97.5 110.5l-186 170q-68 61 -98.5 120.5t-30.5 131.5zM213 643q0 -51 24.5 -96t77.5 -94l158 -144h8q84 0 141.5 49.5t57.5 116.5q0 51 -24.5 95t-73.5 92l-162 147h-8q-86 -2 -142.5 -49t-56.5 -117z " />
<glyph unicode="&#xa8;" horiz-adv-x="1204" d="M348 1366q0 35 21.5 58.5t56.5 23.5q33 0 55.5 -23.5t22.5 -58.5q0 -33 -22.5 -55.5t-55.5 -22.5q-35 0 -56.5 22.5t-21.5 55.5zM700 1366q0 35 21.5 58.5t54.5 23.5q35 0 57.5 -23.5t22.5 -58.5q0 -33 -22.5 -55.5t-57.5 -22.5q-33 0 -54.5 22.5t-21.5 55.5z" />
<glyph unicode="&#xa9;" horiz-adv-x="1634" d="M98 692q0 205 97.5 368t261.5 254t358 91q195 0 360.5 -90t263 -253t97.5 -370q0 -209 -98.5 -370.5t-263 -251.5t-359.5 -90q-197 0 -360.5 89t-260 250.5t-96.5 372.5zM197 692q0 -184 79.5 -325.5t220 -218t318.5 -76.5q176 0 317.5 77.5t223.5 219t82 323.5 q0 180 -81 321.5t-223.5 220.5t-318.5 79q-174 0 -315.5 -79t-222 -221.5t-80.5 -320.5zM453 692q0 113 49 202t136 139t196 50q74 0 142 -30.5t114 -87.5l-56 -60q-47 45 -95 65.5t-103 20.5q-129 0 -207 -81t-78 -218q0 -135 77 -216t203 -81q125 0 220 84l55 -63 q-115 -115 -281 -115q-108 0 -193 49t-132 138.5t-47 203.5z" />
<glyph unicode="&#xaa;" horiz-adv-x="821" d="M80 801q0 109 85 171t230 62h226v37q0 240 -220 240q-61 0 -121.5 -24.5t-109.5 -72.5l-57 58q53 59 131 92t159 33q152 0 231 -85t79 -251v-463h-62l-26 119q-57 -59 -135 -96t-160 -37q-117 0 -183.5 58t-66.5 159zM172 803q0 -59 46 -97t120 -38q78 0 151.5 37.5 t131.5 101.5v147h-230q-102 0 -160.5 -40t-58.5 -111z" />
<glyph unicode="&#xab;" horiz-adv-x="909" d="M109 578l264 383h112l-256 -383l256 -383h-112zM424 578l266 383h113l-258 -383l258 -383h-113z" />
<glyph unicode="&#xac;" d="M168 745v95h809v-467h-94v372h-715z" />
<glyph unicode="&#xad;" horiz-adv-x="882" d="M129 551v96h627v-96h-627z" />
<glyph unicode="&#xae;" horiz-adv-x="1107" d="M86 1008q0 131 63.5 236.5t171 164.5t234.5 59q125 0 232.5 -58t171 -163.5t63.5 -238.5q0 -135 -64.5 -240.5t-171 -163t-231.5 -57.5q-129 0 -235.5 57.5t-170 161.5t-63.5 242zM170 1008q0 -115 49 -202t136 -135t200 -48q111 0 198 48t136 135t49 202 q0 113 -49 199.5t-136 135t-198 48.5t-199 -48.5t-137 -135.5t-49 -199zM381 774v477h180q80 0 129 -40t49 -107q0 -43 -24.5 -75t-67.5 -48q37 -29 68 -82l63 -125h-92l-43 82q-27 51 -49.5 70.5t-75.5 19.5h-57v-172h-80zM461 1022h88q49 0 75.5 20.5t26.5 57.5 q0 80 -102 80h-88v-158z" />
<glyph unicode="&#xb0;" horiz-adv-x="763" d="M102 1108q0 76 38 139.5t102.5 101t138.5 37.5q76 0 140.5 -37.5t102.5 -101t38 -139.5t-38 -139.5t-102.5 -101.5t-140.5 -38t-139.5 38t-101.5 101.5t-38 139.5zM195 1108q0 -78 55 -134t131 -56q78 0 133 56t55 134q0 80 -55 135t-133 55q-76 0 -131 -56t-55 -134z " />
<glyph unicode="&#xb1;" d="M182 641v94h371v371h94v-371h371v-94h-371v-373h-94v373h-371zM225 0v94h750v-94h-750z" />
<glyph unicode="&#xb2;" horiz-adv-x="829" d="M127 1376q57 53 131 86t152 33q127 0 199.5 -60.5t72.5 -160.5q0 -61 -36 -117.5t-103 -118.5l-267 -235h414v-84h-551v65l320 287q63 57 94 101.5t31 89.5q0 68 -47.5 105.5t-135.5 37.5q-59 0 -116.5 -25.5t-102.5 -66.5z" />
<glyph unicode="&#xb3;" horiz-adv-x="835" d="M121 813l57 64q98 -88 221 -89q92 0 148.5 43t56.5 111t-57.5 105.5t-155.5 37.5h-88v60l246 250h-402v86h523v-64l-252 -258q129 -4 206.5 -61.5t77.5 -157.5q0 -106 -80.5 -170.5t-218.5 -64.5q-88 0 -159.5 29.5t-122.5 78.5z" />
<glyph unicode="&#xb4;" horiz-adv-x="1204" d="M410 1227l249 268h136l-267 -268h-118z" />
<glyph unicode="&#xb5;" horiz-adv-x="1169" d="M160 -449v1506h104v-592q0 -186 66.5 -287.5t224.5 -101.5q193 0 350 209v772h103v-1057h-64l-35 174q-78 -96 -174 -145t-196 -49q-180 0 -275 135v-539z" />
<glyph unicode="&#xb6;" horiz-adv-x="1105" d="M113 858q0 174 104.5 285.5t302.5 156.5l127 29v-872q-250 0 -392 107.5t-142 293.5zM543 -174h41q102 0 160.5 67.5t58.5 188.5v1276l104 22v-1292q0 -172 -84 -266t-233 -94h-47v98z" />
<glyph unicode="&#xb7;" horiz-adv-x="518" d="M172 727q0 39 23.5 63.5t60.5 24.5q41 0 64.5 -24.5t23.5 -63.5t-23.5 -63.5t-64.5 -24.5q-37 0 -60.5 25.5t-23.5 62.5z" />
<glyph unicode="&#xb8;" horiz-adv-x="1204" d="M455 -276h41q70 0 113.5 29.5t43.5 88.5q0 74 -82 152l88 16q90 -86 91 -180q0 -94 -70 -143t-182 -49h-43v86z" />
<glyph unicode="&#xb9;" horiz-adv-x="638" d="M131 1335v78l219 70h70v-764h-94v670z" />
<glyph unicode="&#xba;" horiz-adv-x="927" d="M84 993q0 115 49 207t136 144.5t194 52.5q109 0 195.5 -51.5t136 -143.5t49.5 -209t-49.5 -210t-136.5 -146t-195 -53q-109 0 -195 52t-135 145t-49 212zM184 993q0 -141 77 -230t202 -89q127 0 206 89t79 230t-78 228.5t-205 87.5q-125 0 -203 -88t-78 -228z" />
<glyph unicode="&#xbb;" horiz-adv-x="909" d="M106 195l259 383l-259 383h113l266 -383l-266 -383h-113zM422 195l258 383l-258 383h115l264 -383l-264 -383h-115z" />
<glyph unicode="&#xbc;" horiz-adv-x="1597" d="M131 1196v78l219 69h70v-763h-94v669zM176 0l1067 1346h121l-1065 -1346h-123zM840 199v61l434 504h90v-483h125v-82h-125v-199h-90v199h-434zM950 281h324v372z" />
<glyph unicode="&#xbd;" horiz-adv-x="1726" d="M131 1196v78l219 69h70v-763h-94v669zM168 0l1067 1346h121l-1065 -1346h-123zM1024 659q57 53 131 85t152 32q127 0 199.5 -60.5t72.5 -160.5q0 -113 -139 -236l-266 -235h413v-84h-553v66l322 286q63 57 94 101.5t31 91.5q0 68 -47.5 104.5t-135.5 36.5 q-59 0 -116.5 -25.5t-102.5 -66.5z" />
<glyph unicode="&#xbe;" horiz-adv-x="1781" d="M121 674l57 63q98 -88 221 -88q92 0 148.5 43t56.5 111t-57.5 105.5t-155.5 37.5h-88v60l246 249h-402v86h523v-63l-252 -258q129 -4 206.5 -61.5t77.5 -157.5q0 -106 -80.5 -171t-218.5 -65q-88 0 -159.5 30t-122.5 79zM362 0l1068 1346h120l-1065 -1346h-123zM1024 199 v61l436 504h90v-483h123v-82h-123v-199h-90v199h-436zM1137 281h323v372z" />
<glyph unicode="&#xbf;" horiz-adv-x="1058" d="M121 10q0 92 48 166t132 148q106 88 160.5 155.5t54.5 151.5v67h102v-61q0 -76 -31.5 -138.5t-75.5 -108.5t-120 -109q-78 -66 -122 -128.5t-44 -136.5q0 -127 84 -195.5t242 -68.5q115 0 214 44t179 120l64 -72q-86 -86 -209 -138t-252 -52q-203 0 -314.5 96t-111.5 260 zM477 989q0 39 23.5 63.5t64.5 24.5q37 0 60.5 -24.5t23.5 -63.5t-23.5 -63.5t-60.5 -24.5q-41 0 -64.5 24.5t-23.5 63.5z" />
<glyph unicode="&#xc0;" horiz-adv-x="1288" d="M51 0l547 1384h96l543 -1384h-111l-159 420h-648l-163 -420h-105zM358 518h570l-285 737zM360 1774h142l249 -250h-122z" />
<glyph unicode="&#xc1;" horiz-adv-x="1288" d="M51 0l547 1384h96l543 -1384h-111l-159 420h-648l-163 -420h-105zM358 518h570l-285 737zM540 1524l250 250h141l-268 -250h-123z" />
<glyph unicode="&#xc2;" horiz-adv-x="1288" d="M51 0l547 1384h96l543 -1384h-111l-159 420h-648l-163 -420h-105zM342 1524l246 250h114l244 -250h-121l-182 174l-182 -174h-119zM358 518h570l-285 737z" />
<glyph unicode="&#xc3;" horiz-adv-x="1288" d="M51 0l547 1384h96l543 -1384h-111l-159 420h-648l-163 -420h-105zM334 1575v94q92 76 184 76q80 0 154 -49q35 -23 64.5 -35t62.5 -12q53 0 98 21.5t90 58.5v-97q-88 -74 -186 -73q-48 0 -83.5 13t-76.5 40q-68 43 -121 43q-84 0 -186 -80zM358 518h570l-285 737z" />
<glyph unicode="&#xc4;" horiz-adv-x="1288" d="M51 0l547 1384h96l543 -1384h-111l-159 420h-648l-163 -420h-105zM358 518h570l-285 737zM389 1636q0 35 22.5 56.5t57.5 21.5q33 0 56.5 -22.5t23.5 -55.5t-22.5 -54t-57.5 -21t-57.5 21.5t-22.5 53.5zM741 1636q0 33 22.5 55.5t57.5 22.5t57.5 -21.5t22.5 -56.5 q0 -33 -22.5 -54t-57.5 -21t-57.5 21.5t-22.5 53.5z" />
<glyph unicode="&#xc5;" horiz-adv-x="1288" d="M51 0l527 1331q-76 20 -124 83t-48 142q0 96 70.5 165t166.5 69q63 0 118.5 -32t88.5 -85t33 -117q0 -80 -47.5 -140t-120.5 -85l522 -1331h-111l-159 420h-648l-163 -420h-105zM358 518h570l-285 737zM492 1556q0 -65 45 -110t106 -45q63 0 108.5 44t45.5 111 q0 66 -45 109t-109 43q-63 0 -107 -43t-44 -109z" />
<glyph unicode="&#xc6;" horiz-adv-x="1978" d="M14 0l987 1384h873v-100h-739v-516h647v-102h-647v-564h763v-102h-868v408h-608l-289 -408h-119zM492 502h538v760z" />
<glyph unicode="&#xc7;" horiz-adv-x="1320" d="M119 694q0 207 82 369t227 252t332 90q127 0 237.5 -52.5t194.5 -146.5l-70 -67q-72 80 -164 123t-200 43q-158 0 -279 -77t-188.5 -215.5t-67.5 -318.5t66.5 -319t185.5 -217t273 -78q223 0 397 164l67 -70q-177 -178 -419 -192q63 -74 63 -152q0 -96 -70.5 -146.5 t-187.5 -50.5h-41v91h39q72 0 117 28.5t45 87.5q0 66 -70 142q-170 14 -299 107t-199.5 249t-70.5 356z" />
<glyph unicode="&#xc8;" horiz-adv-x="1134" d="M186 0v1384h844v-100h-739v-516h647v-102h-647v-564h764v-102h-869zM331 1774h142l249 -250h-122z" />
<glyph unicode="&#xc9;" horiz-adv-x="1134" d="M186 0v1384h844v-100h-739v-516h647v-102h-647v-564h764v-102h-869zM512 1524l250 250h141l-268 -250h-123z" />
<glyph unicode="&#xca;" horiz-adv-x="1134" d="M186 0v1384h844v-100h-739v-516h647v-102h-647v-564h764v-102h-869zM314 1524l246 250h114l244 -250h-121l-182 174l-182 -174h-119z" />
<glyph unicode="&#xcb;" horiz-adv-x="1134" d="M186 0v1384h844v-100h-739v-516h647v-102h-647v-564h764v-102h-869zM361 1636q0 35 22.5 56.5t57.5 21.5q33 0 56.5 -22.5t23.5 -55.5t-22.5 -54t-57.5 -21t-57.5 21.5t-22.5 53.5zM713 1636q0 33 22.5 55.5t57.5 22.5t57.5 -21.5t22.5 -56.5q0 -33 -22.5 -54t-57.5 -21 t-57.5 21.5t-22.5 53.5z" />
<glyph unicode="&#xcc;" horiz-adv-x="477" d="M-26 1774h129l199 -250h-113zM186 0v1384h105v-1384h-105z" />
<glyph unicode="&#xcd;" horiz-adv-x="477" d="M180 1524l196 250h129l-215 -250h-110zM186 0v1384h105v-1384h-105z" />
<glyph unicode="&#xce;" horiz-adv-x="477" d="M-63 1524l246 250h114l244 -250h-121l-182 174l-182 -174h-119zM186 0v1384h105v-1384h-105z" />
<glyph unicode="&#xcf;" horiz-adv-x="477" d="M-16 1636q0 35 22.5 56.5t57.5 21.5q33 0 56.5 -22.5t23.5 -55.5t-22.5 -54t-57.5 -21t-57.5 21.5t-22.5 53.5zM186 0v1384h105v-1384h-105zM336 1636q0 33 22.5 55.5t57.5 22.5t57.5 -21.5t22.5 -56.5q0 -33 -22.5 -54t-57.5 -21t-57.5 21.5t-22.5 53.5z" />
<glyph unicode="&#xd0;" horiz-adv-x="1413" d="M37 645v94h194v645h394q207 0 358.5 -86t232 -241.5t80.5 -360.5q0 -201 -83 -358.5t-234.5 -247.5t-351.5 -90h-396v645h-194zM336 98h291q174 0 301 76t194.5 212t67.5 312q0 174 -66.5 307.5t-193.5 207t-303 73.5h-291v-547h444v-94h-444v-547z" />
<glyph unicode="&#xd1;" horiz-adv-x="1359" d="M186 0v1384h86l801 -1189v1189h101v-1384h-87l-800 1190v-1190h-101zM371 1575v94q92 76 184 76q80 0 154 -49q35 -23 64.5 -35t62.5 -12q53 0 98 21.5t90 58.5v-97q-88 -74 -186 -73q-48 0 -83.5 13t-76.5 40q-68 43 -121 43q-84 0 -186 -80z" />
<glyph unicode="&#xd2;" horiz-adv-x="1495" d="M119 696q0 199 82 361t225 255t322 93q180 0 323 -91t224 -252t81 -366q0 -203 -82 -366.5t-225 -256.5t-321 -93q-183 0 -326 91t-223 254.5t-80 370.5zM223 696q0 -176 66.5 -316t185.5 -220t273 -80q149 0 269 80t187.5 220t67.5 316t-66.5 314.5t-186.5 216.5 t-271 78q-152 0 -272 -80t-186.5 -218.5t-66.5 -310.5zM463 1774h142l249 -250h-122z" />
<glyph unicode="&#xd3;" horiz-adv-x="1495" d="M119 696q0 199 82 361t225 255t322 93q180 0 323 -91t224 -252t81 -366q0 -203 -82 -366.5t-225 -256.5t-321 -93q-183 0 -326 91t-223 254.5t-80 370.5zM223 696q0 -176 66.5 -316t185.5 -220t273 -80q149 0 269 80t187.5 220t67.5 316t-66.5 314.5t-186.5 216.5 t-271 78q-152 0 -272 -80t-186.5 -218.5t-66.5 -310.5zM645 1524l250 250h141l-268 -250h-123z" />
<glyph unicode="&#xd4;" horiz-adv-x="1495" d="M119 696q0 199 82 361t225 255t322 93q180 0 323 -91t224 -252t81 -366q0 -203 -82 -366.5t-225 -256.5t-321 -93q-183 0 -326 91t-223 254.5t-80 370.5zM223 696q0 -176 66.5 -316t185.5 -220t273 -80q149 0 269 80t187.5 220t67.5 316t-66.5 314.5t-186.5 216.5 t-271 78q-152 0 -272 -80t-186.5 -218.5t-66.5 -310.5zM447 1524l246 250h114l244 -250h-121l-182 174l-182 -174h-119z" />
<glyph unicode="&#xd5;" horiz-adv-x="1495" d="M119 696q0 199 82 361t225 255t322 93q180 0 323 -91t224 -252t81 -366q0 -203 -82 -366.5t-225 -256.5t-321 -93q-183 0 -326 91t-223 254.5t-80 370.5zM223 696q0 -176 66.5 -316t185.5 -220t273 -80q149 0 269 80t187.5 220t67.5 316t-66.5 314.5t-186.5 216.5 t-271 78q-152 0 -272 -80t-186.5 -218.5t-66.5 -310.5zM439 1575v94q92 76 184 76q80 0 154 -49q35 -23 64.5 -35t62.5 -12q53 0 98 21.5t90 58.5v-97q-88 -74 -186 -73q-48 0 -83.5 13t-76.5 40q-68 43 -121 43q-84 0 -186 -80z" />
<glyph unicode="&#xd6;" horiz-adv-x="1495" d="M119 696q0 199 82 361t225 255t322 93q180 0 323 -91t224 -252t81 -366q0 -203 -82 -366.5t-225 -256.5t-321 -93q-183 0 -326 91t-223 254.5t-80 370.5zM223 696q0 -176 66.5 -316t185.5 -220t273 -80q149 0 269 80t187.5 220t67.5 316t-66.5 314.5t-186.5 216.5 t-271 78q-152 0 -272 -80t-186.5 -218.5t-66.5 -310.5zM494 1636q0 35 22.5 56.5t57.5 21.5q33 0 56.5 -22.5t23.5 -55.5t-22.5 -54t-57.5 -21t-57.5 21.5t-22.5 53.5zM846 1636q0 33 22.5 55.5t57.5 22.5t57.5 -21.5t22.5 -56.5q0 -33 -22.5 -54t-57.5 -21t-57.5 21.5 t-22.5 53.5z" />
<glyph unicode="&#xd7;" d="M256 399l279 277l-279 278l68 66l276 -277l277 277l67 -66l-278 -278l278 -277l-67 -65l-277 276l-276 -276z" />
<glyph unicode="&#xd8;" horiz-adv-x="1495" d="M100 -74l195 252q-86 96 -131 228.5t-45 289.5q0 199 82 361t225 255t322 93q227 0 389 -139l147 190h115l-197 -254q84 -94 129 -224t45 -282q0 -203 -82 -366.5t-225 -256.5t-321 -93q-223 0 -388 135l-145 -189h-115zM223 696q0 -127 36 -237.5t103 -194.5l713 922 q-137 119 -327 119q-152 0 -272 -80t-186.5 -218.5t-66.5 -310.5zM426 197q139 -119 322 -119q149 0 269 81t187.5 221t67.5 316q0 125 -35 232.5t-98 189.5z" />
<glyph unicode="&#xd9;" horiz-adv-x="1382" d="M168 639v745h104v-745q0 -270 106.5 -415.5t309.5 -145.5t311.5 146.5t108.5 414.5v745h104v-745q0 -203 -62.5 -351.5t-180 -228t-281.5 -79.5q-252 0 -386 172t-134 487zM405 1774h142l249 -250h-122z" />
<glyph unicode="&#xda;" horiz-adv-x="1382" d="M168 639v745h104v-745q0 -270 106.5 -415.5t309.5 -145.5t311.5 146.5t108.5 414.5v745h104v-745q0 -203 -62.5 -351.5t-180 -228t-281.5 -79.5q-252 0 -386 172t-134 487zM587 1524l250 250h141l-268 -250h-123z" />
<glyph unicode="&#xdb;" horiz-adv-x="1382" d="M168 639v745h104v-745q0 -270 106.5 -415.5t309.5 -145.5t311.5 146.5t108.5 414.5v745h104v-745q0 -203 -62.5 -351.5t-180 -228t-281.5 -79.5q-252 0 -386 172t-134 487zM389 1524l246 250h114l244 -250h-121l-182 174l-182 -174h-119z" />
<glyph unicode="&#xdc;" horiz-adv-x="1382" d="M168 639v745h104v-745q0 -270 106.5 -415.5t309.5 -145.5t311.5 146.5t108.5 414.5v745h104v-745q0 -203 -62.5 -351.5t-180 -228t-281.5 -79.5q-252 0 -386 172t-134 487zM436 1636q0 35 22.5 56.5t57.5 21.5q33 0 56.5 -22.5t23.5 -55.5t-22.5 -54t-57.5 -21 t-57.5 21.5t-22.5 53.5zM788 1636q0 33 22.5 55.5t57.5 22.5t57.5 -21.5t22.5 -56.5q0 -33 -22.5 -54t-57.5 -21t-57.5 21.5t-22.5 53.5z" />
<glyph unicode="&#xdd;" horiz-adv-x="1118" d="M41 1384h113l405 -747l408 747h112l-469 -845v-539h-104v539zM454 1524l250 250h141l-268 -250h-123z" />
<glyph unicode="&#xde;" d="M186 0v1384h103v-202h342q211 0 335 -115t124 -303q0 -123 -56.5 -217t-160 -146.5t-242.5 -52.5h-342v-348h-103zM289 449h325q177 0 272 80.5t95 234.5q0 156 -94 237.5t-273 81.5h-325v-634z" />
<glyph unicode="&#xdf;" horiz-adv-x="1273" d="M162 0v1026q0 143 57 254t159.5 172t229.5 61q168 0 263.5 -79.5t95.5 -206.5q0 -84 -43 -142.5t-125 -130.5q-66 -57 -95.5 -94t-29.5 -84q0 -61 42 -93t136 -69l57 -24q121 -51 196 -122t75 -189q0 -139 -98.5 -219t-270.5 -80q-226 0 -373 135l58 69 q70 -57 140.5 -82.5t162.5 -25.5q133 0 205.5 53t72.5 150q0 92 -59.5 142t-173.5 99q-10 6 -51 21q-76 31 -117 53t-69.5 64t-28.5 108q0 68 37.5 120t109.5 113q70 59 106.5 108.5t36.5 111.5q0 96 -69.5 148t-194.5 52q-154 0 -247 -107.5t-93 -283.5v-1028h-102z" />
<glyph unicode="&#xe0;" horiz-adv-x="1079" d="M109 270q0 143 109.5 226.5t301.5 83.5h309v61q0 174 -73.5 257t-227.5 83q-84 0 -164.5 -36t-144.5 -99l-67 63q72 78 172 123t206 45q399 0 400 -448v-629h-66l-30 166q-80 -86 -184.5 -136t-217.5 -50q-149 0 -236 78.5t-87 211.5zM209 272q0 -90 63.5 -144t167.5 -54 q109 0 211.5 53t177.5 143v219h-313q-143 0 -225 -57t-82 -160zM256 1495h138l247 -268h-118z" />
<glyph unicode="&#xe1;" horiz-adv-x="1079" d="M109 270q0 143 109.5 226.5t301.5 83.5h309v61q0 174 -73.5 257t-227.5 83q-84 0 -164.5 -36t-144.5 -99l-67 63q72 78 172 123t206 45q399 0 400 -448v-629h-66l-30 166q-80 -86 -184.5 -136t-217.5 -50q-149 0 -236 78.5t-87 211.5zM209 272q0 -90 63.5 -144t167.5 -54 q109 0 211.5 53t177.5 143v219h-313q-143 0 -225 -57t-82 -160zM434 1227l250 268h135l-266 -268h-119z" />
<glyph unicode="&#xe2;" horiz-adv-x="1079" d="M109 270q0 143 109.5 226.5t301.5 83.5h309v61q0 174 -73.5 257t-227.5 83q-84 0 -164.5 -36t-144.5 -99l-67 63q72 78 172 123t206 45q399 0 400 -448v-629h-66l-30 166q-80 -86 -184.5 -136t-217.5 -50q-149 0 -236 78.5t-87 211.5zM209 272q0 -90 63.5 -144t167.5 -54 q109 0 211.5 53t177.5 143v219h-313q-143 0 -225 -57t-82 -160zM240 1227l242 268h108l242 -268h-115l-182 190l-182 -190h-113z" />
<glyph unicode="&#xe3;" horiz-adv-x="1079" d="M109 270q0 143 109.5 226.5t301.5 83.5h309v61q0 174 -73.5 257t-227.5 83q-84 0 -164.5 -36t-144.5 -99l-67 63q72 78 172 123t206 45q399 0 400 -448v-629h-66l-30 166q-80 -86 -184.5 -136t-217.5 -50q-149 0 -236 78.5t-87 211.5zM209 272q0 -90 63.5 -144t167.5 -54 q109 0 211.5 53t177.5 143v219h-313q-143 0 -225 -57t-82 -160zM224 1280v98q47 41 88 60.5t88 19.5q39 0 69.5 -11t57 -24.5t34.5 -17.5q10 -6 37 -20.5t50.5 -22.5t46.5 -8q49 0 89 22.5t89 63.5v-99q-47 -39 -87 -59t-93 -20q-43 0 -75 13t-87 42q-47 27 -73 38t-58 11 q-43 0 -85 -21.5t-91 -64.5z" />
<glyph unicode="&#xe4;" horiz-adv-x="1079" d="M109 270q0 143 109.5 226.5t301.5 83.5h309v61q0 174 -73.5 257t-227.5 83q-84 0 -164.5 -36t-144.5 -99l-67 63q72 78 172 123t206 45q399 0 400 -448v-629h-66l-30 166q-80 -86 -184.5 -136t-217.5 -50q-149 0 -236 78.5t-87 211.5zM209 272q0 -90 63.5 -144t167.5 -54 q109 0 211.5 53t177.5 143v219h-313q-143 0 -225 -57t-82 -160zM283 1366q0 35 21.5 58.5t56.5 23.5q33 0 55.5 -23.5t22.5 -58.5q0 -33 -22.5 -55.5t-55.5 -22.5q-35 0 -56.5 22.5t-21.5 55.5zM635 1366q0 35 21.5 58.5t54.5 23.5q35 0 57.5 -23.5t22.5 -58.5 q0 -33 -22.5 -55.5t-57.5 -22.5q-33 0 -54.5 22.5t-21.5 55.5z" />
<glyph unicode="&#xe5;" horiz-adv-x="1079" d="M109 270q0 143 109.5 226.5t301.5 83.5h309v61q0 174 -73.5 257t-227.5 83q-84 0 -164.5 -36t-144.5 -99l-67 63q72 78 172 123t206 45q399 0 400 -448v-629h-66l-30 166q-80 -86 -184.5 -136t-217.5 -50q-149 0 -236 78.5t-87 211.5zM209 272q0 -90 63.5 -144t167.5 -54 q109 0 211.5 53t177.5 143v219h-313q-143 0 -225 -57t-82 -160zM297 1446q0 98 71 165.5t167 67.5t168 -68.5t72 -164.5q0 -100 -72 -168t-168 -68t-167 69t-71 167zM383 1446q0 -66 44 -111t108 -45q63 0 108 44t45 112q0 66 -45 108.5t-108 42.5t-107.5 -43t-44.5 -108z " />
<glyph unicode="&#xe6;" horiz-adv-x="1859" d="M109 270q0 145 109.5 229.5t301.5 84.5h309v57q0 174 -73.5 257t-227.5 83q-84 0 -164.5 -36t-144.5 -99l-67 63q72 78 172 123t206 45q297 0 367 -260q61 121 167.5 190.5t242.5 69.5q137 0 238.5 -67.5t155.5 -189.5t54 -283v-37h-823q8 -190 116.5 -307t284.5 -117 q84 0 161 32.5t140 90.5l66 -64q-166 -156 -367 -155q-145 0 -254.5 62t-173.5 177q-90 -111 -214 -175t-259 -64q-149 0 -236 78.5t-87 211.5zM209 272q0 -90 63.5 -145t167.5 -55q125 0 239 62.5t189 166.5q-31 86 -37 193h-315q-143 0 -225 -58.5t-82 -163.5zM934 590 h715q-9 182 -100 288.5t-249 106.5q-154 0 -254 -108.5t-112 -286.5z" />
<glyph unicode="&#xe7;" horiz-adv-x="1058" d="M106 528q0 160 65 285t179.5 194.5t259.5 69.5q104 0 191.5 -42t150.5 -113l-67 -66q-113 125 -275 125q-119 0 -210 -56.5t-141 -158.5t-50 -238q0 -133 50 -236.5t139 -160.5t204 -57q170 0 301 127l66 -66q-136 -139 -326 -153q63 -78 64 -152q0 -94 -70 -143 t-182 -49h-43v86h41q70 0 113.5 29.5t43.5 88.5q0 66 -71 142q-129 12 -227.5 83.5t-152 190.5t-53.5 270z" />
<glyph unicode="&#xe8;" horiz-adv-x="1134" d="M106 535q0 156 60.5 279.5t170 193t247.5 69.5q137 0 238.5 -67.5t154.5 -189.5t53 -283v-33h-821q6 -190 115.5 -309t285.5 -119q84 0 162 31.5t139 91.5l66 -64q-160 -156 -369 -155q-151 0 -265 70.5t-175.5 196.5t-61.5 288zM211 596h715q-11 180 -102 284.5 t-246 104.5q-154 0 -253.5 -107.5t-113.5 -281.5zM299 1495h138l247 -268h-118z" />
<glyph unicode="&#xe9;" horiz-adv-x="1134" d="M106 535q0 156 60.5 279.5t170 193t247.5 69.5q137 0 238.5 -67.5t154.5 -189.5t53 -283v-33h-821q6 -190 115.5 -309t285.5 -119q84 0 162 31.5t139 91.5l66 -64q-160 -156 -369 -155q-151 0 -265 70.5t-175.5 196.5t-61.5 288zM211 596h715q-11 180 -102 284.5 t-246 104.5q-154 0 -253.5 -107.5t-113.5 -281.5zM477 1227l250 268h135l-266 -268h-119z" />
<glyph unicode="&#xea;" horiz-adv-x="1134" d="M106 535q0 156 60.5 279.5t170 193t247.5 69.5q137 0 238.5 -67.5t154.5 -189.5t53 -283v-33h-821q6 -190 115.5 -309t285.5 -119q84 0 162 31.5t139 91.5l66 -64q-160 -156 -369 -155q-151 0 -265 70.5t-175.5 196.5t-61.5 288zM211 596h715q-11 180 -102 284.5 t-246 104.5q-154 0 -253.5 -107.5t-113.5 -281.5zM285 1227l242 268h108l242 -268h-115l-182 190l-182 -190h-113z" />
<glyph unicode="&#xeb;" horiz-adv-x="1134" d="M106 535q0 156 60.5 279.5t170 193t247.5 69.5q137 0 238.5 -67.5t154.5 -189.5t53 -283v-33h-821q6 -190 115.5 -309t285.5 -119q84 0 162 31.5t139 91.5l66 -64q-160 -156 -369 -155q-151 0 -265 70.5t-175.5 196.5t-61.5 288zM211 596h715q-11 180 -102 284.5 t-246 104.5q-154 0 -253.5 -107.5t-113.5 -281.5zM328 1366q0 35 21.5 58.5t56.5 23.5q33 0 55.5 -23.5t22.5 -58.5q0 -33 -22.5 -55.5t-55.5 -22.5q-35 0 -56.5 22.5t-21.5 55.5zM680 1366q0 35 21.5 58.5t54.5 23.5q35 0 57.5 -23.5t22.5 -58.5q0 -33 -22.5 -55.5 t-57.5 -22.5q-33 0 -54.5 22.5t-21.5 55.5z" />
<glyph unicode="&#xec;" horiz-adv-x="436" d="M-45 1495h129l196 -268h-110zM166 0v1057h104v-1057h-104z" />
<glyph unicode="&#xed;" horiz-adv-x="436" d="M160 1227l199 268h126l-215 -268h-110zM166 0v1057h104v-1057h-104z" />
<glyph unicode="&#xee;" horiz-adv-x="436" d="M-78 1227l242 268h108l242 -268h-115l-182 190l-182 -190h-113zM166 0v1057h104v-1057h-104z" />
<glyph unicode="&#xef;" horiz-adv-x="436" d="M-35 1366q0 35 21.5 58.5t56.5 23.5q33 0 55.5 -23.5t22.5 -58.5q0 -33 -22.5 -55.5t-55.5 -22.5q-35 0 -56.5 22.5t-21.5 55.5zM166 0v1057h104v-1057h-104zM317 1366q0 35 21.5 58.5t54.5 23.5q35 0 57.5 -23.5t22.5 -58.5q0 -33 -22.5 -55.5t-57.5 -22.5 q-33 0 -54.5 22.5t-21.5 55.5z" />
<glyph unicode="&#xf0;" d="M102 502q0 150 62.5 269.5t175.5 188t258 68.5q94 0 189.5 -33.5t158.5 -85.5q-55 172 -180 318l-293 -84v86l227 67q-96 96 -241 187l114 30q129 -84 232 -186l250 72v-86l-191 -56q233 -287 234 -673q0 -172 -60.5 -309.5t-174 -216t-263.5 -78.5q-143 0 -257 67.5 t-177.5 186t-63.5 268.5zM205 504q0 -119 50 -217.5t140 -155.5t205 -57q123 0 212 65.5t136 180t47 260.5q0 113 -18 204q-72 68 -166 109t-195 41q-190 0 -300.5 -117t-110.5 -313z" />
<glyph unicode="&#xf1;" horiz-adv-x="1167" d="M162 0v1057h65l33 -174q78 96 180.5 145t204.5 49q182 0 277.5 -121.5t95.5 -349.5v-606h-103v590q0 188 -65.5 289.5t-218.5 101.5q-100 0 -195.5 -53.5t-169.5 -155.5v-772h-104zM277 1280v98q47 41 88 60.5t88 19.5q39 0 69.5 -11t57 -24.5t34.5 -17.5q10 -6 37 -20.5 t50.5 -22.5t46.5 -8q49 0 89 22.5t89 63.5v-99q-47 -39 -87 -59t-93 -20q-43 0 -75 13t-87 42q-47 27 -73 38t-58 11q-43 0 -85 -21.5t-91 -64.5z" />
<glyph unicode="&#xf2;" horiz-adv-x="1214" d="M106 530q0 156 65 280t179.5 195.5t255.5 71.5q145 0 260 -69.5t178.5 -193.5t63.5 -284q0 -158 -64.5 -282.5t-179 -196t-258.5 -71.5q-145 0 -259 70.5t-177.5 195.5t-63.5 284zM211 530q0 -133 49 -237.5t139 -161.5t207 -57t208 57t141.5 161.5t50.5 237.5 t-50.5 235.5t-141.5 159t-208 56.5t-207 -57.5t-139 -159.5t-49 -234zM325 1495h138l247 -268h-118z" />
<glyph unicode="&#xf3;" horiz-adv-x="1214" d="M106 530q0 156 65 280t179.5 195.5t255.5 71.5q145 0 260 -69.5t178.5 -193.5t63.5 -284q0 -158 -64.5 -282.5t-179 -196t-258.5 -71.5q-145 0 -259 70.5t-177.5 195.5t-63.5 284zM211 530q0 -133 49 -237.5t139 -161.5t207 -57t208 57t141.5 161.5t50.5 237.5 t-50.5 235.5t-141.5 159t-208 56.5t-207 -57.5t-139 -159.5t-49 -234zM503 1227l250 268h135l-266 -268h-119z" />
<glyph unicode="&#xf4;" horiz-adv-x="1214" d="M106 530q0 156 65 280t179.5 195.5t255.5 71.5q145 0 260 -69.5t178.5 -193.5t63.5 -284q0 -158 -64.5 -282.5t-179 -196t-258.5 -71.5q-145 0 -259 70.5t-177.5 195.5t-63.5 284zM211 530q0 -133 49 -237.5t139 -161.5t207 -57t208 57t141.5 161.5t50.5 237.5 t-50.5 235.5t-141.5 159t-208 56.5t-207 -57.5t-139 -159.5t-49 -234zM311 1227l242 268h108l242 -268h-115l-182 190l-182 -190h-113z" />
<glyph unicode="&#xf5;" horiz-adv-x="1214" d="M106 530q0 156 65 280t179.5 195.5t255.5 71.5q145 0 260 -69.5t178.5 -193.5t63.5 -284q0 -158 -64.5 -282.5t-179 -196t-258.5 -71.5q-145 0 -259 70.5t-177.5 195.5t-63.5 284zM211 530q0 -133 49 -237.5t139 -161.5t207 -57t208 57t141.5 161.5t50.5 237.5 t-50.5 235.5t-141.5 159t-208 56.5t-207 -57.5t-139 -159.5t-49 -234zM295 1280v98q47 41 88 60.5t88 19.5q39 0 69.5 -11t57 -24.5t34.5 -17.5q10 -6 37 -20.5t50.5 -22.5t46.5 -8q49 0 89 22.5t89 63.5v-99q-47 -39 -87 -59t-93 -20q-43 0 -75 13t-87 42q-47 27 -73 38 t-58 11q-43 0 -85 -21.5t-91 -64.5z" />
<glyph unicode="&#xf6;" horiz-adv-x="1214" d="M106 530q0 156 65 280t179.5 195.5t255.5 71.5q145 0 260 -69.5t178.5 -193.5t63.5 -284q0 -158 -64.5 -282.5t-179 -196t-258.5 -71.5q-145 0 -259 70.5t-177.5 195.5t-63.5 284zM211 530q0 -133 49 -237.5t139 -161.5t207 -57t208 57t141.5 161.5t50.5 237.5 t-50.5 235.5t-141.5 159t-208 56.5t-207 -57.5t-139 -159.5t-49 -234zM354 1366q0 35 21.5 58.5t56.5 23.5q33 0 55.5 -23.5t22.5 -58.5q0 -33 -22.5 -55.5t-55.5 -22.5q-35 0 -56.5 22.5t-21.5 55.5zM706 1366q0 35 21.5 58.5t54.5 23.5q35 0 57.5 -23.5t22.5 -58.5 q0 -33 -22.5 -55.5t-57.5 -22.5q-33 0 -54.5 22.5t-21.5 55.5z" />
<glyph unicode="&#xf7;" d="M225 629v96h750v-96h-750zM516 379q0 37 22.5 61.5t59.5 24.5q39 0 62.5 -24.5t23.5 -61.5t-23.5 -61.5t-62.5 -24.5q-37 0 -59.5 24.5t-22.5 61.5zM516 975q0 39 22.5 62.5t59.5 23.5q39 0 62.5 -23.5t23.5 -62.5q0 -37 -23.5 -61.5t-62.5 -24.5q-37 0 -59.5 24.5 t-22.5 61.5z" />
<glyph unicode="&#xf8;" horiz-adv-x="1214" d="M94 -76l154 207q-68 74 -105 176.5t-37 222.5q0 156 65 280t179.5 195.5t255.5 71.5q168 0 287 -88l108 141h111l-151 -200q72 -72 109.5 -174.5t37.5 -225.5q0 -158 -64.5 -282.5t-179 -196t-258.5 -71.5q-166 0 -291 92l-110 -148h-111zM211 530q0 -195 98 -317 l525 696q-95 72 -228 72q-117 0 -207 -57.5t-139 -159.5t-49 -234zM375 152q100 -78 231 -78q117 0 208 57t141.5 161.5t50.5 237.5q0 96 -28 177t-77 141z" />
<glyph unicode="&#xf9;" horiz-adv-x="1165" d="M154 451v606h104v-590q0 -188 63.5 -289.5t221.5 -101.5q96 0 187 53t169 156v772h102v-1057h-63l-35 174q-78 -96 -177 -145t-202 -49q-182 0 -276 121.5t-94 349.5zM299 1495h138l247 -268h-118z" />
<glyph unicode="&#xfa;" horiz-adv-x="1165" d="M154 451v606h104v-590q0 -188 63.5 -289.5t221.5 -101.5q96 0 187 53t169 156v772h102v-1057h-63l-35 174q-78 -96 -177 -145t-202 -49q-182 0 -276 121.5t-94 349.5zM477 1227l250 268h135l-266 -268h-119z" />
<glyph unicode="&#xfb;" horiz-adv-x="1165" d="M154 451v606h104v-590q0 -188 63.5 -289.5t221.5 -101.5q96 0 187 53t169 156v772h102v-1057h-63l-35 174q-78 -96 -177 -145t-202 -49q-182 0 -276 121.5t-94 349.5zM285 1227l242 268h108l242 -268h-115l-182 190l-182 -190h-113z" />
<glyph unicode="&#xfc;" horiz-adv-x="1165" d="M154 451v606h104v-590q0 -188 63.5 -289.5t221.5 -101.5q96 0 187 53t169 156v772h102v-1057h-63l-35 174q-78 -96 -177 -145t-202 -49q-182 0 -276 121.5t-94 349.5zM328 1366q0 35 21.5 58.5t56.5 23.5q33 0 55.5 -23.5t22.5 -58.5q0 -33 -22.5 -55.5t-55.5 -22.5 q-35 0 -56.5 22.5t-21.5 55.5zM680 1366q0 35 21.5 58.5t54.5 23.5q35 0 57.5 -23.5t22.5 -58.5q0 -33 -22.5 -55.5t-57.5 -22.5q-33 0 -54.5 22.5t-21.5 55.5z" />
<glyph unicode="&#xfd;" horiz-adv-x="1058" d="M39 1057h113l403 -903l354 903h109l-479 -1200q-59 -150 -145.5 -219.5t-213.5 -69.5h-45v96h41q98 0 165 55.5t110 167.5l55 140zM426 1227l250 268h135l-266 -268h-119z" />
<glyph unicode="&#xfe;" horiz-adv-x="1206" d="M162 -449v1936l104 26v-608q74 80 171.5 126t201.5 46q137 0 241.5 -66.5t162 -189.5t57.5 -286q0 -166 -66.5 -291t-183.5 -192.5t-262 -67.5q-84 0 -171 34.5t-151 94.5v-537zM266 217q70 -61 151 -99t163 -38q188 0 301.5 118.5t113.5 333.5q0 213 -96 331t-268 118 q-104 0 -198.5 -51t-166.5 -142v-571z" />
<glyph unicode="&#xff;" horiz-adv-x="1058" d="M39 1057h113l403 -903l354 903h109l-479 -1200q-59 -150 -145.5 -219.5t-213.5 -69.5h-45v96h41q98 0 165 55.5t110 167.5l55 140zM277 1366q0 35 21.5 58.5t56.5 23.5q33 0 55.5 -23.5t22.5 -58.5q0 -33 -22.5 -55.5t-55.5 -22.5q-35 0 -56.5 22.5t-21.5 55.5zM629 1366 q0 35 21.5 58.5t54.5 23.5q35 0 57.5 -23.5t22.5 -58.5q0 -33 -22.5 -55.5t-57.5 -22.5q-33 0 -54.5 22.5t-21.5 55.5z" />
<glyph unicode="&#x152;" horiz-adv-x="2222" d="M119 696q0 199 82 361t225 255t319 93q178 0 315.5 -89t213.5 -247v315h846v-100h-742v-516h650v-102h-650v-564h764v-102h-868v326q-76 -160 -215 -253t-314 -93q-182 0 -324 91t-222 253.5t-80 371.5zM223 698q0 -176 65.5 -317t185.5 -222t274 -81q149 0 269 81 t187.5 223t67.5 316q0 176 -66.5 314.5t-186.5 216.5t-271 78q-152 0 -272 -80t-186.5 -219.5t-66.5 -309.5z" />
<glyph unicode="&#x153;" horiz-adv-x="2039" d="M106 530q0 156 65 280t179.5 195.5t255.5 71.5q156 0 274.5 -79.5t178.5 -219.5q55 139 167.5 219t260.5 80q137 0 238.5 -67.5t155.5 -189.5t54 -283v-33h-823q8 -190 117.5 -309t283.5 -119q84 0 161 32.5t141 90.5l65 -64q-162 -156 -367 -155q-164 0 -282.5 80.5 t-173.5 224.5q-57 -141 -177 -223t-274 -82q-145 0 -259 70.5t-177.5 195.5t-63.5 284zM209 530q0 -133 50 -236.5t140 -160.5t207 -57t208 57t141.5 160.5t50.5 236.5t-50.5 235.5t-141.5 159t-208 56.5t-207 -57.5t-140 -159.5t-50 -234zM1114 596h715q-6 180 -98.5 284.5 t-249.5 104.5q-152 0 -251.5 -107.5t-115.5 -281.5z" />
<glyph unicode="&#x178;" horiz-adv-x="1118" d="M41 1384h113l405 -747l408 747h112l-469 -845v-539h-104v539zM303 1636q0 35 22.5 56.5t57.5 21.5q33 0 56.5 -22.5t23.5 -55.5t-22.5 -54t-57.5 -21t-57.5 21.5t-22.5 53.5zM655 1636q0 33 22.5 55.5t57.5 22.5t57.5 -21.5t22.5 -56.5q0 -33 -22.5 -54t-57.5 -21 t-57.5 21.5t-22.5 53.5z" />
<glyph unicode="&#x2c6;" horiz-adv-x="1204" d="M307 1227l242 268h108l242 -268h-115l-182 190l-182 -190h-113z" />
<glyph unicode="&#x2dc;" horiz-adv-x="1204" d="M289 1280v98q47 41 88 60.5t88 19.5q39 0 69.5 -11t57 -24.5t35.5 -17.5q10 -6 36.5 -20.5t50 -22.5t46.5 -8q49 0 89 22.5t89 63.5v-99q-47 -39 -87 -59t-93 -20q-43 0 -75 13t-87 42q-47 27 -72.5 38t-58.5 11q-43 0 -85 -21.5t-91 -64.5z" />
<glyph unicode="&#x2000;" horiz-adv-x="895" />
<glyph unicode="&#x2001;" horiz-adv-x="1790" />
<glyph unicode="&#x2002;" horiz-adv-x="895" />
<glyph unicode="&#x2003;" horiz-adv-x="1790" />
<glyph unicode="&#x2004;" horiz-adv-x="596" />
<glyph unicode="&#x2005;" horiz-adv-x="447" />
<glyph unicode="&#x2006;" horiz-adv-x="298" />
<glyph unicode="&#x2007;" horiz-adv-x="298" />
<glyph unicode="&#x2008;" horiz-adv-x="223" />
<glyph unicode="&#x2009;" horiz-adv-x="358" />
<glyph unicode="&#x200a;" horiz-adv-x="99" />
<glyph unicode="&#x2010;" horiz-adv-x="882" d="M129 551v96h627v-96h-627z" />
<glyph unicode="&#x2011;" horiz-adv-x="882" d="M129 551v96h627v-96h-627z" />
<glyph unicode="&#x2012;" horiz-adv-x="882" d="M129 551v96h627v-96h-627z" />
<glyph unicode="&#x2013;" horiz-adv-x="1003" d="M0 551v96h1004v-96h-1004z" />
<glyph unicode="&#x2014;" horiz-adv-x="2007" d="M0 551v96h2007v-96h-2007z" />
<glyph unicode="&#x2018;" horiz-adv-x="452" d="M123 997q12 95 55 200.5t101 186.5h94q-55 -86 -93 -191.5t-51 -195.5h-106z" />
<glyph unicode="&#x2019;" horiz-adv-x="452" d="M86 997q55 88 93 192.5t48 194.5h109q-14 -96 -56 -201.5t-100 -185.5h-94z" />
<glyph unicode="&#x201a;" horiz-adv-x="487" d="M53 -252q58 88 101 203t53 205h110q-12 -100 -58 -214t-105 -194h-101z" />
<glyph unicode="&#x201c;" horiz-adv-x="724" d="M123 997q12 95 55 200.5t101 186.5h94q-55 -86 -93 -191.5t-51 -195.5h-106zM395 997q13 95 56 200.5t100 186.5h94q-55 -86 -93 -191.5t-50 -195.5h-107z" />
<glyph unicode="&#x201d;" horiz-adv-x="724" d="M86 997q55 88 93 192.5t48 194.5h109q-14 -96 -56 -201.5t-100 -185.5h-94zM358 997q56 88 93.5 192.5t48.5 194.5h108q-14 -96 -56 -201.5t-99 -185.5h-95z" />
<glyph unicode="&#x201e;" horiz-adv-x="759" d="M53 -252q58 88 101 203t53 205h110q-12 -100 -58 -214t-105 -194h-101zM326 -252q57 88 100 203t53 205h111q-12 -100 -58.5 -214t-105.5 -194h-100z" />
<glyph unicode="&#x2022;" horiz-adv-x="751" d="M199 719q0 76 51 127t125 51t126 -51t52 -127t-52 -127t-126 -51q-72 0 -124 52t-52 126z" />
<glyph unicode="&#x2026;" horiz-adv-x="1398" d="M172 68q0 39 23.5 63.5t60.5 24.5q41 0 64.5 -23.5t23.5 -64.5q0 -39 -23.5 -63.5t-64.5 -24.5q-37 0 -60.5 25.5t-23.5 62.5zM612 68q0 39 23.5 63.5t60.5 24.5q41 0 64.5 -23.5t23.5 -64.5q0 -39 -23.5 -63.5t-64.5 -24.5q-37 0 -60.5 25.5t-23.5 62.5zM1053 68 q0 39 23.5 63.5t60.5 24.5q41 0 64.5 -23.5t23.5 -64.5q0 -39 -23.5 -63.5t-64.5 -24.5q-37 0 -60.5 25.5t-23.5 62.5z" />
<glyph unicode="&#x202f;" horiz-adv-x="358" />
<glyph unicode="&#x2039;" horiz-adv-x="593" d="M109 578l264 383h112l-256 -383l256 -383h-112z" />
<glyph unicode="&#x203a;" horiz-adv-x="593" d="M106 195l259 383l-259 383h113l266 -383l-266 -383h-113z" />
<glyph unicode="&#x205f;" horiz-adv-x="447" />
<glyph unicode="&#x20ac;" d="M33 457l24 94h140q-8 51 -9 119q0 72 9 127h-164l24 92h158q53 217 200.5 346t346.5 129q115 0 212 -45t169 -127l-68 -66q-133 139 -315 140q-158 0 -274.5 -101.5t-163.5 -275.5h503l-24 -92h-500q-8 -55 -8 -127q0 -68 8 -119h453l-27 -94h-408q47 -174 162 -275.5 t273 -101.5q104 0 187 35t157 106l67 -67q-86 -88 -186 -131t-227 -43q-203 0 -347.5 129t-193.5 348h-178z" />
<glyph unicode="&#x2122;" horiz-adv-x="1689" d="M51 1298v86h596v-86h-254v-634h-90v634h-252zM786 664v720h88l277 -485l299 485h86v-720h-90v553l-258 -408h-74l-240 403v-548h-88z" />
<glyph unicode="&#x25fc;" horiz-adv-x="1054" d="M0 0v1055h1055v-1055h-1055z" />
</font>
</defs>
</svg>
