<?xml version="1.0" standalone="no"?>
<!DOCTYPE svg PUBLIC "-//W3C//DTD SVG 1.1//EN" "http://www.w3.org/Graphics/SVG/1.1/DTD/svg11.dtd" >
<svg xmlns="http://www.w3.org/2000/svg" xmlns:xlink="http://www.w3.org/1999/xlink" version="1.1">
<metadata>
Created by FontForge 20190801 at Mon Feb 15 15:06:57 2016
 By Jimmy Wärting
Copyright (c) 2016 by Studio Kmzero. All rights reserved.
</metadata>
<defs>
<font id="Byom-Bold" horiz-adv-x="1165" >
  <font-face 
    font-family="Byom"
    font-weight="700"
    font-stretch="normal"
    units-per-em="2000"
    panose-1="0 0 0 0 0 0 0 0 0 0"
    ascent="1600"
    descent="-400"
    x-height="1000"
    cap-height="1412"
    bbox="-117 -575 3278 1918"
    underline-thickness="100"
    underline-position="-200"
    unicode-range="U+0020-F6C3"
  />
<missing-glyph horiz-adv-x="990" 
d="M844 250q-57 -48 -129 -77t-153 -29t-152 29t-128 77h562zM248 282q-50 57 -77 129t-27 153q0 77 24.5 143.5t69.5 122.5h556zM280 876q57 51 129 79.5t153 28.5t152.5 -29t125.5 -79h-560zM980 564q0 -77 -24.5 -144.5t-69.5 -123.5h-558l546 550q106 -131 106 -282z
M698 76q-66 -18 -136 -18q-108 0 -200.5 41t-160.5 110t-106.5 161t-38.5 194q0 108 41 201t110 161t161 107t194 39q109 0 202 -42t160.5 -112.5t105.5 -162t38 -191.5q0 -92 -29 -170.5t-79 -141.5t-117.5 -108t-144.5 -68zM684 1012q-54 18 -122 18q-101 0 -186 -38
t-146.5 -102t-96.5 -148.5t-35 -177.5q0 -94 35.5 -178.5t98 -149t147.5 -102.5t183 -38q96 0 181 36.5t148 100t100 148.5t37 183q0 85 -27.5 158.5t-74 131.5t-109.5 98t-133 60z" />
    <glyph glyph-name=".notdef" horiz-adv-x="990" 
d="M844 250q-57 -48 -129 -77t-153 -29t-152 29t-128 77h562zM248 282q-50 57 -77 129t-27 153q0 77 24.5 143.5t69.5 122.5h556zM280 876q57 51 129 79.5t153 28.5t152.5 -29t125.5 -79h-560zM980 564q0 -77 -24.5 -144.5t-69.5 -123.5h-558l546 550q106 -131 106 -282z
M698 76q-66 -18 -136 -18q-108 0 -200.5 41t-160.5 110t-106.5 161t-38.5 194q0 108 41 201t110 161t161 107t194 39q109 0 202 -42t160.5 -112.5t105.5 -162t38 -191.5q0 -92 -29 -170.5t-79 -141.5t-117.5 -108t-144.5 -68zM684 1012q-54 18 -122 18q-101 0 -186 -38
t-146.5 -102t-96.5 -148.5t-35 -177.5q0 -94 35.5 -178.5t98 -149t147.5 -102.5t183 -38q96 0 181 36.5t148 100t100 148.5t37 183q0 85 -27.5 158.5t-74 131.5t-109.5 98t-133 60z" />
    <glyph glyph-name="s" unicode="s" horiz-adv-x="1013" 
d="M370 706q0 -24 25 -39t66.5 -25.5t94 -19.5t107.5 -22.5t107.5 -34t94 -54t66.5 -82.5t25 -119q0 -30 -5 -66t-20.5 -71.5t-43.5 -69t-74 -59t-112.5 -41t-158.5 -15.5q-78 0 -157.5 7t-143.5 27.5t-104.5 58t-40.5 99.5q0 30 18 55t56 25q16 0 54.5 -7.5t89 -16.5
t107 -16.5t107.5 -7.5q31 0 59.5 4t50 13.5t34 24.5t12.5 38q0 30 -25.5 48t-66.5 30.5t-94 23t-108 24t-108 33.5t-94 52.5t-66.5 80t-25.5 116.5q0 76 29.5 134.5t83.5 98t128.5 59.5t164.5 20q16 0 51 -0.5t79 -5.5t91 -16t87 -31.5t67.5 -52.5t32.5 -78q1 -17 -2 -33.5
t-12 -29.5t-25 -21t-39 -8q-27 0 -67 8t-86 17t-94.5 17t-92.5 8q-56 0 -89 -17.5t-33 -62.5z" />
    <glyph glyph-name="S" unicode="S" horiz-adv-x="1278" 
d="M350 1038q0 -53 34.5 -87t91 -57.5t130 -40.5t151 -37t154 -47t139 -70.5t105.5 -106.5t55 -156q5 -42 -2 -92t-31.5 -99.5t-69 -96t-114 -82t-168 -57t-229.5 -21.5q-112 0 -204.5 10t-162 32.5t-113.5 58.5t-58 87q-8 30 0.5 51.5t25.5 35t39 18.5t41 3q41 -5 83 -16.5
t90.5 -23.5t106.5 -21.5t132 -10.5q83 -1 147.5 13.5t108 40.5t66 62t22.5 80q0 48 -36.5 80t-96.5 55t-136.5 41t-157 38.5t-157.5 47t-138 66t-99.5 95.5t-40.5 137q-2 82 26 159t87.5 137.5t150.5 99.5t216 44q23 1 75.5 1.5t118 -4.5t135 -17t127.5 -37t95 -64.5
t37 -98.5q0 -18 -3.5 -33.5t-14.5 -26t-30.5 -15.5t-51.5 -3q-39 3 -93 11t-115.5 16.5t-127 15.5t-128.5 7q-40 0 -78 -6.5t-68 -21t-48 -37.5t-18 -57z" />
    <glyph glyph-name="e" unicode="e" horiz-adv-x="1098" 
d="M826 424q-48 -11 -105.5 -20.5t-118.5 -17.5t-122.5 -14.5t-116.5 -11.5q2 -34 11 -61t29 -46t55 -29t90 -10q59 0 108.5 6t90 13.5t72 14t55.5 6.5q25 0 40.5 -8t24 -20.5t11 -28t2.5 -31.5q0 -45 -28 -78.5t-79.5 -55.5t-125.5 -33t-165 -11q-107 0 -182.5 15
t-127 44.5t-81 71.5t-45 96.5t-20 120.5t-4.5 142q0 121 16.5 220t66.5 168.5t142 107.5t243 38q97 0 178 -16.5t141 -53t96.5 -94.5t46.5 -140q6 -58 -0.5 -104t-29 -81.5t-63.5 -60t-105 -38.5zM598 798q-76 0 -121.5 -16t-70.5 -46.5t-33.5 -76t-9.5 -105.5
q37 3 81.5 7.5t88 9.5t83.5 10t70 11q46 9 62 30.5t16 47.5q0 34 -13.5 58.5t-36 40t-52.5 22.5t-64 7z" />
    <glyph glyph-name="w" unicode="w" horiz-adv-x="1596" 
d="M802 940h22t22 -2q40 -5 77.5 -17.5t68 -34.5t51 -53.5t25.5 -72.5l66 -522q3 -26 18 -26q9 0 12.5 8.5t5.5 17.5l120 718q3 20 14.5 31.5t27 17t33 6.5t31.5 1q29 0 56.5 -8.5t48 -25t31 -39.5t6.5 -51l-116 -712q-11 -68 -38 -106t-62.5 -56t-76 -22t-77.5 -4h-30
q-41 0 -80.5 8t-72 29t-55.5 57t-32 92l-76 524q-2 14 -8.5 16t-11.5 2t-11.5 -2t-8.5 -16l-76 -524q-9 -56 -32 -92t-55.5 -57t-72 -29t-80.5 -8h-30q-38 0 -78 4t-75.5 22t-62.5 56t-38 106l-116 712q-5 28 6 51t31.5 39.5t48 25t56.5 8.5q14 0 31.5 -1t33 -6.5t27 -17
t14.5 -31.5l120 -718q2 -9 5.5 -17.5t12.5 -8.5q15 0 18 26l66 522q5 41 25.5 72.5t51 53.5t68 34.5t77.5 17.5q11 2 22 2h22z" />
    <glyph glyph-name="g" unicode="g" horiz-adv-x="1138" 
d="M1054 -120q0 -93 -26.5 -158t-84 -106t-149.5 -59.5t-222 -18.5q-131 0 -222.5 18.5t-149 59.5t-84 106t-26.5 158q0 80 19.5 139t61.5 100t108 64.5t159 32.5v115q-93 9 -159 33t-108 65t-61.5 100t-19.5 139t19.5 139t61.5 100t108 64.5t159 32.5v42q0 23 11 38.5
t30 24.5t43.5 13t51.5 4q25 0 49 -3.5t43 -12.5t30.5 -24.5t11.5 -39.5v-42q93 -9 158.5 -33t107 -64.5t61 -100t19.5 -138.5q0 -80 -19.5 -139t-61 -100t-107 -64.5t-158.5 -32.5v-116q93 -9 158.5 -33t107 -64.5t61 -100t19.5 -138.5zM780 668q0 69 -51 98.5t-157 29.5
q-60 0 -100 -7t-64 -22.5t-34 -40t-10 -58.5q0 -35 10 -59t34 -39.5t64 -22.5t100 -7t100 7t64 22.5t34 39.5t10 59zM780 -120q0 69 -51 98.5t-157 29.5q-60 0 -100 -7t-64 -22.5t-34 -40t-10 -58.5q0 -35 10 -59t34 -39.5t64 -22.5t100 -7t100 7t64 22.5t34 39.5t10 59z
" />
    <glyph glyph-name="o" unicode="o" horiz-adv-x="1144" 
d="M569 -12q-107 0 -184 19t-130 53.5t-84.5 82t-49 104t-23 120.5t-5.5 131v4q0 67 5.5 131t23 120.5t49 104t84.5 82t130 53.5t184 19h6q107 0 184 -19t130 -53.5t84.5 -82t49 -104t23 -120.5t5.5 -131v-4q0 -67 -5.5 -131t-23 -120.5t-49 -104t-84.5 -82t-130 -53.5
t-184 -19h-6zM579 208q72 0 113 18.5t61 53t25 85t5 115.5v40q0 64 -5 115t-25 85.5t-61 53t-113 18.5h-14q-72 0 -113 -18.5t-61 -53t-25 -85.5t-5 -115v-40q0 -65 5 -115.5t25 -85t61 -53t113 -18.5h14z" />
    <glyph glyph-name="n" unicode="n" horiz-adv-x="1185" 
d="M398 60q0 -24 -11.5 -38.5t-30.5 -22t-43 -9.5t-49 -2q-27 0 -51.5 2.5t-43.5 10t-30 22t-11 37.5v772q0 88 142 134t432 46q112 0 183.5 -39.5t112 -111t55.5 -170.5t15 -217v-414q0 -24 -11.5 -38.5t-30.5 -22t-43 -9.5t-49 -2q-27 0 -51.5 2.5t-43.5 10t-30 22
t-11 37.5v460q0 66 -5.5 115.5t-23 82.5t-51 49.5t-88.5 16.5q-63 0 -104.5 -3t-67.5 -8.5t-38.5 -13.5t-17.5 -18t-4.5 -21.5t0.5 -23.5v-636z" />
    <glyph glyph-name="m" unicode="m" horiz-adv-x="1732" 
d="M1006 554q1 -20 1.5 -40t0.5 -40v-414q0 -24 -11.5 -38.5t-30.5 -22t-43 -9.5t-49 -2q-27 0 -51.5 2.5t-43.5 10t-30 22t-11 37.5v460q0 66 -8.5 115.5t-30 82.5t-58 49.5t-91.5 16.5q-50 0 -79.5 -6.5t-46 -18.5t-21.5 -28t-5 -35v-636q0 -24 -11.5 -38.5t-30.5 -22
t-43 -9.5t-49 -2q-27 0 -51.5 2.5t-43.5 10t-30 22t-11 37.5v772q0 44 23 78t79.5 56.5t151.5 34t240 11.5q83 0 144 -21.5t106 -62.5q16 16 42.5 31.5t69 27t103 18.5t143.5 7q112 0 186.5 -39.5t119 -111t62.5 -170.5t18 -217v-414q0 -24 -11.5 -38.5t-30.5 -22t-43 -9.5
t-49 -2q-27 0 -51.5 2.5t-43.5 10t-30 22t-11 37.5v460q0 66 -8.5 115.5t-30 82.5t-58 49.5t-91.5 16.5q-54 0 -84.5 -7t-45.5 -20.5t-18.5 -33.5t-3.5 -47v-122z" />
    <glyph glyph-name="i" unicode="i" horiz-adv-x="527" 
d="M397 60q0 -24 -11.5 -38.5t-30.5 -22t-43 -9.5t-49 -2q-27 0 -51.5 2.5t-43.5 10t-30 22t-11 37.5v880q0 24 11.5 38t30.5 21.5t43 10t49 2.5q27 0 51.5 -2.5t43.5 -10t30 -22t11 -37.5v-880zM127 1340q0 24 11.5 38t30.5 21.5t43 10t49 2.5q27 0 51.5 -2.5t43.5 -10
t30 -22t11 -37.5v-130q0 -24 -11.5 -38.5t-30.5 -22t-43 -9.5t-49 -2q-27 0 -51.5 2.5t-43.5 10t-30 22t-11 37.5v130z" />
    <glyph glyph-name="r" unicode="r" horiz-adv-x="841" 
d="M602 1012q113 -3 173.5 -44t60.5 -112q0 -16 -2.5 -31.5t-11 -28t-24 -20.5t-40.5 -8q-23 0 -37.5 3t-32.5 6t-45.5 6t-76.5 3q-52 0 -84.5 -6.5t-51 -15.5t-25.5 -20t-7 -20v-664q0 -24 -11.5 -38.5t-30.5 -22t-43 -9.5t-49 -2q-27 0 -51.5 2.5t-43.5 10t-30 22
t-11 37.5v774q0 32 21 58.5t57 47t83.5 34.5t100 23t107 12.5t105.5 2.5z" />
    <glyph glyph-name="t" unicode="t" horiz-adv-x="771" 
d="M398 778v-430q0 -32 5.5 -56.5t23 -42t50 -26.5t87.5 -9q28 0 46 2.5t31.5 5.5t26.5 5.5t32 2.5q25 0 40.5 -8t24 -20.5t11 -28t2.5 -31.5q0 -74 -68.5 -114t-189.5 -40q-41 0 -86 4.5t-88.5 15.5t-83 30.5t-69.5 49.5t-47.5 72.5t-17.5 99.5v515q-42 5 -69 31.5
t-27 91.5q0 61 24.5 82t71.5 23v133q0 23 11 37.5t30 22t43.5 10t51.5 2.5q25 0 49 -2.5t43 -10t30.5 -21.5t11.5 -38v-134h102q21 0 47 1.5t52.5 1t52 -4.5t45 -15.5t31.5 -32.5t12 -54q0 -21 -5.5 -42t-15.5 -37.5t-24.5 -27t-32.5 -11.5q-18 -2 -66 -2h-110h-88z" />
    <glyph glyph-name="c" unicode="c" horiz-adv-x="1028" 
d="M550 -12q-107 0 -182.5 15t-127 44.5t-81 71.5t-45 96.5t-20 120.5t-4.5 142v38q0 76 4.5 142t20 120.5t45 96.5t81 71.5t127 44.5t182.5 15q91 0 165 -11t125.5 -33t79.5 -55.5t28 -78.5q0 -16 -2.5 -31.5t-11 -28t-24 -20.5t-40.5 -8q-24 0 -55.5 6t-72 13.5t-90 14
t-108.5 6.5q-55 0 -90.5 -6.5t-56.5 -29t-29 -66.5t-8 -118v-122q0 -56 3 -97.5t20.5 -70t55 -42.5t105.5 -14q69 0 124.5 7.5t99.5 16.5q32 6 57 11t45 5q25 0 40.5 -8t24 -20.5t11 -28t2.5 -31.5q0 -45 -28 -78.5t-79.5 -55.5t-125.5 -33t-165 -11z" />
    <glyph glyph-name="k" unicode="k" horiz-adv-x="1092" 
d="M398 60q0 -24 -11.5 -38.5t-30.5 -22t-43 -9.5t-49 -2q-27 0 -51.5 2.5t-43.5 10t-30 22t-11 37.5v1280q0 24 11.5 38t30.5 21.5t43 10t49 2.5q27 0 51.5 -2.5t43.5 -10t30 -22t11 -37.5v-1280zM970 228q34 -26 53 -44.5t27.5 -33t10 -27.5t1.5 -29q0 -32 -9.5 -52.5
t-24.5 -32.5t-34 -16.5t-38 -4.5q-53 0 -98.5 17.5t-87.5 52.5l-236 212q-32 26 -49.5 50.5t-26 49.5t-10.5 52.5t-2 59.5v36q0 32 2 59.5t10.5 52.5t26 49.5t49.5 50.5l236 212q42 35 87.5 52.5t98.5 17.5q19 0 38 -4.5t34 -16.5t24.5 -32.5t9.5 -52.5q0 -16 -1.5 -29
t-10 -27.5t-27.5 -33t-53 -44.5l-268 -226q-11 -8 -15 -21.5t-5 -22.5q0 -8 4 -23.5t16 -24.5z" />
    <glyph glyph-name="f" unicode="f" horiz-adv-x="725" 
d="M520 1428q60 0 101.5 -10.5t67.5 -30t37.5 -48t11.5 -65.5q0 -16 -2.5 -31.5t-11 -28t-24 -20.5t-40.5 -8q-19 0 -32 2.5t-26.5 5.5t-31.5 5.5t-46 2.5q-55 0 -81.5 -9t-36.5 -26.5t-9 -42.5t1 -56v-66h80q21 0 47 1.5t52.5 1t52 -4.5t45 -15.5t31.5 -32.5t12 -54
q0 -21 -5.5 -42t-15.5 -37.5t-24.5 -27t-32.5 -11.5q-14 -2 -72 -2h-170v-718q0 -24 -11.5 -38.5t-30.5 -22t-43 -9.5t-49 -2q-27 0 -51.5 2.5t-43.5 10t-30 22t-11 37.5v713q-25 1 -46.5 7t-37.5 20t-25 37.5t-9 60.5q0 34 7.5 54.5t22.5 32t37 15.5t51 4v152
q0 85 32 138.5t82.5 83t113 40t124.5 10.5h40z" />
    <glyph glyph-name="v" unicode="v" horiz-adv-x="1042" 
d="M741 874q15 49 24 76t20.5 40.5t30 16.5t53.5 3q26 0 57.5 -9.5t55 -31t33 -56.5t-7.5 -87l-218 -664q-22 -67 -51 -102.5t-62 -51.5t-68.5 -18t-70.5 -2h-20q-35 0 -71 2t-69 18t-61.5 51.5t-50.5 102.5l-218 664q-17 52 -7.5 87t33 56.5t55 31t57.5 9.5q34 0 53 -3
t30.5 -16.5t20.5 -40.5t24 -76l196 -644q2 -8 4 -12.5t9 -5.5h4q2 0 3 0.5t3 -0.5q7 1 8.5 5.5t4.5 12.5z" />
    <glyph glyph-name="j" unicode="j" horiz-adv-x="524" 
d="M128 1340q0 24 11.5 38t30.5 21.5t43 10t49 2.5q27 0 51.5 -2.5t43.5 -10t30 -22t11 -37.5v-130q0 -24 -11.5 -38.5t-30.5 -22t-43 -9.5t-49 -2q-27 0 -51.5 2.5t-43.5 10t-30 22t-11 37.5v130zM398 -388q0 -29 -20 -46.5t-48.5 -27t-61.5 -13t-58 -3.5q-19 0 -34 2.5
t-25.5 9.5t-16.5 19.5t-6 32.5v1354q0 24 11.5 38t30.5 21.5t43 10t49 2.5q27 0 51.5 -2.5t43.5 -10t30 -22t11 -37.5v-1328z" />
    <glyph glyph-name="z" unicode="z" horiz-adv-x="996" 
d="M419 224h283q44 0 90.5 -2t84.5 -13t62.5 -35.5t24.5 -69.5q0 -38 -6 -59t-24.5 -31t-53 -12t-92.5 -2h-630q-10 0 -29 1.5t-38 11.5t-33 31t-14 60q0 27 8.5 53.5t25.5 43.5l478 575h-230q-44 0 -90.5 2t-84.5 13t-62.5 35.5t-24.5 69.5q0 38 6 59t24.5 31t53 12t92.5 2
h586q10 0 29 -1.5t38 -11.5t33 -31t14 -60q0 -24 -7 -48t-21 -41v-1z" />
    <glyph glyph-name="C" unicode="C" horiz-adv-x="1242" 
d="M771 1412q103 0 186.5 -15t142 -43t90 -67.5t31.5 -88.5q0 -18 -6 -38t-18.5 -36.5t-33 -27t-48.5 -10.5q-25 0 -44.5 6t-40 15t-44.5 20t-56.5 20t-76.5 15t-104 6h-14q-111 0 -178.5 -25t-103.5 -78t-48 -136t-12 -199v-62q0 -116 12 -199t48 -135.5t103.5 -77
t178.5 -24.5h14q60 0 104 6t76.5 15t56.5 20t44.5 20t40 15t44.5 6q28 0 48.5 -11t33 -27.5t18.5 -36t6 -37.5q0 -49 -31.5 -88.5t-90 -67.5t-142 -43t-186.5 -15h-34q-143 0 -245 25.5t-171.5 72t-111 111.5t-63.5 144t-28.5 168.5t-6.5 186.5v6q0 96 6.5 186.5t28.5 169.5
t63.5 144t111 111.5t171.5 72.5t245 26h34v0z" />
    <glyph glyph-name="I" unicode="I" horiz-adv-x="565" 
d="M423 60q0 -24 -12.5 -38.5t-32 -22t-45 -9.5t-50.5 -2q-29 0 -54.5 2.5t-45 10t-31 22t-11.5 37.5v1264q0 22 11 39t30.5 27.5t45.5 16t55 5.5t54.5 -3.5t44.5 -13.5t30 -27t11 -44v-1264z" />
    <glyph glyph-name="X" unicode="X" horiz-adv-x="1377" 
d="M688 878q14 0 22 8t14 16l318 418q16 22 31.5 39t35 29t44.5 18t61 6q51 0 82 -21t41.5 -52.5t1 -69t-40.5 -71.5l-404 -498l424 -498q28 -31 40 -68t5 -69.5t-34.5 -54.5t-78.5 -22q-36 0 -63.5 6t-50 18t-40.5 29t-34 39l-338 418q-8 9 -16.5 15.5t-19.5 6.5
t-19.5 -6.5t-16.5 -15.5l-338 -418q-17 -22 -34.5 -39t-40 -29t-50 -18t-63.5 -6q-51 0 -78.5 22t-34.5 54.5t5 69.5t40 68l424 498l-404 498q-31 34 -40.5 71.5t1 69t41.5 52.5t82 21q36 0 61 -6t44.5 -18t34.5 -29t32 -39l318 -418q6 -8 14 -16t22 -8z" />
    <glyph glyph-name="d" unicode="d" horiz-adv-x="1156" 
d="M458 1012q29 0 66 -0.5t77 -5t81 -14t80 -28.5v402q0 40 22 52t60 12q25 0 58 -3.5t61.5 -13t48.5 -27.5t20 -46v-1174q0 -38 -26 -66t-70 -47.5t-102.5 -32.5t-122 -20t-129 -9.5t-124.5 -2.5q-113 0 -184 39.5t-111.5 111t-55.5 170t-15 217.5v10q0 100 15.5 186.5
t56.5 151t112 101.5t182 37zM530 216q72 0 117 5.5t70.5 14t35 19t9.5 21.5v424q-2 19 -23 33t-53.5 24t-73 16.5t-82.5 10.5q-45 4 -76 -1t-50.5 -26t-29 -60.5t-10.5 -104.5l-2 -112q-2 -66 3.5 -115.5t23.5 -82.5t51.5 -49.5t89.5 -16.5z" />
    <glyph glyph-name="l" unicode="l" horiz-adv-x="524" 
d="M398 60q0 -24 -11.5 -38.5t-30.5 -22t-43 -9.5t-49 -2q-27 0 -51.5 2.5t-43.5 10t-30 22t-11 37.5v1280q0 22 4.5 36.5t15 22t28.5 10.5t46 3q20 0 50 -3.5t58 -13.5t48 -27t20 -44v-1264z" />
    <glyph glyph-name="h" unicode="h" horiz-adv-x="1182" 
d="M398 60q0 -24 -11.5 -38.5t-30.5 -22t-43 -9.5t-49 -2q-27 0 -51.5 2.5t-43.5 10t-30 22t-11 37.5v1280q0 24 11.5 38t30.5 21.5t43 10t49 2.5q27 0 51.5 -2.5t43.5 -10t30 -22t11 -37.5v-364q57 17 132 26.5t172 9.5q112 0 183.5 -39.5t112 -111t55.5 -170.5t15 -217
v-414q0 -24 -11.5 -38.5t-30.5 -22t-43 -9.5t-49 -2q-27 0 -51.5 2.5t-43.5 10t-30 22t-11 37.5v460q0 66 -5.5 115.5t-23 82.5t-51 49.5t-88.5 16.5q-76 0 -121 -4.5t-69.5 -12t-32.5 -19t-9 -24.5v-17v-11v-636z" />
    <glyph glyph-name="u" unicode="u" horiz-adv-x="1170" 
d="M784 940q0 24 11.5 38t30.5 21.5t43 10t49 2.5q27 0 51.5 -2.5t43.5 -10t30 -22t11 -37.5v-792q0 -44 -35.5 -74.5t-107 -49.5t-179 -27.5t-252.5 -8.5q-113 0 -184 39.5t-111.5 111t-55.5 170t-15 217.5v414q0 24 11.5 38t30.5 21.5t43 10t49 2.5q27 0 51.5 -2.5
t43.5 -10t30 -22t11 -37.5v-460q0 -66 5.5 -115.5t23 -82.5t50.5 -49.5t89 -16.5q94 0 142.5 3.5t68 11.5t20.5 21t1 32v656z" />
    <glyph glyph-name="x.001" horiz-adv-x="1059" 
d="M525 338q-14 0 -22 -11t-14 -19l-178 -232q-16 -21 -28 -37.5t-27 -27.5t-37 -17t-56 -6q-48 0 -79.5 19.5t-44 49.5t-6 65.5t35.5 67.5l278 310l-278 310q-29 32 -35.5 67.5t6 65.5t44 49.5t79.5 19.5q34 0 56 -6t37 -17t27 -27.5t28 -37.5l178 -232q6 -8 14 -19t22 -11
t22 11t14 19l178 232q16 21 28 37.5t27 27.5t36.5 17t56.5 6q48 0 79.5 -19.5t44 -49.5t5.5 -65.5t-35 -67.5l-278 -310l278 -310q28 -32 35 -67.5t-5.5 -65.5t-44 -49.5t-79.5 -19.5q-35 0 -56.5 6t-36.5 17t-27 27.5t-28 37.5l-178 232q-6 8 -14 19t-22 11z" />
    <glyph glyph-name="less" unicode="&#x3c;" horiz-adv-x="972" 
d="M780 238q34 -26 53 -44.5t27.5 -33t10 -27.5t1.5 -29q0 -32 -9.5 -52.5t-24.5 -32.5t-34 -16.5t-38 -4.5q-53 0 -97 20t-89 50l-320 218q-34 23 -57.5 46t-38.5 48t-21.5 52.5t-6.5 59.5v36q0 32 6.5 59.5t21.5 52.5t38.5 48t57.5 46l320 218q45 30 89 50t97 20
q19 0 38 -4.5t34 -16.5t24.5 -32.5t9.5 -52.5q0 -16 -1.5 -29t-10 -27.5t-27.5 -33t-53 -44.5l-366 -240q-14 -8 -16.5 -14.5t-2.5 -12.5q1 -1 1 -3v-4q0 -2 -1 -3q0 -7 2.5 -13t16.5 -14z" />
    <glyph glyph-name="b" unicode="b" horiz-adv-x="1115" 
d="M362 955q39 19 80.5 30.5t81.5 17.5t76.5 7.5t65.5 1.5q111 0 182 -37t112 -101.5t56.5 -151t15.5 -186.5v-10q0 -119 -15 -217.5t-55.5 -170t-112 -111t-183.5 -39.5q-59 0 -124.5 2.5t-129 9.5t-122 20t-102.5 32.5t-70 47.5t-26 66v1174q0 28 20 46t48.5 27.5t61 13
t58.5 3.5q19 0 34 -2.5t25.5 -9.5t16.5 -19.5t6 -32.5v-411zM594 784q-42 -4 -82.5 -10.5t-73 -16.5t-53.5 -24t-23 -33v-424q0 -11 9 -21.5t34.5 -19t71 -14t117.5 -5.5q55 0 89 16.5t52 49.5t23 82.5t4 115.5l-2 112q-2 65 -11 104.5t-28.5 60.5t-50.5 26t-76 1z" />
    <glyph glyph-name="p" unicode="p" horiz-adv-x="1156" 
d="M703 -12q-29 0 -65.5 0.5t-76.5 4t-81.5 12t-80.5 25.5v-396q0 -20 -6 -32.5t-16.5 -19.5t-25.5 -9.5t-34 -2.5q-26 0 -58.5 3.5t-61 13t-48.5 27t-20 46.5v1154q0 38 26 67.5t70 51.5t102.5 37t122 24.5t129 13.5t124.5 4q112 0 183.5 -39.5t112 -111t55.5 -170.5
t15 -217v-10q0 -100 -15.5 -186.5t-56.5 -151t-112 -101.5t-182 -37zM399 280q2 -19 23 -30t53.5 -17t73 -9.5t82.5 -7.5q45 -4 76 1t50.5 26t28.5 60.5t11 104.5l2 112q1 66 -4 115.5t-23 82.5t-52 49.5t-89 16.5q-72 0 -117.5 -8.5t-71 -21t-34.5 -26.5t-9 -24v-424z" />
    <glyph glyph-name="q" unicode="q" horiz-adv-x="1159" 
d="M764 8q0 20 -28.5 19.5t-72.5 -9.5t-98 -19.5t-105 -10.5q-122 0 -194 37t-110.5 101.5t-50 151t-11.5 186.5v10q0 118 15 217t55.5 170.5t111.5 111t184 39.5q59 0 124.5 -4.5t129 -16t122 -32.5t102.5 -54t70 -80t26 -111v-1102q0 -29 -20 -46.5t-48.5 -27t-61.5 -13
t-58 -3.5q-19 0 -34 2.5t-25.5 9.5t-16.5 19.5t-6 32.5v422zM764 632q0 37 -9.5 65t-35 47.5t-70.5 29.5t-117 10q-56 0 -89.5 -15.5t-51.5 -46t-23.5 -76t-3.5 -104.5l4 -134q1 -50 6 -86.5t21.5 -60t48.5 -34.5t88 -11q36 0 70 3t63 8t51.5 11.5t35.5 13.5q5 2 7.5 4
t4.5 4v372z" />
    <glyph glyph-name="y" unicode="y" horiz-adv-x="1071" 
d="M524 230q2 -8 4 -12.5t9 -5.5h5h5q2 0 3.5 1t3.5 2l21 66l181 593q15 49 24 76t20.5 40.5t30 16.5t53.5 3q26 0 57.5 -9.5t55 -31t33 -56.5t-7.5 -87l-164 -498q-1 -8 -3 -13t-3 -7l-200 -628q-11 -35 -21.5 -59t-25.5 -38.5t-36 -20.5t-53 -6q-27 0 -56 7.5t-49.5 27
t-27 53t10.5 84.5l85 261q-29 1 -57 8t-53.5 25.5t-48 52t-40.5 87.5l-218 664q-17 52 -7.5 87t33 56.5t55 31t57.5 9.5q34 0 53 -3t30.5 -16.5t20.5 -40.5t24 -76z" />
    <glyph glyph-name="space" unicode=" " horiz-adv-x="526" 
 />
    <glyph glyph-name="one" unicode="1" horiz-adv-x="3492" 
d="M2558 600q6 -5 9.5 -10.5t6.5 -13.5q6 -12 6 -30q0 -13 -6 -28q-3 -6 -6.5 -12t-9.5 -12q-5 -5 -10.5 -9t-13.5 -7q-12 -6 -28 -6q-9 0 -15.5 1.5t-14.5 4.5q-6 3 -12 7t-12 9q-5 6 -9 12t-7 12q-6 15 -6 28q0 18 6 30q3 8 7 13.5t9 10.5q6 6 12 9.5t12 6.5q8 3 14.5 4.5
t15.5 1.5q16 0 28 -6q8 -3 13.5 -6.5t10.5 -9.5zM716 576q-2 -2 -3.5 -4.5t-4.5 -5.5q-2 -2 -10 -6q-4 -2 -12 -2h-44v62h44q4 0 12 -4q7 0 10 -6q3 -2 4.5 -4t3.5 -4q0 -3 1 -6.5t1 -8.5q0 -2 -1 -5t-1 -6zM1086 600q11 -11 16 -24q6 -12 6 -30q0 -13 -6 -28q-3 -6 -7 -12
t-9 -12q-6 -5 -12 -9t-12 -7q-15 -6 -30 -6t-28 6q-13 5 -24 16q-6 6 -9.5 12t-6.5 12q-6 15 -6 28q0 18 6 30q3 8 6.5 13.5t9.5 10.5q5 6 10.5 9.5t13.5 6.5q13 6 28 6t30 -6q6 -3 12 -6.5t12 -9.5zM1462 616q0 -10 2 -12l36 -84h-78l36 84q2 2 2 4t1 4t1 4zM390 610
q4 -4 8 -12q2 -4 2 -14v-7t-2 -7q-4 -8 -8 -10q-4 -5 -10 -8q-5 -2 -8 -3t-6 -1h-44v72h44q3 0 6 -1t8 -3q3 0 5.5 -2t4.5 -4zM3278 1084v-766h-3148v766h1194q0 79 30 150q31 71 82 122q53 50 122 80t146 30q85 0 152 -32q69 -33 120 -84q50 -53 80 -122t30 -144h1192z
M1380 1216q-12 -32 -19 -65t-7 -69q0 -69 28 -134q14 -32 32 -60t42 -52q45 -48 110 -76q63 -30 138 -30q71 0 136 28q63 27 112 76q24 23 42.5 50.5t33.5 59.5q26 64 26 138q0 33 -4.5 63t-15.5 57q-9 26 -23.5 51.5t-32.5 48.5q-18 21 -38 39t-44 35q-24 14 -49 25t-51 19
q-21 8 -43.5 11t-48.5 3q-74 0 -140 -30q-32 -14 -59 -33t-51 -43t-42 -52t-32 -60zM424 560q2 6 3 12t1 12q0 8 -1 14t-3 12q-3 5 -6 9t-8 9t-9.5 8.5t-10.5 5.5q-12 6 -24 6h-72v-200h28v74h44q6 0 12 1t12 3q12 6 20 14t14 20zM572 648h-124v-200h124v26h-96v60h78v28
h-78v58h96v28zM768 448l-64 86q5 2 9 3t7 5q8 3 14 12q5 6 8 16q2 5 2 9v8q0 8 -0.5 13.5t-3.5 11.5q-2 5 -5.5 9t-6.5 9q-9 9 -18 12q-12 6 -24 6h-72v-200h28v82h30l52 -70q3 -7 10 -10q2 -2 6.5 -2h9.5h18zM902 482q6 12 6 24q0 28 -22 44q-2 2 -4 3t-4 3q-3 2 -5 2t-5 2
q-2 2 -4 2t-6 2q-2 0 -10 4q-5 2 -9 3t-7 3q-5 2 -7 3t-5 3q-4 4 -6 7q-1 3 -1 11q0 6 1 10q2 2 3.5 4t4.5 4q2 0 10 4q4 2 12 2q3 0 5.5 -1t4.5 -1q3 -2 6.5 -3t5.5 -3q8 -4 12 -4q8 0 14 6l6 4q-2 3 -4.5 5t-5.5 5t-6 5t-6 5q-3 2 -7 3t-9 3q-8 4 -16 4q-6 0 -11 -1
t-11 -3t-10.5 -4.5t-9.5 -5.5q-3 -3 -6 -7t-6 -9q-6 -9 -6 -22q0 -8 1.5 -12.5t4.5 -9.5q3 -10 12 -16q7 -7 18 -10q5 -3 9.5 -5t10.5 -5q3 -2 6 -2.5t8 -1.5q3 -2 6.5 -3t5.5 -3q3 -3 5.5 -5t4.5 -5t3 -6t1 -8q0 -6 -4 -14q-3 -7 -10 -10q-2 -3 -5.5 -4.5t-6.5 -3.5
q-5 0 -8 -1t-8 -1q-3 0 -7 1t-7 1q-8 4 -11 8l-3 2q-6 6 -16 6q-7 0 -10 -4l-8 -2q2 -2 2 -3t2 -1q0 -2 1 -3t1 -3q4 -4 5 -6q4 -5 7 -5q9 -10 19.5 -13.5t24.5 -3.5q8 0 14 0.5t14 3.5q11 3 20 13q11 9 16 19zM1132 520q2 8 2 13.5v12.5v15t-2 13q-3 8 -5 14t-7 12
q-3 5 -7 10t-7 10q-6 5 -11 8t-11 8q-6 3 -12 5.5t-12 4.5q-8 2 -14 3t-14 1q-6 0 -13 -1t-13 -3q-8 -2 -14 -4.5t-12 -5.5q-5 -5 -10 -8t-10 -8t-9 -10t-7 -10q-3 -6 -5.5 -12t-4.5 -14q-2 -6 -3 -13t-1 -15q0 -9 1.5 -19t6.5 -19q5 -11 10.5 -18.5t11.5 -15.5
q8 -6 15.5 -11.5t16.5 -8.5q19 -8 40 -8h14t14 2q6 3 12 5t12 7q10 5 22 14q3 5 7 10.5t7 11.5q5 6 7 12t5 12zM1342 648h-28v-156q0 5 -1 8t-3 6l-98 134q-4 4 -8 6q-3 0 -6 1t-6 1h-20v-200h28v168v-4q2 -2 2 -3v-1q0 -2 1 -3q0 -1 1 -1l114 -156h24v200zM1562 448
l-86 200h-28l-88 -200h16q8 0 11 2q7 5 9 10l14 32h102l14 -32q4 -8 8 -10q2 -2 5.5 -2h6.5h16zM1696 474h-86v174h-28v-200h114v26zM1972 648h-28v-122q0 -6 -1 -11t-3 -11q-3 -5 -5 -9t-7 -7q-3 -5 -7 -7t-8 -5q-7 -2 -12 -3t-11 -1q-5 0 -10 1t-10 3q-5 3 -9 5t-7 7
q-9 6 -12 16q-2 6 -3 11t-1 11v122h-28v-122q0 -6 0.5 -11.5t2.5 -10.5q1 -6 3 -10.5t4 -9.5q3 -5 6 -9t8 -7q3 -3 7 -6t9 -6t10 -4.5t10 -3.5t10 -3t10 -1q6 0 12 1t11 3q12 3 19 8q5 3 8 6t8 6q3 3 6 7t6 9q5 7 8 20q2 5 3 10.5t1 11.5v122zM2126 482q3 6 3.5 12t0.5 12
q0 30 -20 44q-4 2 -8 6q-3 2 -5 2t-5 2q-4 2 -5.5 2t-4.5 2q-3 0 -5 1t-5 3q-5 2 -9 3t-7 3q-9 3 -12 6q-6 3 -6 7q-2 3 -2 11q0 6 2 10q2 2 3.5 4t4.5 4q2 0 10 4q4 2 12 2q3 0 5 -1t5 -1l12 -6q8 -4 12 -4q6 0 12 6l8 4q-2 3 -4.5 5t-5.5 5t-6 5t-6 5q-3 2 -7 3t-9 3t-8 3
t-8 1q-6 0 -11.5 -1t-10.5 -3q-6 -2 -10.5 -4.5t-9.5 -5.5q-3 -3 -6.5 -7t-5.5 -9q-6 -9 -6 -22q0 -8 1.5 -12.5t3.5 -9.5q5 -11 13 -16q7 -7 16 -10q6 -3 11 -5t11 -5q3 -2 6 -2.5t8 -1.5l12 -6q3 -3 5.5 -5t4.5 -5t3 -6t1 -8q0 -6 -4 -14q-3 -7 -10 -10q-5 -5 -14 -8
q-3 0 -7 -1t-7 -1q-5 0 -8 1t-6 1q-10 3 -12 8l-2 2q-6 6 -16 6q-8 0 -10 -4l-8 -2q0 -2 1 -3q0 -1 1 -1q2 -2 2 -3t2 -3q4 -4 4 -6q4 -5 8 -5q9 -10 19.5 -13.5t24.5 -3.5q8 0 14 0.5t11 3.5q15 3 23 13q11 9 16 19zM2290 648h-124v-200h124v26h-98v60h78v28h-78v58h98v28z
M2604 520q2 8 3 13.5t1 12.5q0 8 -1 15t-3 13q-2 8 -4.5 14t-5.5 12q-3 5 -7 10t-9 10t-10 8t-10 8q-6 3 -12 5.5t-14 4.5q-6 2 -13 3t-13 1q-8 0 -14.5 -1t-13.5 -3q-6 -2 -12 -4.5t-12 -5.5q-6 -5 -11 -8t-11 -8q-5 -5 -8 -10t-8 -10q-3 -6 -5 -12t-5 -14q-2 -6 -2 -13
v-15q0 -9 1.5 -19t6.5 -19q3 -11 8.5 -18.5t11.5 -15.5q8 -6 16.5 -11.5t17.5 -8.5q16 -8 40 -8h13t13 2q8 3 14 5t12 7l10 6t10 8q10 10 16 22q3 6 5.5 12t4.5 12zM2814 648h-28v-156q0 5 -1 8t-3 6l-98 134q-4 4 -8 6q-2 0 -4.5 1t-7.5 1h-20v-200h28v168q2 -2 2 -3v-1
q0 -4 2 -4q0 -4 2 -4l114 -156h22v200zM2978 474h-88v174h-26v-200h114v26zM3136 648h-18q-10 0 -14 -4q-3 -2 -5.5 -5t-4.5 -5l-48 -64q-1 0 -2 -1v-1q0 -1 -0.5 -1.5t-0.5 -1.5l-1 -1v4v1l-2 1l-46 64q-3 2 -5.5 5t-4.5 5q-5 2 -8 3t-8 1h-18l72 -98l1 -1q0 -1 0.5 -1.5
t0.5 -1.5q2 -2 2 -3t2 -1v-5v-5v-84h28v84q0 2 1 3t1 2v2q0 1 2 3v1q0 1 2 3q0 4 4 4zM1590 787q-27 11 -51 26t-47 33h424q-23 -18 -47 -33t-51 -26q-26 -10 -55 -15.5t-59 -5.5q-31 0 -59.5 5.5t-54.5 15.5zM1528 880l412 416q78 -102 78 -214q0 -29 -4 -55.5t-14 -52.5
q-9 -26 -22 -48.5t-30 -45.5h-420zM1468 870q-20 23 -34.5 47t-23.5 51q-11 26 -15.5 55t-4.5 59q0 57 18 108q8 26 21 48.5t31 45.5h418zM1818 1378q54 -24 96 -60h-422q21 20 45.5 34.5t49.5 25.5q53 20 117 20q30 0 59 -4.5t55 -15.5zM136 116q-7 10 -10 21q-2 7 -3 13
t-1 12t1 12t3 12t4.5 12t5.5 12q3 5 6 9t8 9q8 8 20 14q11 7 22 10q6 2 12 3t12 1q11 0 20 -2.5t18 -5.5q8 -5 15 -9.5t13 -10.5q0 -2 -1 -2t-3 -2l-2 -2q-2 -2 -3 -2h-1h-6h-4t-4 2q-5 3 -9.5 5.5t-10.5 4.5q-5 2 -10.5 2h-11.5q-8 0 -15 -1t-14 -3q-12 -7 -21 -16
q-6 -5 -9.5 -10.5t-6.5 -13.5q-6 -12 -6 -28v-9t2 -9q2 -10 8 -18q3 -5 6 -8t6 -8q6 -6 14 -10q5 -3 9 -4.5t9 -3.5t9.5 -2h10.5h12t12 2t11 4.5l11 5.5v38h-14q-2 0 -4 1t-4 1q-2 2 -3 2t-3 2q0 2 -1 3t-1 3q-2 2 -2 6v2h50v-70q-3 -5 -6 -7t-8 -5q-3 -2 -6 -3t-8 -1
q-5 -2 -9 -3t-9 -1h-20h-12t-12 2q-11 3 -22 10q-12 6 -20 14t-14 20zM348 232v-58h72v-20h-72v-62h90v-20h-110v182h110v-22h-90zM518 72v160h-58v22h138v-22h-58v-160h-22zM732 232v-62h76v-20h-76v-78h-20v182h110v-22h-90zM878 254v-112q0 -6 0.5 -10.5t3.5 -9.5
q2 -6 4.5 -9.5t5.5 -8.5q5 -3 8.5 -5.5t9.5 -4.5q5 -3 9.5 -3.5t10.5 -0.5t10.5 0.5t9.5 3.5q11 4 16 10q5 5 7 8.5t5 9.5q2 5 3 9.5t1 10.5v112h20v-112q0 -16 -6 -28q-3 -8 -6 -13.5t-8 -10.5q-6 -5 -12 -9t-12 -7q-6 -2 -13 -3t-15 -1t-15 1t-13 3q-13 5 -24 16
q-5 5 -9 10.5t-6 13.5q-4 6 -4.5 13t-0.5 15v112h20zM1062 254v-162h80v-20h-102v182h22zM1186 254v-162h80v-20h-100v182h20zM1432 72l-78 182h10q3 0 5 -1t5 -3q2 -2 4 -3.5t2 -4.5l60 -136q0 -2 1 -3t1 -3v-6v6q2 2 2 6q8 17 15 34t15 34q8 18 15 34.5t15 33.5q2 4 6 8
q8 4 10 4h12q-11 -23 -21 -46t-19 -46q-11 -23 -20 -45t-20 -45h-20zM1568 232v-58h72v-20h-72v-62h90v-20h-112v182h112v-22h-90zM1794 156q-5 -2 -8 -3t-8 -3l58 -78h-12q-8 0 -11 2q-6 2 -9 8l-52 68h-30v-78h-22v182h66q5 0 10 -1t10 -3q5 -3 9 -6t7 -6t6 -7t6 -9
q2 -5 3 -10t1 -10t-1 -9t-3 -9q-2 -10 -8 -16zM1766 170q8 0 12 2q3 2 5 3t5 3q2 3 3 5t3 4q2 4 3 7t1 8q0 4 -4 12q-2 3 -3 5t-3 5q-3 2 -5 3t-5 3q-4 2 -12 2h-44v-62h44zM1932 98q7 3 10 10q4 10 4 14q0 9 -4 15q-3 6 -8 9q-4 4 -12 8q-4 0 -14 4q-6 2 -10.5 4t-9.5 4
q-9 3 -16 10q-3 2 -5.5 5.5t-3.5 5.5q-2 5 -3.5 10t-1.5 11q0 11 6 20q3 8 12 14q7 7 16 10q5 2 10.5 3t10.5 1q2 0 6 -1t7 -1q5 -2 8 -3t6 -3q3 -3 5.5 -4.5t4.5 -3.5l8 -8l-4 -4q-4 -4 -10 -4q-8 0 -10 2t-3 2t-3 2q-2 0 -2 1t-2 1t-3 1t-3 1h-5h-8t-7 -2q-3 0 -5 -1
t-5 -3q-2 -3 -4 -5t-2 -5q-4 -4 -4 -10q0 -8 2 -10q2 -4 6 -8q5 -4 12 -6q3 -2 7 -3t9 -3q3 -2 5 -2t5 -2q4 0 8 -4q3 0 5 -1t5 -3q2 0 6 -4l8 -8t7 -8q1 -7 2 -11.5t1 -12.5q0 -6 -1 -11t-2 -11q-4 -5 -7 -9.5t-8 -6.5q-7 -7 -20 -10q-5 -3 -10.5 -3.5t-11.5 -0.5
q-26 0 -40 14q-2 2 -5 4.5t-5 5.5q-4 4 -4 8l4 2l1 1q1 0 1.5 0.5t1.5 0.5h4q8 0 12 -4q3 -5 7 -6.5t7 -3.5q5 -2 8 -2h8h6t8 2q6 0 12 6zM2028 254v-182h-22v182h22zM2098 96q-6 6 -11.5 13.5t-8.5 16.5q-5 8 -6.5 17.5t-1.5 18.5q0 6 1 12t3 12t3.5 12t4.5 12q4 5 7.5 9
t8.5 9t9 8t9 6q10 7 21 10q7 2 13 3t14 1q6 0 12 -1t11 -3q12 -3 23 -10q12 -6 20 -14q5 -5 8 -9t6 -9q3 -6 5.5 -12t4.5 -12t2 -12v-12q0 -20 -6 -36q-8 -17 -20 -30q-16 -14 -30 -20q-20 -6 -36 -6q-22 0 -38 6t-28 20zM2096 190q-6 -12 -6 -28q0 -5 1 -9t3 -9
q2 -6 3 -9.5t3 -8.5q3 -5 6 -8t6 -8q6 -6 14 -10q7 -5 18 -8q5 -2 9.5 -2h10.5h9t9 2q4 2 8.5 3.5t9.5 4.5q5 2 8 4.5t6 5.5q5 5 7 8t5 8q6 8 8 18q2 5 2 9v9q0 16 -6 28q-3 8 -6.5 13.5t-9.5 10.5q-10 10 -22 16q-6 2 -13 3t-15 1t-15 -1t-15 -3q-12 -6 -22 -16
q-5 -5 -9 -10.5t-7 -13.5zM2310 72h-20v182h14q13 0 16 -8l94 -132q2 -1 2 -2.5t2 -3.5v-4v150h22v-182h-20l-106 150l-2 2v2q0 2 -2 4v-158zM2592 232v-62h76v-20h-76v-78h-20v182h112v-22h-92zM2810 168q-3 -6 -12 -12q-3 -2 -7.5 -3t-8.5 -3l60 -78h-12q-10 0 -14 2
q-2 2 -4 3.5t-4 4.5l-50 68h-32v-78h-20v182h64q6 0 10.5 -1t9.5 -3q6 -3 9.5 -6t6.5 -6q9 -6 12 -16q2 -5 3 -10t1 -10v-9t-2 -9q-3 -9 -10 -16zM2782 172q8 4 10 6q6 6 6 9q2 4 3 7t1 8q0 4 -4 12q0 4 -6 10q-2 2 -10 6q-4 2 -12 2h-44v-62h44q8 0 12 2zM3020 96
q-16 -14 -30 -20q-18 -6 -38 -6q-18 0 -36 6q-15 6 -29 20q-13 11 -19 30q-5 8 -6.5 17.5t-1.5 18.5q0 6 1 12t3 12t3.5 12t6.5 12q2 5 5.5 9t7.5 9t9 8l10 6l11 5.5t11 4.5t12 3t12 1q8 0 14 -1t12 -3q11 -3 22 -10q12 -6 20 -14q5 -5 8 -9t6 -9l4 -12l4 -12q3 -6 3.5 -12
t0.5 -12q0 -9 -2 -18.5t-7 -17.5q-4 -17 -17 -30zM2952 90h10.5t9.5 2t9 3.5t9 4.5q5 2 8 4.5t6 5.5q5 5 7 8t5 8q6 8 8 18q2 5 2 9v9q0 16 -6 28q-3 8 -6.5 13.5t-9.5 10.5q-10 10 -22 16q-8 2 -15 3t-15 1q-6 0 -13 -1t-15 -3q-12 -6 -22 -16q-5 -5 -9 -10.5t-7 -13.5
q-6 -12 -6 -28q0 -5 1 -9t1 -9q2 -6 4 -9.5t4 -8.5q3 -5 6 -8t6 -8q6 -6 14 -10q5 -3 9 -4.5t9 -3.5t9 -2h9zM3252 250q4 4 8 4h18v-182h-20v150h-2v-4v-2q0 -1 -1 -2h-1q-5 -11 -9 -21t-7 -19q-5 -11 -9 -19t-7 -18q-5 -8 -9 -16.5t-7 -16.5q-3 -9 -7 -16.5t-7 -15.5h-22
q-8 17 -15 34.5t-15 35.5q-9 18 -16.5 36t-15.5 36q-2 0 -2 4v4v-150h-20v182h16q4 0 8 -4q6 -3 6 -8l64 -140v-4q2 -2 2 -3v-1v4.5t2 5.5t2 5t1 5l59 128q0 5 6 8zM130 0h210v-24v-14q-2 -3 -3 -6t-3 -6l-142 -188q2 0 4 2q2 0 4 2h4h136v-50h-218v16q0 4 1 7.5t1 6.5
q2 3 2 6t2 6l6 12q4 3 8 10l126 170h-138v50zM376 0h182v-50h-130v-66h104v-50h-104v-68h130v-50h-182v284zM786 -50h-84v-234h-52v234h-82v50h218v-50zM914 0l122 -284h-32q-11 0 -20 6q-5 3 -8 7l-6 8l-16 39h-128l-18 -39q0 -3 -4 -7q-2 -3 -4 -4.5t-4 -3.5q-3 -2 -5 -3
t-5 -1q-3 -2 -5.5 -2h-4.5h-34l124 284h48zM932 -172l-38 86q-2 3 -2 5.5t-2 4.5v8q0 -4 -2 -8q0 -2 -1 -4.5t-1 -5.5l-38 -86h84zM1048 0h182v-50h-130v-72h108v-50h-108v-112h-52v284zM1516 -70q5 -8 8.5 -16.5t5.5 -17.5q6 -18 6 -38t-6 -38q-2 -9 -5.5 -18t-8.5 -18
q-9 -15 -22 -28q-6 -6 -13.5 -11.5t-16.5 -10.5q-8 -6 -16.5 -9.5t-17.5 -6.5q-9 -2 -18 -3t-20 -1q-15 0 -29.5 2.5t-26.5 7.5q-14 6 -25.5 13.5t-20.5 18.5q-21 21 -32 46q-6 14 -8 27t-2 29q0 9 0.5 19t3.5 19t6 17.5t8 16.5q5 9 10.5 15.5t13.5 14.5q13 13 28 22
q9 4 17 8.5t17 7.5q11 2 20 3t20 1t20 -1t18 -3q9 -3 17.5 -7.5t16.5 -8.5q9 -5 16.5 -10.5t13.5 -11.5q6 -8 11.5 -14.5t10.5 -15.5zM1478 -178q6 18 6 36t-6 36q-5 9 -9.5 15.5t-10.5 14.5q-8 6 -15.5 10t-14.5 8q-16 8 -36 8q-23 0 -36 -8q-9 -4 -16.5 -8t-13.5 -10
q-6 -8 -10.5 -14.5t-9.5 -15.5q-3 -9 -5.5 -18t-2.5 -18t2.5 -18t5.5 -18q10 -20 20 -30q6 -6 13.5 -10.5t16.5 -9.5q15 -6 36 -6q18 0 36 6q7 5 14.5 9.5t15.5 10.5q6 6 10.5 13.5t9.5 16.5zM1772 0h52v-284h-48l-134 190q-4 4 -4 6q-2 4 -6 8q0 2 -4 6q0 2 -1 3t-1 3v-216
h-52v284h46q8 0 16 -4t10 -9q15 -20 30 -41l30 -42t29.5 -41.5t28.5 -40.5q6 -6 6 -12q2 -3 2 -5.5v-4.5v200zM1848 0h218v-50h-82v-234h-52v234h-84v50zM2246 -146q9 -9 12 -22q6 -12 6 -28q0 -11 -2.5 -19.5t-5.5 -16.5q-5 -9 -10.5 -16.5t-11.5 -14.5q-15 -11 -34 -17
q-20 -6 -36 -6q-22 0 -40 6q-9 5 -16.5 9.5t-15.5 12.5q-5 5 -8 9t-6 9q-5 8 -8 16q2 0 6 4q4 0 8 4q2 0 4 1t4 1t4 0.5t4 0.5q6 0 12 -3q5 0 8 -1t6 -3q7 -7 16 -10q5 -2 10.5 -3t11.5 -1h7t9 2q3 2 7 3t7 3q9 6 12 13q6 7 6 17q0 5 -1 8t-3 6q-3 3 -6 5.5t-6 4.5
q-8 5 -16 8q-8 1 -18 8q-8 2 -15 4.5t-15 5.5t-14 7t-12 9q-10 10 -16 22q-8 13 -8 32q0 10 2.5 18t5.5 16q10 16 20 24q6 4 13 8.5t14 7.5q8 2 16.5 3t16.5 1q6 0 12 -1t12 -3q13 -3 22 -11q6 -2 10.5 -6t9.5 -9q5 -3 8 -7t6 -9l-10 -8l-6 -4t-8 -4t-8 -2.5t-6 -0.5h-4h-4
q-3 2 -5 2.5t-5 2.5q-2 2 -4.5 2t-3.5 2q-2 0 -3.5 1t-4.5 1q-2 2 -8 2h-6t-8 -2q-6 0 -10 -4q-3 -2 -6 -4.5t-4 -3.5q-2 -4 -2 -12t2 -10q1 -3 4 -5t6 -5q3 -2 7 -3t9 -3t10.5 -4t13.5 -4l8 -4q9 -3 15.5 -6t14.5 -8q14 -7 22 -18zM2332 -234q5 -3 5 -10q2 -2 3.5 -5.5
t1.5 -6.5q0 -5 -5 -12q0 -5 -5 -10q-2 -2 -10 -6q-4 -2 -12 -2t-12 2q-8 4 -11 6q-2 3 -3.5 5t-3.5 5q0 3 -1 6t-1 6t1 6.5t1 5.5q4 8 7 10q4 6 11 6q8 4 12 4t12 -4q7 0 10 -6zM2440 -76q-8 -8 -12.5 -14.5t-7.5 -15.5q-8 -16 -8 -36t8 -36q6 -19 20 -30q6 -6 13.5 -10.5
t16.5 -9.5q15 -6 34 -6q8 0 15 1t13 3q14 3 26 12q2 2 4 2t4 2q3 1 5.5 1h4.5q8 0 16 -3q8 -4 12 -8l12 -10q-6 -6 -12 -11.5t-12 -10.5t-13 -9t-13 -7q-8 -5 -15 -6.5t-15 -3.5q-8 -3 -15.5 -3.5t-16.5 -0.5q-14 0 -28 2.5t-28 7.5q-25 11 -46 32q-9 11 -16.5 21.5
t-13.5 24.5q-12 27 -12 56q0 20 6 38q2 9 5.5 17.5t8.5 16.5q5 9 10.5 15.5t11.5 14.5q8 6 14.5 11.5t15.5 10.5q8 4 16.5 8.5t17.5 7.5q11 2 20 3t18 1t16.5 -0.5t15.5 -3.5q13 -3 30 -11q12 -5 26 -15q6 -5 12 -10.5t12 -11.5l-12 -13q-4 -3 -12 -7q-5 -2 -16 -2
q-9 0 -18 6q-6 2 -12 5.5t-14 6.5q-6 2 -13 3t-15 1q-9 0 -17.5 -1.5t-16.5 -6.5q-9 -4 -16.5 -8t-13.5 -10zM2904 -70q5 -8 8.5 -16.5t5.5 -17.5q6 -18 6 -38t-6 -38q-2 -9 -5.5 -18t-8.5 -18q-9 -15 -22 -28q-8 -6 -14.5 -11.5t-15.5 -10.5q-8 -6 -16.5 -9.5t-17.5 -6.5
q-9 -2 -19 -3t-19 -1q-15 0 -29.5 2.5t-28.5 7.5q-12 6 -23.5 13.5t-20.5 18.5q-21 21 -32 46q-7 14 -9.5 27t-2.5 29q0 20 6 38q3 9 6 17.5t8 16.5q5 9 10.5 15.5t13.5 14.5q13 13 28 22q9 4 17 8.5t17 7.5q11 2 20 3t20 1q9 0 19 -1t19 -3q9 -3 17.5 -7.5t16.5 -8.5
q9 -5 15.5 -10.5t14.5 -11.5q6 -8 11.5 -14.5t10.5 -15.5zM2866 -178q6 18 6 36t-6 36q-5 9 -9.5 15.5t-10.5 14.5q-8 6 -15 10t-15 8q-16 8 -36 8q-23 0 -36 -8q-9 -4 -16.5 -8t-13.5 -10q-6 -8 -11.5 -14.5t-8.5 -15.5q-5 -9 -6.5 -18t-1.5 -18t1.5 -18t6.5 -18
q3 -9 8.5 -16.5t11.5 -13.5t13.5 -10.5t16.5 -9.5q15 -6 36 -6q18 0 36 6q8 5 15 9.5t15 10.5q6 6 10.5 13.5t9.5 16.5zM3216 -2q2 0 4.5 1t5.5 1h52v-284h-52v208q-2 -3 -3 -6t-1 -8q-2 -5 -3 -8t-3 -6l-36 -90q-9 -23 -18 -45t-20 -45h-46l-74 180q-2 3 -3 6t-3 8
q0 4 -4 12v-206h-52v284h52q3 0 6 -1t6 -1q2 -2 4 -2t4 -2q3 -2 4.5 -4.5t3.5 -3.5q2 -2 3 -4t3 -4q9 -23 17 -44t17 -42q9 -23 17.5 -44t16.5 -42q2 -2 2 -6q0 -2 1 -3t1 -3v-7v-1l2 1v7q0 4 2 6v6l10 20l60 152q0 5 6 8q3 5 8 8q2 2 5 2t5 2z" />
    <glyph glyph-name="A" unicode="A" horiz-adv-x="1344" 
d="M992 276h-639l-49 -146q-17 -51 -36 -79.5t-42.5 -42.5t-52 -17t-65.5 -3q-28 0 -52 9.5t-37.5 32t-14.5 59.5t18 91l368 1050q24 70 55 107t65.5 53.5t71.5 19t74 2.5h34q37 0 74 -2.5t71.5 -19t65.5 -53.5t55 -107l368 -1050q19 -54 18 -91t-14.5 -59.5t-37.5 -32
t-52 -9.5q-37 0 -66 3t-52.5 17t-42.5 42.5t-35 79.5zM429 500h488l-215 636q-5 15 -9.5 23.5t-12.5 8.5h-14q-8 0 -12.5 -8.5t-9.5 -23.5z" />
    <glyph glyph-name="dotaccent" unicode="&#x2d9;" horiz-adv-x="586" 
d="M158 1340q0 24 11.5 38t30.5 21.5t43 10t49 2.5q27 0 51.5 -2.5t43.5 -10t30 -22t11 -37.5v-130q0 -24 -11.5 -38.5t-30.5 -22t-43 -9.5t-49 -2q-27 0 -51.5 2.5t-43.5 10t-30 22t-11 37.5v130z" />
    <glyph glyph-name="acute" unicode="&#xb4;" horiz-adv-x="442" 
d="M130 1338q11 24 24 37t28.5 19t35 7t44.5 1q27 0 54.5 -4.5t47 -15t28 -27t-1.5 -39.5l-72 -158q-13 -27 -27.5 -41t-32.5 -20t-38.5 -6.5t-45.5 -0.5q-27 0 -52.5 5.5t-43.5 16.5t-25 27.5t3 38.5z" />
    <glyph glyph-name="dotlessi" unicode="&#x131;" horiz-adv-x="527" 
d="M428 60q0 -24 -11.5 -38.5t-30.5 -22t-43 -9.5t-49 -2q-27 0 -51.5 2.5t-43.5 10t-30 22t-11 37.5v880q0 24 11.5 38t30.5 21.5t43 10t49 2.5q27 0 51.5 -2.5t43.5 -10t30 -22t11 -37.5v-880z" />
    <glyph glyph-name="iacute" unicode="&#xed;" horiz-adv-x="527" 
d="M428 60q0 -24 -11.5 -38.5t-30.5 -22t-43 -9.5t-49 -2q-27 0 -51.5 2.5t-43.5 10t-30 22t-11 37.5v880q0 24 11.5 38t30.5 21.5t43 10t49 2.5q27 0 51.5 -2.5t43.5 -10t30 -22t11 -37.5v-880zM240 1338q11 24 24 37t28.5 19t35 7t44.5 1q27 0 54.5 -4.5t47 -15t28 -27
t-1.5 -39.5l-72 -158q-13 -27 -27.5 -41t-32.5 -20t-38.5 -6.5t-45.5 -0.5q-27 0 -52.5 5.5t-43.5 16.5t-25 27.5t3 38.5z" />
    <glyph glyph-name="E" unicode="E" horiz-adv-x="1235" 
d="M298 0h-15q-29 0 -54.5 2.5t-45 10t-31 22t-11.5 37.5v42v6v9v593v6v554q0 10 1 15q3 15 10.5 33t24 33.5t42 26t64.5 10.5h296.5h211.5h142t86.5 -0.5t45.5 -1t20 -0.5q18 -1 32.5 -11.5t24.5 -27t15.5 -37.5t5.5 -42q0 -50 -16.5 -76t-42 -36.5t-58 -11t-63.5 -0.5
h-560v-314h195h136.5h89t52.5 -0.5t27.5 -1t13.5 -0.5q18 -1 33.5 -10.5t27.5 -25.5t18.5 -37t6.5 -45q0 -32 -7.5 -55.5t-19.5 -38.5t-28 -22.5t-33 -7.5h-512v-354h560q31 0 63.5 -0.5t58 -11t42 -36.5t16.5 -76q0 -21 -5.5 -42t-15.5 -37.5t-24.5 -27t-32.5 -11.5
q-9 -1 -16.5 -1.5t-19.5 -0.5h-30.5h-49.5h-671z" />
    <glyph glyph-name="F" unicode="F" horiz-adv-x="1240" 
d="M282 1400h298h215.5h146.5t91 -0.5t49.5 -1t21.5 -0.5q18 -1 32.5 -11.5t24.5 -27t15.5 -37.5t5.5 -42q0 -50 -16.5 -76t-42 -36.5t-58 -11t-63.5 -0.5h-580v-334h199h140.5h93t56.5 -0.5t30.5 -1t14.5 -0.5q18 -1 33.5 -10.5t27.5 -25.5t18.5 -37t6.5 -45
q0 -32 -7.5 -55.5t-19.5 -38.5t-28 -22.5t-33 -7.5h-532v-521q0 -24 -12.5 -38.5t-32 -22t-45 -9.5t-50.5 -2q-29 0 -54.5 2.5t-45 10t-31 22t-11.5 37.5v635v10v580q0 10 1 15q3 15 10.5 33t24 33.5t42 26t64.5 10.5z" />
    <glyph glyph-name="L" unicode="L" horiz-adv-x="1155" 
d="M282 0q-29 0 -54.5 2.5t-45 10t-31 22t-11.5 37.5v42v6v9v1195q0 22 11 39t30.5 27.5t45.5 16t55 5.5t54.5 0.5t44.5 -4.5t30 -18t11 -40v-1106h510q31 0 63.5 -0.5t58 -11t42 -36.5t16.5 -76q0 -23 -5 -44.5t-17 -38t-31 -27t-47 -10.5h-730z" />
    <glyph glyph-name="O" unicode="O" horiz-adv-x="1485" 
d="M738 -14q-143 0 -245 26t-171.5 72.5t-111 111.5t-63.5 144t-28.5 169t-6.5 187v6q0 96 6.5 186.5t28.5 169.5t63.5 144t111 111.5t171.5 72.5t245 26h8q143 0 245 -26t171.5 -72.5t111 -111.5t63.5 -144t28.5 -169.5t6.5 -186.5v-6q0 -96 -6.5 -186.5t-28.5 -169.5
t-63.5 -144t-111 -111.5t-171.5 -72.5t-245 -26h-8zM736 1166q-111 0 -178.5 -24.5t-103.5 -77t-48 -135.5t-12 -199v-62q0 -116 12 -199t48 -135.5t103.5 -77t178.5 -24.5h12q111 0 178.5 24.5t103.5 77t48 135.5t12 199v62q0 116 -12 199t-48 135.5t-103.5 77t-178.5 24.5
h-12z" />
    <glyph glyph-name="Q" unicode="Q" horiz-adv-x="1464" 
d="M735 1166q-111 0 -178.5 -24.5t-103.5 -77t-48 -135.5t-12 -199v-62q0 -104 8.5 -171.5t22 -109.5t30.5 -64.5t34.5 -37t32.5 -26.5t26 -33q8 -15 14 -36.5t6 -53.5q0 -53 -18.5 -77.5t-40.5 -31.5q-26 -9 -59 -3q-104 30 -169.5 88t-103 143t-51.5 195.5t-14 245.5v6
q0 96 7 186.5t29 169.5t64 144t112.5 111.5t173.5 72.5t248 26q143 0 245 -26t171.5 -72.5t111 -111.5t63.5 -144t28.5 -169.5t6.5 -186.5v-6q0 -88 -5.5 -171.5t-23 -157.5t-50.5 -137t-88 -111.5t-135 -80.5t-192 -44v-104q0 -24 -11.5 -39t-30.5 -24t-43 -12t-49 -3
q-27 0 -51.5 3.5t-43.5 12.5t-30 24t-11 38v250q0 24 11.5 41.5t30.5 28.5t43 16.5t49 5.5h6q111 0 178.5 24.5t103.5 77t48 135.5t12 199v62q0 116 -12 199t-48 135.5t-103.5 77t-178.5 24.5h-12v0z" />
    <glyph glyph-name="T" unicode="T" horiz-adv-x="1230" 
d="M1122 1400q32 0 50 -6t26.5 -20t10 -37.5t1.5 -58.5q0 -45 -13 -69.5t-31 -35.5t-36 -13t-28 -2h-358v-1098q0 -24 -12.5 -38.5t-32 -22t-45 -9.5t-50.5 -2q-29 0 -54.5 2.5t-45 10t-31 22t-11.5 37.5v1098h-346q-10 0 -27 3.5t-33.5 16t-29 36t-12.5 64.5q0 39 2.5 63
t11.5 37t25 17.5t43 4.5h1026z" />
    <glyph glyph-name="D" unicode="D" horiz-adv-x="1435" 
d="M282 0q-29 0 -54.5 2.5t-45 10t-31 22t-11.5 37.5v42v6v9v1151v6q0 8 1 11q3 15 10.5 33t24 33.5t42 26t64.5 10.5h410h3h3q143 0 245 -25t171.5 -70.5t111 -109t63.5 -141t28.5 -167t6.5 -185.5v-6q0 -96 -6.5 -185t-28.5 -166.5t-63.5 -140.5t-111.5 -108.5
t-172.5 -70.5t-245.5 -25h-4h-410zM692 1156h-270v-912q23 0 53.5 0.5t62 0.5t61 0.5t53 0.5h36.5t12 0h21q104 2 167 25.5t97.5 73.5t45.5 129.5t11 193.5v62q0 116 -12 197t-48 131.5t-103.5 73t-178.5 22.5h-8v2z" />
    <glyph glyph-name="H" unicode="H" horiz-adv-x="1493" 
d="M422 822h296h193t110 -0.5t47 -1.5v496q0 22 15.5 40t40 30.5t55 19t59.5 6.5q58 0 85 -17t27 -71v-1264q0 -24 -8 -38.5t-22.5 -22t-35.5 -9.5t-46 -2q-29 0 -59 4t-54.5 13t-40.5 24.5t-16 38.5v510h-646v-510q0 -24 -16.5 -39.5t-42 -24.5t-55 -12.5t-54.5 -3.5
q-29 0 -50 2.5t-35.5 10t-21.5 22t-7 37.5v1264q0 45 27.5 66.5t86.5 21.5q29 0 59 -5t54 -16t39.5 -29.5t15.5 -45.5v-494z" />
    <glyph glyph-name="N" unicode="N" horiz-adv-x="1493" 
d="M1353 60q0 -24 -8 -38.5t-22.5 -22t-35.5 -9.5t-46 -2q-22 0 -45.5 2t-44.5 7.5t-39 14t-28 20.5q-1 1 -1 2l-1 1l-657 857v-824q0 -24 -16.5 -39.5t-42 -24.5t-55 -12.5t-54.5 -3.5q-29 0 -50 2.5t-35.5 10t-21.5 22t-7 37.5v1264q0 45 27.5 66.5t86.5 21.5
q41 0 81.5 -10t64.5 -34l4 -2l664 -867v777q0 28 14 52.5t37.5 43t54 29.5t64.5 11q58 0 85 -17t27 -71v-1264z" />
    <glyph glyph-name="V" unicode="V" horiz-adv-x="1372" 
d="M1058 1274q17 51 36 79.5t42.5 42.5t52 17t65.5 3q28 0 52 -10t37.5 -32.5t14.5 -59t-18 -90.5l-368 -1050q-24 -70 -55 -107t-65.5 -53.5t-71.5 -19t-74 -2.5h-44q-37 0 -74 2.5t-71.5 19t-65.5 53.5t-55 107l-368 1050q-19 54 -18 90.5t14.5 59t37.5 32.5t52 10
q37 0 65.5 -3t52 -17t42.5 -42.5t36 -79.5l340 -1006q5 -15 9.5 -23.5t12.5 -8.5h8h3h5h8q8 0 12.5 8.5t9.5 23.5z" />
    <glyph glyph-name="G" unicode="G" horiz-adv-x="1386" 
d="M762 1412q103 0 186.5 -15t142 -43t90 -67.5t31.5 -88.5q0 -18 -6 -38t-18.5 -36.5t-33 -27t-48.5 -10.5q-25 0 -44.5 6t-40 15t-44.5 20t-56.5 20t-76.5 15t-104 6h-14q-111 0 -178.5 -25t-103.5 -78t-48 -136t-12 -199v-62q0 -116 12 -199t48 -135.5t103.5 -77
t178.5 -24.5h6q56 0 105.5 5t86 13t57.5 17.5t21 18.5v358q0 25 12 39.5t31.5 22t43.5 10t49 2.5q28 0 53 -2.5t44 -10.5t30 -22.5t11 -38.5v-464q0 -33 -26 -60.5t-69 -49.5t-98.5 -38t-115.5 -26.5t-120 -15t-111 -2.5h-2h-6q-143 0 -245 25.5t-171.5 72t-111 111.5
t-63.5 144t-28.5 168.5t-6.5 186.5v6q0 96 6.5 186.5t28.5 169.5t63.5 144t111 111.5t171.5 72.5t245 26h34v0z" />
    <glyph glyph-name="K" unicode="K" horiz-adv-x="1370" 
d="M1200 256q31 -30 50 -53t29.5 -42t13.5 -35t3 -32q0 -27 -10 -47t-25.5 -33t-34.5 -19.5t-38 -6.5q-26 0 -48 2.5t-42.5 10t-41.5 22t-46 37.5l-436 412q-30 28 -47 53.5t-25 51t-10 52.5t-2 59v24q0 32 2 59t10 52.5t25 50.5t47 54l436 412q25 23 46 37.5t41.5 22
t42.5 10t48 2.5q19 0 38 -6.5t34.5 -19.5t25.5 -33t10 -47q0 -16 -3 -32t-13.5 -35t-29.5 -42t-50 -53l-428 -404q-15 -15 -17.5 -23.5t-2.5 -15.5v-1q0 -8 2.5 -16.5t17.5 -23.5zM422 68q0 -24 -16.5 -39.5t-42 -24.5t-55 -12.5t-54.5 -3.5q-29 0 -50 2.5t-35.5 10
t-21.5 22t-7 37.5v1264q0 45 27.5 66.5t86.5 21.5q29 0 59 -5t54 -16t39.5 -29.5t15.5 -45.5v-1248z" />
    <glyph glyph-name="W" unicode="W" horiz-adv-x="2029" 
d="M1009 1346q6 0 28.5 -0.5t53 -6t65 -16.5t65 -32.5t53 -54t29.5 -80.5l134 -902q3 -26 20 -26q9 0 13.5 8.5t6.5 17.5l200 1058q6 34 26.5 53.5t47.5 29.5t57.5 12.5t56.5 2.5q59 0 81 -33.5t13 -90.5l-208 -1110q-13 -68 -42.5 -106t-67.5 -56t-80.5 -22t-79.5 -4h-30
q-41 0 -87.5 8t-87.5 29t-71 57t-38 92l-138 916q-2 14 -8.5 16t-11.5 2t-11.5 -2t-8.5 -16l-138 -916q-8 -56 -38 -92t-71 -57t-87.5 -29t-87.5 -8h-30q-38 0 -80 4t-80 22t-67.5 56t-42.5 106l-208 1110q-9 57 13 90.5t81 33.5q26 0 56.5 -2.5t57.5 -12.5t47.5 -29.5
t26.5 -53.5l200 -1058q2 -9 6.5 -17.5t13.5 -8.5q17 0 20 26l134 902q7 48 29.5 80.5t53 54t65 32.5t65 16.5t52.5 6t29 0.5z" />
    <glyph glyph-name="M" unicode="M" horiz-adv-x="2035" 
d="M1020 -12q-7 0 -27.5 1t-49.5 6.5t-62 17t-63.5 32.5t-55 53.5t-36.5 79.5l-246 970q-3 12 -7.5 16t-12.5 4q-20 0 -20 -20l-60 -1062q-6 -34 -26.5 -53.5t-47.5 -29.5t-57.5 -12.5t-56.5 -2.5q-59 0 -79.5 33.5t-14.5 90.5l64 1110q7 69 36.5 107t70 56t85 21.5
t82.5 3.5h30q41 0 87.5 -8t87.5 -29t71 -57t38 -92l250 -980q3 -14 9 -16t11 -2t11 2t9 16l250 980q8 56 38 92t71 57t87.5 29t87.5 8h30q25 0 54 -1t57.5 -6.5t56 -17.5t49.5 -32.5t37 -52.5t20 -78l64 -1110q6 -57 -14.5 -90.5t-79.5 -33.5q-26 0 -56.5 2.5t-57.5 12.5
t-47.5 29.5t-26.5 53.5l-60 1062q0 20 -18 20q-8 0 -13.5 -4t-8.5 -16l-246 -970q-12 -47 -36.5 -79.5t-55 -53.5t-63.5 -32.5t-62 -17t-50 -6.5t-27 -1z" />
    <glyph glyph-name="U" unicode="U" horiz-adv-x="1463" 
d="M404 698q0 -116 8.5 -203.5t41.5 -146t97 -87.5t175 -29h12q111 0 175 29t97 87.5t41.5 146t8.5 203.5v21v5v580q0 29 14 49.5t36.5 33.5t51.5 19t58 6q59 0 90.5 -21.5t31.5 -66.5v-600q0 -96 -5 -188t-25 -174t-59 -151t-106 -119t-167.5 -78t-243.5 -28h-8
q-143 0 -243.5 28t-168 78t-106 119t-58.5 151.5t-25 174.5t-5 189v598q0 45 31.5 66.5t90.5 21.5q29 0 58 -6t51.5 -19t36.5 -33.5t14 -49.5v-606z" />
    <glyph glyph-name="J" unicode="J" horiz-adv-x="844" 
d="M150 -12q-14 0 -35 2.5t-40.5 14t-33 35.5t-13.5 68q0 40 10.5 64t27.5 37.5t39 18t45 4.5h8q111 0 169 24.5t83 77t27.5 135.5t2.5 199v636q0 29 14 49.5t36.5 33.5t51.5 19t58 6q59 0 90.5 -21.5t31.5 -66.5v-630v-5q0 -96 -2.5 -185t-18 -167t-49.5 -142t-97 -110
t-160 -71.5t-239 -25.5h-6z" />
    <glyph glyph-name="a" unicode="a" 
d="M764 18q-29 -5 -61 -10t-69 -9.5t-80 -7.5t-94 -3q-122 0 -194 37t-110.5 101.5t-50 151t-11.5 186.5v10q0 118 15 217t55.5 170.5t111.5 111t184 39.5q59 0 124.5 -4.5t129 -16t122 -32.5t102.5 -54t70 -80t26 -111v-636q0 -29 -20 -46.5t-48.5 -27t-61.5 -13t-58 -3.5z
M764 632q0 37 -9.5 65t-35 47.5t-70.5 29.5t-117 10q-56 0 -89 -16.5t-50.5 -49.5t-23 -82.5t-5.5 -115.5v-112q0 -50 5.5 -86.5t23 -60t50.5 -34.5t89 -11q36 0 70 3t63 8t51.5 11.5t35.5 13.5q5 2 7.5 4t4.5 4v372z" />
    <glyph glyph-name="Y" unicode="Y" horiz-adv-x="1325" 
d="M665 818q1 10 6 23t10.5 25t11 22t8.5 14l318 418q16 22 31.5 39t35 29t44.5 18t61 6q51 0 82 -21t41.5 -52.5t1 -69t-40.5 -71.5l-404 -498q-25 -30 -38.5 -56t-19.5 -46q-7 -23 -8 -42v-496q0 -24 -12.5 -38.5t-32 -22t-45 -9.5t-50.5 -2q-29 0 -54.5 2.5t-45 10
t-31 22t-11.5 37.5v500q0 5 -2.5 18t-9 31.5t-19 41.5t-33.5 49l-404 498q-31 34 -40.5 71.5t1 69t41.5 52.5t82 21q36 0 61 -6t44.5 -18t34.5 -29t32 -39l318 -418q3 -4 8.5 -14t11 -22t10 -25t6.5 -23z" />
    <glyph glyph-name="Z" unicode="Z" horiz-adv-x="1231" 
d="M206 1400h302.5h226.5h161t105.5 -0.5t60.5 -1t26 -0.5q36 -2 57 -19t21 -59q0 -73 -28 -110l-702 -966h582q33 0 65 -7t57.5 -25t41.5 -50t16 -82q0 -42 -20 -61t-58 -19h-942q-45 0 -73 13t-43 33t-20.5 39.5t-5.5 34.5q0 33 7.5 54t18.5 36l688 946h-436
q-58 0 -101 7.5t-71.5 27t-43 51.5t-14.5 82q0 14 2.5 28t14.5 24.5t36.5 17t68.5 6.5z" />
    <glyph glyph-name="greater" unicode="&#x3e;" horiz-adv-x="972" 
d="M594 480q14 9 16 15.5t2 14.5q0 9 -2 17t-16 17l-366 240q-35 26 -54 44.5t-27.5 33.5t-9.5 28t-1 28q0 40 16 66q14 22 40 32q12 5 25 6.5t25 1.5q53 0 97 -20t89 -50l320 -218q34 -23 57.5 -46t38.5 -48t21.5 -52.5t6.5 -59.5v-36q0 -34 -6.5 -61t-21 -51t-38.5 -46.5
t-58 -47.5l-320 -218q-45 -30 -89 -50t-97 -20q-12 0 -25 1.5t-25 6.5q-26 10 -40 32q-16 26 -16 66q0 15 1 28t9.5 28t27.5 33.5t54 44.5z" />
    <glyph glyph-name="P" unicode="P" horiz-adv-x="1294" 
d="M651 1400h2q57 0 123 -4.5t132 -19.5t126.5 -44.5t107.5 -79t75 -122.5t28 -176v-4q0 -100 -25.5 -172t-68.5 -121.5t-100 -79.5t-120.5 -46.5t-129 -22.5t-126.5 -6h-4h-250v-443q0 -24 -12.5 -38.5t-32 -22t-45 -9.5t-50.5 -2q-29 0 -54.5 2.5t-45 10t-31 22
t-11.5 37.5v1211v10v6q0 8 1 11q3 15 10.5 33t24 33.5t42 26t64.5 10.5h370zM421 746q23 0 52.5 0.5t61 0.5h62h56.5v1h8q99 0 158.5 13t91 37.5t41.5 60.5t11 83v19q-1 46 -10.5 81.5t-39.5 60.5t-86.5 38.5t-150.5 14.5q-9 -1 -15.5 -0.5t-9.5 0.5h-230v-410z" />
    <glyph glyph-name="R" unicode="R" horiz-adv-x="1301" 
d="M654 1156h-230v-1097q0 -24 -12.5 -38.5t-32 -22t-45 -9.5t-50.5 -2q-29 0 -54.5 2.5t-45 10t-31 22t-11.5 37.5v1211v10v6q0 8 1 11q3 15 10.5 33t24 33.5t42 26t64.5 10.5h370h2q52 3 117.5 -0.5t133.5 -18.5t133 -45t115.5 -80.5t81.5 -124.5t31 -177v-4
q0 -88 -23 -153.5t-61.5 -113.5t-89.5 -80t-107 -52l266 -453q12 -22 9 -38.5t-17 -29t-35 -20.5t-44 -13t-45 -7t-37 -2q-36 0 -72 13t-54 45l-261 458h-41h-102q-41 0 -59.5 35.5t-18.5 86.5q0 25 3 47.5t12 39t24.5 26t40.5 9.5h118q96 1 156.5 14t94.5 38t47 60.5
t14 81.5v10q0 49 -12 87t-47 64t-98 39.5t-165 13.5h-8h-2z" />
    <glyph glyph-name="B" unicode="B" horiz-adv-x="1362" 
d="M614 1400q15 2 23 2h29q48 0 107 -6t119 -22t116.5 -44t100.5 -73.5t70.5 -110t26.5 -152.5v-4q0 -58 -14.5 -102.5t-40 -77.5t-61 -56t-76.5 -38q55 -13 104.5 -36t87 -60.5t59 -91.5t21.5 -128v-4q0 -88 -23 -151.5t-61.5 -108t-90 -71.5t-108 -42.5t-115.5 -21
t-112.5 -5.5t-99.5 2t-76 2h-326q-50 0 -77 7t-39.5 26.5t-15 52.5t-2.5 86v1116q0 14 6.5 33.5t23 37t44 29.5t68.5 12h332zM632 818q134 0 210.5 39t81.5 125v10q0 49 -20.5 80.5t-61 50t-101 26t-139.5 7.5h-180v-912h232q104 1 172 7t107.5 22t55 45.5t15.5 79.5
q0 49 -16 82.5t-56 54.5t-108 30t-172 9h-92q-25 0 -41.5 12t-26.5 30t-14 39.5t-4 40.5t3 40.5t11.5 39.5t24 30t41.5 12h78z" />
    <glyph glyph-name="quotesingle" unicode="'" horiz-adv-x="586" 
d="M158 1380q0 24 11.5 38t30.5 21.5t43 10t49 2.5q27 0 51.5 -2.5t43.5 -10t30 -22t11 -37.5v-222q0 -24 -11.5 -38.5t-30.5 -22t-43 -9.5t-49 -2q-27 0 -51.5 2.5t-43.5 10t-30 22t-11 37.5v222z" />
    <glyph glyph-name="grave" unicode="`" horiz-adv-x="442" 
d="M352 1188q10 -22 3 -38.5t-25 -27.5t-43.5 -16.5t-52.5 -5.5q-25 0 -45.5 0.5t-38.5 6.5t-32.5 20t-27.5 41l-72 158q-11 23 -2 39.5t28.5 27t47 15t54.5 4.5q25 0 44.5 -1t35 -7t28.5 -19t24 -37z" />
    <glyph glyph-name="equal" unicode="=" horiz-adv-x="828" 
d="M634 796q31 0 56.5 -3.5t43 -13.5t27 -28.5t9.5 -48.5q0 -34 -5.5 -58.5t-20 -40.5t-40.5 -23.5t-66 -7.5h-438q-41 0 -66.5 7.5t-40 23.5t-20 40.5t-5.5 58.5q0 30 9.5 48.5t27 28.5t42.5 13.5t57 3.5h430zM204 228q-32 0 -57 3.5t-42.5 13.5t-27 28.5t-9.5 48.5
q0 34 5.5 58.5t20 40.5t40 23.5t66.5 7.5h438q40 0 66 -7.5t40.5 -23.5t20 -40.5t5.5 -58.5q0 -30 -9.5 -48.5t-27 -28.5t-43 -13.5t-56.5 -3.5h-430z" />
    <glyph glyph-name="quotedbl" unicode="&#x22;" horiz-adv-x="946" 
d="M158 1380q0 24 11.5 38t30.5 21.5t43 10t49 2.5q27 0 51.5 -2.5t43.5 -10t30 -22t11 -37.5v-222q0 -24 -11.5 -38.5t-30.5 -22t-43 -9.5t-49 -2q-27 0 -51.5 2.5t-43.5 10t-30 22t-11 37.5v222zM518 1380q0 24 11.5 38t30.5 21.5t43 10t49 2.5q27 0 51.5 -2.5t43.5 -10
t30 -22t11 -37.5v-222q0 -24 -11.5 -38.5t-30.5 -22t-43 -9.5t-49 -2q-27 0 -51.5 2.5t-43.5 10t-30 22t-11 37.5v222z" />
    <glyph glyph-name="exclam" unicode="!" horiz-adv-x="586" 
d="M428 460q0 -24 -11.5 -38.5t-30.5 -22t-43 -9.5t-49 -2q-27 0 -51.5 2.5t-43.5 10t-30 22t-11 37.5v880q0 24 11.5 38t30.5 21.5t43 10t49 2.5q27 0 51.5 -2.5t43.5 -10t30 -22t11 -37.5v-880zM158 206q0 24 11.5 38t30.5 21.5t43 10t49 2.5q27 0 51.5 -2.5t43.5 -10
t30 -22t11 -37.5v-146q0 -24 -11.5 -38.5t-30.5 -22t-43 -9.5t-49 -2q-27 0 -51.5 2.5t-43.5 10t-30 22t-11 37.5v146z" />
    <glyph glyph-name="period" unicode="." horiz-adv-x="586" 
d="M158 206q0 24 11.5 38t30.5 21.5t43 10t49 2.5q27 0 51.5 -2.5t43.5 -10t30 -22t11 -37.5v-146q0 -24 -11.5 -38.5t-30.5 -22t-43 -9.5t-49 -2q-27 0 -51.5 2.5t-43.5 10t-30 22t-11 37.5v146z" />
    <glyph glyph-name="colon" unicode=":" horiz-adv-x="586" 
d="M158 206q0 24 11.5 38t30.5 21.5t43 10t49 2.5q27 0 51.5 -2.5t43.5 -10t30 -22t11 -37.5v-146q0 -24 -11.5 -38.5t-30.5 -22t-43 -9.5t-49 -2q-27 0 -51.5 2.5t-43.5 10t-30 22t-11 37.5v146zM158 940q0 24 11.5 38t30.5 21.5t43 10t49 2.5q27 0 51.5 -2.5t43.5 -10
t30 -22t11 -37.5v-146q0 -24 -11.5 -38.5t-30.5 -22t-43 -9.5t-49 -2q-27 0 -51.5 2.5t-43.5 10t-30 22t-11 37.5v146z" />
    <glyph glyph-name="semicolon" unicode=";" horiz-adv-x="586" 
d="M104 1016q0 24 11.5 38t30.5 21.5t43 10t49 2.5q27 0 51.5 -2.5t43.5 -10t30 -22t11 -37.5v-146q0 -24 -11.5 -38.5t-30.5 -22t-43 -9.5t-49 -2q-27 0 -51.5 2.5t-43.5 10t-30 22t-11 37.5v146zM112 214q11 24 24 37t28.5 19t35 7t44.5 1q27 0 54.5 -4.5t47 -15t28 -27
t-1.5 -39.5l-86 -188q-13 -27 -27.5 -41t-32.5 -20t-38.5 -6.5t-45.5 -0.5q-27 0 -52.5 5.5t-43.5 16.5t-25 27.5t3 38.5z" />
    <glyph glyph-name="comma" unicode="," horiz-adv-x="586" 
d="M112 214q11 24 24 37t28.5 19t35 7t44.5 1q27 0 54.5 -4.5t47 -15t28 -27t-1.5 -39.5l-160 -326q-13 -27 -27.5 -41t-32.5 -20t-38.5 -6.5t-45.5 -0.5q-27 0 -52.5 5.5t-43.5 16.5t-25 27.5t3 38.5z" />
    <glyph glyph-name="underscore" unicode="_" horiz-adv-x="892" 
d="M204 -266q-32 0 -57 3.5t-42.5 13.5t-27 28.5t-9.5 48.5q0 34 5.5 58.5t20 40.5t40 23.5t66.5 7.5h498q40 0 66 -7.5t40.5 -23.5t20 -40.5t5.5 -58.5q0 -30 -9.5 -48.5t-27 -28.5t-43 -13.5t-56.5 -3.5h-490z" />
    <glyph glyph-name="periodcentered" unicode="&#xb7;" horiz-adv-x="586" 
d="M158 582q0 24 11.5 38t30.5 21.5t43 10t49 2.5q27 0 51.5 -2.5t43.5 -10t30 -22t11 -37.5v-146q0 -24 -11.5 -38.5t-30.5 -22t-43 -9.5t-49 -2q-27 0 -51.5 2.5t-43.5 10t-30 22t-11 37.5v146z" />
    <glyph glyph-name="bar" unicode="|" horiz-adv-x="596" 
d="M440 -364q0 -24 -12.5 -38.5t-32 -22t-45 -9.5t-50.5 -2q-29 0 -54.5 2.5t-45 10t-31 22t-11.5 37.5v1688q0 22 11 39t30.5 27.5t45.5 16t55 5.5t54.5 -3.5t44.5 -13.5t30 -27t11 -44v-1688z" />
    <glyph glyph-name="hyphen" unicode="-" horiz-adv-x="828" 
d="M704 622q63 0 99.5 -24t36.5 -84q0 -34 -5.5 -56t-20 -35.5t-40.5 -19t-66 -5.5h-568q-41 0 -66.5 5.5t-40 19t-20 35.5t-5.5 56q0 60 36.5 84t99.5 24h560z" />
    <glyph glyph-name="plus" unicode="+" horiz-adv-x="828" 
d="M530 622h104q63 0 99.5 -24t36.5 -84q0 -34 -5.5 -56t-20 -35.5t-40.5 -19t-66 -5.5h-108v-104q0 -63 -24 -99.5t-84 -36.5q-34 0 -56 5.5t-35.5 20t-19 40t-5.5 66.5v108h-106q-41 0 -66.5 5.5t-40 19t-20 35.5t-5.5 56q0 60 36.5 84t99.5 24h102v106q0 40 5.5 66
t19 40.5t35.5 20t56 5.5q60 0 84 -36.5t24 -99.5v-102z" />
    <glyph glyph-name="mu" unicode="&#xb5;" horiz-adv-x="1242" 
d="M428 480q0 -66 5.5 -115.5t23 -82.5t50.5 -49.5t89 -16.5q94 0 142.5 3.5t68 11.5t20.5 21t1 32v656q0 24 11.5 38t30.5 21.5t43 10t49 2.5q27 0 51.5 -2.5t43.5 -10t30 -22t11 -37.5v-792q0 -44 -40.5 -74.5t-112 -49.5t-169 -27.5t-212.5 -8.5q-60 0 -91 15.5t-45 49.5
v-461q0 -29 -20 -46.5t-48.5 -27t-61.5 -13t-58 -3.5q-19 0 -34 2.5t-25.5 9.5t-16.5 19.5t-6 32.5v1054v4v316q0 24 11.5 38t30.5 21.5t43 10t49 2.5q27 0 51.5 -2.5t43.5 -10t30 -22t11 -37.5v-316v-4v-140z" />
    <glyph glyph-name="six" unicode="6" horiz-adv-x="3492" 
d="M2558 600q6 -5 9.5 -10.5t6.5 -13.5q6 -12 6 -30q0 -13 -6 -28q-3 -6 -6.5 -12t-9.5 -12q-5 -5 -10.5 -9t-13.5 -7q-12 -6 -28 -6q-9 0 -15.5 1.5t-14.5 4.5q-6 3 -12 7t-12 9q-5 6 -9 12t-7 12q-6 15 -6 28q0 18 6 30q3 8 7 13.5t9 10.5q6 6 12 9.5t12 6.5q8 3 14.5 4.5
t15.5 1.5q16 0 28 -6q8 -3 13.5 -6.5t10.5 -9.5zM716 576q-2 -2 -3.5 -4.5t-4.5 -5.5q-2 -2 -10 -6q-4 -2 -12 -2h-44v62h44q4 0 12 -4q7 0 10 -6q3 -2 4.5 -4t3.5 -4q0 -3 1 -6.5t1 -8.5q0 -2 -1 -5t-1 -6zM1086 600q11 -11 16 -24q6 -12 6 -30q0 -13 -6 -28q-3 -6 -7 -12
t-9 -12q-6 -5 -12 -9t-12 -7q-15 -6 -30 -6t-28 6q-13 5 -24 16q-6 6 -9.5 12t-6.5 12q-6 15 -6 28q0 18 6 30q3 8 6.5 13.5t9.5 10.5q5 6 10.5 9.5t13.5 6.5q13 6 28 6t30 -6q6 -3 12 -6.5t12 -9.5zM1462 616q0 -10 2 -12l36 -84h-78l36 84q2 2 2 4t1 4t1 4zM390 610
q4 -4 8 -12q2 -4 2 -14v-7t-2 -7q-4 -8 -8 -10q-4 -5 -10 -8q-5 -2 -8 -3t-6 -1h-44v72h44q3 0 6 -1t8 -3q3 0 5.5 -2t4.5 -4zM3278 1084v-766h-3148v766h1194q0 79 30 150q31 71 82 122q53 50 122 80t146 30q85 0 152 -32q69 -33 120 -84q50 -53 80 -122t30 -144h1192z
M1380 1216q-12 -32 -19 -65t-7 -69q0 -69 28 -134q14 -32 32 -60t42 -52q45 -48 110 -76q63 -30 138 -30q71 0 136 28q63 27 112 76q24 23 42.5 50.5t33.5 59.5q26 64 26 138q0 33 -4.5 63t-15.5 57q-9 26 -23.5 51.5t-32.5 48.5q-18 21 -38 39t-44 35q-24 14 -49 25t-51 19
q-21 8 -43.5 11t-48.5 3q-74 0 -140 -30q-32 -14 -59 -33t-51 -43t-42 -52t-32 -60zM424 560q2 6 3 12t1 12q0 8 -1 14t-3 12q-3 5 -6 9t-8 9t-9.5 8.5t-10.5 5.5q-12 6 -24 6h-72v-200h28v74h44q6 0 12 1t12 3q12 6 20 14t14 20zM572 648h-124v-200h124v26h-96v60h78v28
h-78v58h96v28zM768 448l-64 86q5 2 9 3t7 5q8 3 14 12q5 6 8 16q2 5 2 9v8q0 8 -0.5 13.5t-3.5 11.5q-2 5 -5.5 9t-6.5 9q-9 9 -18 12q-12 6 -24 6h-72v-200h28v82h30l52 -70q3 -7 10 -10q2 -2 6.5 -2h9.5h18zM902 482q6 12 6 24q0 28 -22 44q-2 2 -4 3t-4 3q-3 2 -5 2t-5 2
q-2 2 -4 2t-6 2q-2 0 -10 4q-5 2 -9 3t-7 3q-5 2 -7 3t-5 3q-4 4 -6 7q-1 3 -1 11q0 6 1 10q2 2 3.5 4t4.5 4q2 0 10 4q4 2 12 2q3 0 5.5 -1t4.5 -1q3 -2 6.5 -3t5.5 -3q8 -4 12 -4q8 0 14 6l6 4q-2 3 -4.5 5t-5.5 5t-6 5t-6 5q-3 2 -7 3t-9 3q-8 4 -16 4q-6 0 -11 -1
t-11 -3t-10.5 -4.5t-9.5 -5.5q-3 -3 -6 -7t-6 -9q-6 -9 -6 -22q0 -8 1.5 -12.5t4.5 -9.5q3 -10 12 -16q7 -7 18 -10q5 -3 9.5 -5t10.5 -5q3 -2 6 -2.5t8 -1.5q3 -2 6.5 -3t5.5 -3q3 -3 5.5 -5t4.5 -5t3 -6t1 -8q0 -6 -4 -14q-3 -7 -10 -10q-2 -3 -5.5 -4.5t-6.5 -3.5
q-5 0 -8 -1t-8 -1q-3 0 -7 1t-7 1q-8 4 -11 8l-3 2q-6 6 -16 6q-7 0 -10 -4l-8 -2q2 -2 2 -3t2 -1q0 -2 1 -3t1 -3q4 -4 5 -6q4 -5 7 -5q9 -10 19.5 -13.5t24.5 -3.5q8 0 14 0.5t14 3.5q11 3 20 13q11 9 16 19zM1132 520q2 8 2 13.5v12.5v15t-2 13q-3 8 -5 14t-7 12
q-3 5 -7 10t-7 10q-6 5 -11 8t-11 8q-6 3 -12 5.5t-12 4.5q-8 2 -14 3t-14 1q-6 0 -13 -1t-13 -3q-8 -2 -14 -4.5t-12 -5.5q-5 -5 -10 -8t-10 -8t-9 -10t-7 -10q-3 -6 -5.5 -12t-4.5 -14q-2 -6 -3 -13t-1 -15q0 -9 1.5 -19t6.5 -19q5 -11 10.5 -18.5t11.5 -15.5
q8 -6 15.5 -11.5t16.5 -8.5q19 -8 40 -8h14t14 2q6 3 12 5t12 7q10 5 22 14q3 5 7 10.5t7 11.5q5 6 7 12t5 12zM1342 648h-28v-156q0 5 -1 8t-3 6l-98 134q-4 4 -8 6q-3 0 -6 1t-6 1h-20v-200h28v168v-4q2 -2 2 -3v-1q0 -2 1 -3q0 -1 1 -1l114 -156h24v200zM1562 448
l-86 200h-28l-88 -200h16q8 0 11 2q7 5 9 10l14 32h102l14 -32q4 -8 8 -10q2 -2 5.5 -2h6.5h16zM1696 474h-86v174h-28v-200h114v26zM1972 648h-28v-122q0 -6 -1 -11t-3 -11q-3 -5 -5 -9t-7 -7q-3 -5 -7 -7t-8 -5q-7 -2 -12 -3t-11 -1q-5 0 -10 1t-10 3q-5 3 -9 5t-7 7
q-9 6 -12 16q-2 6 -3 11t-1 11v122h-28v-122q0 -6 0.5 -11.5t2.5 -10.5q1 -6 3 -10.5t4 -9.5q3 -5 6 -9t8 -7q3 -3 7 -6t9 -6t10 -4.5t10 -3.5t10 -3t10 -1q6 0 12 1t11 3q12 3 19 8q5 3 8 6t8 6q3 3 6 7t6 9q5 7 8 20q2 5 3 10.5t1 11.5v122zM2126 482q3 6 3.5 12t0.5 12
q0 30 -20 44q-4 2 -8 6q-3 2 -5 2t-5 2q-4 2 -5.5 2t-4.5 2q-3 0 -5 1t-5 3q-5 2 -9 3t-7 3q-9 3 -12 6q-6 3 -6 7q-2 3 -2 11q0 6 2 10q2 2 3.5 4t4.5 4q2 0 10 4q4 2 12 2q3 0 5 -1t5 -1l12 -6q8 -4 12 -4q6 0 12 6l8 4q-2 3 -4.5 5t-5.5 5t-6 5t-6 5q-3 2 -7 3t-9 3t-8 3
t-8 1q-6 0 -11.5 -1t-10.5 -3q-6 -2 -10.5 -4.5t-9.5 -5.5q-3 -3 -6.5 -7t-5.5 -9q-6 -9 -6 -22q0 -8 1.5 -12.5t3.5 -9.5q5 -11 13 -16q7 -7 16 -10q6 -3 11 -5t11 -5q3 -2 6 -2.5t8 -1.5l12 -6q3 -3 5.5 -5t4.5 -5t3 -6t1 -8q0 -6 -4 -14q-3 -7 -10 -10q-5 -5 -14 -8
q-3 0 -7 -1t-7 -1q-5 0 -8 1t-6 1q-10 3 -12 8l-2 2q-6 6 -16 6q-8 0 -10 -4l-8 -2q0 -2 1 -3q0 -1 1 -1q2 -2 2 -3t2 -3q4 -4 4 -6q4 -5 8 -5q9 -10 19.5 -13.5t24.5 -3.5q8 0 14 0.5t11 3.5q15 3 23 13q11 9 16 19zM2290 648h-124v-200h124v26h-98v60h78v28h-78v58h98v28z
M2604 520q2 8 3 13.5t1 12.5q0 8 -1 15t-3 13q-2 8 -4.5 14t-5.5 12q-3 5 -7 10t-9 10t-10 8t-10 8q-6 3 -12 5.5t-14 4.5q-6 2 -13 3t-13 1q-8 0 -14.5 -1t-13.5 -3q-6 -2 -12 -4.5t-12 -5.5q-6 -5 -11 -8t-11 -8q-5 -5 -8 -10t-8 -10q-3 -6 -5 -12t-5 -14q-2 -6 -2 -13
v-15q0 -9 1.5 -19t6.5 -19q3 -11 8.5 -18.5t11.5 -15.5q8 -6 16.5 -11.5t17.5 -8.5q16 -8 40 -8h13t13 2q8 3 14 5t12 7l10 6t10 8q10 10 16 22q3 6 5.5 12t4.5 12zM2814 648h-28v-156q0 5 -1 8t-3 6l-98 134q-4 4 -8 6q-2 0 -4.5 1t-7.5 1h-20v-200h28v168q2 -2 2 -3v-1
q0 -4 2 -4q0 -4 2 -4l114 -156h22v200zM2978 474h-88v174h-26v-200h114v26zM3136 648h-18q-10 0 -14 -4q-3 -2 -5.5 -5t-4.5 -5l-48 -64q-1 0 -2 -1v-1q0 -1 -0.5 -1.5t-0.5 -1.5l-1 -1v4v1l-2 1l-46 64q-3 2 -5.5 5t-4.5 5q-5 2 -8 3t-8 1h-18l72 -98l1 -1q0 -1 0.5 -1.5
t0.5 -1.5q2 -2 2 -3t2 -1v-5v-5v-84h28v84q0 2 1 3t1 2v2q0 1 2 3v1q0 1 2 3q0 4 4 4zM1590 787q-27 11 -51 26t-47 33h424q-23 -18 -47 -33t-51 -26q-26 -10 -55 -15.5t-59 -5.5q-31 0 -59.5 5.5t-54.5 15.5zM1528 880l412 416q78 -102 78 -214q0 -29 -4 -55.5t-14 -52.5
q-9 -26 -22 -48.5t-30 -45.5h-420zM1468 870q-20 23 -34.5 47t-23.5 51q-11 26 -15.5 55t-4.5 59q0 57 18 108q8 26 21 48.5t31 45.5h418zM1818 1378q54 -24 96 -60h-422q21 20 45.5 34.5t49.5 25.5q53 20 117 20q30 0 59 -4.5t55 -15.5zM136 116q-7 10 -10 21q-2 7 -3 13
t-1 12t1 12t3 12t4.5 12t5.5 12q3 5 6 9t8 9q8 8 20 14q11 7 22 10q6 2 12 3t12 1q11 0 20 -2.5t18 -5.5q8 -5 15 -9.5t13 -10.5q0 -2 -1 -2t-3 -2l-2 -2q-2 -2 -3 -2h-1h-6h-4t-4 2q-5 3 -9.5 5.5t-10.5 4.5q-5 2 -10.5 2h-11.5q-8 0 -15 -1t-14 -3q-12 -7 -21 -16
q-6 -5 -9.5 -10.5t-6.5 -13.5q-6 -12 -6 -28v-9t2 -9q2 -10 8 -18q3 -5 6 -8t6 -8q6 -6 14 -10q5 -3 9 -4.5t9 -3.5t9.5 -2h10.5h12t12 2t11 4.5l11 5.5v38h-14q-2 0 -4 1t-4 1q-2 2 -3 2t-3 2q0 2 -1 3t-1 3q-2 2 -2 6v2h50v-70q-3 -5 -6 -7t-8 -5q-3 -2 -6 -3t-8 -1
q-5 -2 -9 -3t-9 -1h-20h-12t-12 2q-11 3 -22 10q-12 6 -20 14t-14 20zM348 232v-58h72v-20h-72v-62h90v-20h-110v182h110v-22h-90zM518 72v160h-58v22h138v-22h-58v-160h-22zM732 232v-62h76v-20h-76v-78h-20v182h110v-22h-90zM878 254v-112q0 -6 0.5 -10.5t3.5 -9.5
q2 -6 4.5 -9.5t5.5 -8.5q5 -3 8.5 -5.5t9.5 -4.5q5 -3 9.5 -3.5t10.5 -0.5t10.5 0.5t9.5 3.5q11 4 16 10q5 5 7 8.5t5 9.5q2 5 3 9.5t1 10.5v112h20v-112q0 -16 -6 -28q-3 -8 -6 -13.5t-8 -10.5q-6 -5 -12 -9t-12 -7q-6 -2 -13 -3t-15 -1t-15 1t-13 3q-13 5 -24 16
q-5 5 -9 10.5t-6 13.5q-4 6 -4.5 13t-0.5 15v112h20zM1062 254v-162h80v-20h-102v182h22zM1186 254v-162h80v-20h-100v182h20zM1432 72l-78 182h10q3 0 5 -1t5 -3q2 -2 4 -3.5t2 -4.5l60 -136q0 -2 1 -3t1 -3v-6v6q2 2 2 6q8 17 15 34t15 34q8 18 15 34.5t15 33.5q2 4 6 8
q8 4 10 4h12q-11 -23 -21 -46t-19 -46q-11 -23 -20 -45t-20 -45h-20zM1568 232v-58h72v-20h-72v-62h90v-20h-112v182h112v-22h-90zM1794 156q-5 -2 -8 -3t-8 -3l58 -78h-12q-8 0 -11 2q-6 2 -9 8l-52 68h-30v-78h-22v182h66q5 0 10 -1t10 -3q5 -3 9 -6t7 -6t6 -7t6 -9
q2 -5 3 -10t1 -10t-1 -9t-3 -9q-2 -10 -8 -16zM1766 170q8 0 12 2q3 2 5 3t5 3q2 3 3 5t3 4q2 4 3 7t1 8q0 4 -4 12q-2 3 -3 5t-3 5q-3 2 -5 3t-5 3q-4 2 -12 2h-44v-62h44zM1932 98q7 3 10 10q4 10 4 14q0 9 -4 15q-3 6 -8 9q-4 4 -12 8q-4 0 -14 4q-6 2 -10.5 4t-9.5 4
q-9 3 -16 10q-3 2 -5.5 5.5t-3.5 5.5q-2 5 -3.5 10t-1.5 11q0 11 6 20q3 8 12 14q7 7 16 10q5 2 10.5 3t10.5 1q2 0 6 -1t7 -1q5 -2 8 -3t6 -3q3 -3 5.5 -4.5t4.5 -3.5l8 -8l-4 -4q-4 -4 -10 -4q-8 0 -10 2t-3 2t-3 2q-2 0 -2 1t-2 1t-3 1t-3 1h-5h-8t-7 -2q-3 0 -5 -1
t-5 -3q-2 -3 -4 -5t-2 -5q-4 -4 -4 -10q0 -8 2 -10q2 -4 6 -8q5 -4 12 -6q3 -2 7 -3t9 -3q3 -2 5 -2t5 -2q4 0 8 -4q3 0 5 -1t5 -3q2 0 6 -4l8 -8t7 -8q1 -7 2 -11.5t1 -12.5q0 -6 -1 -11t-2 -11q-4 -5 -7 -9.5t-8 -6.5q-7 -7 -20 -10q-5 -3 -10.5 -3.5t-11.5 -0.5
q-26 0 -40 14q-2 2 -5 4.5t-5 5.5q-4 4 -4 8l4 2l1 1q1 0 1.5 0.5t1.5 0.5h4q8 0 12 -4q3 -5 7 -6.5t7 -3.5q5 -2 8 -2h8h6t8 2q6 0 12 6zM2028 254v-182h-22v182h22zM2098 96q-6 6 -11.5 13.5t-8.5 16.5q-5 8 -6.5 17.5t-1.5 18.5q0 6 1 12t3 12t3.5 12t4.5 12q4 5 7.5 9
t8.5 9t9 8t9 6q10 7 21 10q7 2 13 3t14 1q6 0 12 -1t11 -3q12 -3 23 -10q12 -6 20 -14q5 -5 8 -9t6 -9q3 -6 5.5 -12t4.5 -12t2 -12v-12q0 -20 -6 -36q-8 -17 -20 -30q-16 -14 -30 -20q-20 -6 -36 -6q-22 0 -38 6t-28 20zM2096 190q-6 -12 -6 -28q0 -5 1 -9t3 -9
q2 -6 3 -9.5t3 -8.5q3 -5 6 -8t6 -8q6 -6 14 -10q7 -5 18 -8q5 -2 9.5 -2h10.5h9t9 2q4 2 8.5 3.5t9.5 4.5q5 2 8 4.5t6 5.5q5 5 7 8t5 8q6 8 8 18q2 5 2 9v9q0 16 -6 28q-3 8 -6.5 13.5t-9.5 10.5q-10 10 -22 16q-6 2 -13 3t-15 1t-15 -1t-15 -3q-12 -6 -22 -16
q-5 -5 -9 -10.5t-7 -13.5zM2310 72h-20v182h14q13 0 16 -8l94 -132q2 -1 2 -2.5t2 -3.5v-4v150h22v-182h-20l-106 150l-2 2v2q0 2 -2 4v-158zM2592 232v-62h76v-20h-76v-78h-20v182h112v-22h-92zM2810 168q-3 -6 -12 -12q-3 -2 -7.5 -3t-8.5 -3l60 -78h-12q-10 0 -14 2
q-2 2 -4 3.5t-4 4.5l-50 68h-32v-78h-20v182h64q6 0 10.5 -1t9.5 -3q6 -3 9.5 -6t6.5 -6q9 -6 12 -16q2 -5 3 -10t1 -10v-9t-2 -9q-3 -9 -10 -16zM2782 172q8 4 10 6q6 6 6 9q2 4 3 7t1 8q0 4 -4 12q0 4 -6 10q-2 2 -10 6q-4 2 -12 2h-44v-62h44q8 0 12 2zM3020 96
q-16 -14 -30 -20q-18 -6 -38 -6q-18 0 -36 6q-15 6 -29 20q-13 11 -19 30q-5 8 -6.5 17.5t-1.5 18.5q0 6 1 12t3 12t3.5 12t6.5 12q2 5 5.5 9t7.5 9t9 8l10 6l11 5.5t11 4.5t12 3t12 1q8 0 14 -1t12 -3q11 -3 22 -10q12 -6 20 -14q5 -5 8 -9t6 -9l4 -12l4 -12q3 -6 3.5 -12
t0.5 -12q0 -9 -2 -18.5t-7 -17.5q-4 -17 -17 -30zM2952 90h10.5t9.5 2t9 3.5t9 4.5q5 2 8 4.5t6 5.5q5 5 7 8t5 8q6 8 8 18q2 5 2 9v9q0 16 -6 28q-3 8 -6.5 13.5t-9.5 10.5q-10 10 -22 16q-8 2 -15 3t-15 1q-6 0 -13 -1t-15 -3q-12 -6 -22 -16q-5 -5 -9 -10.5t-7 -13.5
q-6 -12 -6 -28q0 -5 1 -9t1 -9q2 -6 4 -9.5t4 -8.5q3 -5 6 -8t6 -8q6 -6 14 -10q5 -3 9 -4.5t9 -3.5t9 -2h9zM3252 250q4 4 8 4h18v-182h-20v150h-2v-4v-2q0 -1 -1 -2h-1q-5 -11 -9 -21t-7 -19q-5 -11 -9 -19t-7 -18q-5 -8 -9 -16.5t-7 -16.5q-3 -9 -7 -16.5t-7 -15.5h-22
q-8 17 -15 34.5t-15 35.5q-9 18 -16.5 36t-15.5 36q-2 0 -2 4v4v-150h-20v182h16q4 0 8 -4q6 -3 6 -8l64 -140v-4q2 -2 2 -3v-1v4.5t2 5.5t2 5t1 5l59 128q0 5 6 8zM130 0h210v-24v-14q-2 -3 -3 -6t-3 -6l-142 -188q2 0 4 2q2 0 4 2h4h136v-50h-218v16q0 4 1 7.5t1 6.5
q2 3 2 6t2 6l6 12q4 3 8 10l126 170h-138v50zM376 0h182v-50h-130v-66h104v-50h-104v-68h130v-50h-182v284zM786 -50h-84v-234h-52v234h-82v50h218v-50zM914 0l122 -284h-32q-11 0 -20 6q-5 3 -8 7l-6 8l-16 39h-128l-18 -39q0 -3 -4 -7q-2 -3 -4 -4.5t-4 -3.5q-3 -2 -5 -3
t-5 -1q-3 -2 -5.5 -2h-4.5h-34l124 284h48zM932 -172l-38 86q-2 3 -2 5.5t-2 4.5v8q0 -4 -2 -8q0 -2 -1 -4.5t-1 -5.5l-38 -86h84zM1048 0h182v-50h-130v-72h108v-50h-108v-112h-52v284zM1516 -70q5 -8 8.5 -16.5t5.5 -17.5q6 -18 6 -38t-6 -38q-2 -9 -5.5 -18t-8.5 -18
q-9 -15 -22 -28q-6 -6 -13.5 -11.5t-16.5 -10.5q-8 -6 -16.5 -9.5t-17.5 -6.5q-9 -2 -18 -3t-20 -1q-15 0 -29.5 2.5t-26.5 7.5q-14 6 -25.5 13.5t-20.5 18.5q-21 21 -32 46q-6 14 -8 27t-2 29q0 9 0.5 19t3.5 19t6 17.5t8 16.5q5 9 10.5 15.5t13.5 14.5q13 13 28 22
q9 4 17 8.5t17 7.5q11 2 20 3t20 1t20 -1t18 -3q9 -3 17.5 -7.5t16.5 -8.5q9 -5 16.5 -10.5t13.5 -11.5q6 -8 11.5 -14.5t10.5 -15.5zM1478 -178q6 18 6 36t-6 36q-5 9 -9.5 15.5t-10.5 14.5q-8 6 -15.5 10t-14.5 8q-16 8 -36 8q-23 0 -36 -8q-9 -4 -16.5 -8t-13.5 -10
q-6 -8 -10.5 -14.5t-9.5 -15.5q-3 -9 -5.5 -18t-2.5 -18t2.5 -18t5.5 -18q10 -20 20 -30q6 -6 13.5 -10.5t16.5 -9.5q15 -6 36 -6q18 0 36 6q7 5 14.5 9.5t15.5 10.5q6 6 10.5 13.5t9.5 16.5zM1772 0h52v-284h-48l-134 190q-4 4 -4 6q-2 4 -6 8q0 2 -4 6q0 2 -1 3t-1 3v-216
h-52v284h46q8 0 16 -4t10 -9q15 -20 30 -41l30 -42t29.5 -41.5t28.5 -40.5q6 -6 6 -12q2 -3 2 -5.5v-4.5v200zM1848 0h218v-50h-82v-234h-52v234h-84v50zM2246 -146q9 -9 12 -22q6 -12 6 -28q0 -11 -2.5 -19.5t-5.5 -16.5q-5 -9 -10.5 -16.5t-11.5 -14.5q-15 -11 -34 -17
q-20 -6 -36 -6q-22 0 -40 6q-9 5 -16.5 9.5t-15.5 12.5q-5 5 -8 9t-6 9q-5 8 -8 16q2 0 6 4q4 0 8 4q2 0 4 1t4 1t4 0.5t4 0.5q6 0 12 -3q5 0 8 -1t6 -3q7 -7 16 -10q5 -2 10.5 -3t11.5 -1h7t9 2q3 2 7 3t7 3q9 6 12 13q6 7 6 17q0 5 -1 8t-3 6q-3 3 -6 5.5t-6 4.5
q-8 5 -16 8q-8 1 -18 8q-8 2 -15 4.5t-15 5.5t-14 7t-12 9q-10 10 -16 22q-8 13 -8 32q0 10 2.5 18t5.5 16q10 16 20 24q6 4 13 8.5t14 7.5q8 2 16.5 3t16.5 1q6 0 12 -1t12 -3q13 -3 22 -11q6 -2 10.5 -6t9.5 -9q5 -3 8 -7t6 -9l-10 -8l-6 -4t-8 -4t-8 -2.5t-6 -0.5h-4h-4
q-3 2 -5 2.5t-5 2.5q-2 2 -4.5 2t-3.5 2q-2 0 -3.5 1t-4.5 1q-2 2 -8 2h-6t-8 -2q-6 0 -10 -4q-3 -2 -6 -4.5t-4 -3.5q-2 -4 -2 -12t2 -10q1 -3 4 -5t6 -5q3 -2 7 -3t9 -3t10.5 -4t13.5 -4l8 -4q9 -3 15.5 -6t14.5 -8q14 -7 22 -18zM2332 -234q5 -3 5 -10q2 -2 3.5 -5.5
t1.5 -6.5q0 -5 -5 -12q0 -5 -5 -10q-2 -2 -10 -6q-4 -2 -12 -2t-12 2q-8 4 -11 6q-2 3 -3.5 5t-3.5 5q0 3 -1 6t-1 6t1 6.5t1 5.5q4 8 7 10q4 6 11 6q8 4 12 4t12 -4q7 0 10 -6zM2440 -76q-8 -8 -12.5 -14.5t-7.5 -15.5q-8 -16 -8 -36t8 -36q6 -19 20 -30q6 -6 13.5 -10.5
t16.5 -9.5q15 -6 34 -6q8 0 15 1t13 3q14 3 26 12q2 2 4 2t4 2q3 1 5.5 1h4.5q8 0 16 -3q8 -4 12 -8l12 -10q-6 -6 -12 -11.5t-12 -10.5t-13 -9t-13 -7q-8 -5 -15 -6.5t-15 -3.5q-8 -3 -15.5 -3.5t-16.5 -0.5q-14 0 -28 2.5t-28 7.5q-25 11 -46 32q-9 11 -16.5 21.5
t-13.5 24.5q-12 27 -12 56q0 20 6 38q2 9 5.5 17.5t8.5 16.5q5 9 10.5 15.5t11.5 14.5q8 6 14.5 11.5t15.5 10.5q8 4 16.5 8.5t17.5 7.5q11 2 20 3t18 1t16.5 -0.5t15.5 -3.5q13 -3 30 -11q12 -5 26 -15q6 -5 12 -10.5t12 -11.5l-12 -13q-4 -3 -12 -7q-5 -2 -16 -2
q-9 0 -18 6q-6 2 -12 5.5t-14 6.5q-6 2 -13 3t-15 1q-9 0 -17.5 -1.5t-16.5 -6.5q-9 -4 -16.5 -8t-13.5 -10zM2904 -70q5 -8 8.5 -16.5t5.5 -17.5q6 -18 6 -38t-6 -38q-2 -9 -5.5 -18t-8.5 -18q-9 -15 -22 -28q-8 -6 -14.5 -11.5t-15.5 -10.5q-8 -6 -16.5 -9.5t-17.5 -6.5
q-9 -2 -19 -3t-19 -1q-15 0 -29.5 2.5t-28.5 7.5q-12 6 -23.5 13.5t-20.5 18.5q-21 21 -32 46q-7 14 -9.5 27t-2.5 29q0 20 6 38q3 9 6 17.5t8 16.5q5 9 10.5 15.5t13.5 14.5q13 13 28 22q9 4 17 8.5t17 7.5q11 2 20 3t20 1q9 0 19 -1t19 -3q9 -3 17.5 -7.5t16.5 -8.5
q9 -5 15.5 -10.5t14.5 -11.5q6 -8 11.5 -14.5t10.5 -15.5zM2866 -178q6 18 6 36t-6 36q-5 9 -9.5 15.5t-10.5 14.5q-8 6 -15 10t-15 8q-16 8 -36 8q-23 0 -36 -8q-9 -4 -16.5 -8t-13.5 -10q-6 -8 -11.5 -14.5t-8.5 -15.5q-5 -9 -6.5 -18t-1.5 -18t1.5 -18t6.5 -18
q3 -9 8.5 -16.5t11.5 -13.5t13.5 -10.5t16.5 -9.5q15 -6 36 -6q18 0 36 6q8 5 15 9.5t15 10.5q6 6 10.5 13.5t9.5 16.5zM3216 -2q2 0 4.5 1t5.5 1h52v-284h-52v208q-2 -3 -3 -6t-1 -8q-2 -5 -3 -8t-3 -6l-36 -90q-9 -23 -18 -45t-20 -45h-46l-74 180q-2 3 -3 6t-3 8
q0 4 -4 12v-206h-52v284h52q3 0 6 -1t6 -1q2 -2 4 -2t4 -2q3 -2 4.5 -4.5t3.5 -3.5q2 -2 3 -4t3 -4q9 -23 17 -44t17 -42q9 -23 17.5 -44t16.5 -42q2 -2 2 -6q0 -2 1 -3t1 -3v-7v-1l2 1v7q0 4 2 6v6l10 20l60 152q0 5 6 8q3 5 8 8q2 2 5 2t5 2z" />
    <glyph glyph-name="nine" unicode="9" horiz-adv-x="3492" 
d="M2558 600q6 -5 9.5 -10.5t6.5 -13.5q6 -12 6 -30q0 -13 -6 -28q-3 -6 -6.5 -12t-9.5 -12q-5 -5 -10.5 -9t-13.5 -7q-12 -6 -28 -6q-9 0 -15.5 1.5t-14.5 4.5q-6 3 -12 7t-12 9q-5 6 -9 12t-7 12q-6 15 -6 28q0 18 6 30q3 8 7 13.5t9 10.5q6 6 12 9.5t12 6.5q8 3 14.5 4.5
t15.5 1.5q16 0 28 -6q8 -3 13.5 -6.5t10.5 -9.5zM716 576q-2 -2 -3.5 -4.5t-4.5 -5.5q-2 -2 -10 -6q-4 -2 -12 -2h-44v62h44q4 0 12 -4q7 0 10 -6q3 -2 4.5 -4t3.5 -4q0 -3 1 -6.5t1 -8.5q0 -2 -1 -5t-1 -6zM1086 600q11 -11 16 -24q6 -12 6 -30q0 -13 -6 -28q-3 -6 -7 -12
t-9 -12q-6 -5 -12 -9t-12 -7q-15 -6 -30 -6t-28 6q-13 5 -24 16q-6 6 -9.5 12t-6.5 12q-6 15 -6 28q0 18 6 30q3 8 6.5 13.5t9.5 10.5q5 6 10.5 9.5t13.5 6.5q13 6 28 6t30 -6q6 -3 12 -6.5t12 -9.5zM1462 616q0 -10 2 -12l36 -84h-78l36 84q2 2 2 4t1 4t1 4zM390 610
q4 -4 8 -12q2 -4 2 -14v-7t-2 -7q-4 -8 -8 -10q-4 -5 -10 -8q-5 -2 -8 -3t-6 -1h-44v72h44q3 0 6 -1t8 -3q3 0 5.5 -2t4.5 -4zM3278 1084v-766h-3148v766h1194q0 79 30 150q31 71 82 122q53 50 122 80t146 30q85 0 152 -32q69 -33 120 -84q50 -53 80 -122t30 -144h1192z
M1380 1216q-12 -32 -19 -65t-7 -69q0 -69 28 -134q14 -32 32 -60t42 -52q45 -48 110 -76q63 -30 138 -30q71 0 136 28q63 27 112 76q24 23 42.5 50.5t33.5 59.5q26 64 26 138q0 33 -4.5 63t-15.5 57q-9 26 -23.5 51.5t-32.5 48.5q-18 21 -38 39t-44 35q-24 14 -49 25t-51 19
q-21 8 -43.5 11t-48.5 3q-74 0 -140 -30q-32 -14 -59 -33t-51 -43t-42 -52t-32 -60zM424 560q2 6 3 12t1 12q0 8 -1 14t-3 12q-3 5 -6 9t-8 9t-9.5 8.5t-10.5 5.5q-12 6 -24 6h-72v-200h28v74h44q6 0 12 1t12 3q12 6 20 14t14 20zM572 648h-124v-200h124v26h-96v60h78v28
h-78v58h96v28zM768 448l-64 86q5 2 9 3t7 5q8 3 14 12q5 6 8 16q2 5 2 9v8q0 8 -0.5 13.5t-3.5 11.5q-2 5 -5.5 9t-6.5 9q-9 9 -18 12q-12 6 -24 6h-72v-200h28v82h30l52 -70q3 -7 10 -10q2 -2 6.5 -2h9.5h18zM902 482q6 12 6 24q0 28 -22 44q-2 2 -4 3t-4 3q-3 2 -5 2t-5 2
q-2 2 -4 2t-6 2q-2 0 -10 4q-5 2 -9 3t-7 3q-5 2 -7 3t-5 3q-4 4 -6 7q-1 3 -1 11q0 6 1 10q2 2 3.5 4t4.5 4q2 0 10 4q4 2 12 2q3 0 5.5 -1t4.5 -1q3 -2 6.5 -3t5.5 -3q8 -4 12 -4q8 0 14 6l6 4q-2 3 -4.5 5t-5.5 5t-6 5t-6 5q-3 2 -7 3t-9 3q-8 4 -16 4q-6 0 -11 -1
t-11 -3t-10.5 -4.5t-9.5 -5.5q-3 -3 -6 -7t-6 -9q-6 -9 -6 -22q0 -8 1.5 -12.5t4.5 -9.5q3 -10 12 -16q7 -7 18 -10q5 -3 9.5 -5t10.5 -5q3 -2 6 -2.5t8 -1.5q3 -2 6.5 -3t5.5 -3q3 -3 5.5 -5t4.5 -5t3 -6t1 -8q0 -6 -4 -14q-3 -7 -10 -10q-2 -3 -5.5 -4.5t-6.5 -3.5
q-5 0 -8 -1t-8 -1q-3 0 -7 1t-7 1q-8 4 -11 8l-3 2q-6 6 -16 6q-7 0 -10 -4l-8 -2q2 -2 2 -3t2 -1q0 -2 1 -3t1 -3q4 -4 5 -6q4 -5 7 -5q9 -10 19.5 -13.5t24.5 -3.5q8 0 14 0.5t14 3.5q11 3 20 13q11 9 16 19zM1132 520q2 8 2 13.5v12.5v15t-2 13q-3 8 -5 14t-7 12
q-3 5 -7 10t-7 10q-6 5 -11 8t-11 8q-6 3 -12 5.5t-12 4.5q-8 2 -14 3t-14 1q-6 0 -13 -1t-13 -3q-8 -2 -14 -4.5t-12 -5.5q-5 -5 -10 -8t-10 -8t-9 -10t-7 -10q-3 -6 -5.5 -12t-4.5 -14q-2 -6 -3 -13t-1 -15q0 -9 1.5 -19t6.5 -19q5 -11 10.5 -18.5t11.5 -15.5
q8 -6 15.5 -11.5t16.5 -8.5q19 -8 40 -8h14t14 2q6 3 12 5t12 7q10 5 22 14q3 5 7 10.5t7 11.5q5 6 7 12t5 12zM1342 648h-28v-156q0 5 -1 8t-3 6l-98 134q-4 4 -8 6q-3 0 -6 1t-6 1h-20v-200h28v168v-4q2 -2 2 -3v-1q0 -2 1 -3q0 -1 1 -1l114 -156h24v200zM1562 448
l-86 200h-28l-88 -200h16q8 0 11 2q7 5 9 10l14 32h102l14 -32q4 -8 8 -10q2 -2 5.5 -2h6.5h16zM1696 474h-86v174h-28v-200h114v26zM1972 648h-28v-122q0 -6 -1 -11t-3 -11q-3 -5 -5 -9t-7 -7q-3 -5 -7 -7t-8 -5q-7 -2 -12 -3t-11 -1q-5 0 -10 1t-10 3q-5 3 -9 5t-7 7
q-9 6 -12 16q-2 6 -3 11t-1 11v122h-28v-122q0 -6 0.5 -11.5t2.5 -10.5q1 -6 3 -10.5t4 -9.5q3 -5 6 -9t8 -7q3 -3 7 -6t9 -6t10 -4.5t10 -3.5t10 -3t10 -1q6 0 12 1t11 3q12 3 19 8q5 3 8 6t8 6q3 3 6 7t6 9q5 7 8 20q2 5 3 10.5t1 11.5v122zM2126 482q3 6 3.5 12t0.5 12
q0 30 -20 44q-4 2 -8 6q-3 2 -5 2t-5 2q-4 2 -5.5 2t-4.5 2q-3 0 -5 1t-5 3q-5 2 -9 3t-7 3q-9 3 -12 6q-6 3 -6 7q-2 3 -2 11q0 6 2 10q2 2 3.5 4t4.5 4q2 0 10 4q4 2 12 2q3 0 5 -1t5 -1l12 -6q8 -4 12 -4q6 0 12 6l8 4q-2 3 -4.5 5t-5.5 5t-6 5t-6 5q-3 2 -7 3t-9 3t-8 3
t-8 1q-6 0 -11.5 -1t-10.5 -3q-6 -2 -10.5 -4.5t-9.5 -5.5q-3 -3 -6.5 -7t-5.5 -9q-6 -9 -6 -22q0 -8 1.5 -12.5t3.5 -9.5q5 -11 13 -16q7 -7 16 -10q6 -3 11 -5t11 -5q3 -2 6 -2.5t8 -1.5l12 -6q3 -3 5.5 -5t4.5 -5t3 -6t1 -8q0 -6 -4 -14q-3 -7 -10 -10q-5 -5 -14 -8
q-3 0 -7 -1t-7 -1q-5 0 -8 1t-6 1q-10 3 -12 8l-2 2q-6 6 -16 6q-8 0 -10 -4l-8 -2q0 -2 1 -3q0 -1 1 -1q2 -2 2 -3t2 -3q4 -4 4 -6q4 -5 8 -5q9 -10 19.5 -13.5t24.5 -3.5q8 0 14 0.5t11 3.5q15 3 23 13q11 9 16 19zM2290 648h-124v-200h124v26h-98v60h78v28h-78v58h98v28z
M2604 520q2 8 3 13.5t1 12.5q0 8 -1 15t-3 13q-2 8 -4.5 14t-5.5 12q-3 5 -7 10t-9 10t-10 8t-10 8q-6 3 -12 5.5t-14 4.5q-6 2 -13 3t-13 1q-8 0 -14.5 -1t-13.5 -3q-6 -2 -12 -4.5t-12 -5.5q-6 -5 -11 -8t-11 -8q-5 -5 -8 -10t-8 -10q-3 -6 -5 -12t-5 -14q-2 -6 -2 -13
v-15q0 -9 1.5 -19t6.5 -19q3 -11 8.5 -18.5t11.5 -15.5q8 -6 16.5 -11.5t17.5 -8.5q16 -8 40 -8h13t13 2q8 3 14 5t12 7l10 6t10 8q10 10 16 22q3 6 5.5 12t4.5 12zM2814 648h-28v-156q0 5 -1 8t-3 6l-98 134q-4 4 -8 6q-2 0 -4.5 1t-7.5 1h-20v-200h28v168q2 -2 2 -3v-1
q0 -4 2 -4q0 -4 2 -4l114 -156h22v200zM2978 474h-88v174h-26v-200h114v26zM3136 648h-18q-10 0 -14 -4q-3 -2 -5.5 -5t-4.5 -5l-48 -64q-1 0 -2 -1v-1q0 -1 -0.5 -1.5t-0.5 -1.5l-1 -1v4v1l-2 1l-46 64q-3 2 -5.5 5t-4.5 5q-5 2 -8 3t-8 1h-18l72 -98l1 -1q0 -1 0.5 -1.5
t0.5 -1.5q2 -2 2 -3t2 -1v-5v-5v-84h28v84q0 2 1 3t1 2v2q0 1 2 3v1q0 1 2 3q0 4 4 4zM1590 787q-27 11 -51 26t-47 33h424q-23 -18 -47 -33t-51 -26q-26 -10 -55 -15.5t-59 -5.5q-31 0 -59.5 5.5t-54.5 15.5zM1528 880l412 416q78 -102 78 -214q0 -29 -4 -55.5t-14 -52.5
q-9 -26 -22 -48.5t-30 -45.5h-420zM1468 870q-20 23 -34.5 47t-23.5 51q-11 26 -15.5 55t-4.5 59q0 57 18 108q8 26 21 48.5t31 45.5h418zM1818 1378q54 -24 96 -60h-422q21 20 45.5 34.5t49.5 25.5q53 20 117 20q30 0 59 -4.5t55 -15.5zM136 116q-7 10 -10 21q-2 7 -3 13
t-1 12t1 12t3 12t4.5 12t5.5 12q3 5 6 9t8 9q8 8 20 14q11 7 22 10q6 2 12 3t12 1q11 0 20 -2.5t18 -5.5q8 -5 15 -9.5t13 -10.5q0 -2 -1 -2t-3 -2l-2 -2q-2 -2 -3 -2h-1h-6h-4t-4 2q-5 3 -9.5 5.5t-10.5 4.5q-5 2 -10.5 2h-11.5q-8 0 -15 -1t-14 -3q-12 -7 -21 -16
q-6 -5 -9.5 -10.5t-6.5 -13.5q-6 -12 -6 -28v-9t2 -9q2 -10 8 -18q3 -5 6 -8t6 -8q6 -6 14 -10q5 -3 9 -4.5t9 -3.5t9.5 -2h10.5h12t12 2t11 4.5l11 5.5v38h-14q-2 0 -4 1t-4 1q-2 2 -3 2t-3 2q0 2 -1 3t-1 3q-2 2 -2 6v2h50v-70q-3 -5 -6 -7t-8 -5q-3 -2 -6 -3t-8 -1
q-5 -2 -9 -3t-9 -1h-20h-12t-12 2q-11 3 -22 10q-12 6 -20 14t-14 20zM348 232v-58h72v-20h-72v-62h90v-20h-110v182h110v-22h-90zM518 72v160h-58v22h138v-22h-58v-160h-22zM732 232v-62h76v-20h-76v-78h-20v182h110v-22h-90zM878 254v-112q0 -6 0.5 -10.5t3.5 -9.5
q2 -6 4.5 -9.5t5.5 -8.5q5 -3 8.5 -5.5t9.5 -4.5q5 -3 9.5 -3.5t10.5 -0.5t10.5 0.5t9.5 3.5q11 4 16 10q5 5 7 8.5t5 9.5q2 5 3 9.5t1 10.5v112h20v-112q0 -16 -6 -28q-3 -8 -6 -13.5t-8 -10.5q-6 -5 -12 -9t-12 -7q-6 -2 -13 -3t-15 -1t-15 1t-13 3q-13 5 -24 16
q-5 5 -9 10.5t-6 13.5q-4 6 -4.5 13t-0.5 15v112h20zM1062 254v-162h80v-20h-102v182h22zM1186 254v-162h80v-20h-100v182h20zM1432 72l-78 182h10q3 0 5 -1t5 -3q2 -2 4 -3.5t2 -4.5l60 -136q0 -2 1 -3t1 -3v-6v6q2 2 2 6q8 17 15 34t15 34q8 18 15 34.5t15 33.5q2 4 6 8
q8 4 10 4h12q-11 -23 -21 -46t-19 -46q-11 -23 -20 -45t-20 -45h-20zM1568 232v-58h72v-20h-72v-62h90v-20h-112v182h112v-22h-90zM1794 156q-5 -2 -8 -3t-8 -3l58 -78h-12q-8 0 -11 2q-6 2 -9 8l-52 68h-30v-78h-22v182h66q5 0 10 -1t10 -3q5 -3 9 -6t7 -6t6 -7t6 -9
q2 -5 3 -10t1 -10t-1 -9t-3 -9q-2 -10 -8 -16zM1766 170q8 0 12 2q3 2 5 3t5 3q2 3 3 5t3 4q2 4 3 7t1 8q0 4 -4 12q-2 3 -3 5t-3 5q-3 2 -5 3t-5 3q-4 2 -12 2h-44v-62h44zM1932 98q7 3 10 10q4 10 4 14q0 9 -4 15q-3 6 -8 9q-4 4 -12 8q-4 0 -14 4q-6 2 -10.5 4t-9.5 4
q-9 3 -16 10q-3 2 -5.5 5.5t-3.5 5.5q-2 5 -3.5 10t-1.5 11q0 11 6 20q3 8 12 14q7 7 16 10q5 2 10.5 3t10.5 1q2 0 6 -1t7 -1q5 -2 8 -3t6 -3q3 -3 5.5 -4.5t4.5 -3.5l8 -8l-4 -4q-4 -4 -10 -4q-8 0 -10 2t-3 2t-3 2q-2 0 -2 1t-2 1t-3 1t-3 1h-5h-8t-7 -2q-3 0 -5 -1
t-5 -3q-2 -3 -4 -5t-2 -5q-4 -4 -4 -10q0 -8 2 -10q2 -4 6 -8q5 -4 12 -6q3 -2 7 -3t9 -3q3 -2 5 -2t5 -2q4 0 8 -4q3 0 5 -1t5 -3q2 0 6 -4l8 -8t7 -8q1 -7 2 -11.5t1 -12.5q0 -6 -1 -11t-2 -11q-4 -5 -7 -9.5t-8 -6.5q-7 -7 -20 -10q-5 -3 -10.5 -3.5t-11.5 -0.5
q-26 0 -40 14q-2 2 -5 4.5t-5 5.5q-4 4 -4 8l4 2l1 1q1 0 1.5 0.5t1.5 0.5h4q8 0 12 -4q3 -5 7 -6.5t7 -3.5q5 -2 8 -2h8h6t8 2q6 0 12 6zM2028 254v-182h-22v182h22zM2098 96q-6 6 -11.5 13.5t-8.5 16.5q-5 8 -6.5 17.5t-1.5 18.5q0 6 1 12t3 12t3.5 12t4.5 12q4 5 7.5 9
t8.5 9t9 8t9 6q10 7 21 10q7 2 13 3t14 1q6 0 12 -1t11 -3q12 -3 23 -10q12 -6 20 -14q5 -5 8 -9t6 -9q3 -6 5.5 -12t4.5 -12t2 -12v-12q0 -20 -6 -36q-8 -17 -20 -30q-16 -14 -30 -20q-20 -6 -36 -6q-22 0 -38 6t-28 20zM2096 190q-6 -12 -6 -28q0 -5 1 -9t3 -9
q2 -6 3 -9.5t3 -8.5q3 -5 6 -8t6 -8q6 -6 14 -10q7 -5 18 -8q5 -2 9.5 -2h10.5h9t9 2q4 2 8.5 3.5t9.5 4.5q5 2 8 4.5t6 5.5q5 5 7 8t5 8q6 8 8 18q2 5 2 9v9q0 16 -6 28q-3 8 -6.5 13.5t-9.5 10.5q-10 10 -22 16q-6 2 -13 3t-15 1t-15 -1t-15 -3q-12 -6 -22 -16
q-5 -5 -9 -10.5t-7 -13.5zM2310 72h-20v182h14q13 0 16 -8l94 -132q2 -1 2 -2.5t2 -3.5v-4v150h22v-182h-20l-106 150l-2 2v2q0 2 -2 4v-158zM2592 232v-62h76v-20h-76v-78h-20v182h112v-22h-92zM2810 168q-3 -6 -12 -12q-3 -2 -7.5 -3t-8.5 -3l60 -78h-12q-10 0 -14 2
q-2 2 -4 3.5t-4 4.5l-50 68h-32v-78h-20v182h64q6 0 10.5 -1t9.5 -3q6 -3 9.5 -6t6.5 -6q9 -6 12 -16q2 -5 3 -10t1 -10v-9t-2 -9q-3 -9 -10 -16zM2782 172q8 4 10 6q6 6 6 9q2 4 3 7t1 8q0 4 -4 12q0 4 -6 10q-2 2 -10 6q-4 2 -12 2h-44v-62h44q8 0 12 2zM3020 96
q-16 -14 -30 -20q-18 -6 -38 -6q-18 0 -36 6q-15 6 -29 20q-13 11 -19 30q-5 8 -6.5 17.5t-1.5 18.5q0 6 1 12t3 12t3.5 12t6.5 12q2 5 5.5 9t7.5 9t9 8l10 6l11 5.5t11 4.5t12 3t12 1q8 0 14 -1t12 -3q11 -3 22 -10q12 -6 20 -14q5 -5 8 -9t6 -9l4 -12l4 -12q3 -6 3.5 -12
t0.5 -12q0 -9 -2 -18.5t-7 -17.5q-4 -17 -17 -30zM2952 90h10.5t9.5 2t9 3.5t9 4.5q5 2 8 4.5t6 5.5q5 5 7 8t5 8q6 8 8 18q2 5 2 9v9q0 16 -6 28q-3 8 -6.5 13.5t-9.5 10.5q-10 10 -22 16q-8 2 -15 3t-15 1q-6 0 -13 -1t-15 -3q-12 -6 -22 -16q-5 -5 -9 -10.5t-7 -13.5
q-6 -12 -6 -28q0 -5 1 -9t1 -9q2 -6 4 -9.5t4 -8.5q3 -5 6 -8t6 -8q6 -6 14 -10q5 -3 9 -4.5t9 -3.5t9 -2h9zM3252 250q4 4 8 4h18v-182h-20v150h-2v-4v-2q0 -1 -1 -2h-1q-5 -11 -9 -21t-7 -19q-5 -11 -9 -19t-7 -18q-5 -8 -9 -16.5t-7 -16.5q-3 -9 -7 -16.5t-7 -15.5h-22
q-8 17 -15 34.5t-15 35.5q-9 18 -16.5 36t-15.5 36q-2 0 -2 4v4v-150h-20v182h16q4 0 8 -4q6 -3 6 -8l64 -140v-4q2 -2 2 -3v-1v4.5t2 5.5t2 5t1 5l59 128q0 5 6 8zM130 0h210v-24v-14q-2 -3 -3 -6t-3 -6l-142 -188q2 0 4 2q2 0 4 2h4h136v-50h-218v16q0 4 1 7.5t1 6.5
q2 3 2 6t2 6l6 12q4 3 8 10l126 170h-138v50zM376 0h182v-50h-130v-66h104v-50h-104v-68h130v-50h-182v284zM786 -50h-84v-234h-52v234h-82v50h218v-50zM914 0l122 -284h-32q-11 0 -20 6q-5 3 -8 7l-6 8l-16 39h-128l-18 -39q0 -3 -4 -7q-2 -3 -4 -4.5t-4 -3.5q-3 -2 -5 -3
t-5 -1q-3 -2 -5.5 -2h-4.5h-34l124 284h48zM932 -172l-38 86q-2 3 -2 5.5t-2 4.5v8q0 -4 -2 -8q0 -2 -1 -4.5t-1 -5.5l-38 -86h84zM1048 0h182v-50h-130v-72h108v-50h-108v-112h-52v284zM1516 -70q5 -8 8.5 -16.5t5.5 -17.5q6 -18 6 -38t-6 -38q-2 -9 -5.5 -18t-8.5 -18
q-9 -15 -22 -28q-6 -6 -13.5 -11.5t-16.5 -10.5q-8 -6 -16.5 -9.5t-17.5 -6.5q-9 -2 -18 -3t-20 -1q-15 0 -29.5 2.5t-26.5 7.5q-14 6 -25.5 13.5t-20.5 18.5q-21 21 -32 46q-6 14 -8 27t-2 29q0 9 0.5 19t3.5 19t6 17.5t8 16.5q5 9 10.5 15.5t13.5 14.5q13 13 28 22
q9 4 17 8.5t17 7.5q11 2 20 3t20 1t20 -1t18 -3q9 -3 17.5 -7.5t16.5 -8.5q9 -5 16.5 -10.5t13.5 -11.5q6 -8 11.5 -14.5t10.5 -15.5zM1478 -178q6 18 6 36t-6 36q-5 9 -9.5 15.5t-10.5 14.5q-8 6 -15.5 10t-14.5 8q-16 8 -36 8q-23 0 -36 -8q-9 -4 -16.5 -8t-13.5 -10
q-6 -8 -10.5 -14.5t-9.5 -15.5q-3 -9 -5.5 -18t-2.5 -18t2.5 -18t5.5 -18q10 -20 20 -30q6 -6 13.5 -10.5t16.5 -9.5q15 -6 36 -6q18 0 36 6q7 5 14.5 9.5t15.5 10.5q6 6 10.5 13.5t9.5 16.5zM1772 0h52v-284h-48l-134 190q-4 4 -4 6q-2 4 -6 8q0 2 -4 6q0 2 -1 3t-1 3v-216
h-52v284h46q8 0 16 -4t10 -9q15 -20 30 -41l30 -42t29.5 -41.5t28.5 -40.5q6 -6 6 -12q2 -3 2 -5.5v-4.5v200zM1848 0h218v-50h-82v-234h-52v234h-84v50zM2246 -146q9 -9 12 -22q6 -12 6 -28q0 -11 -2.5 -19.5t-5.5 -16.5q-5 -9 -10.5 -16.5t-11.5 -14.5q-15 -11 -34 -17
q-20 -6 -36 -6q-22 0 -40 6q-9 5 -16.5 9.5t-15.5 12.5q-5 5 -8 9t-6 9q-5 8 -8 16q2 0 6 4q4 0 8 4q2 0 4 1t4 1t4 0.5t4 0.5q6 0 12 -3q5 0 8 -1t6 -3q7 -7 16 -10q5 -2 10.5 -3t11.5 -1h7t9 2q3 2 7 3t7 3q9 6 12 13q6 7 6 17q0 5 -1 8t-3 6q-3 3 -6 5.5t-6 4.5
q-8 5 -16 8q-8 1 -18 8q-8 2 -15 4.5t-15 5.5t-14 7t-12 9q-10 10 -16 22q-8 13 -8 32q0 10 2.5 18t5.5 16q10 16 20 24q6 4 13 8.5t14 7.5q8 2 16.5 3t16.5 1q6 0 12 -1t12 -3q13 -3 22 -11q6 -2 10.5 -6t9.5 -9q5 -3 8 -7t6 -9l-10 -8l-6 -4t-8 -4t-8 -2.5t-6 -0.5h-4h-4
q-3 2 -5 2.5t-5 2.5q-2 2 -4.5 2t-3.5 2q-2 0 -3.5 1t-4.5 1q-2 2 -8 2h-6t-8 -2q-6 0 -10 -4q-3 -2 -6 -4.5t-4 -3.5q-2 -4 -2 -12t2 -10q1 -3 4 -5t6 -5q3 -2 7 -3t9 -3t10.5 -4t13.5 -4l8 -4q9 -3 15.5 -6t14.5 -8q14 -7 22 -18zM2332 -234q5 -3 5 -10q2 -2 3.5 -5.5
t1.5 -6.5q0 -5 -5 -12q0 -5 -5 -10q-2 -2 -10 -6q-4 -2 -12 -2t-12 2q-8 4 -11 6q-2 3 -3.5 5t-3.5 5q0 3 -1 6t-1 6t1 6.5t1 5.5q4 8 7 10q4 6 11 6q8 4 12 4t12 -4q7 0 10 -6zM2440 -76q-8 -8 -12.5 -14.5t-7.5 -15.5q-8 -16 -8 -36t8 -36q6 -19 20 -30q6 -6 13.5 -10.5
t16.5 -9.5q15 -6 34 -6q8 0 15 1t13 3q14 3 26 12q2 2 4 2t4 2q3 1 5.5 1h4.5q8 0 16 -3q8 -4 12 -8l12 -10q-6 -6 -12 -11.5t-12 -10.5t-13 -9t-13 -7q-8 -5 -15 -6.5t-15 -3.5q-8 -3 -15.5 -3.5t-16.5 -0.5q-14 0 -28 2.5t-28 7.5q-25 11 -46 32q-9 11 -16.5 21.5
t-13.5 24.5q-12 27 -12 56q0 20 6 38q2 9 5.5 17.5t8.5 16.5q5 9 10.5 15.5t11.5 14.5q8 6 14.5 11.5t15.5 10.5q8 4 16.5 8.5t17.5 7.5q11 2 20 3t18 1t16.5 -0.5t15.5 -3.5q13 -3 30 -11q12 -5 26 -15q6 -5 12 -10.5t12 -11.5l-12 -13q-4 -3 -12 -7q-5 -2 -16 -2
q-9 0 -18 6q-6 2 -12 5.5t-14 6.5q-6 2 -13 3t-15 1q-9 0 -17.5 -1.5t-16.5 -6.5q-9 -4 -16.5 -8t-13.5 -10zM2904 -70q5 -8 8.5 -16.5t5.5 -17.5q6 -18 6 -38t-6 -38q-2 -9 -5.5 -18t-8.5 -18q-9 -15 -22 -28q-8 -6 -14.5 -11.5t-15.5 -10.5q-8 -6 -16.5 -9.5t-17.5 -6.5
q-9 -2 -19 -3t-19 -1q-15 0 -29.5 2.5t-28.5 7.5q-12 6 -23.5 13.5t-20.5 18.5q-21 21 -32 46q-7 14 -9.5 27t-2.5 29q0 20 6 38q3 9 6 17.5t8 16.5q5 9 10.5 15.5t13.5 14.5q13 13 28 22q9 4 17 8.5t17 7.5q11 2 20 3t20 1q9 0 19 -1t19 -3q9 -3 17.5 -7.5t16.5 -8.5
q9 -5 15.5 -10.5t14.5 -11.5q6 -8 11.5 -14.5t10.5 -15.5zM2866 -178q6 18 6 36t-6 36q-5 9 -9.5 15.5t-10.5 14.5q-8 6 -15 10t-15 8q-16 8 -36 8q-23 0 -36 -8q-9 -4 -16.5 -8t-13.5 -10q-6 -8 -11.5 -14.5t-8.5 -15.5q-5 -9 -6.5 -18t-1.5 -18t1.5 -18t6.5 -18
q3 -9 8.5 -16.5t11.5 -13.5t13.5 -10.5t16.5 -9.5q15 -6 36 -6q18 0 36 6q8 5 15 9.5t15 10.5q6 6 10.5 13.5t9.5 16.5zM3216 -2q2 0 4.5 1t5.5 1h52v-284h-52v208q-2 -3 -3 -6t-1 -8q-2 -5 -3 -8t-3 -6l-36 -90q-9 -23 -18 -45t-20 -45h-46l-74 180q-2 3 -3 6t-3 8
q0 4 -4 12v-206h-52v284h52q3 0 6 -1t6 -1q2 -2 4 -2t4 -2q3 -2 4.5 -4.5t3.5 -3.5q2 -2 3 -4t3 -4q9 -23 17 -44t17 -42q9 -23 17.5 -44t16.5 -42q2 -2 2 -6q0 -2 1 -3t1 -3v-7v-1l2 1v7q0 4 2 6v6l10 20l60 152q0 5 6 8q3 5 8 8q2 2 5 2t5 2z" />
    <glyph glyph-name="four" unicode="4" horiz-adv-x="3492" 
d="M2558 600q6 -5 9.5 -10.5t6.5 -13.5q6 -12 6 -30q0 -13 -6 -28q-3 -6 -6.5 -12t-9.5 -12q-5 -5 -10.5 -9t-13.5 -7q-12 -6 -28 -6q-9 0 -15.5 1.5t-14.5 4.5q-6 3 -12 7t-12 9q-5 6 -9 12t-7 12q-6 15 -6 28q0 18 6 30q3 8 7 13.5t9 10.5q6 6 12 9.5t12 6.5q8 3 14.5 4.5
t15.5 1.5q16 0 28 -6q8 -3 13.5 -6.5t10.5 -9.5zM716 576q-2 -2 -3.5 -4.5t-4.5 -5.5q-2 -2 -10 -6q-4 -2 -12 -2h-44v62h44q4 0 12 -4q7 0 10 -6q3 -2 4.5 -4t3.5 -4q0 -3 1 -6.5t1 -8.5q0 -2 -1 -5t-1 -6zM1086 600q11 -11 16 -24q6 -12 6 -30q0 -13 -6 -28q-3 -6 -7 -12
t-9 -12q-6 -5 -12 -9t-12 -7q-15 -6 -30 -6t-28 6q-13 5 -24 16q-6 6 -9.5 12t-6.5 12q-6 15 -6 28q0 18 6 30q3 8 6.5 13.5t9.5 10.5q5 6 10.5 9.5t13.5 6.5q13 6 28 6t30 -6q6 -3 12 -6.5t12 -9.5zM1462 616q0 -10 2 -12l36 -84h-78l36 84q2 2 2 4t1 4t1 4zM390 610
q4 -4 8 -12q2 -4 2 -14v-7t-2 -7q-4 -8 -8 -10q-4 -5 -10 -8q-5 -2 -8 -3t-6 -1h-44v72h44q3 0 6 -1t8 -3q3 0 5.5 -2t4.5 -4zM3278 1084v-766h-3148v766h1194q0 79 30 150q31 71 82 122q53 50 122 80t146 30q85 0 152 -32q69 -33 120 -84q50 -53 80 -122t30 -144h1192z
M1380 1216q-12 -32 -19 -65t-7 -69q0 -69 28 -134q14 -32 32 -60t42 -52q45 -48 110 -76q63 -30 138 -30q71 0 136 28q63 27 112 76q24 23 42.5 50.5t33.5 59.5q26 64 26 138q0 33 -4.5 63t-15.5 57q-9 26 -23.5 51.5t-32.5 48.5q-18 21 -38 39t-44 35q-24 14 -49 25t-51 19
q-21 8 -43.5 11t-48.5 3q-74 0 -140 -30q-32 -14 -59 -33t-51 -43t-42 -52t-32 -60zM424 560q2 6 3 12t1 12q0 8 -1 14t-3 12q-3 5 -6 9t-8 9t-9.5 8.5t-10.5 5.5q-12 6 -24 6h-72v-200h28v74h44q6 0 12 1t12 3q12 6 20 14t14 20zM572 648h-124v-200h124v26h-96v60h78v28
h-78v58h96v28zM768 448l-64 86q5 2 9 3t7 5q8 3 14 12q5 6 8 16q2 5 2 9v8q0 8 -0.5 13.5t-3.5 11.5q-2 5 -5.5 9t-6.5 9q-9 9 -18 12q-12 6 -24 6h-72v-200h28v82h30l52 -70q3 -7 10 -10q2 -2 6.5 -2h9.5h18zM902 482q6 12 6 24q0 28 -22 44q-2 2 -4 3t-4 3q-3 2 -5 2t-5 2
q-2 2 -4 2t-6 2q-2 0 -10 4q-5 2 -9 3t-7 3q-5 2 -7 3t-5 3q-4 4 -6 7q-1 3 -1 11q0 6 1 10q2 2 3.5 4t4.5 4q2 0 10 4q4 2 12 2q3 0 5.5 -1t4.5 -1q3 -2 6.5 -3t5.5 -3q8 -4 12 -4q8 0 14 6l6 4q-2 3 -4.5 5t-5.5 5t-6 5t-6 5q-3 2 -7 3t-9 3q-8 4 -16 4q-6 0 -11 -1
t-11 -3t-10.5 -4.5t-9.5 -5.5q-3 -3 -6 -7t-6 -9q-6 -9 -6 -22q0 -8 1.5 -12.5t4.5 -9.5q3 -10 12 -16q7 -7 18 -10q5 -3 9.5 -5t10.5 -5q3 -2 6 -2.5t8 -1.5q3 -2 6.5 -3t5.5 -3q3 -3 5.5 -5t4.5 -5t3 -6t1 -8q0 -6 -4 -14q-3 -7 -10 -10q-2 -3 -5.5 -4.5t-6.5 -3.5
q-5 0 -8 -1t-8 -1q-3 0 -7 1t-7 1q-8 4 -11 8l-3 2q-6 6 -16 6q-7 0 -10 -4l-8 -2q2 -2 2 -3t2 -1q0 -2 1 -3t1 -3q4 -4 5 -6q4 -5 7 -5q9 -10 19.5 -13.5t24.5 -3.5q8 0 14 0.5t14 3.5q11 3 20 13q11 9 16 19zM1132 520q2 8 2 13.5v12.5v15t-2 13q-3 8 -5 14t-7 12
q-3 5 -7 10t-7 10q-6 5 -11 8t-11 8q-6 3 -12 5.5t-12 4.5q-8 2 -14 3t-14 1q-6 0 -13 -1t-13 -3q-8 -2 -14 -4.5t-12 -5.5q-5 -5 -10 -8t-10 -8t-9 -10t-7 -10q-3 -6 -5.5 -12t-4.5 -14q-2 -6 -3 -13t-1 -15q0 -9 1.5 -19t6.5 -19q5 -11 10.5 -18.5t11.5 -15.5
q8 -6 15.5 -11.5t16.5 -8.5q19 -8 40 -8h14t14 2q6 3 12 5t12 7q10 5 22 14q3 5 7 10.5t7 11.5q5 6 7 12t5 12zM1342 648h-28v-156q0 5 -1 8t-3 6l-98 134q-4 4 -8 6q-3 0 -6 1t-6 1h-20v-200h28v168v-4q2 -2 2 -3v-1q0 -2 1 -3q0 -1 1 -1l114 -156h24v200zM1562 448
l-86 200h-28l-88 -200h16q8 0 11 2q7 5 9 10l14 32h102l14 -32q4 -8 8 -10q2 -2 5.5 -2h6.5h16zM1696 474h-86v174h-28v-200h114v26zM1972 648h-28v-122q0 -6 -1 -11t-3 -11q-3 -5 -5 -9t-7 -7q-3 -5 -7 -7t-8 -5q-7 -2 -12 -3t-11 -1q-5 0 -10 1t-10 3q-5 3 -9 5t-7 7
q-9 6 -12 16q-2 6 -3 11t-1 11v122h-28v-122q0 -6 0.5 -11.5t2.5 -10.5q1 -6 3 -10.5t4 -9.5q3 -5 6 -9t8 -7q3 -3 7 -6t9 -6t10 -4.5t10 -3.5t10 -3t10 -1q6 0 12 1t11 3q12 3 19 8q5 3 8 6t8 6q3 3 6 7t6 9q5 7 8 20q2 5 3 10.5t1 11.5v122zM2126 482q3 6 3.5 12t0.5 12
q0 30 -20 44q-4 2 -8 6q-3 2 -5 2t-5 2q-4 2 -5.5 2t-4.5 2q-3 0 -5 1t-5 3q-5 2 -9 3t-7 3q-9 3 -12 6q-6 3 -6 7q-2 3 -2 11q0 6 2 10q2 2 3.5 4t4.5 4q2 0 10 4q4 2 12 2q3 0 5 -1t5 -1l12 -6q8 -4 12 -4q6 0 12 6l8 4q-2 3 -4.5 5t-5.5 5t-6 5t-6 5q-3 2 -7 3t-9 3t-8 3
t-8 1q-6 0 -11.5 -1t-10.5 -3q-6 -2 -10.5 -4.5t-9.5 -5.5q-3 -3 -6.5 -7t-5.5 -9q-6 -9 -6 -22q0 -8 1.5 -12.5t3.5 -9.5q5 -11 13 -16q7 -7 16 -10q6 -3 11 -5t11 -5q3 -2 6 -2.5t8 -1.5l12 -6q3 -3 5.5 -5t4.5 -5t3 -6t1 -8q0 -6 -4 -14q-3 -7 -10 -10q-5 -5 -14 -8
q-3 0 -7 -1t-7 -1q-5 0 -8 1t-6 1q-10 3 -12 8l-2 2q-6 6 -16 6q-8 0 -10 -4l-8 -2q0 -2 1 -3q0 -1 1 -1q2 -2 2 -3t2 -3q4 -4 4 -6q4 -5 8 -5q9 -10 19.5 -13.5t24.5 -3.5q8 0 14 0.5t11 3.5q15 3 23 13q11 9 16 19zM2290 648h-124v-200h124v26h-98v60h78v28h-78v58h98v28z
M2604 520q2 8 3 13.5t1 12.5q0 8 -1 15t-3 13q-2 8 -4.5 14t-5.5 12q-3 5 -7 10t-9 10t-10 8t-10 8q-6 3 -12 5.5t-14 4.5q-6 2 -13 3t-13 1q-8 0 -14.5 -1t-13.5 -3q-6 -2 -12 -4.5t-12 -5.5q-6 -5 -11 -8t-11 -8q-5 -5 -8 -10t-8 -10q-3 -6 -5 -12t-5 -14q-2 -6 -2 -13
v-15q0 -9 1.5 -19t6.5 -19q3 -11 8.5 -18.5t11.5 -15.5q8 -6 16.5 -11.5t17.5 -8.5q16 -8 40 -8h13t13 2q8 3 14 5t12 7l10 6t10 8q10 10 16 22q3 6 5.5 12t4.5 12zM2814 648h-28v-156q0 5 -1 8t-3 6l-98 134q-4 4 -8 6q-2 0 -4.5 1t-7.5 1h-20v-200h28v168q2 -2 2 -3v-1
q0 -4 2 -4q0 -4 2 -4l114 -156h22v200zM2978 474h-88v174h-26v-200h114v26zM3136 648h-18q-10 0 -14 -4q-3 -2 -5.5 -5t-4.5 -5l-48 -64q-1 0 -2 -1v-1q0 -1 -0.5 -1.5t-0.5 -1.5l-1 -1v4v1l-2 1l-46 64q-3 2 -5.5 5t-4.5 5q-5 2 -8 3t-8 1h-18l72 -98l1 -1q0 -1 0.5 -1.5
t0.5 -1.5q2 -2 2 -3t2 -1v-5v-5v-84h28v84q0 2 1 3t1 2v2q0 1 2 3v1q0 1 2 3q0 4 4 4zM1590 787q-27 11 -51 26t-47 33h424q-23 -18 -47 -33t-51 -26q-26 -10 -55 -15.5t-59 -5.5q-31 0 -59.5 5.5t-54.5 15.5zM1528 880l412 416q78 -102 78 -214q0 -29 -4 -55.5t-14 -52.5
q-9 -26 -22 -48.5t-30 -45.5h-420zM1468 870q-20 23 -34.5 47t-23.5 51q-11 26 -15.5 55t-4.5 59q0 57 18 108q8 26 21 48.5t31 45.5h418zM1818 1378q54 -24 96 -60h-422q21 20 45.5 34.5t49.5 25.5q53 20 117 20q30 0 59 -4.5t55 -15.5zM136 116q-7 10 -10 21q-2 7 -3 13
t-1 12t1 12t3 12t4.5 12t5.5 12q3 5 6 9t8 9q8 8 20 14q11 7 22 10q6 2 12 3t12 1q11 0 20 -2.5t18 -5.5q8 -5 15 -9.5t13 -10.5q0 -2 -1 -2t-3 -2l-2 -2q-2 -2 -3 -2h-1h-6h-4t-4 2q-5 3 -9.5 5.5t-10.5 4.5q-5 2 -10.5 2h-11.5q-8 0 -15 -1t-14 -3q-12 -7 -21 -16
q-6 -5 -9.5 -10.5t-6.5 -13.5q-6 -12 -6 -28v-9t2 -9q2 -10 8 -18q3 -5 6 -8t6 -8q6 -6 14 -10q5 -3 9 -4.5t9 -3.5t9.5 -2h10.5h12t12 2t11 4.5l11 5.5v38h-14q-2 0 -4 1t-4 1q-2 2 -3 2t-3 2q0 2 -1 3t-1 3q-2 2 -2 6v2h50v-70q-3 -5 -6 -7t-8 -5q-3 -2 -6 -3t-8 -1
q-5 -2 -9 -3t-9 -1h-20h-12t-12 2q-11 3 -22 10q-12 6 -20 14t-14 20zM348 232v-58h72v-20h-72v-62h90v-20h-110v182h110v-22h-90zM518 72v160h-58v22h138v-22h-58v-160h-22zM732 232v-62h76v-20h-76v-78h-20v182h110v-22h-90zM878 254v-112q0 -6 0.5 -10.5t3.5 -9.5
q2 -6 4.5 -9.5t5.5 -8.5q5 -3 8.5 -5.5t9.5 -4.5q5 -3 9.5 -3.5t10.5 -0.5t10.5 0.5t9.5 3.5q11 4 16 10q5 5 7 8.5t5 9.5q2 5 3 9.5t1 10.5v112h20v-112q0 -16 -6 -28q-3 -8 -6 -13.5t-8 -10.5q-6 -5 -12 -9t-12 -7q-6 -2 -13 -3t-15 -1t-15 1t-13 3q-13 5 -24 16
q-5 5 -9 10.5t-6 13.5q-4 6 -4.5 13t-0.5 15v112h20zM1062 254v-162h80v-20h-102v182h22zM1186 254v-162h80v-20h-100v182h20zM1432 72l-78 182h10q3 0 5 -1t5 -3q2 -2 4 -3.5t2 -4.5l60 -136q0 -2 1 -3t1 -3v-6v6q2 2 2 6q8 17 15 34t15 34q8 18 15 34.5t15 33.5q2 4 6 8
q8 4 10 4h12q-11 -23 -21 -46t-19 -46q-11 -23 -20 -45t-20 -45h-20zM1568 232v-58h72v-20h-72v-62h90v-20h-112v182h112v-22h-90zM1794 156q-5 -2 -8 -3t-8 -3l58 -78h-12q-8 0 -11 2q-6 2 -9 8l-52 68h-30v-78h-22v182h66q5 0 10 -1t10 -3q5 -3 9 -6t7 -6t6 -7t6 -9
q2 -5 3 -10t1 -10t-1 -9t-3 -9q-2 -10 -8 -16zM1766 170q8 0 12 2q3 2 5 3t5 3q2 3 3 5t3 4q2 4 3 7t1 8q0 4 -4 12q-2 3 -3 5t-3 5q-3 2 -5 3t-5 3q-4 2 -12 2h-44v-62h44zM1932 98q7 3 10 10q4 10 4 14q0 9 -4 15q-3 6 -8 9q-4 4 -12 8q-4 0 -14 4q-6 2 -10.5 4t-9.5 4
q-9 3 -16 10q-3 2 -5.5 5.5t-3.5 5.5q-2 5 -3.5 10t-1.5 11q0 11 6 20q3 8 12 14q7 7 16 10q5 2 10.5 3t10.5 1q2 0 6 -1t7 -1q5 -2 8 -3t6 -3q3 -3 5.5 -4.5t4.5 -3.5l8 -8l-4 -4q-4 -4 -10 -4q-8 0 -10 2t-3 2t-3 2q-2 0 -2 1t-2 1t-3 1t-3 1h-5h-8t-7 -2q-3 0 -5 -1
t-5 -3q-2 -3 -4 -5t-2 -5q-4 -4 -4 -10q0 -8 2 -10q2 -4 6 -8q5 -4 12 -6q3 -2 7 -3t9 -3q3 -2 5 -2t5 -2q4 0 8 -4q3 0 5 -1t5 -3q2 0 6 -4l8 -8t7 -8q1 -7 2 -11.5t1 -12.5q0 -6 -1 -11t-2 -11q-4 -5 -7 -9.5t-8 -6.5q-7 -7 -20 -10q-5 -3 -10.5 -3.5t-11.5 -0.5
q-26 0 -40 14q-2 2 -5 4.5t-5 5.5q-4 4 -4 8l4 2l1 1q1 0 1.5 0.5t1.5 0.5h4q8 0 12 -4q3 -5 7 -6.5t7 -3.5q5 -2 8 -2h8h6t8 2q6 0 12 6zM2028 254v-182h-22v182h22zM2098 96q-6 6 -11.5 13.5t-8.5 16.5q-5 8 -6.5 17.5t-1.5 18.5q0 6 1 12t3 12t3.5 12t4.5 12q4 5 7.5 9
t8.5 9t9 8t9 6q10 7 21 10q7 2 13 3t14 1q6 0 12 -1t11 -3q12 -3 23 -10q12 -6 20 -14q5 -5 8 -9t6 -9q3 -6 5.5 -12t4.5 -12t2 -12v-12q0 -20 -6 -36q-8 -17 -20 -30q-16 -14 -30 -20q-20 -6 -36 -6q-22 0 -38 6t-28 20zM2096 190q-6 -12 -6 -28q0 -5 1 -9t3 -9
q2 -6 3 -9.5t3 -8.5q3 -5 6 -8t6 -8q6 -6 14 -10q7 -5 18 -8q5 -2 9.5 -2h10.5h9t9 2q4 2 8.5 3.5t9.5 4.5q5 2 8 4.5t6 5.5q5 5 7 8t5 8q6 8 8 18q2 5 2 9v9q0 16 -6 28q-3 8 -6.5 13.5t-9.5 10.5q-10 10 -22 16q-6 2 -13 3t-15 1t-15 -1t-15 -3q-12 -6 -22 -16
q-5 -5 -9 -10.5t-7 -13.5zM2310 72h-20v182h14q13 0 16 -8l94 -132q2 -1 2 -2.5t2 -3.5v-4v150h22v-182h-20l-106 150l-2 2v2q0 2 -2 4v-158zM2592 232v-62h76v-20h-76v-78h-20v182h112v-22h-92zM2810 168q-3 -6 -12 -12q-3 -2 -7.5 -3t-8.5 -3l60 -78h-12q-10 0 -14 2
q-2 2 -4 3.5t-4 4.5l-50 68h-32v-78h-20v182h64q6 0 10.5 -1t9.5 -3q6 -3 9.5 -6t6.5 -6q9 -6 12 -16q2 -5 3 -10t1 -10v-9t-2 -9q-3 -9 -10 -16zM2782 172q8 4 10 6q6 6 6 9q2 4 3 7t1 8q0 4 -4 12q0 4 -6 10q-2 2 -10 6q-4 2 -12 2h-44v-62h44q8 0 12 2zM3020 96
q-16 -14 -30 -20q-18 -6 -38 -6q-18 0 -36 6q-15 6 -29 20q-13 11 -19 30q-5 8 -6.5 17.5t-1.5 18.5q0 6 1 12t3 12t3.5 12t6.5 12q2 5 5.5 9t7.5 9t9 8l10 6l11 5.5t11 4.5t12 3t12 1q8 0 14 -1t12 -3q11 -3 22 -10q12 -6 20 -14q5 -5 8 -9t6 -9l4 -12l4 -12q3 -6 3.5 -12
t0.5 -12q0 -9 -2 -18.5t-7 -17.5q-4 -17 -17 -30zM2952 90h10.5t9.5 2t9 3.5t9 4.5q5 2 8 4.5t6 5.5q5 5 7 8t5 8q6 8 8 18q2 5 2 9v9q0 16 -6 28q-3 8 -6.5 13.5t-9.5 10.5q-10 10 -22 16q-8 2 -15 3t-15 1q-6 0 -13 -1t-15 -3q-12 -6 -22 -16q-5 -5 -9 -10.5t-7 -13.5
q-6 -12 -6 -28q0 -5 1 -9t1 -9q2 -6 4 -9.5t4 -8.5q3 -5 6 -8t6 -8q6 -6 14 -10q5 -3 9 -4.5t9 -3.5t9 -2h9zM3252 250q4 4 8 4h18v-182h-20v150h-2v-4v-2q0 -1 -1 -2h-1q-5 -11 -9 -21t-7 -19q-5 -11 -9 -19t-7 -18q-5 -8 -9 -16.5t-7 -16.5q-3 -9 -7 -16.5t-7 -15.5h-22
q-8 17 -15 34.5t-15 35.5q-9 18 -16.5 36t-15.5 36q-2 0 -2 4v4v-150h-20v182h16q4 0 8 -4q6 -3 6 -8l64 -140v-4q2 -2 2 -3v-1v4.5t2 5.5t2 5t1 5l59 128q0 5 6 8zM130 0h210v-24v-14q-2 -3 -3 -6t-3 -6l-142 -188q2 0 4 2q2 0 4 2h4h136v-50h-218v16q0 4 1 7.5t1 6.5
q2 3 2 6t2 6l6 12q4 3 8 10l126 170h-138v50zM376 0h182v-50h-130v-66h104v-50h-104v-68h130v-50h-182v284zM786 -50h-84v-234h-52v234h-82v50h218v-50zM914 0l122 -284h-32q-11 0 -20 6q-5 3 -8 7l-6 8l-16 39h-128l-18 -39q0 -3 -4 -7q-2 -3 -4 -4.5t-4 -3.5q-3 -2 -5 -3
t-5 -1q-3 -2 -5.5 -2h-4.5h-34l124 284h48zM932 -172l-38 86q-2 3 -2 5.5t-2 4.5v8q0 -4 -2 -8q0 -2 -1 -4.5t-1 -5.5l-38 -86h84zM1048 0h182v-50h-130v-72h108v-50h-108v-112h-52v284zM1516 -70q5 -8 8.5 -16.5t5.5 -17.5q6 -18 6 -38t-6 -38q-2 -9 -5.5 -18t-8.5 -18
q-9 -15 -22 -28q-6 -6 -13.5 -11.5t-16.5 -10.5q-8 -6 -16.5 -9.5t-17.5 -6.5q-9 -2 -18 -3t-20 -1q-15 0 -29.5 2.5t-26.5 7.5q-14 6 -25.5 13.5t-20.5 18.5q-21 21 -32 46q-6 14 -8 27t-2 29q0 9 0.5 19t3.5 19t6 17.5t8 16.5q5 9 10.5 15.5t13.5 14.5q13 13 28 22
q9 4 17 8.5t17 7.5q11 2 20 3t20 1t20 -1t18 -3q9 -3 17.5 -7.5t16.5 -8.5q9 -5 16.5 -10.5t13.5 -11.5q6 -8 11.5 -14.5t10.5 -15.5zM1478 -178q6 18 6 36t-6 36q-5 9 -9.5 15.5t-10.5 14.5q-8 6 -15.5 10t-14.5 8q-16 8 -36 8q-23 0 -36 -8q-9 -4 -16.5 -8t-13.5 -10
q-6 -8 -10.5 -14.5t-9.5 -15.5q-3 -9 -5.5 -18t-2.5 -18t2.5 -18t5.5 -18q10 -20 20 -30q6 -6 13.5 -10.5t16.5 -9.5q15 -6 36 -6q18 0 36 6q7 5 14.5 9.5t15.5 10.5q6 6 10.5 13.5t9.5 16.5zM1772 0h52v-284h-48l-134 190q-4 4 -4 6q-2 4 -6 8q0 2 -4 6q0 2 -1 3t-1 3v-216
h-52v284h46q8 0 16 -4t10 -9q15 -20 30 -41l30 -42t29.5 -41.5t28.5 -40.5q6 -6 6 -12q2 -3 2 -5.5v-4.5v200zM1848 0h218v-50h-82v-234h-52v234h-84v50zM2246 -146q9 -9 12 -22q6 -12 6 -28q0 -11 -2.5 -19.5t-5.5 -16.5q-5 -9 -10.5 -16.5t-11.5 -14.5q-15 -11 -34 -17
q-20 -6 -36 -6q-22 0 -40 6q-9 5 -16.5 9.5t-15.5 12.5q-5 5 -8 9t-6 9q-5 8 -8 16q2 0 6 4q4 0 8 4q2 0 4 1t4 1t4 0.5t4 0.5q6 0 12 -3q5 0 8 -1t6 -3q7 -7 16 -10q5 -2 10.5 -3t11.5 -1h7t9 2q3 2 7 3t7 3q9 6 12 13q6 7 6 17q0 5 -1 8t-3 6q-3 3 -6 5.5t-6 4.5
q-8 5 -16 8q-8 1 -18 8q-8 2 -15 4.5t-15 5.5t-14 7t-12 9q-10 10 -16 22q-8 13 -8 32q0 10 2.5 18t5.5 16q10 16 20 24q6 4 13 8.5t14 7.5q8 2 16.5 3t16.5 1q6 0 12 -1t12 -3q13 -3 22 -11q6 -2 10.5 -6t9.5 -9q5 -3 8 -7t6 -9l-10 -8l-6 -4t-8 -4t-8 -2.5t-6 -0.5h-4h-4
q-3 2 -5 2.5t-5 2.5q-2 2 -4.5 2t-3.5 2q-2 0 -3.5 1t-4.5 1q-2 2 -8 2h-6t-8 -2q-6 0 -10 -4q-3 -2 -6 -4.5t-4 -3.5q-2 -4 -2 -12t2 -10q1 -3 4 -5t6 -5q3 -2 7 -3t9 -3t10.5 -4t13.5 -4l8 -4q9 -3 15.5 -6t14.5 -8q14 -7 22 -18zM2332 -234q5 -3 5 -10q2 -2 3.5 -5.5
t1.5 -6.5q0 -5 -5 -12q0 -5 -5 -10q-2 -2 -10 -6q-4 -2 -12 -2t-12 2q-8 4 -11 6q-2 3 -3.5 5t-3.5 5q0 3 -1 6t-1 6t1 6.5t1 5.5q4 8 7 10q4 6 11 6q8 4 12 4t12 -4q7 0 10 -6zM2440 -76q-8 -8 -12.5 -14.5t-7.5 -15.5q-8 -16 -8 -36t8 -36q6 -19 20 -30q6 -6 13.5 -10.5
t16.5 -9.5q15 -6 34 -6q8 0 15 1t13 3q14 3 26 12q2 2 4 2t4 2q3 1 5.5 1h4.5q8 0 16 -3q8 -4 12 -8l12 -10q-6 -6 -12 -11.5t-12 -10.5t-13 -9t-13 -7q-8 -5 -15 -6.5t-15 -3.5q-8 -3 -15.5 -3.5t-16.5 -0.5q-14 0 -28 2.5t-28 7.5q-25 11 -46 32q-9 11 -16.5 21.5
t-13.5 24.5q-12 27 -12 56q0 20 6 38q2 9 5.5 17.5t8.5 16.5q5 9 10.5 15.5t11.5 14.5q8 6 14.5 11.5t15.5 10.5q8 4 16.5 8.5t17.5 7.5q11 2 20 3t18 1t16.5 -0.5t15.5 -3.5q13 -3 30 -11q12 -5 26 -15q6 -5 12 -10.5t12 -11.5l-12 -13q-4 -3 -12 -7q-5 -2 -16 -2
q-9 0 -18 6q-6 2 -12 5.5t-14 6.5q-6 2 -13 3t-15 1q-9 0 -17.5 -1.5t-16.5 -6.5q-9 -4 -16.5 -8t-13.5 -10zM2904 -70q5 -8 8.5 -16.5t5.5 -17.5q6 -18 6 -38t-6 -38q-2 -9 -5.5 -18t-8.5 -18q-9 -15 -22 -28q-8 -6 -14.5 -11.5t-15.5 -10.5q-8 -6 -16.5 -9.5t-17.5 -6.5
q-9 -2 -19 -3t-19 -1q-15 0 -29.5 2.5t-28.5 7.5q-12 6 -23.5 13.5t-20.5 18.5q-21 21 -32 46q-7 14 -9.5 27t-2.5 29q0 20 6 38q3 9 6 17.5t8 16.5q5 9 10.5 15.5t13.5 14.5q13 13 28 22q9 4 17 8.5t17 7.5q11 2 20 3t20 1q9 0 19 -1t19 -3q9 -3 17.5 -7.5t16.5 -8.5
q9 -5 15.5 -10.5t14.5 -11.5q6 -8 11.5 -14.5t10.5 -15.5zM2866 -178q6 18 6 36t-6 36q-5 9 -9.5 15.5t-10.5 14.5q-8 6 -15 10t-15 8q-16 8 -36 8q-23 0 -36 -8q-9 -4 -16.5 -8t-13.5 -10q-6 -8 -11.5 -14.5t-8.5 -15.5q-5 -9 -6.5 -18t-1.5 -18t1.5 -18t6.5 -18
q3 -9 8.5 -16.5t11.5 -13.5t13.5 -10.5t16.5 -9.5q15 -6 36 -6q18 0 36 6q8 5 15 9.5t15 10.5q6 6 10.5 13.5t9.5 16.5zM3216 -2q2 0 4.5 1t5.5 1h52v-284h-52v208q-2 -3 -3 -6t-1 -8q-2 -5 -3 -8t-3 -6l-36 -90q-9 -23 -18 -45t-20 -45h-46l-74 180q-2 3 -3 6t-3 8
q0 4 -4 12v-206h-52v284h52q3 0 6 -1t6 -1q2 -2 4 -2t4 -2q3 -2 4.5 -4.5t3.5 -3.5q2 -2 3 -4t3 -4q9 -23 17 -44t17 -42q9 -23 17.5 -44t16.5 -42q2 -2 2 -6q0 -2 1 -3t1 -3v-7v-1l2 1v7q0 4 2 6v6l10 20l60 152q0 5 6 8q3 5 8 8q2 2 5 2t5 2z" />
    <glyph glyph-name="dollar" unicode="$" horiz-adv-x="1300" 
d="M764 -126q0 -48 -34.5 -70t-85.5 -22q-57 0 -89.5 22.5t-32.5 69.5v1648q0 45 31.5 76.5t90.5 31.5t89.5 -27t30.5 -81v-1648zM350 1038q0 -53 34.5 -87t91 -57.5t130 -40.5t151 -37t154 -47t139 -70.5t105.5 -106.5t55 -156q5 -42 -2 -92t-31.5 -99.5t-69 -96t-114 -82
t-168 -57t-229.5 -21.5q-112 0 -204.5 10t-162 32.5t-113.5 58.5t-58 87q-8 30 0.5 51.5t25.5 35t39 18.5t41 3q41 -5 83 -16.5t90.5 -23.5t106.5 -21.5t132 -10.5q83 -1 147.5 13.5t108 40.5t66 62t22.5 80q0 48 -36.5 80t-96.5 55t-136.5 41t-157 38.5t-157.5 47t-138 66
t-99.5 95.5t-40.5 137q-2 82 26 159t87.5 137.5t150.5 99.5t216 44q23 1 75.5 1.5t118 -4.5t135 -17t127.5 -37t95 -64.5t37 -98.5q0 -18 -3.5 -33.5t-14.5 -26t-30.5 -15.5t-51.5 -3q-39 3 -93 11t-115.5 16.5t-127 15.5t-128.5 7q-40 0 -78 -6.5t-68 -21t-48 -37.5
t-18 -57z" />
    <glyph glyph-name="slash" unicode="/" horiz-adv-x="968" 
d="M696 1388q11 24 24 37t28.5 19t35 7t44.5 1q27 0 54.5 -4.5t47 -15t28 -27t-1.5 -39.5l-670 -1362q-13 -27 -27.5 -41t-32.5 -20t-38.5 -6.5t-45.5 -0.5q-27 0 -52.5 5.5t-43.5 16.5t-25 27.5t3 38.5z" />
    <glyph glyph-name="backslash" unicode="\" horiz-adv-x="968" 
d="M958 24q10 -22 3 -38.5t-25 -27.5t-43.5 -16.5t-52.5 -5.5q-25 0 -45.5 0.5t-38.5 6.5t-32.5 20t-27.5 41l-670 1362q-11 23 -2 39.5t28.5 27t47 15t54.5 4.5q25 0 44.5 -1t35 -7t28.5 -19t24 -37z" />
    <glyph glyph-name="degree" unicode="&#xb0;" horiz-adv-x="648" 
d="M318 848q-89 0 -141 23t-79.5 61.5t-35.5 89t-8 106.5v2q0 56 8 107.5t35.5 90.5t79.5 62.5t141 23.5h2q88 0 140.5 -23.5t80 -62.5t35.5 -90.5t8 -107.5v-2q0 -56 -8 -106.5t-35.5 -89t-80 -61.5t-140.5 -23h-2zM320 1052q19 0 30 4.5t16.5 13.5t6.5 22.5t1 31.5v12
q0 16 -1 29t-6.5 22t-16.5 14t-30 5h-4q-19 0 -29.5 -5t-16 -14t-7 -22t-1.5 -29v-12q0 -18 1.5 -31.5t7 -22.5t16 -13.5t29.5 -4.5h4z" />
    <glyph glyph-name="parenleft" unicode="(" horiz-adv-x="748" 
d="M660 -10q26 -11 34 -38t2.5 -60t-22 -67.5t-39.5 -60.5t-50.5 -39t-54.5 -3q-81 30 -141.5 78.5t-103.5 111t-71.5 138t-44.5 158.5t-22.5 172t-6.5 180q0 137 15 269.5t58 245t119.5 197t199.5 126.5q30 10 58.5 -2.5t50.5 -38.5t37 -60t19.5 -66.5t-3 -59t-30.5 -35.5
q-65 -27 -110 -80t-73 -128t-40.5 -169.5t-12.5 -204.5q0 -128 8.5 -220.5t33.5 -158.5t70.5 -110t119.5 -75z" />
    <glyph glyph-name="parenright" unicode=")" horiz-adv-x="748" 
d="M66 -10q74 31 119.5 75t70.5 110t33.5 158.5t8.5 220.5q0 110 -12.5 204.5t-40.5 169.5t-73 128t-110 80q-23 9 -30.5 35.5t-3 59t19.5 66.5t37 60t50 38.5t59 2.5q123 -42 199.5 -126.5t119.5 -197t58 -245t15 -269.5t-15.5 -268t-58 -242.5t-119 -197t-197.5 -130.5
q-27 -10 -54.5 3t-50.5 39t-39.5 60.5t-22 67.5t2.5 60t34 38z" />
    <glyph glyph-name="asterisk" unicode="*" horiz-adv-x="828" 
d="M530 702l24 14q54 30 97 27t73 -55q17 -29 23.5 -51t0.5 -41t-25.5 -36.5t-54.5 -37.5l-21 -12l21 -12q54 -30 74 -68.5t-10 -89.5q-17 -30 -33 -47t-35.5 -21.5t-45 4t-60.5 28.5l-28 16v-26q0 -63 -24 -99.5t-84 -36.5q-34 0 -56 5.5t-35.5 20t-19 40t-5.5 66.5v24
l-18 -10q-35 -20 -60 -28t-44.5 -3.5t-35.5 21.5t-32 46q-30 51 -10 90t74 72l17 10l-17 10q-35 20 -55 37.5t-26 36.5t1 41.5t24 52.5q30 52 74 54t98 -28l10 -6v18q0 40 5.5 66t19 40.5t35.5 20t56 5.5q60 0 84 -36.5t24 -99.5v-22z" />
    <glyph glyph-name="bracketleft" unicode="[" horiz-adv-x="686" 
d="M594 1398q32 0 50 -2.5t26.5 -13t10 -31t1.5 -55.5q0 -45 -13 -66.5t-31 -29t-36 -6t-28 1.5h-128v-1256h128q10 0 28 1t36 -6.5t31 -28.5t13 -66q0 -35 -1.5 -58.5t-10 -37.5t-26.5 -20t-50 -6h-334q-27 0 -43 4.5t-25 17.5t-11.5 37t-2.5 63v1456q0 39 2.5 60t11.5 30
t25 10.5t43 1.5h334z" />
    <glyph glyph-name="bracketright" unicode="]" horiz-adv-x="686" 
d="M412 1398q27 0 43 -1.5t25 -10.5t11.5 -30t2.5 -60v-1456q0 -39 -2.5 -63t-11.5 -37t-25 -17.5t-43 -4.5h-334q-32 0 -50 6t-26.5 20t-10 37.5t-1.5 58.5q0 45 13 66t31 28.5t36 6.5t28 -1h128v1256h-128q-10 0 -28 -1.5t-36 6t-31 29t-13 66.5q0 35 1.5 55.5t10 31
t26.5 13t50 2.5h334z" />
    <glyph glyph-name="hungarumlaut" unicode="&#x2dd;" horiz-adv-x="868" 
d="M130 1388q11 24 24 37t28.5 19t35 7t44.5 1q27 0 54.5 -4.5t47 -15t28 -27t-1.5 -39.5l-72 -158q-13 -27 -27.5 -41t-32.5 -20t-38.5 -6.5t-45.5 -0.5q-27 0 -52.5 5.5t-43.5 16.5t-25 27.5t3 38.5zM540 1388q11 24 24 37t28.5 19t35 7t44.5 1q27 0 54.5 -4.5t47 -15
t28 -27t-1.5 -39.5l-72 -158q-13 -27 -27.5 -41t-32.5 -20t-38.5 -6.5t-45.5 -0.5q-27 0 -52.5 5.5t-43.5 16.5t-25 27.5t3 38.5z" />
    <glyph glyph-name="dieresis" unicode="&#xa8;" horiz-adv-x="707" 
d="M28 1336q0 22 11 35.5t29 21t40.5 9.5t45.5 2q25 0 48.5 -2.5t41 -9.5t28 -20.5t10.5 -35.5v-122q0 -23 -11 -36t-29 -20.5t-40.5 -9.5t-45.5 -2q-26 0 -49 2.5t-40.5 9.5t-28 20.5t-10.5 35.5v122zM424 1336q0 22 11 35.5t29 21t40.5 9.5t45.5 2q25 0 48.5 -2.5t41 -9.5
t28 -20.5t10.5 -35.5v-122q0 -23 -11 -36t-29 -20.5t-40.5 -9.5t-45.5 -2q-26 0 -49 2.5t-40.5 9.5t-28 20.5t-10.5 35.5v122z" />
    <glyph glyph-name="Aacute" unicode="&#xc1;" horiz-adv-x="1357" 
d="M992 276h-639l-49 -146q-17 -51 -36 -79.5t-42.5 -42.5t-52 -17t-65.5 -3q-28 0 -52 9.5t-37.5 32t-14.5 59.5t18 91l368 1050q24 70 55 107t65.5 53.5t71.5 19t74 2.5h34q37 0 74 -2.5t71.5 -19t65.5 -53.5t55 -107l368 -1050q19 -54 18 -91t-14.5 -59.5t-37.5 -32
t-52 -9.5q-37 0 -66 3t-52.5 17t-42.5 42.5t-35 79.5zM429 500h488l-215 636q-5 15 -9.5 23.5t-12.5 8.5h-14q-8 0 -12.5 -8.5t-9.5 -23.5zM631 1738q11 24 24 37t28.5 19t35 7t44.5 1q27 0 54.5 -4.5t47 -15t28 -27t-1.5 -39.5l-72 -158q-13 -27 -27.5 -41t-32.5 -20
t-38.5 -6.5t-45.5 -0.5q-27 0 -52.5 5.5t-43.5 16.5t-25 27.5t3 38.5z" />
    <glyph glyph-name="Agrave" unicode="&#xc0;" horiz-adv-x="1357" 
d="M992 276h-639l-49 -146q-17 -51 -36 -79.5t-42.5 -42.5t-52 -17t-65.5 -3q-28 0 -52 9.5t-37.5 32t-14.5 59.5t18 91l368 1050q24 70 55 107t65.5 53.5t71.5 19t74 2.5h34q37 0 74 -2.5t71.5 -19t65.5 -53.5t55 -107l368 -1050q19 -54 18 -91t-14.5 -59.5t-37.5 -32
t-52 -9.5q-37 0 -66 3t-52.5 17t-42.5 42.5t-35 79.5zM429 500h488l-215 636q-5 15 -9.5 23.5t-12.5 8.5h-14q-8 0 -12.5 -8.5t-9.5 -23.5zM806 1588q10 -22 3 -38.5t-25 -27.5t-43.5 -16.5t-52.5 -5.5q-25 0 -45.5 0.5t-38.5 6.5t-32.5 20t-27.5 41l-72 158q-11 23 -2 39.5
t28.5 27t47 15t54.5 4.5q25 0 44.5 -1t35 -7t28.5 -19t24 -37z" />
    <glyph glyph-name="macron" unicode="&#xaf;" horiz-adv-x="828" 
d="M634 1402q63 0 99.5 -24t36.5 -84q0 -34 -5.5 -56t-20 -35.5t-40.5 -19t-66 -5.5h-438q-41 0 -66.5 5.5t-40 19t-20 35.5t-5.5 56q0 60 36.5 84t99.5 24h430z" />
    <glyph glyph-name="Amacron" unicode="&#x100;" horiz-adv-x="1357" 
d="M992 276h-639l-49 -146q-17 -51 -36 -79.5t-42.5 -42.5t-52 -17t-65.5 -3q-28 0 -52 9.5t-37.5 32t-14.5 59.5t18 91l368 1050q24 70 55 107t65.5 53.5t71.5 19t74 2.5h34q37 0 74 -2.5t71.5 -19t65.5 -53.5t55 -107l368 -1050q19 -54 18 -91t-14.5 -59.5t-37.5 -32
t-52 -9.5q-37 0 -66 3t-52.5 17t-42.5 42.5t-35 79.5zM429 500h488l-215 636q-5 15 -9.5 23.5t-12.5 8.5h-14q-8 0 -12.5 -8.5t-9.5 -23.5zM958 1720q63 0 99.5 -24t36.5 -84q0 -34 -5.5 -56t-20 -35.5t-40.5 -19t-66 -5.5h-568q-41 0 -66.5 5.5t-40 19t-20 35.5t-5.5 56
q0 60 36.5 84t99.5 24h560z" />
    <glyph glyph-name="eacute" unicode="&#xe9;" horiz-adv-x="1098" 
d="M826 424q-48 -11 -105.5 -20.5t-118.5 -17.5t-122.5 -14.5t-116.5 -11.5q2 -34 11 -61t29 -46t55 -29t90 -10q59 0 108.5 6t90 13.5t72 14t55.5 6.5q25 0 40.5 -8t24 -20.5t11 -28t2.5 -31.5q0 -45 -28 -78.5t-79.5 -55.5t-125.5 -33t-165 -11q-107 0 -182.5 15
t-127 44.5t-81 71.5t-45 96.5t-20 120.5t-4.5 142q0 121 16.5 220t66.5 168.5t142 107.5t243 38q97 0 178 -16.5t141 -53t96.5 -94.5t46.5 -140q6 -58 -0.5 -104t-29 -81.5t-63.5 -60t-105 -38.5zM598 798q-76 0 -121.5 -16t-70.5 -46.5t-33.5 -76t-9.5 -105.5
q37 3 81.5 7.5t88 9.5t83.5 10t70 11q46 9 62 30.5t16 47.5q0 34 -13.5 58.5t-36 40t-52.5 22.5t-64 7zM476 1338q11 24 24 37t28.5 19t35 7t44.5 1q27 0 54.5 -4.5t47 -15t28 -27t-1.5 -39.5l-72 -158q-13 -27 -27.5 -41t-32.5 -20t-38.5 -6.5t-45.5 -0.5q-27 0 -52.5 5.5
t-43.5 16.5t-25 27.5t3 38.5z" />
    <glyph glyph-name="emacron" unicode="&#x113;" horiz-adv-x="1098" 
d="M826 424q-48 -11 -105.5 -20.5t-118.5 -17.5t-122.5 -14.5t-116.5 -11.5q2 -34 11 -61t29 -46t55 -29t90 -10q59 0 108.5 6t90 13.5t72 14t55.5 6.5q25 0 40.5 -8t24 -20.5t11 -28t2.5 -31.5q0 -45 -28 -78.5t-79.5 -55.5t-125.5 -33t-165 -11q-107 0 -182.5 15
t-127 44.5t-81 71.5t-45 96.5t-20 120.5t-4.5 142q0 121 16.5 220t66.5 168.5t142 107.5t243 38q97 0 178 -16.5t141 -53t96.5 -94.5t46.5 -140q6 -58 -0.5 -104t-29 -81.5t-63.5 -60t-105 -38.5zM598 798q-76 0 -121.5 -16t-70.5 -46.5t-33.5 -76t-9.5 -105.5
q37 3 81.5 7.5t88 9.5t83.5 10t70 11q46 9 62 30.5t16 47.5q0 34 -13.5 58.5t-36 40t-52.5 22.5t-64 7zM856 1328q63 0 99.5 -24t36.5 -84q0 -34 -5.5 -56t-20 -35.5t-40.5 -19t-66 -5.5h-568q-41 0 -66.5 5.5t-40 19t-20 35.5t-5.5 56q0 60 36.5 84t99.5 24h560z" />
    <glyph glyph-name="caron" unicode="&#x2c7;" horiz-adv-x="776" 
d="M516 1382q42 33 64 48.5t40 15.5q28 -1 50.5 -20t34 -45t9 -53.5t-23.5 -43.5l-188 -144q-21 -15 -35 -24t-26 -13.5t-26 -5.5t-35 -1h-2q-20 0 -34.5 1.5t-28.5 6t-29.5 13.5t-35.5 23l-186 144q-21 16 -24 43t7.5 53.5t33 46t51.5 19.5q19 0 40.5 -16.5t63.5 -47.5
l106 -96q8 -6 16 -9t14 -3q8 0 19.5 2t20.5 10z" />
    <glyph glyph-name="circumflex" unicode="&#x2c6;" horiz-adv-x="768" 
d="M412 1256q-9 8 -20.5 10t-19.5 2q-6 0 -14 -3t-16 -9l-106 -96q-42 -32 -63.5 -48t-40.5 -16q-29 0 -51.5 19.5t-33 46t-7.5 53.5t24 43l186 144q20 14 35.5 23t29.5 13.5t28.5 6t34.5 1.5h2q21 0 35 -1.5t26 -6t26 -13t35 -23.5l188 -144q21 -17 23.5 -44t-9 -53
t-34 -45t-50.5 -20q-18 0 -40 15.5t-64 48.5z" />
    <glyph glyph-name="commaaccent" unicode="&#xf6c3;" horiz-adv-x="586" 
d="M202 1444q11 24 24 37t28.5 19t35 7t44.5 1q27 0 54.5 -4.5t47 -15t28 -27t-1.5 -39.5l-120 -248q-13 -27 -27.5 -41t-32.5 -20t-38.5 -6.5t-45.5 -0.5q-27 0 -52.5 5.5t-43.5 16.5t-25 27.5t3 38.5z" />
    <glyph glyph-name="undercommaaccent" horiz-adv-x="586" 
d="M242 614q11 24 24 37t28.5 19t35 7t44.5 1q27 0 54.5 -4.5t47 -15t28 -27t-1.5 -39.5l-160 -326q-13 -27 -27.5 -41t-32.5 -20t-38.5 -6.5t-45.5 -0.5q-27 0 -52.5 5.5t-43.5 16.5t-25 27.5t3 38.5z" />
    <glyph glyph-name="cedilla" unicode="&#xb8;" horiz-adv-x="794" 
d="M320 66h182v-116q50 -8 91.5 -28t71 -50t45.5 -70t16 -88q0 -127 -82.5 -187.5t-257.5 -60.5h-36q-13 0 -21 14.5t-11 36t-1.5 46.5t7 46.5t15 36t23.5 14.5h24q40 0 64.5 2t37 9.5t16.5 21.5t4 37t-8.5 37t-26 21.5t-44 9.5t-61.5 2h-4q-14 0 -29 11t-15 41v214z" />
    <glyph glyph-name="ogonek" unicode="&#x2db;" horiz-adv-x="794" 
d="M532 -24q-29 -25 -58.5 -50.5t-58.5 -51.5q-33 -27 -50.5 -55.5t-21.5 -52t4.5 -39.5t27.5 -20.5t48 6t65 41.5l18 14q10 9 22.5 2t25 -23t22.5 -38t15.5 -44t4.5 -40.5t-11 -26.5q-90 -76 -170.5 -97t-142.5 -3t-101.5 66.5t-47.5 112t20 134t101 131.5l185 156
q23 20 45 23t40 -5t30 -25t15.5 -37t-2.5 -41t-25 -37z" />
    <glyph glyph-name="ccedilla" unicode="&#xe7;" horiz-adv-x="1028" 
d="M550 -12q-107 0 -182.5 15t-127 44.5t-81 71.5t-45 96.5t-20 120.5t-4.5 142v38q0 76 4.5 142t20 120.5t45 96.5t81 71.5t127 44.5t182.5 15q91 0 165 -11t125.5 -33t79.5 -55.5t28 -78.5q0 -16 -2.5 -31.5t-11 -28t-24 -20.5t-40.5 -8q-24 0 -55.5 6t-72 13.5t-90 14
t-108.5 6.5q-55 0 -90.5 -6.5t-56.5 -29t-29 -66.5t-8 -118v-122q0 -56 3 -97.5t20.5 -70t55 -42.5t105.5 -14q69 0 124.5 7.5t99.5 16.5q32 6 57 11t45 5q25 0 40.5 -8t24 -20.5t11 -28t2.5 -31.5q0 -45 -28 -78.5t-79.5 -55.5t-125.5 -33t-165 -11zM447 66h182v-116
q50 -8 91.5 -28t71 -50t45.5 -70t16 -88q0 -127 -82.5 -187.5t-257.5 -60.5h-36q-13 0 -21 14.5t-11 36t-1.5 46.5t7 46.5t15 36t23.5 14.5h24q40 0 64.5 2t37 9.5t16.5 21.5t4 37t-8.5 37t-26 21.5t-44 9.5t-61.5 2h-4q-14 0 -29 11t-15 41v214z" />
    <glyph glyph-name="Acircumflex" unicode="&#xc2;" horiz-adv-x="1357" 
d="M992 276h-639l-49 -146q-17 -51 -36 -79.5t-42.5 -42.5t-52 -17t-65.5 -3q-28 0 -52 9.5t-37.5 32t-14.5 59.5t18 91l368 1050q24 70 55 107t65.5 53.5t71.5 19t74 2.5h34q37 0 74 -2.5t71.5 -19t65.5 -53.5t55 -107l368 -1050q19 -54 18 -91t-14.5 -59.5t-37.5 -32
t-52 -9.5q-37 0 -66 3t-52.5 17t-42.5 42.5t-35 79.5zM429 500h488l-215 636q-5 15 -9.5 23.5t-12.5 8.5h-14q-8 0 -12.5 -8.5t-9.5 -23.5zM712 1656q-9 8 -20.5 10t-19.5 2q-6 0 -14 -3t-16 -9l-106 -96q-42 -32 -63.5 -48t-40.5 -16q-29 0 -51.5 19.5t-33 46t-7.5 53.5
t24 43l186 144q20 14 35.5 23t29.5 13.5t28.5 6t34.5 1.5h2q21 0 35 -1.5t26 -6t26 -13t35 -23.5l188 -144q21 -17 23.5 -44t-9 -53t-34 -45t-50.5 -20q-18 0 -40 15.5t-64 48.5z" />
    <glyph glyph-name="Adieresis" unicode="&#xc4;" horiz-adv-x="1357" 
d="M992 276h-639l-49 -146q-17 -51 -36 -79.5t-42.5 -42.5t-52 -17t-65.5 -3q-28 0 -52 9.5t-37.5 32t-14.5 59.5t18 91l368 1050q24 70 55 107t65.5 53.5t71.5 19t74 2.5h34q37 0 74 -2.5t71.5 -19t65.5 -53.5t55 -107l368 -1050q19 -54 18 -91t-14.5 -59.5t-37.5 -32
t-52 -9.5q-37 0 -66 3t-52.5 17t-42.5 42.5t-35 79.5zM429 500h488l-215 636q-5 15 -9.5 23.5t-12.5 8.5h-14q-8 0 -12.5 -8.5t-9.5 -23.5zM354 1680q0 22 11 35.5t29 21t40.5 9.5t45.5 2q25 0 48.5 -2.5t41 -9.5t28 -20.5t10.5 -35.5v-122q0 -23 -11 -36t-29 -20.5
t-40.5 -9.5t-45.5 -2q-26 0 -49 2.5t-40.5 9.5t-28 20.5t-10.5 35.5v122zM750 1680q0 22 11 35.5t29 21t40.5 9.5t45.5 2q25 0 48.5 -2.5t41 -9.5t28 -20.5t10.5 -35.5v-122q0 -23 -11 -36t-29 -20.5t-40.5 -9.5t-45.5 -2q-26 0 -49 2.5t-40.5 9.5t-28 20.5t-10.5 35.5v122z
" />
    <glyph glyph-name="Aogonek" unicode="&#x104;" horiz-adv-x="1357" 
d="M992 276h-639l-49 -146q-17 -51 -36 -79.5t-42.5 -42.5t-52 -17t-65.5 -3q-28 0 -52 9.5t-37.5 32t-14.5 59.5t18 91l368 1050q24 70 55 107t65.5 53.5t71.5 19t74 2.5h34q37 0 74 -2.5t71.5 -19t65.5 -53.5t55 -107l368 -1050q19 -54 18 -91t-14.5 -59.5t-37.5 -32
t-52 -9.5q-37 0 -66 3t-52.5 17t-42.5 42.5t-35 79.5zM429 500h488l-215 636q-5 15 -9.5 23.5t-12.5 8.5h-14q-8 0 -12.5 -8.5t-9.5 -23.5zM1322 12q-29 -25 -58.5 -50.5t-58.5 -51.5q-33 -27 -50.5 -55.5t-21.5 -52t4.5 -39.5t27.5 -20.5t48 6t65 41.5l18 14q10 9 22.5 2
t25 -23t22.5 -38t15.5 -44t4.5 -40.5t-11 -26.5q-90 -76 -170.5 -97t-142.5 -3t-101.5 66.5t-47.5 112t20 134t101 131.5l185 156q23 20 45 23t40 -5t30 -25t15.5 -37t-2.5 -41t-25 -37z" />
    <glyph glyph-name="ring" unicode="&#x2da;" horiz-adv-x="648" 
d="M138 1288q0 54 14 86t37.5 49t54 22t64.5 5h2q34 0 65.5 -5t55.5 -22t38.5 -49t14.5 -86v-2q0 -54 -14.5 -86t-38.5 -48.5t-55.5 -21t-65.5 -4.5h-2q-34 0 -64.5 4.5t-54 21t-37.5 48.5t-14 86v2zM262 1286q0 -24 10.5 -28t33.5 -4h8q20 0 31 4t11 28v4q0 23 -11 27.5
t-31 4.5h-8q-23 0 -33.5 -4.5t-10.5 -27.5v-4z" />
    <glyph glyph-name="Aring" unicode="&#xc5;" horiz-adv-x="1357" 
d="M992 276h-639l-49 -146q-17 -51 -36 -79.5t-42.5 -42.5t-52 -17t-65.5 -3q-28 0 -52 9.5t-37.5 32t-14.5 59.5t18 91l368 1050q24 70 55 107t65.5 53.5t71.5 19t74 2.5h34q37 0 74 -2.5t71.5 -19t65.5 -53.5t55 -107l368 -1050q19 -54 18 -91t-14.5 -59.5t-37.5 -32
t-52 -9.5q-37 0 -66 3t-52.5 17t-42.5 42.5t-35 79.5zM429 500h488l-215 636q-5 15 -9.5 23.5t-12.5 8.5h-14q-8 0 -12.5 -8.5t-9.5 -23.5zM504 1688q0 54 14 86t37.5 49t54 22t64.5 5h2q34 0 65.5 -5t55.5 -22t38.5 -49t14.5 -86v-2q0 -54 -14.5 -86t-38.5 -48.5t-55.5 -21
t-65.5 -4.5h-2q-34 0 -64.5 4.5t-54 21t-37.5 48.5t-14 86v2zM628 1686q0 -24 10.5 -28t33.5 -4h8q20 0 31 4t11 28v4q0 23 -11 27.5t-31 4.5h-8q-23 0 -33.5 -4.5t-10.5 -27.5v-4z" />
    <glyph glyph-name="Atilde" unicode="&#xc3;" horiz-adv-x="1357" 
d="M992 276h-639l-49 -146q-17 -51 -36 -79.5t-42.5 -42.5t-52 -17t-65.5 -3q-28 0 -52 9.5t-37.5 32t-14.5 59.5t18 91l368 1050q24 70 55 107t65.5 53.5t71.5 19t74 2.5h34q37 0 74 -2.5t71.5 -19t65.5 -53.5t55 -107l368 -1050q19 -54 18 -91t-14.5 -59.5t-37.5 -32
t-52 -9.5q-37 0 -66 3t-52.5 17t-42.5 42.5t-35 79.5zM429 500h488l-215 636q-5 15 -9.5 23.5t-12.5 8.5h-14q-8 0 -12.5 -8.5t-9.5 -23.5zM750 1712q17 -17 30 -24t28 -2.5t34.5 21.5t51.5 49l8 10q10 9 27.5 6t36.5 -14.5t38 -28t32 -34.5t17 -34t-5 -25
q-68 -68 -127.5 -108.5t-113 -52.5t-102.5 5.5t-97 65.5q-17 17 -30.5 24t-28.5 2t-34.5 -23t-50.5 -49l-10 -8q-9 -10 -26.5 -6.5t-36.5 15t-38 28t-32 34t-17.5 33t4.5 24.5q68 68 127.5 109t113.5 53t103.5 -5t97.5 -65z" />
    <glyph glyph-name="Wacute" unicode="&#x1e82;" horiz-adv-x="1983" 
d="M974 1346q6 0 28.5 -0.5t53 -6t65 -16.5t65 -32.5t53 -54t29.5 -80.5l134 -902q3 -26 20 -26q9 0 13.5 8.5t6.5 17.5l200 1058q6 34 26.5 53.5t47.5 29.5t57.5 12.5t56.5 2.5q59 0 81 -33.5t13 -90.5l-208 -1110q-13 -68 -42.5 -106t-67.5 -56t-80.5 -22t-79.5 -4h-30
q-41 0 -87.5 8t-87.5 29t-71 57t-38 92l-138 916q-2 14 -8.5 16t-11.5 2t-11.5 -2t-8.5 -16l-138 -916q-8 -56 -38 -92t-71 -57t-87.5 -29t-87.5 -8h-30q-38 0 -80 4t-80 22t-67.5 56t-42.5 106l-208 1110q-9 57 13 90.5t81 33.5q26 0 56.5 -2.5t57.5 -12.5t47.5 -29.5
t26.5 -53.5l200 -1058q2 -9 6.5 -17.5t13.5 -8.5q17 0 20 26l134 902q7 48 29.5 80.5t53 54t65 32.5t65 16.5t52.5 6t29 0.5zM896 1738q11 24 24 37t28.5 19t35 7t44.5 1q27 0 54.5 -4.5t47 -15t28 -27t-1.5 -39.5l-72 -158q-13 -27 -27.5 -41t-32.5 -20t-38.5 -6.5
t-45.5 -0.5q-27 0 -52.5 5.5t-43.5 16.5t-25 27.5t3 38.5z" />
    <glyph glyph-name="Wcircumflex" unicode="&#x174;" horiz-adv-x="1983" 
d="M974 1346q6 0 28.5 -0.5t53 -6t65 -16.5t65 -32.5t53 -54t29.5 -80.5l134 -902q3 -26 20 -26q9 0 13.5 8.5t6.5 17.5l200 1058q6 34 26.5 53.5t47.5 29.5t57.5 12.5t56.5 2.5q59 0 81 -33.5t13 -90.5l-208 -1110q-13 -68 -42.5 -106t-67.5 -56t-80.5 -22t-79.5 -4h-30
q-41 0 -87.5 8t-87.5 29t-71 57t-38 92l-138 916q-2 14 -8.5 16t-11.5 2t-11.5 -2t-8.5 -16l-138 -916q-8 -56 -38 -92t-71 -57t-87.5 -29t-87.5 -8h-30q-38 0 -80 4t-80 22t-67.5 56t-42.5 106l-208 1110q-9 57 13 90.5t81 33.5q26 0 56.5 -2.5t57.5 -12.5t47.5 -29.5
t26.5 -53.5l200 -1058q2 -9 6.5 -17.5t13.5 -8.5q17 0 20 26l134 902q7 48 29.5 80.5t53 54t65 32.5t65 16.5t52.5 6t29 0.5zM1026 1571q-9 8 -20.5 10t-19.5 2q-6 0 -14 -3t-16 -9l-106 -96q-42 -32 -63.5 -48t-40.5 -16q-29 0 -51.5 19.5t-33 46t-7.5 53.5t24 43l186 144
q20 14 35.5 23t29.5 13.5t28.5 6t34.5 1.5h2q21 0 35 -1.5t26 -6t26 -13t35 -23.5l188 -144q21 -17 23.5 -44t-9 -53t-34 -45t-50.5 -20q-18 0 -40 15.5t-64 48.5z" />
    <glyph glyph-name="Wdieresis" unicode="&#x1e84;" horiz-adv-x="1983" 
d="M974 1346q6 0 28.5 -0.5t53 -6t65 -16.5t65 -32.5t53 -54t29.5 -80.5l134 -902q3 -26 20 -26q9 0 13.5 8.5t6.5 17.5l200 1058q6 34 26.5 53.5t47.5 29.5t57.5 12.5t56.5 2.5q59 0 81 -33.5t13 -90.5l-208 -1110q-13 -68 -42.5 -106t-67.5 -56t-80.5 -22t-79.5 -4h-30
q-41 0 -87.5 8t-87.5 29t-71 57t-38 92l-138 916q-2 14 -8.5 16t-11.5 2t-11.5 -2t-8.5 -16l-138 -916q-8 -56 -38 -92t-71 -57t-87.5 -29t-87.5 -8h-30q-38 0 -80 4t-80 22t-67.5 56t-42.5 106l-208 1110q-9 57 13 90.5t81 33.5q26 0 56.5 -2.5t57.5 -12.5t47.5 -29.5
t26.5 -53.5l200 -1058q2 -9 6.5 -17.5t13.5 -8.5q17 0 20 26l134 902q7 48 29.5 80.5t53 54t65 32.5t65 16.5t52.5 6t29 0.5zM651 1613q0 22 11 35.5t29 21t40.5 9.5t45.5 2q25 0 48.5 -2.5t41 -9.5t28 -20.5t10.5 -35.5v-122q0 -23 -11 -36t-29 -20.5t-40.5 -9.5t-45.5 -2
q-26 0 -49 2.5t-40.5 9.5t-28 20.5t-10.5 35.5v122zM1047 1613q0 22 11 35.5t29 21t40.5 9.5t45.5 2q25 0 48.5 -2.5t41 -9.5t28 -20.5t10.5 -35.5v-122q0 -23 -11 -36t-29 -20.5t-40.5 -9.5t-45.5 -2q-26 0 -49 2.5t-40.5 9.5t-28 20.5t-10.5 35.5v122z" />
    <glyph glyph-name="Wgrave" unicode="&#x1e80;" horiz-adv-x="1983" 
d="M974 1346q6 0 28.5 -0.5t53 -6t65 -16.5t65 -32.5t53 -54t29.5 -80.5l134 -902q3 -26 20 -26q9 0 13.5 8.5t6.5 17.5l200 1058q6 34 26.5 53.5t47.5 29.5t57.5 12.5t56.5 2.5q59 0 81 -33.5t13 -90.5l-208 -1110q-13 -68 -42.5 -106t-67.5 -56t-80.5 -22t-79.5 -4h-30
q-41 0 -87.5 8t-87.5 29t-71 57t-38 92l-138 916q-2 14 -8.5 16t-11.5 2t-11.5 -2t-8.5 -16l-138 -916q-8 -56 -38 -92t-71 -57t-87.5 -29t-87.5 -8h-30q-38 0 -80 4t-80 22t-67.5 56t-42.5 106l-208 1110q-9 57 13 90.5t81 33.5q26 0 56.5 -2.5t57.5 -12.5t47.5 -29.5
t26.5 -53.5l200 -1058q2 -9 6.5 -17.5t13.5 -8.5q17 0 20 26l134 902q7 48 29.5 80.5t53 54t65 32.5t65 16.5t52.5 6t29 0.5zM1066 1501q10 -22 3 -38.5t-25 -27.5t-43.5 -16.5t-52.5 -5.5q-25 0 -45.5 0.5t-38.5 6.5t-32.5 20t-27.5 41l-72 158q-11 23 -2 39.5t28.5 27
t47 15t54.5 4.5q25 0 44.5 -1t35 -7t28.5 -19t24 -37z" />
    <glyph glyph-name="breve" unicode="&#x2d8;" horiz-adv-x="616" 
d="M570 1358q0 -52 -11.5 -97.5t-42 -80t-83.5 -54.5t-136 -20t-134.5 20t-80 54.5t-38.5 80t-10 97.5v2q0 17 14.5 29t36 18t46.5 6.5t46.5 -5t36 -16t14.5 -26.5v-10q0 -17 4.5 -34.5t13.5 -31.5t22.5 -23t31.5 -9h2q19 0 32.5 9t22.5 23t13 31.5t4 34.5v10
q0 16 14.5 26.5t36.5 16t47 5t47 -6.5t36.5 -18t14.5 -29v-2z" />
    <glyph glyph-name="Abreve" unicode="&#x102;" horiz-adv-x="1357" 
d="M992 276h-639l-49 -146q-17 -51 -36 -79.5t-42.5 -42.5t-52 -17t-65.5 -3q-28 0 -52 9.5t-37.5 32t-14.5 59.5t18 91l368 1050q24 70 55 107t65.5 53.5t71.5 19t74 2.5h34q37 0 74 -2.5t71.5 -19t65.5 -53.5t55 -107l368 -1050q19 -54 18 -91t-14.5 -59.5t-37.5 -32
t-52 -9.5q-37 0 -66 3t-52.5 17t-42.5 42.5t-35 79.5zM429 500h488l-215 636q-5 15 -9.5 23.5t-12.5 8.5h-14q-8 0 -12.5 -8.5t-9.5 -23.5zM946 1758q0 -52 -11.5 -97.5t-42 -80t-83.5 -54.5t-136 -20t-134.5 20t-80 54.5t-38.5 80t-10 97.5v2q0 17 14.5 29t36 18t46.5 6.5
t46.5 -5t36 -16t14.5 -26.5v-10q0 -17 4.5 -34.5t13.5 -31.5t22.5 -23t31.5 -9h2q19 0 32.5 9t22.5 23t13 31.5t4 34.5v10q0 16 14.5 26.5t36.5 16t47 5t47 -6.5t36.5 -18t14.5 -29v-2z" />
    <glyph glyph-name="Cacute" unicode="&#x106;" horiz-adv-x="1266" 
d="M771 1412q103 0 186.5 -15t142 -43t90 -67.5t31.5 -88.5q0 -18 -6 -38t-18.5 -36.5t-33 -27t-48.5 -10.5q-25 0 -44.5 6t-40 15t-44.5 20t-56.5 20t-76.5 15t-104 6h-14q-111 0 -178.5 -25t-103.5 -78t-48 -136t-12 -199v-62q0 -116 12 -199t48 -135.5t103.5 -77
t178.5 -24.5h14q60 0 104 6t76.5 15t56.5 20t44.5 20t40 15t44.5 6q28 0 48.5 -11t33 -27.5t18.5 -36t6 -37.5q0 -49 -31.5 -88.5t-90 -67.5t-142 -43t-186.5 -15h-34q-143 0 -245 25.5t-171.5 72t-111 111.5t-63.5 144t-28.5 168.5t-6.5 186.5v6q0 96 6.5 186.5t28.5 169.5
t63.5 144t111 111.5t171.5 72.5t245 26h34v0zM693 1738q11 24 24 37t28.5 19t35 7t44.5 1q27 0 54.5 -4.5t47 -15t28 -27t-1.5 -39.5l-72 -158q-13 -27 -27.5 -41t-32.5 -20t-38.5 -6.5t-45.5 -0.5q-27 0 -52.5 5.5t-43.5 16.5t-25 27.5t3 38.5z" />
    <glyph glyph-name="Ccaron" unicode="&#x10c;" horiz-adv-x="1266" 
d="M771 1412q103 0 186.5 -15t142 -43t90 -67.5t31.5 -88.5q0 -18 -6 -38t-18.5 -36.5t-33 -27t-48.5 -10.5q-25 0 -44.5 6t-40 15t-44.5 20t-56.5 20t-76.5 15t-104 6h-14q-111 0 -178.5 -25t-103.5 -78t-48 -136t-12 -199v-62q0 -116 12 -199t48 -135.5t103.5 -77
t178.5 -24.5h14q60 0 104 6t76.5 15t56.5 20t44.5 20t40 15t44.5 6q28 0 48.5 -11t33 -27.5t18.5 -36t6 -37.5q0 -49 -31.5 -88.5t-90 -67.5t-142 -43t-186.5 -15h-34q-143 0 -245 25.5t-171.5 72t-111 111.5t-63.5 144t-28.5 168.5t-6.5 186.5v6q0 96 6.5 186.5t28.5 169.5
t63.5 144t111 111.5t171.5 72.5t245 26h34v0zM830 1782q42 33 64 48.5t40 15.5q28 -1 50.5 -20t34 -45t9 -53.5t-23.5 -43.5l-188 -144q-21 -15 -35 -24t-26 -13.5t-26 -5.5t-35 -1h-2q-20 0 -34.5 1.5t-28.5 6t-29.5 13.5t-35.5 23l-186 144q-21 16 -24 43t7.5 53.5t33 46
t51.5 19.5q19 0 40.5 -16.5t63.5 -47.5l106 -96q8 -6 16 -9t14 -3q8 0 19.5 2t20.5 10z" />
    <glyph glyph-name="Ccedilla" unicode="&#xc7;" horiz-adv-x="1266" 
d="M771 1412q103 0 186.5 -15t142 -43t90 -67.5t31.5 -88.5q0 -18 -6 -38t-18.5 -36.5t-33 -27t-48.5 -10.5q-25 0 -44.5 6t-40 15t-44.5 20t-56.5 20t-76.5 15t-104 6h-14q-111 0 -178.5 -25t-103.5 -78t-48 -136t-12 -199v-62q0 -116 12 -199t48 -135.5t103.5 -77
t178.5 -24.5h14q60 0 104 6t76.5 15t56.5 20t44.5 20t40 15t44.5 6q28 0 48.5 -11t33 -27.5t18.5 -36t6 -37.5q0 -49 -31.5 -88.5t-90 -67.5t-142 -43t-186.5 -15h-34q-143 0 -245 25.5t-171.5 72t-111 111.5t-63.5 144t-28.5 168.5t-6.5 186.5v6q0 96 6.5 186.5t28.5 169.5
t63.5 144t111 111.5t171.5 72.5t245 26h34v0zM571 66h182v-116q50 -8 91.5 -28t71 -50t45.5 -70t16 -88q0 -127 -82.5 -187.5t-257.5 -60.5h-36q-13 0 -21 14.5t-11 36t-1.5 46.5t7 46.5t15 36t23.5 14.5h24q40 0 64.5 2t37 9.5t16.5 21.5t4 37t-8.5 37t-26 21.5t-44 9.5
t-61.5 2h-4q-14 0 -29 11t-15 41v214z" />
    <glyph glyph-name="Ccircumflex" unicode="&#x108;" horiz-adv-x="1266" 
d="M771 1412q103 0 186.5 -15t142 -43t90 -67.5t31.5 -88.5q0 -18 -6 -38t-18.5 -36.5t-33 -27t-48.5 -10.5q-25 0 -44.5 6t-40 15t-44.5 20t-56.5 20t-76.5 15t-104 6h-14q-111 0 -178.5 -25t-103.5 -78t-48 -136t-12 -199v-62q0 -116 12 -199t48 -135.5t103.5 -77
t178.5 -24.5h14q60 0 104 6t76.5 15t56.5 20t44.5 20t40 15t44.5 6q28 0 48.5 -11t33 -27.5t18.5 -36t6 -37.5q0 -49 -31.5 -88.5t-90 -67.5t-142 -43t-186.5 -15h-34q-143 0 -245 25.5t-171.5 72t-111 111.5t-63.5 144t-28.5 168.5t-6.5 186.5v6q0 96 6.5 186.5t28.5 169.5
t63.5 144t111 111.5t171.5 72.5t245 26h34v0zM729 1656q-9 8 -20.5 10t-19.5 2q-6 0 -14 -3t-16 -9l-106 -96q-42 -32 -63.5 -48t-40.5 -16q-29 0 -51.5 19.5t-33 46t-7.5 53.5t24 43l186 144q20 14 35.5 23t29.5 13.5t28.5 6t34.5 1.5h2q21 0 35 -1.5t26 -6t26 -13
t35 -23.5l188 -144q21 -17 23.5 -44t-9 -53t-34 -45t-50.5 -20q-18 0 -40 15.5t-64 48.5z" />
    <glyph glyph-name="Cdotaccent" unicode="&#x10a;" horiz-adv-x="1266" 
d="M771 1412q103 0 186.5 -15t142 -43t90 -67.5t31.5 -88.5q0 -18 -6 -38t-18.5 -36.5t-33 -27t-48.5 -10.5q-25 0 -44.5 6t-40 15t-44.5 20t-56.5 20t-76.5 15t-104 6h-14q-111 0 -178.5 -25t-103.5 -78t-48 -136t-12 -199v-62q0 -116 12 -199t48 -135.5t103.5 -77
t178.5 -24.5h14q60 0 104 6t76.5 15t56.5 20t44.5 20t40 15t44.5 6q28 0 48.5 -11t33 -27.5t18.5 -36t6 -37.5q0 -49 -31.5 -88.5t-90 -67.5t-142 -43t-186.5 -15h-34q-143 0 -245 25.5t-171.5 72t-111 111.5t-63.5 144t-28.5 168.5t-6.5 186.5v6q0 96 6.5 186.5t28.5 169.5
t63.5 144t111 111.5t171.5 72.5t245 26h34v0zM571 1740q0 24 11.5 38t30.5 21.5t43 10t49 2.5q27 0 51.5 -2.5t43.5 -10t30 -22t11 -37.5v-130q0 -24 -11.5 -38.5t-30.5 -22t-43 -9.5t-49 -2q-27 0 -51.5 2.5t-43.5 10t-30 22t-11 37.5v130z" />
    <glyph glyph-name="tilde" unicode="&#x2dc;" horiz-adv-x="836" 
d="M484 1328q17 -17 30 -24t28 -2.5t34.5 21.5t51.5 49l8 10q10 9 27.5 6t36.5 -14.5t38 -28t32 -34.5t17 -34t-5 -25q-68 -68 -127.5 -108.5t-113 -52.5t-102.5 5.5t-97 65.5q-17 17 -30.5 24t-28.5 2t-34.5 -23t-50.5 -49l-10 -8q-9 -10 -26.5 -6.5t-36.5 15t-38 28
t-32 34t-17.5 33t4.5 24.5q68 68 127.5 109t113.5 53t103.5 -5t97.5 -65z" />
    <glyph glyph-name="Dcaron" unicode="&#x10e;" horiz-adv-x="1435" 
d="M282 0q-29 0 -54.5 2.5t-45 10t-31 22t-11.5 37.5v42v6v9v1151v6q0 8 1 11q3 15 10.5 33t24 33.5t42 26t64.5 10.5h410h3h3q143 0 245 -25t171.5 -70.5t111 -109t63.5 -141t28.5 -167t6.5 -185.5v-6q0 -96 -6.5 -185t-28.5 -166.5t-63.5 -140.5t-111.5 -108.5
t-172.5 -70.5t-245.5 -25h-4h-410zM692 1156h-270v-912q23 0 53.5 0.5t62 0.5t61 0.5t53 0.5h36.5t12 0h21q104 2 167 25.5t97.5 73.5t45.5 129.5t11 193.5v62q0 116 -12 197t-48 131.5t-103.5 73t-178.5 22.5h-8v2zM870 1782q42 33 64 48.5t40 15.5q28 -1 50.5 -20t34 -45
t9 -53.5t-23.5 -43.5l-188 -144q-21 -15 -35 -24t-26 -13.5t-26 -5.5t-35 -1h-2q-20 0 -34.5 1.5t-28.5 6t-29.5 13.5t-35.5 23l-186 144q-21 16 -24 43t7.5 53.5t33 46t51.5 19.5q19 0 40.5 -16.5t63.5 -47.5l106 -96q8 -6 16 -9t14 -3q8 0 19.5 2t20.5 10z" />
    <glyph glyph-name="Eacute" unicode="&#xc9;" horiz-adv-x="1252" 
d="M298 0h-15q-29 0 -54.5 2.5t-45 10t-31 22t-11.5 37.5v42v6v9v593v6v554q0 10 1 15q3 15 10.5 33t24 33.5t42 26t64.5 10.5h296.5h211.5h142t86.5 -0.5t45.5 -1t20 -0.5q18 -1 32.5 -11.5t24.5 -27t15.5 -37.5t5.5 -42q0 -50 -16.5 -76t-42 -36.5t-58 -11t-63.5 -0.5
h-560v-314h195h136.5h89t52.5 -0.5t27.5 -1t13.5 -0.5q18 -1 33.5 -10.5t27.5 -25.5t18.5 -37t6.5 -45q0 -32 -7.5 -55.5t-19.5 -38.5t-28 -22.5t-33 -7.5h-512v-354h560q31 0 63.5 -0.5t58 -11t42 -36.5t16.5 -76q0 -21 -5.5 -42t-15.5 -37.5t-24.5 -27t-32.5 -11.5
q-9 -1 -16.5 -1.5t-19.5 -0.5h-30.5h-49.5h-671zM672 1738q11 24 24 37t28.5 19t35 7t44.5 1q27 0 54.5 -4.5t47 -15t28 -27t-1.5 -39.5l-72 -158q-13 -27 -27.5 -41t-32.5 -20t-38.5 -6.5t-45.5 -0.5q-27 0 -52.5 5.5t-43.5 16.5t-25 27.5t3 38.5z" />
    <glyph glyph-name="Ebreve" unicode="&#x114;" horiz-adv-x="1252" 
d="M298 0h-15q-29 0 -54.5 2.5t-45 10t-31 22t-11.5 37.5v42v6v9v593v6v554q0 10 1 15q3 15 10.5 33t24 33.5t42 26t64.5 10.5h296.5h211.5h142t86.5 -0.5t45.5 -1t20 -0.5q18 -1 32.5 -11.5t24.5 -27t15.5 -37.5t5.5 -42q0 -50 -16.5 -76t-42 -36.5t-58 -11t-63.5 -0.5
h-560v-314h195h136.5h89t52.5 -0.5t27.5 -1t13.5 -0.5q18 -1 33.5 -10.5t27.5 -25.5t18.5 -37t6.5 -45q0 -32 -7.5 -55.5t-19.5 -38.5t-28 -22.5t-33 -7.5h-512v-354h560q31 0 63.5 -0.5t58 -11t42 -36.5t16.5 -76q0 -21 -5.5 -42t-15.5 -37.5t-24.5 -27t-32.5 -11.5
q-9 -1 -16.5 -1.5t-19.5 -0.5h-30.5h-49.5h-671zM951 1758q0 -52 -11.5 -97.5t-42 -80t-83.5 -54.5t-136 -20t-134.5 20t-80 54.5t-38.5 80t-10 97.5v2q0 17 14.5 29t36 18t46.5 6.5t46.5 -5t36 -16t14.5 -26.5v-10q0 -17 4.5 -34.5t13.5 -31.5t22.5 -23t31.5 -9h2
q19 0 32.5 9t22.5 23t13 31.5t4 34.5v10q0 16 14.5 26.5t36.5 16t47 5t47 -6.5t36.5 -18t14.5 -29v-2z" />
    <glyph glyph-name="Ecaron" unicode="&#x11a;" horiz-adv-x="1252" 
d="M298 0h-15q-29 0 -54.5 2.5t-45 10t-31 22t-11.5 37.5v42v6v9v593v6v554q0 10 1 15q3 15 10.5 33t24 33.5t42 26t64.5 10.5h296.5h211.5h142t86.5 -0.5t45.5 -1t20 -0.5q18 -1 32.5 -11.5t24.5 -27t15.5 -37.5t5.5 -42q0 -50 -16.5 -76t-42 -36.5t-58 -11t-63.5 -0.5
h-560v-314h195h136.5h89t52.5 -0.5t27.5 -1t13.5 -0.5q18 -1 33.5 -10.5t27.5 -25.5t18.5 -37t6.5 -45q0 -32 -7.5 -55.5t-19.5 -38.5t-28 -22.5t-33 -7.5h-512v-354h560q31 0 63.5 -0.5t58 -11t42 -36.5t16.5 -76q0 -21 -5.5 -42t-15.5 -37.5t-24.5 -27t-32.5 -11.5
q-9 -1 -16.5 -1.5t-19.5 -0.5h-30.5h-49.5h-671zM858 1782q42 33 64 48.5t40 15.5q28 -1 50.5 -20t34 -45t9 -53.5t-23.5 -43.5l-188 -144q-21 -15 -35 -24t-26 -13.5t-26 -5.5t-35 -1h-2q-20 0 -34.5 1.5t-28.5 6t-29.5 13.5t-35.5 23l-186 144q-21 16 -24 43t7.5 53.5
t33 46t51.5 19.5q19 0 40.5 -16.5t63.5 -47.5l106 -96q8 -6 16 -9t14 -3q8 0 19.5 2t20.5 10z" />
    <glyph glyph-name="Ecircumflex" unicode="&#xca;" horiz-adv-x="1252" 
d="M298 0h-15q-29 0 -54.5 2.5t-45 10t-31 22t-11.5 37.5v42v6v9v593v6v554q0 10 1 15q3 15 10.5 33t24 33.5t42 26t64.5 10.5h296.5h211.5h142t86.5 -0.5t45.5 -1t20 -0.5q18 -1 32.5 -11.5t24.5 -27t15.5 -37.5t5.5 -42q0 -50 -16.5 -76t-42 -36.5t-58 -11t-63.5 -0.5
h-560v-314h195h136.5h89t52.5 -0.5t27.5 -1t13.5 -0.5q18 -1 33.5 -10.5t27.5 -25.5t18.5 -37t6.5 -45q0 -32 -7.5 -55.5t-19.5 -38.5t-28 -22.5t-33 -7.5h-512v-354h560q31 0 63.5 -0.5t58 -11t42 -36.5t16.5 -76q0 -21 -5.5 -42t-15.5 -37.5t-24.5 -27t-32.5 -11.5
q-9 -1 -16.5 -1.5t-19.5 -0.5h-30.5h-49.5h-671zM727 1656q-9 8 -20.5 10t-19.5 2q-6 0 -14 -3t-16 -9l-106 -96q-42 -32 -63.5 -48t-40.5 -16q-29 0 -51.5 19.5t-33 46t-7.5 53.5t24 43l186 144q20 14 35.5 23t29.5 13.5t28.5 6t34.5 1.5h2q21 0 35 -1.5t26 -6t26 -13
t35 -23.5l188 -144q21 -17 23.5 -44t-9 -53t-34 -45t-50.5 -20q-18 0 -40 15.5t-64 48.5z" />
    <glyph glyph-name="Edotaccent" unicode="&#x116;" horiz-adv-x="1252" 
d="M298 0h-15q-29 0 -54.5 2.5t-45 10t-31 22t-11.5 37.5v42v6v9v593v6v554q0 10 1 15q3 15 10.5 33t24 33.5t42 26t64.5 10.5h296.5h211.5h142t86.5 -0.5t45.5 -1t20 -0.5q18 -1 32.5 -11.5t24.5 -27t15.5 -37.5t5.5 -42q0 -50 -16.5 -76t-42 -36.5t-58 -11t-63.5 -0.5
h-560v-314h195h136.5h89t52.5 -0.5t27.5 -1t13.5 -0.5q18 -1 33.5 -10.5t27.5 -25.5t18.5 -37t6.5 -45q0 -32 -7.5 -55.5t-19.5 -38.5t-28 -22.5t-33 -7.5h-512v-354h560q31 0 63.5 -0.5t58 -11t42 -36.5t16.5 -76q0 -21 -5.5 -42t-15.5 -37.5t-24.5 -27t-32.5 -11.5
q-9 -1 -16.5 -1.5t-19.5 -0.5h-30.5h-49.5h-671zM568 1696q0 24 11.5 38t30.5 21.5t43 10t49 2.5q27 0 51.5 -2.5t43.5 -10t30 -22t11 -37.5v-130q0 -24 -11.5 -38.5t-30.5 -22t-43 -9.5t-49 -2q-27 0 -51.5 2.5t-43.5 10t-30 22t-11 37.5v130z" />
    <glyph glyph-name="Egrave" unicode="&#xc8;" horiz-adv-x="1252" 
d="M298 0h-15q-29 0 -54.5 2.5t-45 10t-31 22t-11.5 37.5v42v6v9v593v6v554q0 10 1 15q3 15 10.5 33t24 33.5t42 26t64.5 10.5h296.5h211.5h142t86.5 -0.5t45.5 -1t20 -0.5q18 -1 32.5 -11.5t24.5 -27t15.5 -37.5t5.5 -42q0 -50 -16.5 -76t-42 -36.5t-58 -11t-63.5 -0.5
h-560v-314h195h136.5h89t52.5 -0.5t27.5 -1t13.5 -0.5q18 -1 33.5 -10.5t27.5 -25.5t18.5 -37t6.5 -45q0 -32 -7.5 -55.5t-19.5 -38.5t-28 -22.5t-33 -7.5h-512v-354h560q31 0 63.5 -0.5t58 -11t42 -36.5t16.5 -76q0 -21 -5.5 -42t-15.5 -37.5t-24.5 -27t-32.5 -11.5
q-9 -1 -16.5 -1.5t-19.5 -0.5h-30.5h-49.5h-671zM793 1588q10 -22 3 -38.5t-25 -27.5t-43.5 -16.5t-52.5 -5.5q-25 0 -45.5 0.5t-38.5 6.5t-32.5 20t-27.5 41l-72 158q-11 23 -2 39.5t28.5 27t47 15t54.5 4.5q25 0 44.5 -1t35 -7t28.5 -19t24 -37z" />
    <glyph glyph-name="Emacron" unicode="&#x112;" horiz-adv-x="1252" 
d="M298 0h-15q-29 0 -54.5 2.5t-45 10t-31 22t-11.5 37.5v42v6v9v593v6v554q0 10 1 15q3 15 10.5 33t24 33.5t42 26t64.5 10.5h296.5h211.5h142t86.5 -0.5t45.5 -1t20 -0.5q18 -1 32.5 -11.5t24.5 -27t15.5 -37.5t5.5 -42q0 -50 -16.5 -76t-42 -36.5t-58 -11t-63.5 -0.5
h-560v-314h195h136.5h89t52.5 -0.5t27.5 -1t13.5 -0.5q18 -1 33.5 -10.5t27.5 -25.5t18.5 -37t6.5 -45q0 -32 -7.5 -55.5t-19.5 -38.5t-28 -22.5t-33 -7.5h-512v-354h560q31 0 63.5 -0.5t58 -11t42 -36.5t16.5 -76q0 -21 -5.5 -42t-15.5 -37.5t-24.5 -27t-32.5 -11.5
q-9 -1 -16.5 -1.5t-19.5 -0.5h-30.5h-49.5h-671zM961 1751q63 0 99.5 -24t36.5 -84q0 -34 -5.5 -56t-20 -35.5t-40.5 -19t-66 -5.5h-568q-41 0 -66.5 5.5t-40 19t-20 35.5t-5.5 56q0 60 36.5 84t99.5 24h560z" />
    <glyph glyph-name="Eogonek" unicode="&#x118;" horiz-adv-x="1252" 
d="M298 0h-15q-29 0 -54.5 2.5t-45 10t-31 22t-11.5 37.5v42v6v9v593v6v554q0 10 1 15q3 15 10.5 33t24 33.5t42 26t64.5 10.5h296.5h211.5h142t86.5 -0.5t45.5 -1t20 -0.5q18 -1 32.5 -11.5t24.5 -27t15.5 -37.5t5.5 -42q0 -50 -16.5 -76t-42 -36.5t-58 -11t-63.5 -0.5
h-560v-314h195h136.5h89t52.5 -0.5t27.5 -1t13.5 -0.5q18 -1 33.5 -10.5t27.5 -25.5t18.5 -37t6.5 -45q0 -32 -7.5 -55.5t-19.5 -38.5t-28 -22.5t-33 -7.5h-512v-354h560q31 0 63.5 -0.5t58 -11t42 -36.5t16.5 -76q0 -21 -5.5 -42t-15.5 -37.5t-24.5 -27t-32.5 -11.5
q-9 -1 -16.5 -1.5t-19.5 -0.5h-30.5h-49.5h-671zM1153 9q-29 -25 -58.5 -50.5t-58.5 -51.5q-33 -27 -50.5 -55.5t-21.5 -52t4.5 -39.5t27.5 -20.5t48 6t65 41.5l18 14q10 9 22.5 2t25 -23t22.5 -38t15.5 -44t4.5 -40.5t-11 -26.5q-90 -76 -170.5 -97t-142.5 -3t-101.5 66.5
t-47.5 112t20 134t101 131.5l185 156q23 20 45 23t40 -5t30 -25t15.5 -37t-2.5 -41t-25 -37z" />
    <glyph glyph-name="Gbreve" unicode="&#x11e;" horiz-adv-x="1386" 
d="M762 1412q103 0 186.5 -15t142 -43t90 -67.5t31.5 -88.5q0 -18 -6 -38t-18.5 -36.5t-33 -27t-48.5 -10.5q-25 0 -44.5 6t-40 15t-44.5 20t-56.5 20t-76.5 15t-104 6h-14q-111 0 -178.5 -25t-103.5 -78t-48 -136t-12 -199v-62q0 -116 12 -199t48 -135.5t103.5 -77
t178.5 -24.5h6q56 0 105.5 5t86 13t57.5 17.5t21 18.5v358q0 25 12 39.5t31.5 22t43.5 10t49 2.5q28 0 53 -2.5t44 -10.5t30 -22.5t11 -38.5v-464q0 -33 -26 -60.5t-69 -49.5t-98.5 -38t-115.5 -26.5t-120 -15t-111 -2.5h-2h-6q-143 0 -245 25.5t-171.5 72t-111 111.5
t-63.5 144t-28.5 168.5t-6.5 186.5v6q0 96 6.5 186.5t28.5 169.5t63.5 144t111 111.5t171.5 72.5t245 26h34v0zM968 1758q0 -52 -11.5 -97.5t-42 -80t-83.5 -54.5t-136 -20t-134.5 20t-80 54.5t-38.5 80t-10 97.5v2q0 17 14.5 29t36 18t46.5 6.5t46.5 -5t36 -16t14.5 -26.5
v-10q0 -17 4.5 -34.5t13.5 -31.5t22.5 -23t31.5 -9h2q19 0 32.5 9t22.5 23t13 31.5t4 34.5v10q0 16 14.5 26.5t36.5 16t47 5t47 -6.5t36.5 -18t14.5 -29v-2z" />
    <glyph glyph-name="Gcircumflex" unicode="&#x11c;" horiz-adv-x="1386" 
d="M762 1412q103 0 186.5 -15t142 -43t90 -67.5t31.5 -88.5q0 -18 -6 -38t-18.5 -36.5t-33 -27t-48.5 -10.5q-25 0 -44.5 6t-40 15t-44.5 20t-56.5 20t-76.5 15t-104 6h-14q-111 0 -178.5 -25t-103.5 -78t-48 -136t-12 -199v-62q0 -116 12 -199t48 -135.5t103.5 -77
t178.5 -24.5h6q56 0 105.5 5t86 13t57.5 17.5t21 18.5v358q0 25 12 39.5t31.5 22t43.5 10t49 2.5q28 0 53 -2.5t44 -10.5t30 -22.5t11 -38.5v-464q0 -33 -26 -60.5t-69 -49.5t-98.5 -38t-115.5 -26.5t-120 -15t-111 -2.5h-2h-6q-143 0 -245 25.5t-171.5 72t-111 111.5
t-63.5 144t-28.5 168.5t-6.5 186.5v6q0 96 6.5 186.5t28.5 169.5t63.5 144t111 111.5t171.5 72.5t245 26h34v0zM769 1656q-9 8 -20.5 10t-19.5 2q-6 0 -14 -3t-16 -9l-106 -96q-42 -32 -63.5 -48t-40.5 -16q-29 0 -51.5 19.5t-33 46t-7.5 53.5t24 43l186 144q20 14 35.5 23
t29.5 13.5t28.5 6t34.5 1.5h2q21 0 35 -1.5t26 -6t26 -13t35 -23.5l188 -144q21 -17 23.5 -44t-9 -53t-34 -45t-50.5 -20q-18 0 -40 15.5t-64 48.5z" />
    <glyph glyph-name="Gdotaccent" unicode="&#x120;" horiz-adv-x="1386" 
d="M762 1412q103 0 186.5 -15t142 -43t90 -67.5t31.5 -88.5q0 -18 -6 -38t-18.5 -36.5t-33 -27t-48.5 -10.5q-25 0 -44.5 6t-40 15t-44.5 20t-56.5 20t-76.5 15t-104 6h-14q-111 0 -178.5 -25t-103.5 -78t-48 -136t-12 -199v-62q0 -116 12 -199t48 -135.5t103.5 -77
t178.5 -24.5h6q56 0 105.5 5t86 13t57.5 17.5t21 18.5v358q0 25 12 39.5t31.5 22t43.5 10t49 2.5q28 0 53 -2.5t44 -10.5t30 -22.5t11 -38.5v-464q0 -33 -26 -60.5t-69 -49.5t-98.5 -38t-115.5 -26.5t-120 -15t-111 -2.5h-2h-6q-143 0 -245 25.5t-171.5 72t-111 111.5
t-63.5 144t-28.5 168.5t-6.5 186.5v6q0 96 6.5 186.5t28.5 169.5t63.5 144t111 111.5t171.5 72.5t245 26h34v0zM599 1709q0 24 11.5 38t30.5 21.5t43 10t49 2.5q27 0 51.5 -2.5t43.5 -10t30 -22t11 -37.5v-130q0 -24 -11.5 -38.5t-30.5 -22t-43 -9.5t-49 -2q-27 0 -51.5 2.5
t-43.5 10t-30 22t-11 37.5v130z" />
    <glyph glyph-name="Hbar" unicode="&#x126;" horiz-adv-x="1493" 
d="M422 822h296h193t110 -0.5t47 -1.5v496q0 22 15.5 40t40 30.5t55 19t59.5 6.5q58 0 85 -17t27 -71v-1264q0 -24 -8 -38.5t-22.5 -22t-35.5 -9.5t-46 -2q-29 0 -59 4t-54.5 13t-40.5 24.5t-16 38.5v510h-646v-510q0 -24 -16.5 -39.5t-42 -24.5t-55 -12.5t-54.5 -3.5
q-29 0 -50 2.5t-35.5 10t-21.5 22t-7 37.5v1264q0 45 27.5 66.5t86.5 21.5q29 0 59 -5t54 -16t39.5 -29.5t15.5 -45.5v-494zM1048 1742q63 0 99.5 -24t36.5 -84q0 -34 -5.5 -56t-20 -35.5t-40.5 -19t-66 -5.5h-568q-41 0 -66.5 5.5t-40 19t-20 35.5t-5.5 56q0 60 36.5 84
t99.5 24h560z" />
    <glyph glyph-name="Hcircumflex" unicode="&#x124;" horiz-adv-x="1493" 
d="M422 822h296h193t110 -0.5t47 -1.5v496q0 22 15.5 40t40 30.5t55 19t59.5 6.5q58 0 85 -17t27 -71v-1264q0 -24 -8 -38.5t-22.5 -22t-35.5 -9.5t-46 -2q-29 0 -59 4t-54.5 13t-40.5 24.5t-16 38.5v510h-646v-510q0 -24 -16.5 -39.5t-42 -24.5t-55 -12.5t-54.5 -3.5
q-29 0 -50 2.5t-35.5 10t-21.5 22t-7 37.5v1264q0 45 27.5 66.5t86.5 21.5q29 0 59 -5t54 -16t39.5 -29.5t15.5 -45.5v-494zM798 1656q-9 8 -20.5 10t-19.5 2q-6 0 -14 -3t-16 -9l-106 -96q-42 -32 -63.5 -48t-40.5 -16q-29 0 -51.5 19.5t-33 46t-7.5 53.5t24 43l186 144
q20 14 35.5 23t29.5 13.5t28.5 6t34.5 1.5h2q21 0 35 -1.5t26 -6t26 -13t35 -23.5l188 -144q21 -17 23.5 -44t-9 -53t-34 -45t-50.5 -20q-18 0 -40 15.5t-64 48.5z" />
    <glyph glyph-name="Iacute" unicode="&#xcd;" horiz-adv-x="568" 
d="M423 60q0 -24 -12.5 -38.5t-32 -22t-45 -9.5t-50.5 -2q-29 0 -54.5 2.5t-45 10t-31 22t-11.5 37.5v1264q0 22 11 39t30.5 27.5t45.5 16t55 5.5t54.5 -3.5t44.5 -13.5t30 -27t11 -44v-1264zM254 1738q11 24 24 37t28.5 19t35 7t44.5 1q27 0 54.5 -4.5t47 -15t28 -27
t-1.5 -39.5l-72 -158q-13 -27 -27.5 -41t-32.5 -20t-38.5 -6.5t-45.5 -0.5q-27 0 -52.5 5.5t-43.5 16.5t-25 27.5t3 38.5z" />
    <glyph glyph-name="Ibreve" unicode="&#x12c;" horiz-adv-x="568" 
d="M423 60q0 -24 -12.5 -38.5t-32 -22t-45 -9.5t-50.5 -2q-29 0 -54.5 2.5t-45 10t-31 22t-11.5 37.5v1264q0 22 11 39t30.5 27.5t45.5 16t55 5.5t54.5 -3.5t44.5 -13.5t30 -27t11 -44v-1264zM567 1758q0 -52 -11.5 -97.5t-42 -80t-83.5 -54.5t-136 -20t-134.5 20t-80 54.5
t-38.5 80t-10 97.5v2q0 17 14.5 29t36 18t46.5 6.5t46.5 -5t36 -16t14.5 -26.5v-10q0 -17 4.5 -34.5t13.5 -31.5t22.5 -23t31.5 -9h2q19 0 32.5 9t22.5 23t13 31.5t4 34.5v10q0 16 14.5 26.5t36.5 16t47 5t47 -6.5t36.5 -18t14.5 -29v-2z" />
    <glyph glyph-name="Icircumflex" unicode="&#xce;" horiz-adv-x="568" 
d="M423 60q0 -24 -12.5 -38.5t-32 -22t-45 -9.5t-50.5 -2q-29 0 -54.5 2.5t-45 10t-31 22t-11.5 37.5v1264q0 22 11 39t30.5 27.5t45.5 16t55 5.5t54.5 -3.5t44.5 -13.5t30 -27t11 -44v-1264zM335 1656q-9 8 -20.5 10t-19.5 2q-6 0 -14 -3t-16 -9l-106 -96
q-42 -32 -63.5 -48t-40.5 -16q-29 0 -51.5 19.5t-33 46t-7.5 53.5t24 43l186 144q20 14 35.5 23t29.5 13.5t28.5 6t34.5 1.5h2q21 0 35 -1.5t26 -6t26 -13t35 -23.5l188 -144q21 -17 23.5 -44t-9 -53t-34 -45t-50.5 -20q-18 0 -40 15.5t-64 48.5z" />
    <glyph glyph-name="Idotaccent" unicode="&#x130;" horiz-adv-x="568" 
d="M423 60q0 -24 -12.5 -38.5t-32 -22t-45 -9.5t-50.5 -2q-29 0 -54.5 2.5t-45 10t-31 22t-11.5 37.5v1264q0 22 11 39t30.5 27.5t45.5 16t55 5.5t54.5 -3.5t44.5 -13.5t30 -27t11 -44v-1264zM162 1700q0 24 11.5 38t30.5 21.5t43 10t49 2.5q27 0 51.5 -2.5t43.5 -10t30 -22
t11 -37.5v-130q0 -24 -11.5 -38.5t-30.5 -22t-43 -9.5t-49 -2q-27 0 -51.5 2.5t-43.5 10t-30 22t-11 37.5v130z" />
    <glyph glyph-name="Igrave" unicode="&#xcc;" horiz-adv-x="568" 
d="M423 60q0 -24 -12.5 -38.5t-32 -22t-45 -9.5t-50.5 -2q-29 0 -54.5 2.5t-45 10t-31 22t-11.5 37.5v1264q0 22 11 39t30.5 27.5t45.5 16t55 5.5t54.5 -3.5t44.5 -13.5t30 -27t11 -44v-1264zM407 1588q10 -22 3 -38.5t-25 -27.5t-43.5 -16.5t-52.5 -5.5q-25 0 -45.5 0.5
t-38.5 6.5t-32.5 20t-27.5 41l-72 158q-11 23 -2 39.5t28.5 27t47 15t54.5 4.5q25 0 44.5 -1t35 -7t28.5 -19t24 -37z" />
    <glyph glyph-name="Imacron" unicode="&#x12a;" horiz-adv-x="568" 
d="M423 60q0 -24 -12.5 -38.5t-32 -22t-45 -9.5t-50.5 -2q-29 0 -54.5 2.5t-45 10t-31 22t-11.5 37.5v1264q0 22 11 39t30.5 27.5t45.5 16t55 5.5t54.5 -3.5t44.5 -13.5t30 -27t11 -44v-1264zM581 1734q63 0 99.5 -24t36.5 -84q0 -34 -5.5 -56t-20 -35.5t-40.5 -19t-66 -5.5
h-568q-41 0 -66.5 5.5t-40 19t-20 35.5t-5.5 56q0 60 36.5 84t99.5 24h560z" />
    <glyph glyph-name="Iogonek" unicode="&#x12e;" horiz-adv-x="596" 
d="M423 60q0 -24 -12.5 -38.5t-32 -22t-45 -9.5t-50.5 -2q-29 0 -54.5 2.5t-45 10t-31 22t-11.5 37.5v1264q0 22 11 39t30.5 27.5t45.5 16t55 5.5t54.5 -3.5t44.5 -13.5t30 -27t11 -44v-1264zM412 0q-29 -25 -58.5 -50.5t-58.5 -51.5q-33 -27 -50.5 -55.5t-21.5 -52
t4.5 -39.5t27.5 -20.5t48 6t65 41.5l18 14q10 9 22.5 2t25 -23t22.5 -38t15.5 -44t4.5 -40.5t-11 -26.5q-90 -76 -170.5 -97t-142.5 -3t-101.5 66.5t-47.5 112t20 134t101 131.5l185 156q23 20 45 23t40 -5t30 -25t15.5 -37t-2.5 -41t-25 -37z" />
    <glyph glyph-name="Itilde" unicode="&#x128;" horiz-adv-x="568" 
d="M423 60q0 -24 -12.5 -38.5t-32 -22t-45 -9.5t-50.5 -2q-29 0 -54.5 2.5t-45 10t-31 22t-11.5 37.5v1264q0 22 11 39t30.5 27.5t45.5 16t55 5.5t54.5 -3.5t44.5 -13.5t30 -27t11 -44v-1264zM371 1748q17 -17 30 -24t28 -2.5t34.5 21.5t51.5 49l8 10q10 9 27.5 6
t36.5 -14.5t38 -28t32 -34.5t17 -34t-5 -25q-68 -68 -127.5 -108.5t-113 -52.5t-102.5 5.5t-97 65.5q-17 17 -30.5 24t-28.5 2t-34.5 -23t-50.5 -49l-10 -8q-9 -10 -26.5 -6.5t-36.5 15t-38 28t-32 34t-17.5 33t4.5 24.5q68 68 127.5 109t113.5 53t103.5 -5t97.5 -65z" />
    <glyph glyph-name="IJ" unicode="&#x132;" horiz-adv-x="1380" 
d="M423 60q0 -24 -12.5 -38.5t-32 -22t-45 -9.5t-50.5 -2q-29 0 -54.5 2.5t-45 10t-31 22t-11.5 37.5v1264q0 22 11 39t30.5 27.5t45.5 16t55 5.5t54.5 -3.5t44.5 -13.5t30 -27t11 -44v-1264zM686 -12q-14 0 -35 2.5t-40.5 14t-33 35.5t-13.5 68q0 40 10.5 64t27.5 37.5
t39 18t45 4.5h8q111 0 169 24.5t83 77t27.5 135.5t2.5 199v636q0 29 14 49.5t36.5 33.5t51.5 19t58 6q59 0 90.5 -21.5t31.5 -66.5v-630v-5q0 -96 -2.5 -185t-18 -167t-49.5 -142t-97 -110t-160 -71.5t-239 -25.5h-6z" />
    <glyph glyph-name="Tbar" unicode="&#x166;" horiz-adv-x="1284" 
d="M1152 1400q32 0 50 -6t26.5 -20t10 -37.5t1.5 -58.5q0 -45 -13 -69.5t-31 -35.5t-36 -13t-28 -2h-358v-1098q0 -24 -12.5 -38.5t-32 -22t-45 -9.5t-50.5 -2q-29 0 -54.5 2.5t-45 10t-31 22t-11.5 37.5v1098h-346q-10 0 -27 3.5t-33.5 16t-29 36t-12.5 64.5q0 39 2.5 63
t11.5 37t25 17.5t43 4.5h1026zM926 1716q63 0 99.5 -24t36.5 -84q0 -34 -5.5 -56t-20 -35.5t-40.5 -19t-66 -5.5h-568q-41 0 -66.5 5.5t-40 19t-20 35.5t-5.5 56q0 60 36.5 84t99.5 24h560z" />
    <glyph glyph-name="Sacute" unicode="&#x15a;" horiz-adv-x="1278" 
d="M350 1038q0 -53 34.5 -87t91 -57.5t130 -40.5t151 -37t154 -47t139 -70.5t105.5 -106.5t55 -156q5 -42 -2 -92t-31.5 -99.5t-69 -96t-114 -82t-168 -57t-229.5 -21.5q-112 0 -204.5 10t-162 32.5t-113.5 58.5t-58 87q-8 30 0.5 51.5t25.5 35t39 18.5t41 3q41 -5 83 -16.5
t90.5 -23.5t106.5 -21.5t132 -10.5q83 -1 147.5 13.5t108 40.5t66 62t22.5 80q0 48 -36.5 80t-96.5 55t-136.5 41t-157 38.5t-157.5 47t-138 66t-99.5 95.5t-40.5 137q-2 82 26 159t87.5 137.5t150.5 99.5t216 44q23 1 75.5 1.5t118 -4.5t135 -17t127.5 -37t95 -64.5
t37 -98.5q0 -18 -3.5 -33.5t-14.5 -26t-30.5 -15.5t-51.5 -3q-39 3 -93 11t-115.5 16.5t-127 15.5t-128.5 7q-40 0 -78 -6.5t-68 -21t-48 -37.5t-18 -57zM556 1738q11 24 24 37t28.5 19t35 7t44.5 1q27 0 54.5 -4.5t47 -15t28 -27t-1.5 -39.5l-72 -158q-13 -27 -27.5 -41
t-32.5 -20t-38.5 -6.5t-45.5 -0.5q-27 0 -52.5 5.5t-43.5 16.5t-25 27.5t3 38.5z" />
    <glyph glyph-name="Scaron" unicode="&#x160;" horiz-adv-x="1278" 
d="M350 1038q0 -53 34.5 -87t91 -57.5t130 -40.5t151 -37t154 -47t139 -70.5t105.5 -106.5t55 -156q5 -42 -2 -92t-31.5 -99.5t-69 -96t-114 -82t-168 -57t-229.5 -21.5q-112 0 -204.5 10t-162 32.5t-113.5 58.5t-58 87q-8 30 0.5 51.5t25.5 35t39 18.5t41 3q41 -5 83 -16.5
t90.5 -23.5t106.5 -21.5t132 -10.5q83 -1 147.5 13.5t108 40.5t66 62t22.5 80q0 48 -36.5 80t-96.5 55t-136.5 41t-157 38.5t-157.5 47t-138 66t-99.5 95.5t-40.5 137q-2 82 26 159t87.5 137.5t150.5 99.5t216 44q23 1 75.5 1.5t118 -4.5t135 -17t127.5 -37t95 -64.5
t37 -98.5q0 -18 -3.5 -33.5t-14.5 -26t-30.5 -15.5t-51.5 -3q-39 3 -93 11t-115.5 16.5t-127 15.5t-128.5 7q-40 0 -78 -6.5t-68 -21t-48 -37.5t-18 -57zM788 1782q42 33 64 48.5t40 15.5q28 -1 50.5 -20t34 -45t9 -53.5t-23.5 -43.5l-188 -144q-21 -15 -35 -24t-26 -13.5
t-26 -5.5t-35 -1h-2q-20 0 -34.5 1.5t-28.5 6t-29.5 13.5t-35.5 23l-186 144q-21 16 -24 43t7.5 53.5t33 46t51.5 19.5q19 0 40.5 -16.5t63.5 -47.5l106 -96q8 -6 16 -9t14 -3q8 0 19.5 2t20.5 10z" />
    <glyph glyph-name="Scedilla" unicode="&#x15e;" horiz-adv-x="1278" 
d="M350 1038q0 -53 34.5 -87t91 -57.5t130 -40.5t151 -37t154 -47t139 -70.5t105.5 -106.5t55 -156q5 -42 -2 -92t-31.5 -99.5t-69 -96t-114 -82t-168 -57t-229.5 -21.5q-112 0 -204.5 10t-162 32.5t-113.5 58.5t-58 87q-8 30 0.5 51.5t25.5 35t39 18.5t41 3q41 -5 83 -16.5
t90.5 -23.5t106.5 -21.5t132 -10.5q83 -1 147.5 13.5t108 40.5t66 62t22.5 80q0 48 -36.5 80t-96.5 55t-136.5 41t-157 38.5t-157.5 47t-138 66t-99.5 95.5t-40.5 137q-2 82 26 159t87.5 137.5t150.5 99.5t216 44q23 1 75.5 1.5t118 -4.5t135 -17t127.5 -37t95 -64.5
t37 -98.5q0 -18 -3.5 -33.5t-14.5 -26t-30.5 -15.5t-51.5 -3q-39 3 -93 11t-115.5 16.5t-127 15.5t-128.5 7q-40 0 -78 -6.5t-68 -21t-48 -37.5t-18 -57zM496 66h182v-116q50 -8 91.5 -28t71 -50t45.5 -70t16 -88q0 -127 -82.5 -187.5t-257.5 -60.5h-36q-13 0 -21 14.5
t-11 36t-1.5 46.5t7 46.5t15 36t23.5 14.5h24q40 0 64.5 2t37 9.5t16.5 21.5t4 37t-8.5 37t-26 21.5t-44 9.5t-61.5 2h-4q-14 0 -29 11t-15 41v214z" />
    <glyph glyph-name="Scircumflex" unicode="&#x15c;" horiz-adv-x="1278" 
d="M350 1038q0 -53 34.5 -87t91 -57.5t130 -40.5t151 -37t154 -47t139 -70.5t105.5 -106.5t55 -156q5 -42 -2 -92t-31.5 -99.5t-69 -96t-114 -82t-168 -57t-229.5 -21.5q-112 0 -204.5 10t-162 32.5t-113.5 58.5t-58 87q-8 30 0.5 51.5t25.5 35t39 18.5t41 3q41 -5 83 -16.5
t90.5 -23.5t106.5 -21.5t132 -10.5q83 -1 147.5 13.5t108 40.5t66 62t22.5 80q0 48 -36.5 80t-96.5 55t-136.5 41t-157 38.5t-157.5 47t-138 66t-99.5 95.5t-40.5 137q-2 82 26 159t87.5 137.5t150.5 99.5t216 44q23 1 75.5 1.5t118 -4.5t135 -17t127.5 -37t95 -64.5
t37 -98.5q0 -18 -3.5 -33.5t-14.5 -26t-30.5 -15.5t-51.5 -3q-39 3 -93 11t-115.5 16.5t-127 15.5t-128.5 7q-40 0 -78 -6.5t-68 -21t-48 -37.5t-18 -57zM684 1656q-9 8 -20.5 10t-19.5 2q-6 0 -14 -3t-16 -9l-106 -96q-42 -32 -63.5 -48t-40.5 -16q-29 0 -51.5 19.5t-33 46
t-7.5 53.5t24 43l186 144q20 14 35.5 23t29.5 13.5t28.5 6t34.5 1.5h2q21 0 35 -1.5t26 -6t26 -13t35 -23.5l188 -144q21 -17 23.5 -44t-9 -53t-34 -45t-50.5 -20q-18 0 -40 15.5t-64 48.5z" />
    <glyph glyph-name="Scommaaccent" unicode="&#x218;" horiz-adv-x="1278" 
d="M350 1038q0 -53 34.5 -87t91 -57.5t130 -40.5t151 -37t154 -47t139 -70.5t105.5 -106.5t55 -156q5 -42 -2 -92t-31.5 -99.5t-69 -96t-114 -82t-168 -57t-229.5 -21.5q-112 0 -204.5 10t-162 32.5t-113.5 58.5t-58 87q-8 30 0.5 51.5t25.5 35t39 18.5t41 3q41 -5 83 -16.5
t90.5 -23.5t106.5 -21.5t132 -10.5q83 -1 147.5 13.5t108 40.5t66 62t22.5 80q0 48 -36.5 80t-96.5 55t-136.5 41t-157 38.5t-157.5 47t-138 66t-99.5 95.5t-40.5 137q-2 82 26 159t87.5 137.5t150.5 99.5t216 44q23 1 75.5 1.5t118 -4.5t135 -17t127.5 -37t95 -64.5
t37 -98.5q0 -18 -3.5 -33.5t-14.5 -26t-30.5 -15.5t-51.5 -3q-39 3 -93 11t-115.5 16.5t-127 15.5t-128.5 7q-40 0 -78 -6.5t-68 -21t-48 -37.5t-18 -57z" />
    <glyph glyph-name="Uacute" unicode="&#xda;" horiz-adv-x="1502" 
d="M404 698q0 -116 8.5 -203.5t41.5 -146t97 -87.5t175 -29h12q111 0 175 29t97 87.5t41.5 146t8.5 203.5v21v5v580q0 29 14 49.5t36.5 33.5t51.5 19t58 6q59 0 90.5 -21.5t31.5 -66.5v-600q0 -96 -5 -188t-25 -174t-59 -151t-106 -119t-167.5 -78t-243.5 -28h-8
q-143 0 -243.5 28t-168 78t-106 119t-58.5 151.5t-25 174.5t-5 189v598q0 45 31.5 66.5t90.5 21.5q29 0 58 -6t51.5 -19t36.5 -33.5t14 -49.5v-606zM658 1738q11 24 24 37t28.5 19t35 7t44.5 1q27 0 54.5 -4.5t47 -15t28 -27t-1.5 -39.5l-72 -158q-13 -27 -27.5 -41
t-32.5 -20t-38.5 -6.5t-45.5 -0.5q-27 0 -52.5 5.5t-43.5 16.5t-25 27.5t3 38.5z" />
    <glyph glyph-name="Ubreve" unicode="&#x16c;" horiz-adv-x="1502" 
d="M404 698q0 -116 8.5 -203.5t41.5 -146t97 -87.5t175 -29h12q111 0 175 29t97 87.5t41.5 146t8.5 203.5v21v5v580q0 29 14 49.5t36.5 33.5t51.5 19t58 6q59 0 90.5 -21.5t31.5 -66.5v-600q0 -96 -5 -188t-25 -174t-59 -151t-106 -119t-167.5 -78t-243.5 -28h-8
q-143 0 -243.5 28t-168 78t-106 119t-58.5 151.5t-25 174.5t-5 189v598q0 45 31.5 66.5t90.5 21.5q29 0 58 -6t51.5 -19t36.5 -33.5t14 -49.5v-606zM1020 1758q0 -52 -11.5 -97.5t-42 -80t-83.5 -54.5t-136 -20t-134.5 20t-80 54.5t-38.5 80t-10 97.5v2q0 17 14.5 29t36 18
t46.5 6.5t46.5 -5t36 -16t14.5 -26.5v-10q0 -17 4.5 -34.5t13.5 -31.5t22.5 -23t31.5 -9h2q19 0 32.5 9t22.5 23t13 31.5t4 34.5v10q0 16 14.5 26.5t36.5 16t47 5t47 -6.5t36.5 -18t14.5 -29v-2z" />
    <glyph glyph-name="Racute" unicode="&#x154;" horiz-adv-x="1365" 
d="M654 1156h-230v-1097q0 -24 -12.5 -38.5t-32 -22t-45 -9.5t-50.5 -2q-29 0 -54.5 2.5t-45 10t-31 22t-11.5 37.5v1211v10v6q0 8 1 11q3 15 10.5 33t24 33.5t42 26t64.5 10.5h370h2q52 3 117.5 -0.5t133.5 -18.5t133 -45t115.5 -80.5t81.5 -124.5t31 -177v-4
q0 -88 -23 -153.5t-61.5 -113.5t-89.5 -80t-107 -52l266 -453q12 -22 9 -38.5t-17 -29t-35 -20.5t-44 -13t-45 -7t-37 -2q-36 0 -72 13t-54 45l-261 458h-41h-102q-41 0 -59.5 35.5t-18.5 86.5q0 25 3 47.5t12 39t24.5 26t40.5 9.5h118q96 1 156.5 14t94.5 38t47 60.5
t14 81.5v10q0 49 -12 87t-47 64t-98 39.5t-165 13.5h-8h-2zM638 1738q11 24 24 37t28.5 19t35 7t44.5 1q27 0 54.5 -4.5t47 -15t28 -27t-1.5 -39.5l-72 -158q-13 -27 -27.5 -41t-32.5 -20t-38.5 -6.5t-45.5 -0.5q-27 0 -52.5 5.5t-43.5 16.5t-25 27.5t3 38.5z" />
    <glyph glyph-name="Rcaron" unicode="&#x158;" horiz-adv-x="1365" 
d="M654 1156h-230v-1097q0 -24 -12.5 -38.5t-32 -22t-45 -9.5t-50.5 -2q-29 0 -54.5 2.5t-45 10t-31 22t-11.5 37.5v1211v10v6q0 8 1 11q3 15 10.5 33t24 33.5t42 26t64.5 10.5h370h2q52 3 117.5 -0.5t133.5 -18.5t133 -45t115.5 -80.5t81.5 -124.5t31 -177v-4
q0 -88 -23 -153.5t-61.5 -113.5t-89.5 -80t-107 -52l266 -453q12 -22 9 -38.5t-17 -29t-35 -20.5t-44 -13t-45 -7t-37 -2q-36 0 -72 13t-54 45l-261 458h-41h-102q-41 0 -59.5 35.5t-18.5 86.5q0 25 3 47.5t12 39t24.5 26t40.5 9.5h118q96 1 156.5 14t94.5 38t47 60.5
t14 81.5v10q0 49 -12 87t-47 64t-98 39.5t-165 13.5h-8h-2zM870 1782q42 33 64 48.5t40 15.5q28 -1 50.5 -20t34 -45t9 -53.5t-23.5 -43.5l-188 -144q-21 -15 -35 -24t-26 -13.5t-26 -5.5t-35 -1h-2q-20 0 -34.5 1.5t-28.5 6t-29.5 13.5t-35.5 23l-186 144q-21 16 -24 43
t7.5 53.5t33 46t51.5 19.5q19 0 40.5 -16.5t63.5 -47.5l106 -96q8 -6 16 -9t14 -3q8 0 19.5 2t20.5 10z" />
    <glyph glyph-name="Otilde" unicode="&#xd5;" horiz-adv-x="1464" 
d="M725 -14q-143 0 -245 26t-171.5 72.5t-111 111.5t-63.5 144t-28.5 169t-6.5 187v6q0 96 6.5 186.5t28.5 169.5t63.5 144t111 111.5t171.5 72.5t245 26h8q143 0 245 -26t171.5 -72.5t111 -111.5t63.5 -144t28.5 -169.5t6.5 -186.5v-6q0 -96 -6.5 -186.5t-28.5 -169.5
t-63.5 -144t-111 -111.5t-171.5 -72.5t-245 -26h-8zM723 1166q-111 0 -178.5 -24.5t-103.5 -77t-48 -135.5t-12 -199v-62q0 -116 12 -199t48 -135.5t103.5 -77t178.5 -24.5h12q111 0 178.5 24.5t103.5 77t48 135.5t12 199v62q0 116 -12 199t-48 135.5t-103.5 77t-178.5 24.5
h-12zM802 1728q17 -17 30 -24t28 -2.5t34.5 21.5t51.5 49l8 10q10 9 27.5 6t36.5 -14.5t38 -28t32 -34.5t17 -34t-5 -25q-68 -68 -127.5 -108.5t-113 -52.5t-102.5 5.5t-97 65.5q-17 17 -30.5 24t-28.5 2t-34.5 -23t-50.5 -49l-10 -8q-9 -10 -26.5 -6.5t-36.5 15t-38 28
t-32 34t-17.5 33t4.5 24.5q68 68 127.5 109t113.5 53t103.5 -5t97.5 -65z" />
    <glyph glyph-name="Oslashacute" unicode="&#x1fe;" horiz-adv-x="1464" 
d="M693 1738q11 24 24 37t28.5 19t35 7t44.5 1q27 0 54.5 -4.5t47 -15t28 -27t-1.5 -39.5l-72 -158q-13 -27 -27.5 -41t-32.5 -20t-38.5 -6.5t-45.5 -0.5q-27 0 -52.5 5.5t-43.5 16.5t-25 27.5t3 38.5zM725 -14q-143 0 -245 26t-171.5 72.5t-111 111.5t-63.5 144t-28.5 169
t-6.5 187v6q0 96 6.5 186.5t28.5 169.5t63.5 144t111 111.5t171.5 72.5t245 26h8q143 0 245 -26t171.5 -72.5t111 -111.5t63.5 -144t28.5 -169.5t6.5 -186.5v-6q0 -96 -6.5 -186.5t-28.5 -169.5t-63.5 -144t-111 -111.5t-171.5 -72.5t-245 -26h-8zM723 1166
q-111 0 -178.5 -24.5t-103.5 -77t-48 -135.5t-12 -199v-62q0 -116 12 -199t48 -135.5t103.5 -77t178.5 -24.5h12q111 0 178.5 24.5t103.5 77t48 135.5t12 199v62q0 116 -12 199t-48 135.5t-103.5 77t-178.5 24.5h-12zM971 1460q11 24 24 37t28.5 19t35 7t44.5 1
q27 0 54.5 -4.5t47 -15t28 -27t-1.5 -39.5l-72 -158q-13 -27 -27.5 -41t-32.5 -20t-38.5 -6.5t-45.5 -0.5q-27 0 -52.5 5.5t-43.5 16.5t-25 27.5t3 38.5zM307 110q11 24 24 37t28.5 19t35 7t44.5 1q27 0 54.5 -4.5t47 -15t28 -27t-1.5 -39.5l-72 -158q-13 -27 -27.5 -41
t-32.5 -20t-38.5 -6.5t-45.5 -0.5q-27 0 -52.5 5.5t-43.5 16.5t-25 27.5t3 38.5z" />
    <glyph glyph-name="Oslash" unicode="&#xd8;" horiz-adv-x="1464" 
d="M725 -14q-143 0 -245 26t-171.5 72.5t-111 111.5t-63.5 144t-28.5 169t-6.5 187v6q0 96 6.5 186.5t28.5 169.5t63.5 144t111 111.5t171.5 72.5t245 26h8q143 0 245 -26t171.5 -72.5t111 -111.5t63.5 -144t28.5 -169.5t6.5 -186.5v-6q0 -96 -6.5 -186.5t-28.5 -169.5
t-63.5 -144t-111 -111.5t-171.5 -72.5t-245 -26h-8zM723 1166q-111 0 -178.5 -24.5t-103.5 -77t-48 -135.5t-12 -199v-62q0 -116 12 -199t48 -135.5t103.5 -77t178.5 -24.5h12q111 0 178.5 24.5t103.5 77t48 135.5t12 199v62q0 116 -12 199t-48 135.5t-103.5 77t-178.5 24.5
h-12zM971 1460q11 24 24 37t28.5 19t35 7t44.5 1q27 0 54.5 -4.5t47 -15t28 -27t-1.5 -39.5l-72 -158q-13 -27 -27.5 -41t-32.5 -20t-38.5 -6.5t-45.5 -0.5q-27 0 -52.5 5.5t-43.5 16.5t-25 27.5t3 38.5zM307 110q11 24 24 37t28.5 19t35 7t44.5 1q27 0 54.5 -4.5t47 -15
t28 -27t-1.5 -39.5l-72 -158q-13 -27 -27.5 -41t-32.5 -20t-38.5 -6.5t-45.5 -0.5q-27 0 -52.5 5.5t-43.5 16.5t-25 27.5t3 38.5z" />
    <glyph glyph-name="Omacron" unicode="&#x14c;" horiz-adv-x="1464" 
d="M725 -14q-143 0 -245 26t-171.5 72.5t-111 111.5t-63.5 144t-28.5 169t-6.5 187v6q0 96 6.5 186.5t28.5 169.5t63.5 144t111 111.5t171.5 72.5t245 26h8q143 0 245 -26t171.5 -72.5t111 -111.5t63.5 -144t28.5 -169.5t6.5 -186.5v-6q0 -96 -6.5 -186.5t-28.5 -169.5
t-63.5 -144t-111 -111.5t-171.5 -72.5t-245 -26h-8zM723 1166q-111 0 -178.5 -24.5t-103.5 -77t-48 -135.5t-12 -199v-62q0 -116 12 -199t48 -135.5t103.5 -77t178.5 -24.5h12q111 0 178.5 24.5t103.5 77t48 135.5t12 199v62q0 116 -12 199t-48 135.5t-103.5 77t-178.5 24.5
h-12zM1016 1736q63 0 99.5 -24t36.5 -84q0 -34 -5.5 -56t-20 -35.5t-40.5 -19t-66 -5.5h-568q-41 0 -66.5 5.5t-40 19t-20 35.5t-5.5 56q0 60 36.5 84t99.5 24h560z" />
    <glyph glyph-name="Ohungarumlaut" unicode="&#x150;" horiz-adv-x="1464" 
d="M725 -14q-143 0 -245 26t-171.5 72.5t-111 111.5t-63.5 144t-28.5 169t-6.5 187v6q0 96 6.5 186.5t28.5 169.5t63.5 144t111 111.5t171.5 72.5t245 26h8q143 0 245 -26t171.5 -72.5t111 -111.5t63.5 -144t28.5 -169.5t6.5 -186.5v-6q0 -96 -6.5 -186.5t-28.5 -169.5
t-63.5 -144t-111 -111.5t-171.5 -72.5t-245 -26h-8zM723 1166q-111 0 -178.5 -24.5t-103.5 -77t-48 -135.5t-12 -199v-62q0 -116 12 -199t48 -135.5t103.5 -77t178.5 -24.5h12q111 0 178.5 24.5t103.5 77t48 135.5t12 199v62q0 116 -12 199t-48 135.5t-103.5 77t-178.5 24.5
h-12z" />
    <glyph glyph-name="Ocircumflex" unicode="&#xd4;" horiz-adv-x="1464" 
d="M725 -14q-143 0 -245 26t-171.5 72.5t-111 111.5t-63.5 144t-28.5 169t-6.5 187v6q0 96 6.5 186.5t28.5 169.5t63.5 144t111 111.5t171.5 72.5t245 26h8q143 0 245 -26t171.5 -72.5t111 -111.5t63.5 -144t28.5 -169.5t6.5 -186.5v-6q0 -96 -6.5 -186.5t-28.5 -169.5
t-63.5 -144t-111 -111.5t-171.5 -72.5t-245 -26h-8zM723 1166q-111 0 -178.5 -24.5t-103.5 -77t-48 -135.5t-12 -199v-62q0 -116 12 -199t48 -135.5t103.5 -77t178.5 -24.5h12q111 0 178.5 24.5t103.5 77t48 135.5t12 199v62q0 116 -12 199t-48 135.5t-103.5 77t-178.5 24.5
h-12zM766 1656q-9 8 -20.5 10t-19.5 2q-6 0 -14 -3t-16 -9l-106 -96q-42 -32 -63.5 -48t-40.5 -16q-29 0 -51.5 19.5t-33 46t-7.5 53.5t24 43l186 144q20 14 35.5 23t29.5 13.5t28.5 6t34.5 1.5h2q21 0 35 -1.5t26 -6t26 -13t35 -23.5l188 -144q21 -17 23.5 -44t-9 -53
t-34 -45t-50.5 -20q-18 0 -40 15.5t-64 48.5z" />
    <glyph glyph-name="Obreve" unicode="&#x14e;" horiz-adv-x="1464" 
d="M725 -14q-143 0 -245 26t-171.5 72.5t-111 111.5t-63.5 144t-28.5 169t-6.5 187v6q0 96 6.5 186.5t28.5 169.5t63.5 144t111 111.5t171.5 72.5t245 26h8q143 0 245 -26t171.5 -72.5t111 -111.5t63.5 -144t28.5 -169.5t6.5 -186.5v-6q0 -96 -6.5 -186.5t-28.5 -169.5
t-63.5 -144t-111 -111.5t-171.5 -72.5t-245 -26h-8zM723 1166q-111 0 -178.5 -24.5t-103.5 -77t-48 -135.5t-12 -199v-62q0 -116 12 -199t48 -135.5t103.5 -77t178.5 -24.5h12q111 0 178.5 24.5t103.5 77t48 135.5t12 199v62q0 116 -12 199t-48 135.5t-103.5 77t-178.5 24.5
h-12zM1000 1758q0 -52 -11.5 -97.5t-42 -80t-83.5 -54.5t-136 -20t-134.5 20t-80 54.5t-38.5 80t-10 97.5v2q0 17 14.5 29t36 18t46.5 6.5t46.5 -5t36 -16t14.5 -26.5v-10q0 -17 4.5 -34.5t13.5 -31.5t22.5 -23t31.5 -9h2q19 0 32.5 9t22.5 23t13 31.5t4 34.5v10
q0 16 14.5 26.5t36.5 16t47 5t47 -6.5t36.5 -18t14.5 -29v-2z" />
    <glyph glyph-name="Oacute" unicode="&#xd3;" horiz-adv-x="1464" 
d="M725 -14q-143 0 -245 26t-171.5 72.5t-111 111.5t-63.5 144t-28.5 169t-6.5 187v6q0 96 6.5 186.5t28.5 169.5t63.5 144t111 111.5t171.5 72.5t245 26h8q143 0 245 -26t171.5 -72.5t111 -111.5t63.5 -144t28.5 -169.5t6.5 -186.5v-6q0 -96 -6.5 -186.5t-28.5 -169.5
t-63.5 -144t-111 -111.5t-171.5 -72.5t-245 -26h-8zM723 1166q-111 0 -178.5 -24.5t-103.5 -77t-48 -135.5t-12 -199v-62q0 -116 12 -199t48 -135.5t103.5 -77t178.5 -24.5h12q111 0 178.5 24.5t103.5 77t48 135.5t12 199v62q0 116 -12 199t-48 135.5t-103.5 77t-178.5 24.5
h-12zM638 1738q11 24 24 37t28.5 19t35 7t44.5 1q27 0 54.5 -4.5t47 -15t28 -27t-1.5 -39.5l-72 -158q-13 -27 -27.5 -41t-32.5 -20t-38.5 -6.5t-45.5 -0.5q-27 0 -52.5 5.5t-43.5 16.5t-25 27.5t3 38.5z" />
    <glyph glyph-name="Ntilde" unicode="&#xd1;" horiz-adv-x="1493" 
d="M1359 60q0 -24 -8 -38.5t-22.5 -22t-35.5 -9.5t-46 -2q-22 0 -45.5 2t-44.5 7.5t-39 14t-28 20.5q-1 1 -1 2l-1 1l-657 857v-824q0 -24 -16.5 -39.5t-42 -24.5t-55 -12.5t-54.5 -3.5q-29 0 -50 2.5t-35.5 10t-21.5 22t-7 37.5v1264q0 45 27.5 66.5t86.5 21.5
q41 0 81.5 -10t64.5 -34l4 -2l664 -867v777q0 28 14 52.5t37.5 43t54 29.5t64.5 11q58 0 85 -17t27 -71v-1264zM834 1728q17 -17 30 -24t28 -2.5t34.5 21.5t51.5 49l8 10q10 9 27.5 6t36.5 -14.5t38 -28t32 -34.5t17 -34t-5 -25q-68 -68 -127.5 -108.5t-113 -52.5
t-102.5 5.5t-97 65.5q-17 17 -30.5 24t-28.5 2t-34.5 -23t-50.5 -49l-10 -8q-9 -10 -26.5 -6.5t-36.5 15t-38 28t-32 34t-17.5 33t4.5 24.5q68 68 127.5 109t113.5 53t103.5 -5t97.5 -65z" />
    <glyph glyph-name="Ncommaaccent" unicode="&#x145;" horiz-adv-x="1493" 
d="M1359 60q0 -24 -8 -38.5t-22.5 -22t-35.5 -9.5t-46 -2q-22 0 -45.5 2t-44.5 7.5t-39 14t-28 20.5q-1 1 -1 2l-1 1l-657 857v-824q0 -24 -16.5 -39.5t-42 -24.5t-55 -12.5t-54.5 -3.5q-29 0 -50 2.5t-35.5 10t-21.5 22t-7 37.5v1264q0 45 27.5 66.5t86.5 21.5
q41 0 81.5 -10t64.5 -34l4 -2l664 -867v777q0 28 14 52.5t37.5 43t54 29.5t64.5 11q58 0 85 -17t27 -71v-1264zM792 1727q11 24 24 37t28.5 19t35 7t44.5 1q27 0 54.5 -4.5t47 -15t28 -27t-1.5 -39.5l-120 -248q-13 -27 -27.5 -41t-32.5 -20t-38.5 -6.5t-45.5 -0.5
q-27 0 -52.5 5.5t-43.5 16.5t-25 27.5t3 38.5z" />
    <glyph glyph-name="Ncaron" unicode="&#x147;" horiz-adv-x="1493" 
d="M1359 60q0 -24 -8 -38.5t-22.5 -22t-35.5 -9.5t-46 -2q-22 0 -45.5 2t-44.5 7.5t-39 14t-28 20.5q-1 1 -1 2l-1 1l-657 857v-824q0 -24 -16.5 -39.5t-42 -24.5t-55 -12.5t-54.5 -3.5q-29 0 -50 2.5t-35.5 10t-21.5 22t-7 37.5v1264q0 45 27.5 66.5t86.5 21.5
q41 0 81.5 -10t64.5 -34l4 -2l664 -867v777q0 28 14 52.5t37.5 43t54 29.5t64.5 11q58 0 85 -17t27 -71v-1264zM902 1782q42 33 64 48.5t40 15.5q28 -1 50.5 -20t34 -45t9 -53.5t-23.5 -43.5l-188 -144q-21 -15 -35 -24t-26 -13.5t-26 -5.5t-35 -1h-2q-20 0 -34.5 1.5
t-28.5 6t-29.5 13.5t-35.5 23l-186 144q-21 16 -24 43t7.5 53.5t33 46t51.5 19.5q19 0 40.5 -16.5t63.5 -47.5l106 -96q8 -6 16 -9t14 -3q8 0 19.5 2t20.5 10z" />
    <glyph glyph-name="Nacute" unicode="&#x143;" horiz-adv-x="1493" 
d="M1359 60q0 -24 -8 -38.5t-22.5 -22t-35.5 -9.5t-46 -2q-22 0 -45.5 2t-44.5 7.5t-39 14t-28 20.5q-1 1 -1 2l-1 1l-657 857v-824q0 -24 -16.5 -39.5t-42 -24.5t-55 -12.5t-54.5 -3.5q-29 0 -50 2.5t-35.5 10t-21.5 22t-7 37.5v1264q0 45 27.5 66.5t86.5 21.5
q41 0 81.5 -10t64.5 -34l4 -2l664 -867v777q0 28 14 52.5t37.5 43t54 29.5t64.5 11q58 0 85 -17t27 -71v-1264zM668 1738q11 24 24 37t28.5 19t35 7t44.5 1q27 0 54.5 -4.5t47 -15t28 -27t-1.5 -39.5l-72 -158q-13 -27 -27.5 -41t-32.5 -20t-38.5 -6.5t-45.5 -0.5
q-27 0 -52.5 5.5t-43.5 16.5t-25 27.5t3 38.5z" />
    <glyph glyph-name="Lslash" unicode="&#x141;" horiz-adv-x="1229" 
d="M561 1060q54 34 85.5 29.5t31.5 -64.5q0 -34 -4.5 -59t-17 -46.5t-34.5 -40.5t-57 -41l-489 -305q-35 -21 -56.5 -29.5t-34.5 -3t-17.5 25t-4.5 52.5q0 60 31.5 103.5t85.5 77.5zM282 0q-29 0 -54.5 2.5t-45 10t-31 22t-11.5 37.5v42v6v9v1195q0 22 11 39t30.5 27.5
t45.5 16t55 5.5t54.5 0.5t44.5 -4.5t30 -18t11 -40v-1106h510q31 0 63.5 -0.5t58 -11t42 -36.5t16.5 -76q0 -23 -5 -44.5t-17 -38t-31 -27t-47 -10.5h-730z" />
    <glyph glyph-name="Ldot" unicode="&#x13f;" horiz-adv-x="1229" 
d="M282 0q-29 0 -54.5 2.5t-45 10t-31 22t-11.5 37.5v42v6v9v1195q0 22 11 39t30.5 27.5t45.5 16t55 5.5t54.5 0.5t44.5 -4.5t30 -18t11 -40v-1106h510q31 0 63.5 -0.5t58 -11t42 -36.5t16.5 -76q0 -23 -5 -44.5t-17 -38t-31 -27t-47 -10.5h-730zM894 835q0 24 11.5 38
t30.5 21.5t43 10t49 2.5q27 0 51.5 -2.5t43.5 -10t30 -22t11 -37.5v-146q0 -24 -11.5 -38.5t-30.5 -22t-43 -9.5t-49 -2q-27 0 -51.5 2.5t-43.5 10t-30 22t-11 37.5v146z" />
    <glyph glyph-name="Lcaron" unicode="&#x13d;" horiz-adv-x="1229" 
d="M282 0q-29 0 -54.5 2.5t-45 10t-31 22t-11.5 37.5v42v6v9v1195q0 22 11 39t30.5 27.5t45.5 16t55 5.5t54.5 0.5t44.5 -4.5t30 -18t11 -40v-1106h510q31 0 63.5 -0.5t58 -11t42 -36.5t16.5 -76q0 -23 -5 -44.5t-17 -38t-31 -27t-47 -10.5h-730zM967 1359q11 24 24 37
t28.5 19t35 7t44.5 1q27 0 54.5 -4.5t47 -15t28 -27t-1.5 -39.5l-120 -248q-13 -27 -27.5 -41t-32.5 -20t-38.5 -6.5t-45.5 -0.5q-27 0 -52.5 5.5t-43.5 16.5t-25 27.5t3 38.5z" />
    <glyph glyph-name="Lacute" unicode="&#x139;" horiz-adv-x="1229" 
d="M282 0q-29 0 -54.5 2.5t-45 10t-31 22t-11.5 37.5v42v6v9v1195q0 22 11 39t30.5 27.5t45.5 16t55 5.5t54.5 0.5t44.5 -4.5t30 -18t11 -40v-1106h510q31 0 63.5 -0.5t58 -11t42 -36.5t16.5 -76q0 -23 -5 -44.5t-17 -38t-31 -27t-47 -10.5h-730zM272 1745q11 24 24 37
t28.5 19t35 7t44.5 1q27 0 54.5 -4.5t47 -15t28 -27t-1.5 -39.5l-72 -158q-13 -27 -27.5 -41t-32.5 -20t-38.5 -6.5t-45.5 -0.5q-27 0 -52.5 5.5t-43.5 16.5t-25 27.5t3 38.5z" />
    <glyph glyph-name="Jcircumflex" unicode="&#x134;" horiz-adv-x="844" 
d="M150 -12q-14 0 -35 2.5t-40.5 14t-33 35.5t-13.5 68q0 40 10.5 64t27.5 37.5t39 18t45 4.5h8q111 0 169 24.5t83 77t27.5 135.5t2.5 199v636q0 29 14 49.5t36.5 33.5t51.5 19t58 6q59 0 90.5 -21.5t31.5 -66.5v-630v-5q0 -96 -2.5 -185t-18 -167t-49.5 -142t-97 -110
t-160 -71.5t-239 -25.5h-6zM613 1656q-9 8 -20.5 10t-19.5 2q-6 0 -14 -3t-16 -9l-106 -96q-42 -32 -63.5 -48t-40.5 -16q-29 0 -51.5 19.5t-33 46t-7.5 53.5t24 43l186 144q20 14 35.5 23t29.5 13.5t28.5 6t34.5 1.5h2q21 0 35 -1.5t26 -6t26 -13t35 -23.5l188 -144
q21 -17 23.5 -44t-9 -53t-34 -45t-50.5 -20q-18 0 -40 15.5t-64 48.5z" />
    <glyph glyph-name="Ucircumflex" unicode="&#xdb;" horiz-adv-x="1502" 
d="M404 698q0 -116 8.5 -203.5t41.5 -146t97 -87.5t175 -29h12q111 0 175 29t97 87.5t41.5 146t8.5 203.5v21v5v580q0 29 14 49.5t36.5 33.5t51.5 19t58 6q59 0 90.5 -21.5t31.5 -66.5v-600q0 -96 -5 -188t-25 -174t-59 -151t-106 -119t-167.5 -78t-243.5 -28h-8
q-143 0 -243.5 28t-168 78t-106 119t-58.5 151.5t-25 174.5t-5 189v598q0 45 31.5 66.5t90.5 21.5q29 0 58 -6t51.5 -19t36.5 -33.5t14 -49.5v-606zM786 1656q-9 8 -20.5 10t-19.5 2q-6 0 -14 -3t-16 -9l-106 -96q-42 -32 -63.5 -48t-40.5 -16q-29 0 -51.5 19.5t-33 46
t-7.5 53.5t24 43l186 144q20 14 35.5 23t29.5 13.5t28.5 6t34.5 1.5h2q21 0 35 -1.5t26 -6t26 -13t35 -23.5l188 -144q21 -17 23.5 -44t-9 -53t-34 -45t-50.5 -20q-18 0 -40 15.5t-64 48.5z" />
    <glyph glyph-name="Ugrave" unicode="&#xd9;" horiz-adv-x="1502" 
d="M404 698q0 -116 8.5 -203.5t41.5 -146t97 -87.5t175 -29h12q111 0 175 29t97 87.5t41.5 146t8.5 203.5v21v5v580q0 29 14 49.5t36.5 33.5t51.5 19t58 6q59 0 90.5 -21.5t31.5 -66.5v-600q0 -96 -5 -188t-25 -174t-59 -151t-106 -119t-167.5 -78t-243.5 -28h-8
q-143 0 -243.5 28t-168 78t-106 119t-58.5 151.5t-25 174.5t-5 189v598q0 45 31.5 66.5t90.5 21.5q29 0 58 -6t51.5 -19t36.5 -33.5t14 -49.5v-606zM880 1588q10 -22 3 -38.5t-25 -27.5t-43.5 -16.5t-52.5 -5.5q-25 0 -45.5 0.5t-38.5 6.5t-32.5 20t-27.5 41l-72 158
q-11 23 -2 39.5t28.5 27t47 15t54.5 4.5q25 0 44.5 -1t35 -7t28.5 -19t24 -37z" />
    <glyph glyph-name="Uhungarumlaut" unicode="&#x170;" horiz-adv-x="1502" 
d="M404 698q0 -116 8.5 -203.5t41.5 -146t97 -87.5t175 -29h12q111 0 175 29t97 87.5t41.5 146t8.5 203.5v21v5v580q0 29 14 49.5t36.5 33.5t51.5 19t58 6q59 0 90.5 -21.5t31.5 -66.5v-600q0 -96 -5 -188t-25 -174t-59 -151t-106 -119t-167.5 -78t-243.5 -28h-8
q-143 0 -243.5 28t-168 78t-106 119t-58.5 151.5t-25 174.5t-5 189v598q0 45 31.5 66.5t90.5 21.5q29 0 58 -6t51.5 -19t36.5 -33.5t14 -49.5v-606z" />
    <glyph glyph-name="Umacron" unicode="&#x16a;" horiz-adv-x="1504" 
d="M404 698q0 -116 8.5 -203.5t41.5 -146t97 -87.5t175 -29h12q111 0 175 29t97 87.5t41.5 146t8.5 203.5v21v5v580q0 29 14 49.5t36.5 33.5t51.5 19t58 6q59 0 90.5 -21.5t31.5 -66.5v-600q0 -96 -5 -188t-25 -174t-59 -151t-106 -119t-167.5 -78t-243.5 -28h-8
q-143 0 -243.5 28t-168 78t-106 119t-58.5 151.5t-25 174.5t-5 189v598q0 45 31.5 66.5t90.5 21.5q29 0 58 -6t51.5 -19t36.5 -33.5t14 -49.5v-606zM1033 1717q63 0 99.5 -24t36.5 -84q0 -34 -5.5 -56t-20 -35.5t-40.5 -19t-66 -5.5h-568q-41 0 -66.5 5.5t-40 19t-20 35.5
t-5.5 56q0 60 36.5 84t99.5 24h560z" />
    <glyph glyph-name="Uogonek" unicode="&#x172;" horiz-adv-x="1504" 
d="M404 698q0 -116 8.5 -203.5t41.5 -146t97 -87.5t175 -29h12q111 0 175 29t97 87.5t41.5 146t8.5 203.5v21v5v580q0 29 14 49.5t36.5 33.5t51.5 19t58 6q59 0 90.5 -21.5t31.5 -66.5v-600q0 -96 -5 -188t-25 -174t-59 -151t-106 -119t-167.5 -78t-243.5 -28h-8
q-143 0 -243.5 28t-168 78t-106 119t-58.5 151.5t-25 174.5t-5 189v598q0 45 31.5 66.5t90.5 21.5q29 0 58 -6t51.5 -19t36.5 -33.5t14 -49.5v-606zM861 -24q-29 -25 -58.5 -50.5t-58.5 -51.5q-33 -27 -50.5 -55.5t-21.5 -52t4.5 -39.5t27.5 -20.5t48 6t65 41.5l18 14
q10 9 22.5 2t25 -23t22.5 -38t15.5 -44t4.5 -40.5t-11 -26.5q-90 -76 -170.5 -97t-142.5 -3t-101.5 66.5t-47.5 112t20 134t101 131.5l185 156q23 20 45 23t40 -5t30 -25t15.5 -37t-2.5 -41t-25 -37z" />
    <glyph glyph-name="Uring" unicode="&#x16e;" horiz-adv-x="1502" 
d="M404 698q0 -116 8.5 -203.5t41.5 -146t97 -87.5t175 -29h12q111 0 175 29t97 87.5t41.5 146t8.5 203.5v21v5v580q0 29 14 49.5t36.5 33.5t51.5 19t58 6q59 0 90.5 -21.5t31.5 -66.5v-600q0 -96 -5 -188t-25 -174t-59 -151t-106 -119t-167.5 -78t-243.5 -28h-8
q-143 0 -243.5 28t-168 78t-106 119t-58.5 151.5t-25 174.5t-5 189v598q0 45 31.5 66.5t90.5 21.5q29 0 58 -6t51.5 -19t36.5 -33.5t14 -49.5v-606zM584 1638q0 54 14 86t37.5 49t54 22t64.5 5h2q34 0 65.5 -5t55.5 -22t38.5 -49t14.5 -86v-2q0 -54 -14.5 -86t-38.5 -48.5
t-55.5 -21t-65.5 -4.5h-2q-34 0 -64.5 4.5t-54 21t-37.5 48.5t-14 86v2zM708 1636q0 -24 10.5 -28t33.5 -4h8q20 0 31 4t11 28v4q0 23 -11 27.5t-31 4.5h-8q-23 0 -33.5 -4.5t-10.5 -27.5v-4z" />
    <glyph glyph-name="Utilde" unicode="&#x168;" horiz-adv-x="1502" 
d="M404 698q0 -116 8.5 -203.5t41.5 -146t97 -87.5t175 -29h12q111 0 175 29t97 87.5t41.5 146t8.5 203.5v21v5v580q0 29 14 49.5t36.5 33.5t51.5 19t58 6q59 0 90.5 -21.5t31.5 -66.5v-600q0 -96 -5 -188t-25 -174t-59 -151t-106 -119t-167.5 -78t-243.5 -28h-8
q-143 0 -243.5 28t-168 78t-106 119t-58.5 151.5t-25 174.5t-5 189v598q0 45 31.5 66.5t90.5 21.5q29 0 58 -6t51.5 -19t36.5 -33.5t14 -49.5v-606zM822 1728q17 -17 30 -24t28 -2.5t34.5 21.5t51.5 49l8 10q10 9 27.5 6t36.5 -14.5t38 -28t32 -34.5t17 -34t-5 -25
q-68 -68 -127.5 -108.5t-113 -52.5t-102.5 5.5t-97 65.5q-17 17 -30.5 24t-28.5 2t-34.5 -23t-50.5 -49l-10 -8q-9 -10 -26.5 -6.5t-36.5 15t-38 28t-32 34t-17.5 33t4.5 24.5q68 68 127.5 109t113.5 53t103.5 -5t97.5 -65z" />
    <glyph glyph-name="cacute" unicode="&#x107;" horiz-adv-x="1028" 
d="M550 -12q-107 0 -182.5 15t-127 44.5t-81 71.5t-45 96.5t-20 120.5t-4.5 142v38q0 76 4.5 142t20 120.5t45 96.5t81 71.5t127 44.5t182.5 15q91 0 165 -11t125.5 -33t79.5 -55.5t28 -78.5q0 -16 -2.5 -31.5t-11 -28t-24 -20.5t-40.5 -8q-24 0 -55.5 6t-72 13.5t-90 14
t-108.5 6.5q-55 0 -90.5 -6.5t-56.5 -29t-29 -66.5t-8 -118v-122q0 -56 3 -97.5t20.5 -70t55 -42.5t105.5 -14q69 0 124.5 7.5t99.5 16.5q32 6 57 11t45 5q25 0 40.5 -8t24 -20.5t11 -28t2.5 -31.5q0 -45 -28 -78.5t-79.5 -55.5t-125.5 -33t-165 -11zM440 1338q11 24 24 37
t28.5 19t35 7t44.5 1q27 0 54.5 -4.5t47 -15t28 -27t-1.5 -39.5l-72 -158q-13 -27 -27.5 -41t-32.5 -20t-38.5 -6.5t-45.5 -0.5q-27 0 -52.5 5.5t-43.5 16.5t-25 27.5t3 38.5z" />
    <glyph glyph-name="ccaron" unicode="&#x10d;" horiz-adv-x="1028" 
d="M550 -12q-107 0 -182.5 15t-127 44.5t-81 71.5t-45 96.5t-20 120.5t-4.5 142v38q0 76 4.5 142t20 120.5t45 96.5t81 71.5t127 44.5t182.5 15q91 0 165 -11t125.5 -33t79.5 -55.5t28 -78.5q0 -16 -2.5 -31.5t-11 -28t-24 -20.5t-40.5 -8q-24 0 -55.5 6t-72 13.5t-90 14
t-108.5 6.5q-55 0 -90.5 -6.5t-56.5 -29t-29 -66.5t-8 -118v-122q0 -56 3 -97.5t20.5 -70t55 -42.5t105.5 -14q69 0 124.5 7.5t99.5 16.5q32 6 57 11t45 5q25 0 40.5 -8t24 -20.5t11 -28t2.5 -31.5q0 -45 -28 -78.5t-79.5 -55.5t-125.5 -33t-165 -11zM672 1382
q42 33 64 48.5t40 15.5q28 -1 50.5 -20t34 -45t9 -53.5t-23.5 -43.5l-188 -144q-21 -15 -35 -24t-26 -13.5t-26 -5.5t-35 -1h-2q-20 0 -34.5 1.5t-28.5 6t-29.5 13.5t-35.5 23l-186 144q-21 16 -24 43t7.5 53.5t33 46t51.5 19.5q19 0 40.5 -16.5t63.5 -47.5l106 -96
q8 -6 16 -9t14 -3q8 0 19.5 2t20.5 10z" />
    <glyph glyph-name="ccircumflex" unicode="&#x109;" horiz-adv-x="1028" 
d="M550 -12q-107 0 -182.5 15t-127 44.5t-81 71.5t-45 96.5t-20 120.5t-4.5 142v38q0 76 4.5 142t20 120.5t45 96.5t81 71.5t127 44.5t182.5 15q91 0 165 -11t125.5 -33t79.5 -55.5t28 -78.5q0 -16 -2.5 -31.5t-11 -28t-24 -20.5t-40.5 -8q-24 0 -55.5 6t-72 13.5t-90 14
t-108.5 6.5q-55 0 -90.5 -6.5t-56.5 -29t-29 -66.5t-8 -118v-122q0 -56 3 -97.5t20.5 -70t55 -42.5t105.5 -14q69 0 124.5 7.5t99.5 16.5q32 6 57 11t45 5q25 0 40.5 -8t24 -20.5t11 -28t2.5 -31.5q0 -45 -28 -78.5t-79.5 -55.5t-125.5 -33t-165 -11zM568 1256
q-9 8 -20.5 10t-19.5 2q-6 0 -14 -3t-16 -9l-106 -96q-42 -32 -63.5 -48t-40.5 -16q-29 0 -51.5 19.5t-33 46t-7.5 53.5t24 43l186 144q20 14 35.5 23t29.5 13.5t28.5 6t34.5 1.5h2q21 0 35 -1.5t26 -6t26 -13t35 -23.5l188 -144q21 -17 23.5 -44t-9 -53t-34 -45t-50.5 -20
q-18 0 -40 15.5t-64 48.5z" />
    <glyph glyph-name="cdotaccent" unicode="&#x10b;" horiz-adv-x="1028" 
d="M550 -12q-107 0 -182.5 15t-127 44.5t-81 71.5t-45 96.5t-20 120.5t-4.5 142v38q0 76 4.5 142t20 120.5t45 96.5t81 71.5t127 44.5t182.5 15q91 0 165 -11t125.5 -33t79.5 -55.5t28 -78.5q0 -16 -2.5 -31.5t-11 -28t-24 -20.5t-40.5 -8q-24 0 -55.5 6t-72 13.5t-90 14
t-108.5 6.5q-55 0 -90.5 -6.5t-56.5 -29t-29 -66.5t-8 -118v-122q0 -56 3 -97.5t20.5 -70t55 -42.5t105.5 -14q69 0 124.5 7.5t99.5 16.5q32 6 57 11t45 5q25 0 40.5 -8t24 -20.5t11 -28t2.5 -31.5q0 -45 -28 -78.5t-79.5 -55.5t-125.5 -33t-165 -11zM398 1340q0 24 11.5 38
t30.5 21.5t43 10t49 2.5q27 0 51.5 -2.5t43.5 -10t30 -22t11 -37.5v-130q0 -24 -11.5 -38.5t-30.5 -22t-43 -9.5t-49 -2q-27 0 -51.5 2.5t-43.5 10t-30 22t-11 37.5v130z" />
    <glyph glyph-name="dcaron" unicode="&#x10f;" horiz-adv-x="1156" 
d="M458 1012q29 0 66 -0.5t77 -5t81 -14t80 -28.5v402q0 40 22 52t60 12q25 0 58 -3.5t61.5 -13t48.5 -27.5t20 -46v-1174q0 -38 -26 -66t-70 -47.5t-102.5 -32.5t-122 -20t-129 -9.5t-124.5 -2.5q-113 0 -184 39.5t-111.5 111t-55.5 170t-15 217.5v10q0 100 15.5 186.5
t56.5 151t112 101.5t182 37zM530 216q72 0 117 5.5t70.5 14t35 19t9.5 21.5v424q-2 19 -23 33t-53.5 24t-73 16.5t-82.5 10.5q-45 4 -76 -1t-50.5 -26t-29 -60.5t-10.5 -104.5l-2 -112q-2 -66 3.5 -115.5t23.5 -82.5t51.5 -49.5t89.5 -16.5zM900 1833q11 24 24 37t28.5 19
t35 7t44.5 1q27 0 54.5 -4.5t47 -15t28 -27t-1.5 -39.5l-120 -248q-13 -27 -27.5 -41t-32.5 -20t-38.5 -6.5t-45.5 -0.5q-27 0 -52.5 5.5t-43.5 16.5t-25 27.5t3 38.5z" />
    <glyph glyph-name="dcroat" unicode="&#x111;" horiz-adv-x="1156" 
d="M458 1012q29 0 66 -0.5t77 -5t81 -14t80 -28.5v402q0 40 22 52t60 12q25 0 58 -3.5t61.5 -13t48.5 -27.5t20 -46v-1174q0 -38 -26 -66t-70 -47.5t-102.5 -32.5t-122 -20t-129 -9.5t-124.5 -2.5q-113 0 -184 39.5t-111.5 111t-55.5 170t-15 217.5v10q0 100 15.5 186.5
t56.5 151t112 101.5t182 37zM530 216q72 0 117 5.5t70.5 14t35 19t9.5 21.5v424q-2 19 -23 33t-53.5 24t-73 16.5t-82.5 10.5q-45 4 -76 -1t-50.5 -26t-29 -60.5t-10.5 -104.5l-2 -112q-2 -66 3.5 -115.5t23.5 -82.5t51.5 -49.5t89.5 -16.5zM968.697 1117.99
q50.3535 0 79.5264 -19.1787q29.1729 -19.1797 29.1729 -67.1279q0 -27.1699 -4.39648 -44.751q-4.39551 -17.5811 -15.9844 -28.3691q-11.5898 -10.7881 -32.3701 -15.1836t-52.751 -4.39551h-453.977q-32.7695 0 -53.1514 4.39551q-20.3809 4.39551 -31.9697 15.1836
t-15.9854 28.3691q-4.39551 17.5811 -4.39551 44.751q0 47.9482 29.1729 67.1279q29.1729 19.1787 79.5254 19.1787h447.583z" />
    <glyph glyph-name="ecaron" unicode="&#x11b;" horiz-adv-x="1098" 
d="M826 424q-48 -11 -105.5 -20.5t-118.5 -17.5t-122.5 -14.5t-116.5 -11.5q2 -34 11 -61t29 -46t55 -29t90 -10q59 0 108.5 6t90 13.5t72 14t55.5 6.5q25 0 40.5 -8t24 -20.5t11 -28t2.5 -31.5q0 -45 -28 -78.5t-79.5 -55.5t-125.5 -33t-165 -11q-107 0 -182.5 15
t-127 44.5t-81 71.5t-45 96.5t-20 120.5t-4.5 142q0 121 16.5 220t66.5 168.5t142 107.5t243 38q97 0 178 -16.5t141 -53t96.5 -94.5t46.5 -140q6 -58 -0.5 -104t-29 -81.5t-63.5 -60t-105 -38.5zM598 798q-76 0 -121.5 -16t-70.5 -46.5t-33.5 -76t-9.5 -105.5
q37 3 81.5 7.5t88 9.5t83.5 10t70 11q46 9 62 30.5t16 47.5q0 34 -13.5 58.5t-36 40t-52.5 22.5t-64 7zM710 1382q42 33 64 48.5t40 15.5q28 -1 50.5 -20t34 -45t9 -53.5t-23.5 -43.5l-188 -144q-21 -15 -35 -24t-26 -13.5t-26 -5.5t-35 -1h-2q-20 0 -34.5 1.5t-28.5 6
t-29.5 13.5t-35.5 23l-186 144q-21 16 -24 43t7.5 53.5t33 46t51.5 19.5q19 0 40.5 -16.5t63.5 -47.5l106 -96q8 -6 16 -9t14 -3q8 0 19.5 2t20.5 10z" />
    <glyph glyph-name="ecircumflex" unicode="&#xea;" horiz-adv-x="1098" 
d="M826 424q-48 -11 -105.5 -20.5t-118.5 -17.5t-122.5 -14.5t-116.5 -11.5q2 -34 11 -61t29 -46t55 -29t90 -10q59 0 108.5 6t90 13.5t72 14t55.5 6.5q25 0 40.5 -8t24 -20.5t11 -28t2.5 -31.5q0 -45 -28 -78.5t-79.5 -55.5t-125.5 -33t-165 -11q-107 0 -182.5 15
t-127 44.5t-81 71.5t-45 96.5t-20 120.5t-4.5 142q0 121 16.5 220t66.5 168.5t142 107.5t243 38q97 0 178 -16.5t141 -53t96.5 -94.5t46.5 -140q6 -58 -0.5 -104t-29 -81.5t-63.5 -60t-105 -38.5zM598 798q-76 0 -121.5 -16t-70.5 -46.5t-33.5 -76t-9.5 -105.5
q37 3 81.5 7.5t88 9.5t83.5 10t70 11q46 9 62 30.5t16 47.5q0 34 -13.5 58.5t-36 40t-52.5 22.5t-64 7zM606 1256q-9 8 -20.5 10t-19.5 2q-6 0 -14 -3t-16 -9l-106 -96q-42 -32 -63.5 -48t-40.5 -16q-29 0 -51.5 19.5t-33 46t-7.5 53.5t24 43l186 144q20 14 35.5 23
t29.5 13.5t28.5 6t34.5 1.5h2q21 0 35 -1.5t26 -6t26 -13t35 -23.5l188 -144q21 -17 23.5 -44t-9 -53t-34 -45t-50.5 -20q-18 0 -40 15.5t-64 48.5z" />
    <glyph glyph-name="edotaccent" unicode="&#x117;" horiz-adv-x="1098" 
d="M826 424q-48 -11 -105.5 -20.5t-118.5 -17.5t-122.5 -14.5t-116.5 -11.5q2 -34 11 -61t29 -46t55 -29t90 -10q59 0 108.5 6t90 13.5t72 14t55.5 6.5q25 0 40.5 -8t24 -20.5t11 -28t2.5 -31.5q0 -45 -28 -78.5t-79.5 -55.5t-125.5 -33t-165 -11q-107 0 -182.5 15
t-127 44.5t-81 71.5t-45 96.5t-20 120.5t-4.5 142q0 121 16.5 220t66.5 168.5t142 107.5t243 38q97 0 178 -16.5t141 -53t96.5 -94.5t46.5 -140q6 -58 -0.5 -104t-29 -81.5t-63.5 -60t-105 -38.5zM598 798q-76 0 -121.5 -16t-70.5 -46.5t-33.5 -76t-9.5 -105.5
q37 3 81.5 7.5t88 9.5t83.5 10t70 11q46 9 62 30.5t16 47.5q0 34 -13.5 58.5t-36 40t-52.5 22.5t-64 7zM436 1340q0 24 11.5 38t30.5 21.5t43 10t49 2.5q27 0 51.5 -2.5t43.5 -10t30 -22t11 -37.5v-130q0 -24 -11.5 -38.5t-30.5 -22t-43 -9.5t-49 -2q-27 0 -51.5 2.5
t-43.5 10t-30 22t-11 37.5v130z" />
    <glyph glyph-name="egrave" unicode="&#xe8;" horiz-adv-x="1098" 
d="M826 424q-48 -11 -105.5 -20.5t-118.5 -17.5t-122.5 -14.5t-116.5 -11.5q2 -34 11 -61t29 -46t55 -29t90 -10q59 0 108.5 6t90 13.5t72 14t55.5 6.5q25 0 40.5 -8t24 -20.5t11 -28t2.5 -31.5q0 -45 -28 -78.5t-79.5 -55.5t-125.5 -33t-165 -11q-107 0 -182.5 15
t-127 44.5t-81 71.5t-45 96.5t-20 120.5t-4.5 142q0 121 16.5 220t66.5 168.5t142 107.5t243 38q97 0 178 -16.5t141 -53t96.5 -94.5t46.5 -140q6 -58 -0.5 -104t-29 -81.5t-63.5 -60t-105 -38.5zM598 798q-76 0 -121.5 -16t-70.5 -46.5t-33.5 -76t-9.5 -105.5
q37 3 81.5 7.5t88 9.5t83.5 10t70 11q46 9 62 30.5t16 47.5q0 34 -13.5 58.5t-36 40t-52.5 22.5t-64 7zM698 1188q10 -22 3 -38.5t-25 -27.5t-43.5 -16.5t-52.5 -5.5q-25 0 -45.5 0.5t-38.5 6.5t-32.5 20t-27.5 41l-72 158q-11 23 -2 39.5t28.5 27t47 15t54.5 4.5
q25 0 44.5 -1t35 -7t28.5 -19t24 -37z" />
    <glyph glyph-name="ebreve" unicode="&#x115;" horiz-adv-x="1098" 
d="M826 424q-48 -11 -105.5 -20.5t-118.5 -17.5t-122.5 -14.5t-116.5 -11.5q2 -34 11 -61t29 -46t55 -29t90 -10q59 0 108.5 6t90 13.5t72 14t55.5 6.5q25 0 40.5 -8t24 -20.5t11 -28t2.5 -31.5q0 -45 -28 -78.5t-79.5 -55.5t-125.5 -33t-165 -11q-107 0 -182.5 15
t-127 44.5t-81 71.5t-45 96.5t-20 120.5t-4.5 142q0 121 16.5 220t66.5 168.5t142 107.5t243 38q97 0 178 -16.5t141 -53t96.5 -94.5t46.5 -140q6 -58 -0.5 -104t-29 -81.5t-63.5 -60t-105 -38.5zM598 798q-76 0 -121.5 -16t-70.5 -46.5t-33.5 -76t-9.5 -105.5
q37 3 81.5 7.5t88 9.5t83.5 10t70 11q46 9 62 30.5t16 47.5q0 34 -13.5 58.5t-36 40t-52.5 22.5t-64 7zM838 1358q0 -52 -11.5 -97.5t-42 -80t-83.5 -54.5t-136 -20t-134.5 20t-80 54.5t-38.5 80t-10 97.5v2q0 17 14.5 29t36 18t46.5 6.5t46.5 -5t36 -16t14.5 -26.5v-10
q0 -17 4.5 -34.5t13.5 -31.5t22.5 -23t31.5 -9h2q19 0 32.5 9t22.5 23t13 31.5t4 34.5v10q0 16 14.5 26.5t36.5 16t47 5t47 -6.5t36.5 -18t14.5 -29v-2z" />
    <glyph glyph-name="hbar" unicode="&#x127;" horiz-adv-x="1236" 
d="M398 60q0 -24 -11.5 -38.5t-30.5 -22t-43 -9.5t-49 -2q-27 0 -51.5 2.5t-43.5 10t-30 22t-11 37.5v1280q0 24 11.5 38t30.5 21.5t43 10t49 2.5q27 0 51.5 -2.5t43.5 -10t30 -22t11 -37.5v-364q57 17 132 26.5t172 9.5q112 0 183.5 -39.5t112 -111t55.5 -170.5t15 -217
v-414q0 -24 -11.5 -38.5t-30.5 -22t-43 -9.5t-49 -2q-27 0 -51.5 2.5t-43.5 10t-30 22t-11 37.5v460q0 66 -5.5 115.5t-23 82.5t-51 49.5t-88.5 16.5q-76 0 -121 -4.5t-69.5 -12t-32.5 -19t-9 -24.5v-17v-11v-636zM536.205 1082.97q47.7803 0 75.4629 -18.2139
t27.6826 -63.748q0 -25.8027 -4.17188 -42.499q-4.1709 -16.6963 -15.168 -26.9414t-30.7158 -14.4189q-19.7197 -4.1748 -50.0566 -4.1748h-430.784q-31.0947 0 -50.4346 4.1748q-19.3398 4.17383 -30.3369 14.4189t-15.1689 26.9414q-4.1709 16.6963 -4.1709 42.499
q0 45.5342 27.6826 63.748q27.6816 18.2139 75.4629 18.2139h424.717z" />
    <glyph glyph-name="hcircumflex" unicode="&#x125;" horiz-adv-x="1182" 
d="M398 60q0 -24 -11.5 -38.5t-30.5 -22t-43 -9.5t-49 -2q-27 0 -51.5 2.5t-43.5 10t-30 22t-11 37.5v1280q0 24 11.5 38t30.5 21.5t43 10t49 2.5q27 0 51.5 -2.5t43.5 -10t30 -22t11 -37.5v-364q57 17 132 26.5t172 9.5q112 0 183.5 -39.5t112 -111t55.5 -170.5t15 -217
v-414q0 -24 -11.5 -38.5t-30.5 -22t-43 -9.5t-49 -2q-27 0 -51.5 2.5t-43.5 10t-30 22t-11 37.5v460q0 66 -5.5 115.5t-23 82.5t-51 49.5t-88.5 16.5q-76 0 -121 -4.5t-69.5 -12t-32.5 -19t-9 -24.5v-17v-11v-636zM842 1253q-9 8 -20.5 10t-19.5 2q-6 0 -14 -3t-16 -9
l-106 -96q-42 -32 -63.5 -48t-40.5 -16q-29 0 -51.5 19.5t-33 46t-7.5 53.5t24 43l186 144q20 14 35.5 23t29.5 13.5t28.5 6t34.5 1.5h2q21 0 35 -1.5t26 -6t26 -13t35 -23.5l188 -144q21 -17 23.5 -44t-9 -53t-34 -45t-50.5 -20q-18 0 -40 15.5t-64 48.5z" />
    <glyph glyph-name="ae" unicode="&#xe6;" horiz-adv-x="1830" 
d="M774 18q-29 -5 -61 -10t-69 -9.5t-80 -7.5t-94 -3q-122 0 -194 37t-110.5 101.5t-50 151t-11.5 186.5v10q0 118 15 217t55.5 170.5t111.5 111t184 39.5q55 0 115.5 -3.5t120.5 -13.5t115.5 -27.5t100.5 -45.5q54 44 134.5 67t198.5 23q97 0 178 -16.5t141 -53t96.5 -94.5
t46.5 -140q6 -58 -0.5 -104t-29 -81.5t-63.5 -60t-105 -38.5q-49 -11 -108.5 -20.5t-122.5 -18t-125.5 -15t-118.5 -12.5v-13q5 -30 17 -54.5t35 -41.5t58 -26t87 -9q59 0 108.5 6t90 13.5t72 14t55.5 6.5q25 0 40.5 -8t24 -20.5t11 -28t2.5 -31.5q0 -45 -28 -78.5
t-79.5 -55.5t-125.5 -33t-165 -11q-76 0 -135.5 8t-105.5 22q-15 -9 -34.5 -15t-40 -9t-40 -4.5t-35.5 -1.5zM774 632q0 37 -9.5 65t-35 47.5t-70.5 29.5t-117 10q-56 0 -89 -16.5t-50.5 -49.5t-23 -82.5t-5.5 -115.5v-112q0 -50 5.5 -86.5t23 -60t50.5 -34.5t89 -11
q36 0 70 3t63 8t51.5 11.5t35.5 13.5q5 2 7.5 4t4.5 4v372zM1291 798q-65 0 -109.5 -11.5t-73 -34.5t-43.5 -57t-21 -78v-64q37 3 82.5 7.5t91.5 9.5t88 10.5t73 11.5q46 9 62 30.5t16 47.5q0 34 -13.5 58.5t-36 40t-52.5 22.5t-64 7z" />
    <glyph glyph-name="aeacute" unicode="&#x1fd;" horiz-adv-x="1830" 
d="M893 1338q11 24 24 37t28.5 19t35 7t44.5 1q27 0 54.5 -4.5t47 -15t28 -27t-1.5 -39.5l-72 -158q-13 -27 -27.5 -41t-32.5 -20t-38.5 -6.5t-45.5 -0.5q-27 0 -52.5 5.5t-43.5 16.5t-25 27.5t3 38.5zM774 18q-29 -5 -61 -10t-69 -9.5t-80 -7.5t-94 -3q-122 0 -194 37
t-110.5 101.5t-50 151t-11.5 186.5v10q0 118 15 217t55.5 170.5t111.5 111t184 39.5q55 0 115.5 -3.5t120.5 -13.5t115.5 -27.5t100.5 -45.5q54 44 134.5 67t198.5 23q97 0 178 -16.5t141 -53t96.5 -94.5t46.5 -140q6 -58 -0.5 -104t-29 -81.5t-63.5 -60t-105 -38.5
q-49 -11 -108.5 -20.5t-122.5 -18t-125.5 -15t-118.5 -12.5v-13q5 -30 17 -54.5t35 -41.5t58 -26t87 -9q59 0 108.5 6t90 13.5t72 14t55.5 6.5q25 0 40.5 -8t24 -20.5t11 -28t2.5 -31.5q0 -45 -28 -78.5t-79.5 -55.5t-125.5 -33t-165 -11q-76 0 -135.5 8t-105.5 22
q-15 -9 -34.5 -15t-40 -9t-40 -4.5t-35.5 -1.5zM774 632q0 37 -9.5 65t-35 47.5t-70.5 29.5t-117 10q-56 0 -89 -16.5t-50.5 -49.5t-23 -82.5t-5.5 -115.5v-112q0 -50 5.5 -86.5t23 -60t50.5 -34.5t89 -11q36 0 70 3t63 8t51.5 11.5t35.5 13.5q5 2 7.5 4t4.5 4v372z
M1291 798q-65 0 -109.5 -11.5t-73 -34.5t-43.5 -57t-21 -78v-64q37 3 82.5 7.5t91.5 9.5t88 10.5t73 11.5q46 9 62 30.5t16 47.5q0 34 -13.5 58.5t-36 40t-52.5 22.5t-64 7z" />
    <glyph glyph-name="ibreve" unicode="&#x12d;" horiz-adv-x="527" 
d="M428 60q0 -24 -11.5 -38.5t-30.5 -22t-43 -9.5t-49 -2q-27 0 -51.5 2.5t-43.5 10t-30 22t-11 37.5v880q0 24 11.5 38t30.5 21.5t43 10t49 2.5q27 0 51.5 -2.5t43.5 -10t30 -22t11 -37.5v-880zM563 1358q0 -52 -11.5 -97.5t-42 -80t-83.5 -54.5t-136 -20t-134.5 20
t-80 54.5t-38.5 80t-10 97.5v2q0 17 14.5 29t36 18t46.5 6.5t46.5 -5t36 -16t14.5 -26.5v-10q0 -17 4.5 -34.5t13.5 -31.5t22.5 -23t31.5 -9h2q19 0 32.5 9t22.5 23t13 31.5t4 34.5v10q0 16 14.5 26.5t36.5 16t47 5t47 -6.5t36.5 -18t14.5 -29v-2z" />
    <glyph glyph-name="ij" unicode="&#x133;" horiz-adv-x="1112" 
d="M397 60q0 -24 -11.5 -38.5t-30.5 -22t-43 -9.5t-49 -2q-27 0 -51.5 2.5t-43.5 10t-30 22t-11 37.5v880q0 24 11.5 38t30.5 21.5t43 10t49 2.5q27 0 51.5 -2.5t43.5 -10t30 -22t11 -37.5v-880zM127 1340q0 24 11.5 38t30.5 21.5t43 10t49 2.5q27 0 51.5 -2.5t43.5 -10
t30 -22t11 -37.5v-130q0 -24 -11.5 -38.5t-30.5 -22t-43 -9.5t-49 -2q-27 0 -51.5 2.5t-43.5 10t-30 22t-11 37.5v130zM654 1340q0 24 11.5 38t30.5 21.5t43 10t49 2.5q27 0 51.5 -2.5t43.5 -10t30 -22t11 -37.5v-130q0 -24 -11.5 -38.5t-30.5 -22t-43 -9.5t-49 -2
q-27 0 -51.5 2.5t-43.5 10t-30 22t-11 37.5v130zM924 -388q0 -29 -20 -46.5t-48.5 -27t-61.5 -13t-58 -3.5q-19 0 -34 2.5t-25.5 9.5t-16.5 19.5t-6 32.5v1354q0 24 11.5 38t30.5 21.5t43 10t49 2.5q27 0 51.5 -2.5t43.5 -10t30 -22t11 -37.5v-1328z" />
    <glyph glyph-name="itilde" unicode="&#x129;" horiz-adv-x="527" 
d="M428 60q0 -24 -11.5 -38.5t-30.5 -22t-43 -9.5t-49 -2q-27 0 -51.5 2.5t-43.5 10t-30 22t-11 37.5v880q0 24 11.5 38t30.5 21.5t43 10t49 2.5q27 0 51.5 -2.5t43.5 -10t30 -22t11 -37.5v-880zM365 1328q17 -17 30 -24t28 -2.5t34.5 21.5t51.5 49l8 10q10 9 27.5 6
t36.5 -14.5t38 -28t32 -34.5t17 -34t-5 -25q-68 -68 -127.5 -108.5t-113 -52.5t-102.5 5.5t-97 65.5q-17 17 -30.5 24t-28.5 2t-34.5 -23t-50.5 -49l-10 -8q-9 -10 -26.5 -6.5t-36.5 15t-38 28t-32 34t-17.5 33t4.5 24.5q68 68 127.5 109t113.5 53t103.5 -5t97.5 -65z" />
    <glyph glyph-name="iogonek" unicode="&#x12f;" horiz-adv-x="586" 
d="M397 60q0 -24 -11.5 -38.5t-30.5 -22t-43 -9.5t-49 -2q-27 0 -51.5 2.5t-43.5 10t-30 22t-11 37.5v880q0 24 11.5 38t30.5 21.5t43 10t49 2.5q27 0 51.5 -2.5t43.5 -10t30 -22t11 -37.5v-880zM127 1340q0 24 11.5 38t30.5 21.5t43 10t49 2.5q27 0 51.5 -2.5t43.5 -10
t30 -22t11 -37.5v-130q0 -24 -11.5 -38.5t-30.5 -22t-43 -9.5t-49 -2q-27 0 -51.5 2.5t-43.5 10t-30 22t-11 37.5v130zM315 -24q-29 -25 -58.5 -50.5t-58.5 -51.5q-33 -27 -50.5 -55.5t-21.5 -52t4.5 -39.5t27.5 -20.5t48 6t65 41.5l18 14q10 9 22.5 2t25 -23t22.5 -38
t15.5 -44t4.5 -40.5t-11 -26.5q-90 -76 -170.5 -97t-142.5 -3t-101.5 66.5t-47.5 112t20 134t101 131.5l185 156q23 20 45 23t40 -5t30 -25t15.5 -37t-2.5 -41t-25 -37z" />
    <glyph glyph-name="imacron" unicode="&#x12b;" horiz-adv-x="527" 
d="M428 60q0 -24 -11.5 -38.5t-30.5 -22t-43 -9.5t-49 -2q-27 0 -51.5 2.5t-43.5 10t-30 22t-11 37.5v880q0 24 11.5 38t30.5 21.5t43 10t49 2.5q27 0 51.5 -2.5t43.5 -10t30 -22t11 -37.5v-880zM579 1402q63 0 99.5 -24t36.5 -84q0 -34 -5.5 -56t-20 -35.5t-40.5 -19
t-66 -5.5h-568q-41 0 -66.5 5.5t-40 19t-20 35.5t-5.5 56q0 60 36.5 84t99.5 24h560z" />
    <glyph glyph-name="igrave" unicode="&#xec;" horiz-adv-x="527" 
d="M428 60q0 -24 -11.5 -38.5t-30.5 -22t-43 -9.5t-49 -2q-27 0 -51.5 2.5t-43.5 10t-30 22t-11 37.5v880q0 24 11.5 38t30.5 21.5t43 10t49 2.5q27 0 51.5 -2.5t43.5 -10t30 -22t11 -37.5v-880zM420 1188q10 -22 3 -38.5t-25 -27.5t-43.5 -16.5t-52.5 -5.5q-25 0 -45.5 0.5
t-38.5 6.5t-32.5 20t-27.5 41l-72 158q-11 23 -2 39.5t28.5 27t47 15t54.5 4.5q25 0 44.5 -1t35 -7t28.5 -19t24 -37z" />
    <glyph glyph-name="idieresis" unicode="&#xef;" horiz-adv-x="527" 
d="M428 60q0 -24 -11.5 -38.5t-30.5 -22t-43 -9.5t-49 -2q-27 0 -51.5 2.5t-43.5 10t-30 22t-11 37.5v880q0 24 11.5 38t30.5 21.5t43 10t49 2.5q27 0 51.5 -2.5t43.5 -10t30 -22t11 -37.5v-880zM-49 1336q0 22 11 35.5t29 21t40.5 9.5t45.5 2q25 0 48.5 -2.5t41 -9.5
t28 -20.5t10.5 -35.5v-122q0 -23 -11 -36t-29 -20.5t-40.5 -9.5t-45.5 -2q-26 0 -49 2.5t-40.5 9.5t-28 20.5t-10.5 35.5v122zM347 1336q0 22 11 35.5t29 21t40.5 9.5t45.5 2q25 0 48.5 -2.5t41 -9.5t28 -20.5t10.5 -35.5v-122q0 -23 -11 -36t-29 -20.5t-40.5 -9.5t-45.5 -2
q-26 0 -49 2.5t-40.5 9.5t-28 20.5t-10.5 35.5v122z" />
    <glyph glyph-name="icircumflex" unicode="&#xee;" horiz-adv-x="527" 
d="M428 60q0 -24 -11.5 -38.5t-30.5 -22t-43 -9.5t-49 -2q-27 0 -51.5 2.5t-43.5 10t-30 22t-11 37.5v880q0 24 11.5 38t30.5 21.5t43 10t49 2.5q27 0 51.5 -2.5t43.5 -10t30 -22t11 -37.5v-880zM329 1256q-9 8 -20.5 10t-19.5 2q-6 0 -14 -3t-16 -9l-106 -96
q-42 -32 -63.5 -48t-40.5 -16q-29 0 -51.5 19.5t-33 46t-7.5 53.5t24 43l186 144q20 14 35.5 23t29.5 13.5t28.5 6t34.5 1.5h2q21 0 35 -1.5t26 -6t26 -13t35 -23.5l188 -144q21 -17 23.5 -44t-9 -53t-34 -45t-50.5 -20q-18 0 -40 15.5t-64 48.5z" />
    <glyph glyph-name="kcommaaccent" unicode="&#x137;" horiz-adv-x="1092" 
d="M398 60q0 -24 -11.5 -38.5t-30.5 -22t-43 -9.5t-49 -2q-27 0 -51.5 2.5t-43.5 10t-30 22t-11 37.5v1280q0 24 11.5 38t30.5 21.5t43 10t49 2.5q27 0 51.5 -2.5t43.5 -10t30 -22t11 -37.5v-1280zM970 228q34 -26 53 -44.5t27.5 -33t10 -27.5t1.5 -29q0 -32 -9.5 -52.5
t-24.5 -32.5t-34 -16.5t-38 -4.5q-53 0 -98.5 17.5t-87.5 52.5l-236 212q-32 26 -49.5 50.5t-26 49.5t-10.5 52.5t-2 59.5v36q0 32 2 59.5t10.5 52.5t26 49.5t49.5 50.5l236 212q42 35 87.5 52.5t98.5 17.5q19 0 38 -4.5t34 -16.5t24.5 -32.5t9.5 -52.5q0 -16 -1.5 -29
t-10 -27.5t-27.5 -33t-53 -44.5l-268 -226q-11 -8 -15 -21.5t-5 -22.5q0 -8 4 -23.5t16 -24.5zM692 1454q11 24 24 37t28.5 19t35 7t44.5 1q27 0 54.5 -4.5t47 -15t28 -27t-1.5 -39.5l-120 -248q-13 -27 -27.5 -41t-32.5 -20t-38.5 -6.5t-45.5 -0.5q-27 0 -52.5 5.5
t-43.5 16.5t-25 27.5t3 38.5z" />
    <glyph glyph-name="kgreenlandic" unicode="&#x138;" horiz-adv-x="1092" 
d="M398 60q0 -24 -11.5 -38.5t-30.5 -22t-43 -9.5t-49 -2q-27 0 -51.5 2.5t-43.5 10t-30 22t-11 37.5v1280q0 24 11.5 38t30.5 21.5t43 10t49 2.5q27 0 51.5 -2.5t43.5 -10t30 -22t11 -37.5v-1280zM970 228q34 -26 53 -44.5t27.5 -33t10 -27.5t1.5 -29q0 -32 -9.5 -52.5
t-24.5 -32.5t-34 -16.5t-38 -4.5q-53 0 -98.5 17.5t-87.5 52.5l-236 212q-32 26 -49.5 50.5t-26 49.5t-10.5 52.5t-2 59.5v36q0 32 2 59.5t10.5 52.5t26 49.5t49.5 50.5l236 212q42 35 87.5 52.5t98.5 17.5q19 0 38 -4.5t34 -16.5t24.5 -32.5t9.5 -52.5q0 -16 -1.5 -29
t-10 -27.5t-27.5 -33t-53 -44.5l-268 -226q-11 -8 -15 -21.5t-5 -22.5q0 -8 4 -23.5t16 -24.5z" />
    <glyph glyph-name="lacute" unicode="&#x13a;" horiz-adv-x="524" 
d="M390 60q0 -24 -11.5 -38.5t-30.5 -22t-43 -9.5t-49 -2q-27 0 -51.5 2.5t-43.5 10t-30 22t-11 37.5v1280q0 22 4.5 36.5t15 22t28.5 10.5t46 3q20 0 50 -3.5t58 -13.5t48 -27t20 -44v-1264zM240 1737q11 24 24 37t28.5 19t35 7t44.5 1q27 0 54.5 -4.5t47 -15t28 -27
t-1.5 -39.5l-72 -158q-13 -27 -27.5 -41t-32.5 -20t-38.5 -6.5t-45.5 -0.5q-27 0 -52.5 5.5t-43.5 16.5t-25 27.5t3 38.5z" />
    <glyph glyph-name="lcaron" unicode="&#x13e;" horiz-adv-x="586" 
d="M390 60q0 -24 -11.5 -38.5t-30.5 -22t-43 -9.5t-49 -2q-27 0 -51.5 2.5t-43.5 10t-30 22t-11 37.5v1280q0 22 4.5 36.5t15 22t28.5 10.5t46 3q20 0 50 -3.5t58 -13.5t48 -27t20 -44v-1264zM286 1854q11 24 24 37t28.5 19t35 7t44.5 1q27 0 54.5 -4.5t47 -15t28 -27
t-1.5 -39.5l-120 -248q-13 -27 -27.5 -41t-32.5 -20t-38.5 -6.5t-45.5 -0.5q-27 0 -52.5 5.5t-43.5 16.5t-25 27.5t3 38.5z" />
    <glyph glyph-name="ldot" unicode="&#x140;" horiz-adv-x="676" 
d="M390 60q0 -24 -11.5 -38.5t-30.5 -22t-43 -9.5t-49 -2q-27 0 -51.5 2.5t-43.5 10t-30 22t-11 37.5v1280q0 22 4.5 36.5t15 22t28.5 10.5t46 3q20 0 50 -3.5t58 -13.5t48 -27t20 -44v-1264zM466 617q0 24 11.5 38t30.5 21.5t43 10t49 2.5q27 0 51.5 -2.5t43.5 -10t30 -22
t11 -37.5v-146q0 -24 -11.5 -38.5t-30.5 -22t-43 -9.5t-49 -2q-27 0 -51.5 2.5t-43.5 10t-30 22t-11 37.5v146z" />
    <glyph glyph-name="lcommaaccent" unicode="&#x13c;" horiz-adv-x="524" 
d="M390 60q0 -24 -11.5 -38.5t-30.5 -22t-43 -9.5t-49 -2q-27 0 -51.5 2.5t-43.5 10t-30 22t-11 37.5v1280q0 22 4.5 36.5t15 22t28.5 10.5t46 3q20 0 50 -3.5t58 -13.5t48 -27t20 -44v-1264zM284 1827q11 24 24 37t28.5 19t35 7t44.5 1q27 0 54.5 -4.5t47 -15t28 -27
t-1.5 -39.5l-120 -248q-13 -27 -27.5 -41t-32.5 -20t-38.5 -6.5t-45.5 -0.5q-27 0 -52.5 5.5t-43.5 16.5t-25 27.5t3 38.5z" />
    <glyph glyph-name="lslash" unicode="&#x142;" horiz-adv-x="586" 
d="M490 912q54 34 85.5 29.5t31.5 -64.5q0 -34 -4.5 -59t-17 -46.5t-34.5 -40.5t-57 -41l-394 -250q-35 -21 -56.5 -29.5t-34.5 -3t-17.5 25t-4.5 52.5q0 60 31.5 103.5t85.5 77.5zM389 60q0 -24 -11.5 -38.5t-30.5 -22t-43 -9.5t-49 -2q-27 0 -51.5 2.5t-43.5 10t-30 22
t-11 37.5v1280q0 22 4.5 36.5t15 22t28.5 10.5t46 3q20 0 50 -3.5t58 -13.5t48 -27t20 -44v-1264z" />
    <glyph glyph-name="gcommaaccent" unicode="&#x123;" horiz-adv-x="1138" 
d="M1054 -120q0 -93 -26.5 -158t-84 -106t-149.5 -59.5t-222 -18.5q-131 0 -222.5 18.5t-149 59.5t-84 106t-26.5 158q0 80 19.5 139t61.5 100t108 64.5t159 32.5v115q-93 9 -159 33t-108 65t-61.5 100t-19.5 139t19.5 139t61.5 100t108 64.5t159 32.5v42q0 23 11 38.5
t30 24.5t43.5 13t51.5 4q25 0 49 -3.5t43 -12.5t30.5 -24.5t11.5 -39.5v-42q93 -9 158.5 -33t107 -64.5t61 -100t19.5 -138.5q0 -80 -19.5 -139t-61 -100t-107 -64.5t-158.5 -32.5v-116q93 -9 158.5 -33t107 -64.5t61 -100t19.5 -138.5zM780 668q0 69 -51 98.5t-157 29.5
q-60 0 -100 -7t-64 -22.5t-34 -40t-10 -58.5q0 -35 10 -59t34 -39.5t64 -22.5t100 -7t100 7t64 22.5t34 39.5t10 59zM780 -120q0 69 -51 98.5t-157 29.5q-60 0 -100 -7t-64 -22.5t-34 -40t-10 -58.5q0 -35 10 -59t34 -39.5t64 -22.5t100 -7t100 7t64 22.5t34 39.5t10 59z
M587 1542q11 24 24 37t28.5 19t35 7t44.5 1q27 0 54.5 -4.5t47 -15t28 -27t-1.5 -39.5l-120 -248q-13 -27 -27.5 -41t-32.5 -20t-38.5 -6.5t-45.5 -0.5q-27 0 -52.5 5.5t-43.5 16.5t-25 27.5t3 38.5z" />
    <glyph glyph-name="aacute" unicode="&#xe1;" 
d="M764 18q-29 -5 -61 -10t-69 -9.5t-80 -7.5t-94 -3q-122 0 -194 37t-110.5 101.5t-50 151t-11.5 186.5v10q0 118 15 217t55.5 170.5t111.5 111t184 39.5q59 0 124.5 -4.5t129 -16t122 -32.5t102.5 -54t70 -80t26 -111v-636q0 -29 -20 -46.5t-48.5 -27t-61.5 -13t-58 -3.5z
M764 632q0 37 -9.5 65t-35 47.5t-70.5 29.5t-117 10q-56 0 -89 -16.5t-50.5 -49.5t-23 -82.5t-5.5 -115.5v-112q0 -50 5.5 -86.5t23 -60t50.5 -34.5t89 -11q36 0 70 3t63 8t51.5 11.5t35.5 13.5q5 2 7.5 4t4.5 4v372zM502 1338q11 24 24 37t28.5 19t35 7t44.5 1
q27 0 54.5 -4.5t47 -15t28 -27t-1.5 -39.5l-72 -158q-13 -27 -27.5 -41t-32.5 -20t-38.5 -6.5t-45.5 -0.5q-27 0 -52.5 5.5t-43.5 16.5t-25 27.5t3 38.5z" />
    <glyph glyph-name="abreve" unicode="&#x103;" 
d="M764 18q-29 -5 -61 -10t-69 -9.5t-80 -7.5t-94 -3q-122 0 -194 37t-110.5 101.5t-50 151t-11.5 186.5v10q0 118 15 217t55.5 170.5t111.5 111t184 39.5q59 0 124.5 -4.5t129 -16t122 -32.5t102.5 -54t70 -80t26 -111v-636q0 -29 -20 -46.5t-48.5 -27t-61.5 -13t-58 -3.5z
M764 632q0 37 -9.5 65t-35 47.5t-70.5 29.5t-117 10q-56 0 -89 -16.5t-50.5 -49.5t-23 -82.5t-5.5 -115.5v-112q0 -50 5.5 -86.5t23 -60t50.5 -34.5t89 -11q36 0 70 3t63 8t51.5 11.5t35.5 13.5q5 2 7.5 4t4.5 4v372zM864 1358q0 -52 -11.5 -97.5t-42 -80t-83.5 -54.5
t-136 -20t-134.5 20t-80 54.5t-38.5 80t-10 97.5v2q0 17 14.5 29t36 18t46.5 6.5t46.5 -5t36 -16t14.5 -26.5v-10q0 -17 4.5 -34.5t13.5 -31.5t22.5 -23t31.5 -9h2q19 0 32.5 9t22.5 23t13 31.5t4 34.5v10q0 16 14.5 26.5t36.5 16t47 5t47 -6.5t36.5 -18t14.5 -29v-2z" />
    <glyph glyph-name="acircumflex" unicode="&#xe2;" 
d="M764 18q-29 -5 -61 -10t-69 -9.5t-80 -7.5t-94 -3q-122 0 -194 37t-110.5 101.5t-50 151t-11.5 186.5v10q0 118 15 217t55.5 170.5t111.5 111t184 39.5q59 0 124.5 -4.5t129 -16t122 -32.5t102.5 -54t70 -80t26 -111v-636q0 -29 -20 -46.5t-48.5 -27t-61.5 -13t-58 -3.5z
M764 632q0 37 -9.5 65t-35 47.5t-70.5 29.5t-117 10q-56 0 -89 -16.5t-50.5 -49.5t-23 -82.5t-5.5 -115.5v-112q0 -50 5.5 -86.5t23 -60t50.5 -34.5t89 -11q36 0 70 3t63 8t51.5 11.5t35.5 13.5q5 2 7.5 4t4.5 4v372zM630 1256q-9 8 -20.5 10t-19.5 2q-6 0 -14 -3t-16 -9
l-106 -96q-42 -32 -63.5 -48t-40.5 -16q-29 0 -51.5 19.5t-33 46t-7.5 53.5t24 43l186 144q20 14 35.5 23t29.5 13.5t28.5 6t34.5 1.5h2q21 0 35 -1.5t26 -6t26 -13t35 -23.5l188 -144q21 -17 23.5 -44t-9 -53t-34 -45t-50.5 -20q-18 0 -40 15.5t-64 48.5z" />
    <glyph glyph-name="adieresis" unicode="&#xe4;" 
d="M764 18q-29 -5 -61 -10t-69 -9.5t-80 -7.5t-94 -3q-122 0 -194 37t-110.5 101.5t-50 151t-11.5 186.5v10q0 118 15 217t55.5 170.5t111.5 111t184 39.5q59 0 124.5 -4.5t129 -16t122 -32.5t102.5 -54t70 -80t26 -111v-636q0 -29 -20 -46.5t-48.5 -27t-61.5 -13t-58 -3.5z
M764 632q0 37 -9.5 65t-35 47.5t-70.5 29.5t-117 10q-56 0 -89 -16.5t-50.5 -49.5t-23 -82.5t-5.5 -115.5v-112q0 -50 5.5 -86.5t23 -60t50.5 -34.5t89 -11q36 0 70 3t63 8t51.5 11.5t35.5 13.5q5 2 7.5 4t4.5 4v372zM262 1332q0 22 11 35.5t29 21t40.5 9.5t45.5 2
q25 0 48.5 -2.5t41 -9.5t28 -20.5t10.5 -35.5v-122q0 -23 -11 -36t-29 -20.5t-40.5 -9.5t-45.5 -2q-26 0 -49 2.5t-40.5 9.5t-28 20.5t-10.5 35.5v122zM658 1332q0 22 11 35.5t29 21t40.5 9.5t45.5 2q25 0 48.5 -2.5t41 -9.5t28 -20.5t10.5 -35.5v-122q0 -23 -11 -36
t-29 -20.5t-40.5 -9.5t-45.5 -2q-26 0 -49 2.5t-40.5 9.5t-28 20.5t-10.5 35.5v122z" />
    <glyph glyph-name="agrave" unicode="&#xe0;" 
d="M764 18q-29 -5 -61 -10t-69 -9.5t-80 -7.5t-94 -3q-122 0 -194 37t-110.5 101.5t-50 151t-11.5 186.5v10q0 118 15 217t55.5 170.5t111.5 111t184 39.5q59 0 124.5 -4.5t129 -16t122 -32.5t102.5 -54t70 -80t26 -111v-636q0 -29 -20 -46.5t-48.5 -27t-61.5 -13t-58 -3.5z
M764 632q0 37 -9.5 65t-35 47.5t-70.5 29.5t-117 10q-56 0 -89 -16.5t-50.5 -49.5t-23 -82.5t-5.5 -115.5v-112q0 -50 5.5 -86.5t23 -60t50.5 -34.5t89 -11q36 0 70 3t63 8t51.5 11.5t35.5 13.5q5 2 7.5 4t4.5 4v372zM724 1188q10 -22 3 -38.5t-25 -27.5t-43.5 -16.5
t-52.5 -5.5q-25 0 -45.5 0.5t-38.5 6.5t-32.5 20t-27.5 41l-72 158q-11 23 -2 39.5t28.5 27t47 15t54.5 4.5q25 0 44.5 -1t35 -7t28.5 -19t24 -37z" />
    <glyph glyph-name="amacron" unicode="&#x101;" 
d="M764 18q-29 -5 -61 -10t-69 -9.5t-80 -7.5t-94 -3q-122 0 -194 37t-110.5 101.5t-50 151t-11.5 186.5v10q0 118 15 217t55.5 170.5t111.5 111t184 39.5q59 0 124.5 -4.5t129 -16t122 -32.5t102.5 -54t70 -80t26 -111v-636q0 -29 -20 -46.5t-48.5 -27t-61.5 -13t-58 -3.5z
M764 632q0 37 -9.5 65t-35 47.5t-70.5 29.5t-117 10q-56 0 -89 -16.5t-50.5 -49.5t-23 -82.5t-5.5 -115.5v-112q0 -50 5.5 -86.5t23 -60t50.5 -34.5t89 -11q36 0 70 3t63 8t51.5 11.5t35.5 13.5q5 2 7.5 4t4.5 4v372zM880 1402q63 0 99.5 -24t36.5 -84q0 -34 -5.5 -56
t-20 -35.5t-40.5 -19t-66 -5.5h-568q-41 0 -66.5 5.5t-40 19t-20 35.5t-5.5 56q0 60 36.5 84t99.5 24h560z" />
    <glyph glyph-name="aogonek" unicode="&#x105;" 
d="M764 18q-29 -5 -61 -10t-69 -9.5t-80 -7.5t-94 -3q-122 0 -194 37t-110.5 101.5t-50 151t-11.5 186.5v10q0 118 15 217t55.5 170.5t111.5 111t184 39.5q59 0 124.5 -4.5t129 -16t122 -32.5t102.5 -54t70 -80t26 -111v-636q0 -29 -20 -46.5t-48.5 -27t-61.5 -13t-58 -3.5z
M764 632q0 37 -9.5 65t-35 47.5t-70.5 29.5t-117 10q-56 0 -89 -16.5t-50.5 -49.5t-23 -82.5t-5.5 -115.5v-112q0 -50 5.5 -86.5t23 -60t50.5 -34.5t89 -11q36 0 70 3t63 8t51.5 11.5t35.5 13.5q5 2 7.5 4t4.5 4v372zM1013 13q-29 -25 -58.5 -50.5t-58.5 -51.5
q-33 -27 -50.5 -55.5t-21.5 -52t4.5 -39.5t27.5 -20.5t48 6t65 41.5l18 14q10 9 22.5 2t25 -23t22.5 -38t15.5 -44t4.5 -40.5t-11 -26.5q-90 -76 -170.5 -97t-142.5 -3t-101.5 66.5t-47.5 112t20 134t101 131.5l185 156q23 20 45 23t40 -5t30 -25t15.5 -37t-2.5 -41t-25 -37
z" />
    <glyph glyph-name="aring" unicode="&#xe5;" 
d="M764 18q-29 -5 -61 -10t-69 -9.5t-80 -7.5t-94 -3q-122 0 -194 37t-110.5 101.5t-50 151t-11.5 186.5v10q0 118 15 217t55.5 170.5t111.5 111t184 39.5q59 0 124.5 -4.5t129 -16t122 -32.5t102.5 -54t70 -80t26 -111v-636q0 -29 -20 -46.5t-48.5 -27t-61.5 -13t-58 -3.5z
M764 632q0 37 -9.5 65t-35 47.5t-70.5 29.5t-117 10q-56 0 -89 -16.5t-50.5 -49.5t-23 -82.5t-5.5 -115.5v-112q0 -50 5.5 -86.5t23 -60t50.5 -34.5t89 -11q36 0 70 3t63 8t51.5 11.5t35.5 13.5q5 2 7.5 4t4.5 4v372zM422 1288q0 54 14 86t37.5 49t54 22t64.5 5h2
q34 0 65.5 -5t55.5 -22t38.5 -49t14.5 -86v-2q0 -54 -14.5 -86t-38.5 -48.5t-55.5 -21t-65.5 -4.5h-2q-34 0 -64.5 4.5t-54 21t-37.5 48.5t-14 86v2zM546 1286q0 -24 10.5 -28t33.5 -4h8q20 0 31 4t11 28v4q0 23 -11 27.5t-31 4.5h-8q-23 0 -33.5 -4.5t-10.5 -27.5v-4z" />
    <glyph glyph-name="atilde" unicode="&#xe3;" 
d="M764 18q-29 -5 -61 -10t-69 -9.5t-80 -7.5t-94 -3q-122 0 -194 37t-110.5 101.5t-50 151t-11.5 186.5v10q0 118 15 217t55.5 170.5t111.5 111t184 39.5q59 0 124.5 -4.5t129 -16t122 -32.5t102.5 -54t70 -80t26 -111v-636q0 -29 -20 -46.5t-48.5 -27t-61.5 -13t-58 -3.5z
M764 632q0 37 -9.5 65t-35 47.5t-70.5 29.5t-117 10q-56 0 -89 -16.5t-50.5 -49.5t-23 -82.5t-5.5 -115.5v-112q0 -50 5.5 -86.5t23 -60t50.5 -34.5t89 -11q36 0 70 3t63 8t51.5 11.5t35.5 13.5q5 2 7.5 4t4.5 4v372zM666 1328q17 -17 30 -24t28 -2.5t34.5 21.5t51.5 49
l8 10q10 9 27.5 6t36.5 -14.5t38 -28t32 -34.5t17 -34t-5 -25q-68 -68 -127.5 -108.5t-113 -52.5t-102.5 5.5t-97 65.5q-17 17 -30.5 24t-28.5 2t-34.5 -23t-50.5 -49l-10 -8q-9 -10 -26.5 -6.5t-36.5 15t-38 28t-32 34t-17.5 33t4.5 24.5q68 68 127.5 109t113.5 53
t103.5 -5t97.5 -65z" />
    <glyph glyph-name="gbreve" unicode="&#x11f;" horiz-adv-x="1138" 
d="M1054 -120q0 -93 -26.5 -158t-84 -106t-149.5 -59.5t-222 -18.5q-131 0 -222.5 18.5t-149 59.5t-84 106t-26.5 158q0 80 19.5 139t61.5 100t108 64.5t159 32.5v115q-93 9 -159 33t-108 65t-61.5 100t-19.5 139t19.5 139t61.5 100t108 64.5t159 32.5v42q0 23 11 38.5
t30 24.5t43.5 13t51.5 4q25 0 49 -3.5t43 -12.5t30.5 -24.5t11.5 -39.5v-42q93 -9 158.5 -33t107 -64.5t61 -100t19.5 -138.5q0 -80 -19.5 -139t-61 -100t-107 -64.5t-158.5 -32.5v-116q93 -9 158.5 -33t107 -64.5t61 -100t19.5 -138.5zM780 668q0 69 -51 98.5t-157 29.5
q-60 0 -100 -7t-64 -22.5t-34 -40t-10 -58.5q0 -35 10 -59t34 -39.5t64 -22.5t100 -7t100 7t64 22.5t34 39.5t10 59zM780 -120q0 69 -51 98.5t-157 29.5q-60 0 -100 -7t-64 -22.5t-34 -40t-10 -58.5q0 -35 10 -59t34 -39.5t64 -22.5t100 -7t100 7t64 22.5t34 39.5t10 59z
M852 1460q0 -52 -11.5 -97.5t-42 -80t-83.5 -54.5t-136 -20t-134.5 20t-80 54.5t-38.5 80t-10 97.5v2q0 17 14.5 29t36 18t46.5 6.5t46.5 -5t36 -16t14.5 -26.5v-10q0 -17 4.5 -34.5t13.5 -31.5t22.5 -23t31.5 -9h2q19 0 32.5 9t22.5 23t13 31.5t4 34.5v10q0 16 14.5 26.5
t36.5 16t47 5t47 -6.5t36.5 -18t14.5 -29v-2z" />
    <glyph glyph-name="gcircumflex" unicode="&#x11d;" horiz-adv-x="1138" 
d="M1054 -120q0 -93 -26.5 -158t-84 -106t-149.5 -59.5t-222 -18.5q-131 0 -222.5 18.5t-149 59.5t-84 106t-26.5 158q0 80 19.5 139t61.5 100t108 64.5t159 32.5v115q-93 9 -159 33t-108 65t-61.5 100t-19.5 139t19.5 139t61.5 100t108 64.5t159 32.5v42q0 23 11 38.5
t30 24.5t43.5 13t51.5 4q25 0 49 -3.5t43 -12.5t30.5 -24.5t11.5 -39.5v-42q93 -9 158.5 -33t107 -64.5t61 -100t19.5 -138.5q0 -80 -19.5 -139t-61 -100t-107 -64.5t-158.5 -32.5v-116q93 -9 158.5 -33t107 -64.5t61 -100t19.5 -138.5zM780 668q0 69 -51 98.5t-157 29.5
q-60 0 -100 -7t-64 -22.5t-34 -40t-10 -58.5q0 -35 10 -59t34 -39.5t64 -22.5t100 -7t100 7t64 22.5t34 39.5t10 59zM780 -120q0 69 -51 98.5t-157 29.5q-60 0 -100 -7t-64 -22.5t-34 -40t-10 -58.5q0 -35 10 -59t34 -39.5t64 -22.5t100 -7t100 7t64 22.5t34 39.5t10 59z
M618 1306q-9 8 -20.5 10t-19.5 2q-6 0 -14 -3t-16 -9l-106 -96q-42 -32 -63.5 -48t-40.5 -16q-29 0 -51.5 19.5t-33 46t-7.5 53.5t24 43l186 144q20 14 35.5 23t29.5 13.5t28.5 6t34.5 1.5h2q21 0 35 -1.5t26 -6t26 -13t35 -23.5l188 -144q21 -17 23.5 -44t-9 -53t-34 -45
t-50.5 -20q-18 0 -40 15.5t-64 48.5z" />
    <glyph glyph-name="gdotaccent" unicode="&#x121;" horiz-adv-x="1138" 
d="M1054 -120q0 -93 -26.5 -158t-84 -106t-149.5 -59.5t-222 -18.5q-131 0 -222.5 18.5t-149 59.5t-84 106t-26.5 158q0 80 19.5 139t61.5 100t108 64.5t159 32.5v115q-93 9 -159 33t-108 65t-61.5 100t-19.5 139t19.5 139t61.5 100t108 64.5t159 32.5v42q0 23 11 38.5
t30 24.5t43.5 13t51.5 4q25 0 49 -3.5t43 -12.5t30.5 -24.5t11.5 -39.5v-42q93 -9 158.5 -33t107 -64.5t61 -100t19.5 -138.5q0 -80 -19.5 -139t-61 -100t-107 -64.5t-158.5 -32.5v-116q93 -9 158.5 -33t107 -64.5t61 -100t19.5 -138.5zM780 668q0 69 -51 98.5t-157 29.5
q-60 0 -100 -7t-64 -22.5t-34 -40t-10 -58.5q0 -35 10 -59t34 -39.5t64 -22.5t100 -7t100 7t64 22.5t34 39.5t10 59zM780 -120q0 69 -51 98.5t-157 29.5q-60 0 -100 -7t-64 -22.5t-34 -40t-10 -58.5q0 -35 10 -59t34 -39.5t64 -22.5t100 -7t100 7t64 22.5t34 39.5t10 59z
M448 1406q0 24 11.5 38t30.5 21.5t43 10t49 2.5q27 0 51.5 -2.5t43.5 -10t30 -22t11 -37.5v-130q0 -24 -11.5 -38.5t-30.5 -22t-43 -9.5t-49 -2q-27 0 -51.5 2.5t-43.5 10t-30 22t-11 37.5v130z" />
    <glyph glyph-name="oacute" unicode="&#xf3;" horiz-adv-x="1144" 
d="M569 -12q-107 0 -184 19t-130 53.5t-84.5 82t-49 104t-23 120.5t-5.5 131v4q0 67 5.5 131t23 120.5t49 104t84.5 82t130 53.5t184 19h6q107 0 184 -19t130 -53.5t84.5 -82t49 -104t23 -120.5t5.5 -131v-4q0 -67 -5.5 -131t-23 -120.5t-49 -104t-84.5 -82t-130 -53.5
t-184 -19h-6zM579 208q72 0 113 18.5t61 53t25 85t5 115.5v40q0 64 -5 115t-25 85.5t-61 53t-113 18.5h-14q-72 0 -113 -18.5t-61 -53t-25 -85.5t-5 -115v-40q0 -65 5 -115.5t25 -85t61 -53t113 -18.5h14zM489 1338q11 24 24 37t28.5 19t35 7t44.5 1q27 0 54.5 -4.5t47 -15
t28 -27t-1.5 -39.5l-72 -158q-13 -27 -27.5 -41t-32.5 -20t-38.5 -6.5t-45.5 -0.5q-27 0 -52.5 5.5t-43.5 16.5t-25 27.5t3 38.5z" />
    <glyph glyph-name="obreve" unicode="&#x14f;" horiz-adv-x="1144" 
d="M569 -12q-107 0 -184 19t-130 53.5t-84.5 82t-49 104t-23 120.5t-5.5 131v4q0 67 5.5 131t23 120.5t49 104t84.5 82t130 53.5t184 19h6q107 0 184 -19t130 -53.5t84.5 -82t49 -104t23 -120.5t5.5 -131v-4q0 -67 -5.5 -131t-23 -120.5t-49 -104t-84.5 -82t-130 -53.5
t-184 -19h-6zM579 208q72 0 113 18.5t61 53t25 85t5 115.5v40q0 64 -5 115t-25 85.5t-61 53t-113 18.5h-14q-72 0 -113 -18.5t-61 -53t-25 -85.5t-5 -115v-40q0 -65 5 -115.5t25 -85t61 -53t113 -18.5h14zM851 1358q0 -52 -11.5 -97.5t-42 -80t-83.5 -54.5t-136 -20
t-134.5 20t-80 54.5t-38.5 80t-10 97.5v2q0 17 14.5 29t36 18t46.5 6.5t46.5 -5t36 -16t14.5 -26.5v-10q0 -17 4.5 -34.5t13.5 -31.5t22.5 -23t31.5 -9h2q19 0 32.5 9t22.5 23t13 31.5t4 34.5v10q0 16 14.5 26.5t36.5 16t47 5t47 -6.5t36.5 -18t14.5 -29v-2z" />
    <glyph glyph-name="nacute" unicode="&#x144;" horiz-adv-x="1185" 
d="M398 60q0 -24 -11.5 -38.5t-30.5 -22t-43 -9.5t-49 -2q-27 0 -51.5 2.5t-43.5 10t-30 22t-11 37.5v772q0 88 142 134t432 46q112 0 183.5 -39.5t112 -111t55.5 -170.5t15 -217v-414q0 -24 -11.5 -38.5t-30.5 -22t-43 -9.5t-49 -2q-27 0 -51.5 2.5t-43.5 10t-30 22
t-11 37.5v460q0 66 -5.5 115.5t-23 82.5t-51 49.5t-88.5 16.5q-63 0 -104.5 -3t-67.5 -8.5t-38.5 -13.5t-17.5 -18t-4.5 -21.5t0.5 -23.5v-636zM629 1338q11 24 24 37t28.5 19t35 7t44.5 1q27 0 54.5 -4.5t47 -15t28 -27t-1.5 -39.5l-72 -158q-13 -27 -27.5 -41t-32.5 -20
t-38.5 -6.5t-45.5 -0.5q-27 0 -52.5 5.5t-43.5 16.5t-25 27.5t3 38.5z" />
    <glyph glyph-name="napostrophe" unicode="&#x149;" horiz-adv-x="1238" 
d="M398 60q0 -24 -11.5 -38.5t-30.5 -22t-43 -9.5t-49 -2q-27 0 -51.5 2.5t-43.5 10t-30 22t-11 37.5v772q0 88 142 134t432 46q112 0 183.5 -39.5t112 -111t55.5 -170.5t15 -217v-414q0 -24 -11.5 -38.5t-30.5 -22t-43 -9.5t-49 -2q-27 0 -51.5 2.5t-43.5 10t-30 22
t-11 37.5v460q0 66 -5.5 115.5t-23 82.5t-51 49.5t-88.5 16.5q-63 0 -104.5 -3t-67.5 -8.5t-38.5 -13.5t-17.5 -18t-4.5 -21.5t0.5 -23.5v-636zM116 1353q11 24 24 37t28.5 19t35 7t44.5 1q27 0 54.5 -4.5t47 -15t28 -27t-1.5 -39.5l-120 -248q-13 -27 -27.5 -41t-32.5 -20
t-38.5 -6.5t-45.5 -0.5q-27 0 -52.5 5.5t-43.5 16.5t-25 27.5t3 38.5z" />
    <glyph glyph-name="ncaron" unicode="&#x148;" horiz-adv-x="1185" 
d="M398 60q0 -24 -11.5 -38.5t-30.5 -22t-43 -9.5t-49 -2q-27 0 -51.5 2.5t-43.5 10t-30 22t-11 37.5v772q0 88 142 134t432 46q112 0 183.5 -39.5t112 -111t55.5 -170.5t15 -217v-414q0 -24 -11.5 -38.5t-30.5 -22t-43 -9.5t-49 -2q-27 0 -51.5 2.5t-43.5 10t-30 22
t-11 37.5v460q0 66 -5.5 115.5t-23 82.5t-51 49.5t-88.5 16.5q-63 0 -104.5 -3t-67.5 -8.5t-38.5 -13.5t-17.5 -18t-4.5 -21.5t0.5 -23.5v-636zM758 1382q42 33 64 48.5t40 15.5q28 -1 50.5 -20t34 -45t9 -53.5t-23.5 -43.5l-188 -144q-21 -15 -35 -24t-26 -13.5t-26 -5.5
t-35 -1h-2q-20 0 -34.5 1.5t-28.5 6t-29.5 13.5t-35.5 23l-186 144q-21 16 -24 43t7.5 53.5t33 46t51.5 19.5q19 0 40.5 -16.5t63.5 -47.5l106 -96q8 -6 16 -9t14 -3q8 0 19.5 2t20.5 10z" />
    <glyph glyph-name="ncommaaccent" unicode="&#x146;" horiz-adv-x="1185" 
d="M398 60q0 -24 -11.5 -38.5t-30.5 -22t-43 -9.5t-49 -2q-27 0 -51.5 2.5t-43.5 10t-30 22t-11 37.5v772q0 88 142 134t432 46q112 0 183.5 -39.5t112 -111t55.5 -170.5t15 -217v-414q0 -24 -11.5 -38.5t-30.5 -22t-43 -9.5t-49 -2q-27 0 -51.5 2.5t-43.5 10t-30 22
t-11 37.5v460q0 66 -5.5 115.5t-23 82.5t-51 49.5t-88.5 16.5q-63 0 -104.5 -3t-67.5 -8.5t-38.5 -13.5t-17.5 -18t-4.5 -21.5t0.5 -23.5v-636zM548 1444q11 24 24 37t28.5 19t35 7t44.5 1q27 0 54.5 -4.5t47 -15t28 -27t-1.5 -39.5l-120 -248q-13 -27 -27.5 -41t-32.5 -20
t-38.5 -6.5t-45.5 -0.5q-27 0 -52.5 5.5t-43.5 16.5t-25 27.5t3 38.5z" />
    <glyph glyph-name="ntilde" unicode="&#xf1;" horiz-adv-x="1185" 
d="M398 60q0 -24 -11.5 -38.5t-30.5 -22t-43 -9.5t-49 -2q-27 0 -51.5 2.5t-43.5 10t-30 22t-11 37.5v772q0 88 142 134t432 46q112 0 183.5 -39.5t112 -111t55.5 -170.5t15 -217v-414q0 -24 -11.5 -38.5t-30.5 -22t-43 -9.5t-49 -2q-27 0 -51.5 2.5t-43.5 10t-30 22
t-11 37.5v460q0 66 -5.5 115.5t-23 82.5t-51 49.5t-88.5 16.5q-63 0 -104.5 -3t-67.5 -8.5t-38.5 -13.5t-17.5 -18t-4.5 -21.5t0.5 -23.5v-636zM690 1328q17 -17 30 -24t28 -2.5t34.5 21.5t51.5 49l8 10q10 9 27.5 6t36.5 -14.5t38 -28t32 -34.5t17 -34t-5 -25
q-68 -68 -127.5 -108.5t-113 -52.5t-102.5 5.5t-97 65.5q-17 17 -30.5 24t-28.5 2t-34.5 -23t-50.5 -49l-10 -8q-9 -10 -26.5 -6.5t-36.5 15t-38 28t-32 34t-17.5 33t4.5 24.5q68 68 127.5 109t113.5 53t103.5 -5t97.5 -65z" />
    <glyph glyph-name="uacute" unicode="&#xfa;" horiz-adv-x="1170" 
d="M784 940q0 24 11.5 38t30.5 21.5t43 10t49 2.5q27 0 51.5 -2.5t43.5 -10t30 -22t11 -37.5v-792q0 -44 -35.5 -74.5t-107 -49.5t-179 -27.5t-252.5 -8.5q-113 0 -184 39.5t-111.5 111t-55.5 170t-15 217.5v414q0 24 11.5 38t30.5 21.5t43 10t49 2.5q27 0 51.5 -2.5
t43.5 -10t30 -22t11 -37.5v-460q0 -66 5.5 -115.5t23 -82.5t50.5 -49.5t89 -16.5q94 0 142.5 3.5t68 11.5t20.5 21t1 32v656zM526 1338q11 24 24 37t28.5 19t35 7t44.5 1q27 0 54.5 -4.5t47 -15t28 -27t-1.5 -39.5l-72 -158q-13 -27 -27.5 -41t-32.5 -20t-38.5 -6.5
t-45.5 -0.5q-27 0 -52.5 5.5t-43.5 16.5t-25 27.5t3 38.5z" />
    <glyph glyph-name="ubreve" unicode="&#x16d;" horiz-adv-x="1170" 
d="M784 940q0 24 11.5 38t30.5 21.5t43 10t49 2.5q27 0 51.5 -2.5t43.5 -10t30 -22t11 -37.5v-792q0 -44 -35.5 -74.5t-107 -49.5t-179 -27.5t-252.5 -8.5q-113 0 -184 39.5t-111.5 111t-55.5 170t-15 217.5v414q0 24 11.5 38t30.5 21.5t43 10t49 2.5q27 0 51.5 -2.5
t43.5 -10t30 -22t11 -37.5v-460q0 -66 5.5 -115.5t23 -82.5t50.5 -49.5t89 -16.5q94 0 142.5 3.5t68 11.5t20.5 21t1 32v656zM888 1358q0 -52 -11.5 -97.5t-42 -80t-83.5 -54.5t-136 -20t-134.5 20t-80 54.5t-38.5 80t-10 97.5v2q0 17 14.5 29t36 18t46.5 6.5t46.5 -5
t36 -16t14.5 -26.5v-10q0 -17 4.5 -34.5t13.5 -31.5t22.5 -23t31.5 -9h2q19 0 32.5 9t22.5 23t13 31.5t4 34.5v10q0 16 14.5 26.5t36.5 16t47 5t47 -6.5t36.5 -18t14.5 -29v-2z" />
    </font>
</defs>
</svg>
